<svg width="34" height="35" viewBox="0 0 34 35" fill="none" xmlns="http://www.w3.org/2000/svg">
<path d="M15.001 32.5V1.66667C15.001 0.746193 15.7472 0 16.6676 0C17.5881 0 18.3343 0.746193 18.3343 1.66667V32.5C18.3343 33.4205 17.5881 34.1667 16.6676 34.1667C15.7472 34.1667 15.001 33.4205 15.001 32.5Z" fill="#685F50"/>
<path d="M16.6675 5H29.6217L31.6675 8.33334L29.6217 11.6667H16.6675V5ZM16.6675 16.6667H3.71332L1.66748 20L3.71332 23.3334H16.6675V16.6667Z" fill="#685F50"/>
<path d="M16.6671 14.9999C17.5876 14.9999 18.3338 15.7461 18.3338 16.6666V23.3333C18.3338 24.2538 17.5876 24.9999 16.6671 24.9999H3.713C3.13363 24.9999 2.59525 24.6994 2.2921 24.2057L0.246201 20.8723C-0.082067 20.3375 -0.082067 19.6624 0.246201 19.1275L2.2921 15.7942C2.59525 15.3005 3.13363 14.9999 3.713 14.9999H16.6671ZM3.62186 19.9999L4.64562 21.6666H15.0005V18.3333H4.64562L3.62186 19.9999ZM29.6212 3.33325C30.2006 3.33325 30.739 3.63381 31.0421 4.12752L33.088 7.46086C33.4163 7.99572 33.4163 8.6708 33.088 9.20566L31.0421 12.539C30.739 13.0327 30.2006 13.3333 29.6212 13.3333H16.6671C15.7466 13.3333 15.0005 12.5871 15.0005 11.6666V4.99992C15.0005 4.07944 15.7466 3.33325 16.6671 3.33325H29.6212ZM18.3338 9.99993H28.6886L29.7108 8.33326L28.6886 6.66659H18.3338V9.99993Z" fill="#685F50"/>
<path d="M23.334 31.6667C24.2545 31.6667 25.0007 32.4129 25.0007 33.3334C25.0007 34.2539 24.2545 35.0001 23.334 35.0001H10.0007C9.08018 35.0001 8.33398 34.2539 8.33398 33.3334C8.33398 32.4129 9.08018 31.6667 10.0007 31.6667H23.334Z" fill="#685F50"/>
</svg>
