<svg width="1561" height="1287" viewBox="0 0 1561 1287" fill="none" xmlns="http://www.w3.org/2000/svg">
<path d="M1394.21 2.73657C1464.71 34.4032 1594.11 122.237 1547.71 220.237C1501.31 318.237 1319.71 338.737 1234.71 336.737H212.713C125.713 342.07 -36.2871 388.437 11.7129 531.237C71.7129 709.737 316.213 641.237 326.713 641.237C335.113 641.237 1023.88 667.57 1367.21 680.737C1406.05 691.737 1485.31 736.937 1491.71 829.737C1499.71 945.737 1332.21 1014.24 1290.71 987.237C1257.51 965.637 558.213 1004.57 212.713 1026.74C168.546 1019.07 69.4129 1023.24 26.2129 1101.24C-27.7871 1198.74 140.713 1287.74 150.713 1283.74" stroke="#F1D7AD" stroke-width="6" stroke-linejoin="round" stroke-dasharray="25 25"/>
</svg>
