<svg width="28" height="35" viewBox="0 0 28 35" fill="none" xmlns="http://www.w3.org/2000/svg">
<path fill-rule="evenodd" clip-rule="evenodd" d="M19.3961 4.99275C19.6041 4.21464 20.0227 3.50902 20.6059 2.95357C21.189 2.39811 21.9142 2.01437 22.7014 1.8446C23.4886 1.67482 24.3074 1.72559 25.0676 1.99131C25.8279 2.25704 26.5 2.72742 27.0101 3.35066C27.5202 3.9739 27.8485 4.72583 27.9588 5.52367C28.0691 6.32151 27.9571 7.13431 27.6351 7.87259C27.3132 8.61086 26.7939 9.24598 26.1342 9.70801C25.4746 10.17 24.7003 10.4411 23.8965 10.4913C24.2948 11.6181 24.4978 12.8048 24.4967 14V24.5H26.2464C27.2088 24.5 27.9962 25.2875 27.9962 26.25C27.9962 27.2125 27.2088 28 26.2464 28H19.2474V29.75C19.2474 31.1424 18.6943 32.4777 17.7099 33.4623C16.7255 34.4469 15.3903 35 13.9981 35C12.6059 35 11.2707 34.4469 10.2863 33.4623C9.30186 32.4777 8.74881 31.1424 8.74881 29.75V28H1.74976C0.787393 28 0 27.2125 0 26.25C0 25.2875 0.787393 24.5 1.74976 24.5H3.49953V14C3.49915 11.5184 4.37763 9.11679 5.97916 7.22128C7.58069 5.32578 9.80174 4.05886 12.2483 3.64525V1.75C12.2483 1.28587 12.4327 0.840752 12.7608 0.512563C13.089 0.184374 13.534 0 13.9981 0C14.4622 0 14.9072 0.184374 15.2354 0.512563C15.5635 0.840752 15.7479 1.28587 15.7479 1.75V3.64525C17.0372 3.86326 18.2746 4.32026 19.3961 4.99275ZM13.9981 31.5C14.4622 31.5 14.9072 31.3156 15.2354 30.9874C15.5635 30.6593 15.7479 30.2141 15.7479 29.75V28H12.2483V29.75C12.2483 30.2141 12.4327 30.6593 12.7608 30.9874C13.089 31.3156 13.534 31.5 13.9981 31.5ZM6.99905 24.5H20.9972V14C20.9972 12.1435 20.2598 10.363 18.9472 9.05025C17.6346 7.7375 15.8544 7 13.9981 7C12.1418 7 10.3616 7.7375 9.04903 9.05025C7.73645 10.363 6.99905 12.1435 6.99905 14V24.5Z" fill="#685F50"/>
</svg>
