<svg width="444" height="115" viewBox="0 0 444 115" fill="none" xmlns="http://www.w3.org/2000/svg">
<path d="M409.352 112.46C409.361 111.337 408.425 105.249 409.163 104.791C409.819 104.465 411.595 105.171 412.003 104.882C412.531 104.511 411.888 103.548 411.989 103.438C412.049 103.379 413.187 103.117 413.577 102.934C414.324 102.576 416.384 101.6 416.338 100.724L405.718 78.7741L404.971 79.1454C404.021 81.1442 403.204 83.2072 402.2 85.1785C401.126 87.2736 398.103 90.5468 400.002 92.8665C400.305 93.2379 401.021 93.4304 400.966 93.8293C400.457 95.3559 396.924 99.5048 396.8 100.706C396.64 102.283 399.356 102.627 400.544 102.558C400.025 103.943 400.351 105.68 402.076 105.648C401.947 106.592 401.814 112.387 401.397 112.648C397.121 112.602 392.814 112.813 388.538 112.69C379.235 112.419 369.904 111.021 360.592 110.691C351.279 110.361 342.898 111.213 334.049 111.14L333.595 92.0872C335.76 89.74 339.742 90.4689 341.875 88.2592C342.256 87.865 342.632 86.916 342.953 86.6959C343.375 86.4025 343.925 86.5722 344.192 86.3934C344.82 85.967 343.971 83.7069 344.178 82.9688L358.399 84.2708C358.738 84.257 359.151 83.9178 359.119 83.5602L347.049 60.8536C348.293 60.9773 353.275 62.504 354.1 61.963C354.325 61.8163 354.357 61.5871 354.279 61.3441L341.765 37.0834C341.696 36.7808 341.779 36.6708 342.086 36.7624C342.595 36.9137 343.32 37.473 344.013 37.6977C344.939 38.0048 348.082 38.9217 348.816 38.422C349.091 38.234 349.063 37.8673 348.985 37.5831C342.389 25.6452 336.517 13.3177 331.232 0.738088L330.415 0L311.845 37.5831C311.653 38.5825 313.139 38.3441 313.878 38.2753C315.768 38.1011 317.47 37.0375 319.295 36.6524L306.565 61.3533C306.487 61.5962 306.515 61.8255 306.744 61.9722C307.653 62.5636 313.057 60.9453 314.46 61.0828L303.01 84.4221L303.377 84.9263C308.185 84.6375 312.96 83.661 317.763 83.2026C317.791 83.8948 316.938 86.2283 317.529 86.6272C317.869 86.8564 318.511 86.5951 318.823 86.7647C318.938 86.8289 319.906 88.548 320.291 88.9285C321.144 89.7675 322.181 90.0242 323.305 90.3176C324.571 90.6477 327.461 90.6569 327.686 92.321C328.094 95.3513 327.544 99.569 327.447 102.663C327.36 105.414 327.461 108.179 327.236 110.925C316.896 110.379 306.625 108.761 296.294 108.064C290.312 107.66 284.339 107.683 278.348 107.404L277.903 95.8969C278.692 94.5399 282.555 94.8379 282.688 93.4029C282.83 91.8259 281.371 93.1279 280.876 93.3158C278.761 94.1181 279.243 92.6923 279.229 91.1199C282.5 92.321 285.225 93.2104 283.853 88.4793C287.339 88.7681 291.078 90.0288 294.532 90.2351C295.014 90.2626 296.179 90.4368 296.184 89.6987L288.702 75.6016C290.537 75.7483 292.349 76.271 294.202 76.1564C294.225 75.7804 294.221 75.4137 294.101 75.0469C293.509 73.2544 290.248 68.6654 289.101 66.6253C287.537 63.8472 286.147 60.9682 284.518 58.2221C285.472 58.3551 289.679 60.3768 289.317 58.2771C287.225 54.3987 285.101 50.5203 283.22 46.5318C281.036 41.897 279.284 36.194 276.995 31.8479C276.605 31.1053 276.242 30.5414 275.655 31.5545C272.091 41.0535 267.765 50.2269 262.962 59.1436C262.897 59.7992 263.943 59.68 264.356 59.6524C265.595 59.5699 266.774 58.8456 267.99 58.6622C265.008 64.3056 262.081 69.9857 258.842 75.487C258.094 77.8572 262.902 75.4549 264.026 75.6062L255.879 90.1297V90.6798C256.337 91.1474 267.086 89.0111 268.655 89.1394C268.889 89.3457 267.063 92.6786 267.434 93.5313C267.93 94.6591 270.412 94.5903 271.448 95.0396C272.104 95.3238 272.788 96.0344 273.508 96.3278L273.036 107.601L260.829 107.835C252.823 108.417 244.827 109.017 236.841 109.829C234.997 110.975 236.566 111.2 237.933 111.14C240.309 111.039 243.006 110.471 245.424 110.264C262.402 108.816 279.518 108.215 296.505 109.384C308.084 110.182 319.699 112.144 331.292 112.47C337.044 112.635 342.756 112.107 348.467 112.011C361.683 111.796 374.336 113.313 387.46 113.771C405.406 114.4 423.453 113.643 441.409 114.212C442.647 114.253 444.193 115.216 443.932 113.121C437.624 112.713 431.298 112.74 424.981 112.584C424.88 112.52 424.843 112.428 424.807 112.318C424.564 111.589 424.733 106.679 424.779 105.529C424.972 100.724 425.376 93.9347 426.109 89.254C426.261 88.3005 427.348 86.4575 427.701 85.3435C428.087 84.1241 428.426 82.7075 428.522 81.4284C429.101 81.3826 428.889 81.4009 428.954 81.7631C429.133 82.7121 429.321 86.9251 429.83 87.2736C431.257 88.25 430.55 84.0095 430.477 83.3264C430.302 81.7448 429.816 77.6325 429.353 76.3122C429.261 76.0463 428.972 75.6704 428.66 75.7208C427.931 75.84 427.94 78.334 427.798 79.0537C427.229 81.974 426.004 88.0254 423.898 90.1205C422.362 91.6471 421.981 88.6626 421.962 87.4799C421.875 81.7448 426.912 73.8183 428.408 68.2253L428.738 68.0098C430.096 74.7902 431.11 81.7448 433.807 88.1446C433.931 88.9423 432.206 87.9108 432.032 89.0294C431.775 90.6798 435.651 95.6951 435.564 97.1484C435.491 98.3816 433.853 98.8859 432.821 98.8171C432.17 98.7713 431.495 98.3679 430.88 98.4229C430.206 98.4825 429.293 99.2481 428.623 99.2343C428.009 99.2206 427.385 98.2716 426.536 98.5971C426.123 99.6423 427.568 100.486 428.426 100.573C429.284 100.66 430 99.9724 430.83 99.9036C432.624 99.7523 434.211 100.843 435.982 99.1243C438.532 96.6441 434.216 92.5594 433.587 89.9004C436.725 89.1578 434.436 86.6088 433.793 84.6329C431.752 78.3431 431.064 71.5123 429.289 65.1492C428.302 64.3881 428.073 65.4884 427.747 66.254C425.554 71.3977 420.228 83.6519 420.834 88.7818C421.118 91.1795 422.467 93.1049 424.77 91.1153L423.453 105.749V112.46H409.361H409.352ZM313.566 36.9825C319.924 26.0166 324.929 14.3813 330.186 2.86984C330.278 2.67271 330.25 2.26012 330.521 2.54435C335.613 14.2942 341.081 25.879 347.251 37.0971C345.283 37.0421 343.224 36.0977 341.586 35.057C340.976 34.6674 339.187 32.6731 338.921 34.0485L352.311 60.2117C352.467 60.7665 351.697 60.5052 351.389 60.4731C350.123 60.3401 345.008 58.653 344.536 58.7998C343.636 59.084 344.673 59.7396 344.926 60.1109C345.522 60.9911 346.077 61.8988 346.632 62.8065L357.165 82.7579L353.247 82.492C347.178 75.0423 341.604 66.8729 339.113 57.4519C339.824 57.5986 343.228 59.0702 343.609 58.9785C343.99 58.8868 343.98 58.3642 343.916 58.0479C343.852 57.7316 340.65 53.5873 340.095 52.6108C338.398 49.6126 337.164 46.1605 336.65 42.7451C336.168 42.3784 335.434 42.5067 335.42 43.2036C335.397 44.1663 336.375 47.2012 336.742 48.2602C337.806 51.3363 339.503 54.3529 341.526 56.8972C340.751 57.0072 338.035 55.5127 337.581 56.1408C339.668 65.956 345.315 74.5472 351.44 82.3086L342.852 81.6485C342.673 82.6708 343.013 83.6748 343.077 84.6192C343.1 84.9676 343.109 84.9905 342.742 84.9493C341.425 84.8255 334.251 80.8416 333.737 80.9975C333.044 81.2038 333.723 84.7246 333.925 85.3985C334.182 86.2604 334.98 86.5813 335.154 85.9028C335.361 85.0914 334.714 83.8673 334.925 82.9734L341.967 85.9395C340.214 89.2082 336.402 88.4655 333.659 90.4001C332.897 90.9365 331.039 93.2608 330.847 93.3112C330.48 93.4029 329.714 91.9405 329.319 91.5417C328.833 91.0511 328.158 90.7623 327.654 90.2947C327.525 87.4294 328.328 84.5321 327.934 81.7035C327.842 81.5155 327.723 81.2863 327.512 81.2267C326.984 81.0754 320.19 84.9722 318.961 85.1693C318.415 85.206 318.722 85.1326 318.731 84.9447C318.759 84.3441 319.539 81.8685 318.722 81.676L304.758 83.629L316.428 59.735C316.506 58.3734 314.736 59.5883 313.832 59.7992C312.038 60.2163 310.116 60.4685 308.286 60.6381L321.938 33.998C321.355 32.6135 320.479 34.0668 319.805 34.5207C317.869 35.8318 315.928 36.7212 313.566 36.9779V36.9825ZM271.068 90.1251C270.843 90.9182 271.233 92.619 271.068 93.5359L268.646 93.0912C268.448 92.8253 270.279 89.0661 270.37 88.3051C270.402 88.0529 270.448 87.8558 270.196 87.6908C269.425 87.1819 263.572 88.8323 262.26 88.5801C264.604 85.5269 266.682 82.2399 268.242 78.7145C268.765 77.5317 270.893 72.1496 270.604 71.2281C270.347 70.4075 269.168 71.329 268.646 70.976C269.99 68.78 271.467 65.8598 272.013 63.3383C272.215 62.4031 272.384 60.6473 271.109 61.775C270.714 63.4392 270.228 65.0346 269.563 66.6116C269.182 67.5193 266.416 72.1541 266.884 72.6263C267.334 72.8372 269.168 71.9387 269.077 72.7226C268.912 74.1484 267.811 76.734 267.205 78.1185C266.063 80.7499 264.402 83.6381 262.746 85.9853C262.466 86.3796 260.792 88.736 260.65 88.8414C260.393 89.0294 258.425 89.3182 257.961 89.3503C257.617 89.3732 257.585 89.3824 257.636 89.0202C260.278 84.9951 262.361 80.3603 265.026 76.381C265.416 75.8034 267.219 73.7358 267.274 73.5662C267.352 73.3324 267.324 73.0802 267.315 72.8418C266.09 72.6676 265.677 73.667 264.503 74.098C263.636 74.4189 261.948 74.8223 261.012 75.0148C260.663 75.0836 260.677 75.0653 260.714 74.7169C264.154 68.9497 267.122 62.9211 270.302 57.0027C270.513 56.5717 270.458 55.9024 269.861 55.8932C269.026 55.8841 266.26 58.6255 264.898 57.9883C269.246 50.181 272.967 42.0345 276.128 33.6725C276.435 33.6909 276.467 34.0072 276.573 34.2135C278.522 38.0644 280.004 42.7176 281.88 46.7336C283.628 50.4744 285.61 54.1374 287.569 57.7683C286.743 57.5665 285.835 57.3511 285.082 56.9568C284.151 56.4709 282.651 54.3483 281.844 54.8984L281.669 55.5173L292.418 74.7123C290.596 74.726 288.486 74.3547 286.926 73.3782C286.61 73.1811 285.399 71.6728 284.949 72.4201C284.403 73.3324 285.858 74.0063 286.362 74.5977C289.716 78.5173 291.734 84.4633 294.399 88.901L282.867 86.9389C282.009 87.1865 282.981 90.2168 282.949 90.8815C281.178 90.7715 279.743 89.7629 278.114 89.3457C277.463 90.8082 278.49 92.5548 278.059 94.0264C277.908 94.549 275.949 95.7318 275.54 96.3645L272.485 94.1823C272.086 93.3342 272.389 89.96 271.825 89.7812C271.563 89.6987 271.127 89.8683 271.059 90.1067L271.068 90.1251ZM401.865 101.238H398.672C398.612 101.238 397.966 101.013 398.144 100.715C398.956 99.0968 402.42 94.7553 402.525 93.1875C402.599 92.078 401.567 92.6923 401.085 92.2247C399.594 90.7715 401.929 88.2821 402.64 86.9389C403.548 85.2197 404.319 83.3218 405.283 81.6485C405.42 81.4101 405.26 81.1121 405.718 81.213L414.87 100.468C414.806 101.109 411.719 102.65 411.347 102.329L408.874 95.0075C408.842 94.6178 407.92 94.5353 407.81 94.6407C407.246 95.1909 410.283 102.219 410.453 103.443C409.498 103.337 408.627 103.64 407.815 104.103C407.613 103.943 407.053 101.76 406.815 101.467C405.989 100.445 405.668 102.508 405.319 102.934C404.971 103.36 402.457 104.667 401.998 104.534C401.158 104.286 402.025 101.893 401.865 101.242V101.238ZM326.333 89.5795C323.695 89.199 321.039 89.034 319.951 86.1825L326.773 82.9826C326.846 85.1922 326.645 87.3974 326.333 89.5841V89.5795ZM328.539 111.14L329.09 93.0958C329.301 93.0912 329.92 94.7966 330.136 95.0212C330.915 95.8281 331.613 93.8155 332.278 93.5405L332.718 111.145H328.535L328.539 111.14ZM274.811 97.4968C275.508 98.2303 276.545 96.6166 276.761 97.4143L277.233 107.619H274.371L274.816 97.4968H274.811ZM402.746 112.68C403.012 110.301 403.31 107.968 403.214 105.556L406.374 103.654C406.806 104.451 406.819 105.089 407.824 105.332L408.03 112.68H402.746Z" fill="#E7E3D3"/>
<path d="M223.967 10.5588C226.843 10.2425 229.797 11.9938 230.114 14.9782C233.609 14.5198 236.807 17.6143 235.495 21.1443C234.178 24.6788 229.573 24.39 226.462 24.2387C225.407 24.1883 221.604 23.4686 221.008 23.6015C220.687 23.6749 220.31 24.3121 219.957 24.5413C217.494 26.1504 214.723 26.4805 211.993 25.2656C211.296 24.9539 209.86 23.6657 209.484 23.6244C208.654 23.5327 204.998 24.5872 203.575 24.6743C200.465 24.8622 195.066 24.6376 194.139 20.8829C193.428 17.9948 195.547 16.1472 198.112 15.4733C198.525 15.3633 199.213 15.5238 199.506 15.3266C199.617 15.2487 200.185 13.3828 200.539 12.8373C201.465 11.4161 203.442 10.1325 205.131 9.94452C205.805 9.87117 207.645 10.2012 207.869 10.0454C207.979 9.96744 208.686 8.19786 208.924 7.78984C212.613 1.51836 222.595 3.43923 223.962 10.5497L223.967 10.5588ZM214.856 5.36469C213.182 5.58932 211.411 6.61623 210.388 7.94113C209.746 8.7755 208.833 11.6545 208.521 11.815C208.264 11.9479 206.888 11.274 206.213 11.2373C204.484 11.1365 202.58 12.035 201.64 13.5066C201.103 14.3456 200.86 16.1381 200.598 16.4269C200.144 16.9266 198.8 16.679 198.112 16.8028C195.942 17.1925 194.391 19.8056 195.965 21.7036C197.653 23.7436 202.034 23.5877 204.42 23.3219C205.727 23.1797 209.057 22.162 209.947 22.2491C210.369 22.2904 211.585 23.6932 212.333 24.0508C215.218 25.4169 218.498 24.5963 220.563 22.2858C224.045 22.5425 228.467 23.6015 231.875 22.8176C234.366 22.2445 235.362 19.0308 233.513 17.1879C232.1 15.7805 230.027 16.6836 229.306 16.1106C228.71 15.6338 228.875 13.2957 226.948 12.3055C225.65 11.6362 223.205 12.1634 223.04 12.0396C222.902 11.9342 222.297 9.45857 221.907 8.76174C220.521 6.27699 217.645 4.98876 214.851 5.36469H214.856Z" fill="#E7E3D3"/>
<path d="M64.5282 69.3107C70.7218 68.6205 77.0835 72.4416 77.7651 78.9534C85.2923 77.9531 92.1775 84.7049 89.3523 92.407C86.5172 100.119 76.5994 99.489 69.9019 99.1589C67.6299 99.0489 59.4408 97.4784 58.1566 97.7685C57.4652 97.9286 56.6552 99.3189 55.8945 99.8191C50.5899 103.33 44.6234 104.05 38.7458 101.4C37.2443 100.719 34.1524 97.9086 33.3424 97.8185C31.5544 97.6185 23.6814 99.9191 20.6192 100.109C13.9217 100.519 2.29498 100.029 0.299571 91.8369C-1.23156 85.5352 3.33218 81.5041 8.85414 80.0337C9.74319 79.7936 11.2249 80.1437 11.8571 79.7136C12.0942 79.5435 13.3191 75.4724 14.0797 74.2821C16.0751 71.1812 20.3327 68.3805 23.9679 67.9703C25.42 67.8103 29.3812 68.5305 29.8653 68.1904C30.1024 68.0204 31.6236 64.1593 32.1373 63.2691C40.0794 49.5853 61.5745 53.7765 64.5183 69.2907L64.5282 69.3107ZM44.9099 57.9776C41.3043 58.4677 37.4913 60.7084 35.2884 63.5992C33.9055 65.4197 31.9397 71.7014 31.268 72.0515C30.7148 72.3415 27.7513 70.8712 26.2992 70.7911C22.5751 70.5711 18.4756 72.5316 16.4505 75.7425C15.2948 77.573 14.7712 81.4841 14.2082 82.1142C13.2302 83.2045 10.3359 82.6644 8.85414 82.9345C4.18171 83.7847 0.842857 89.4862 4.23111 93.6274C7.86632 98.0786 17.3001 97.7385 22.4368 97.1583C25.2521 96.8483 32.4237 94.6277 34.3401 94.8177C35.2489 94.9077 37.8667 97.9686 39.4768 98.7488C45.6903 101.73 52.7533 99.9391 57.1985 94.8977C64.6961 95.4579 74.2187 97.7685 81.5583 96.058C86.9222 94.8077 89.0658 87.7958 85.0849 83.7747C82.0424 80.7038 77.5774 82.6744 76.0265 81.424C74.7423 80.3838 75.0979 75.2824 70.949 73.1218C68.1535 71.6614 62.8884 72.8117 62.5328 72.5416C62.2364 72.3115 60.9325 66.9101 60.0928 65.3896C57.1096 59.9682 50.9159 57.1574 44.9 57.9776H44.9099Z" fill="#E7E3D3" fill-opacity="0.6"/>
</svg>
