<svg width="326" height="308" viewBox="0 0 326 308" fill="none" xmlns="http://www.w3.org/2000/svg">
<path d="M136.983 4.45325L136.958 62.763C138.451 63.373 139.985 63.8074 140.985 65.2111C141.752 66.2721 142.103 68.8204 142.253 68.9541C142.494 69.163 147.363 70.1238 148.497 70.5165C157.785 73.7499 166.289 81.3112 168.799 91.0782C169.199 92.6239 170.45 98.1633 169.166 99.074C167.557 100.21 158.11 100.895 155.584 101.104C152.416 101.372 147.814 100.946 144.796 101.522C142.745 101.915 141.235 105.056 136.792 105.148C131.781 105.248 130.338 101.881 128.371 101.522C121.384 100.227 113.13 101.497 105.752 99.7257C104.834 99.5085 103.442 99.4583 103.334 98.5226C101.858 85.7728 113.639 74.034 124.886 70.3494C126.045 69.9734 130.747 69.2382 130.955 69.0126C131.072 68.8789 130.914 67.5087 131.064 66.9155C131.681 64.4842 133.615 63.4899 135.799 62.7714L135.774 4.4616H136.975L136.983 4.45325ZM132.781 68.6199C135.166 68.5113 137.6 68.6199 139.985 68.6199C140.11 68.6199 140.552 69.1713 140.985 69.021C141.069 62.8967 132.648 62.2116 131.789 68.4277C131.614 69.681 132.573 68.6283 132.79 68.6199H132.781ZM168.599 97.0939C166.373 72.0956 135.783 62.2032 116.448 75.9139C109.82 80.6094 104.534 88.3378 104.568 96.6928C119.333 95.1806 134.34 94.5456 149.206 95.0636C153.125 95.2056 157.677 95.5064 161.587 95.8907C163.921 96.1163 166.306 96.5842 168.59 97.0939H168.599ZM144.987 96.2918C139.251 95.7738 133.473 95.6401 127.771 96.4923C129.388 106.46 143.845 106.351 144.987 96.2918ZM127.779 100.302C127.27 99.0824 127.304 96.5508 125.986 96.2918L104.968 97.9043C105.11 98.673 105.802 98.5644 106.352 98.7231C107.778 99.1158 110.037 99.3414 111.571 99.5085C116.924 100.068 122.41 99.9513 127.771 100.311L127.779 100.302ZM168.199 97.896L146.438 96.2667L144.996 100.302C150.248 100.11 155.567 100.01 160.803 99.5001C162.679 99.3163 165.33 99.0824 167.09 98.5727C167.507 98.4557 168.299 98.4808 168.207 97.896H168.199Z" fill="#E7E3D3"/>
<path d="M229.828 206.979C233.555 207.405 241.184 210.121 244.202 212.427C252.656 218.91 249.946 232.913 239.049 234.267C238.307 240.859 238.799 247.493 238.649 254.118C238.532 259.424 238.883 268.113 238.207 272.926C237.782 275.958 235.514 275.983 233.005 276.134C232.996 276.877 230.42 280.37 232.029 280.37H257.041C257.95 276.752 264.353 269.383 264.27 266.15C264.245 265.197 260.768 257.21 260.251 256.909C257.533 255.547 246.895 257.619 245.919 254.427C245.119 251.796 246.811 250.709 249.229 250.676C264.462 251.595 281.011 249.506 296.085 250.676C298.528 250.868 301.897 252.205 299.479 254.912C297.219 257.444 288.957 255.814 285.53 256.775C284.913 259.524 281.02 264.587 281.637 267.144C282.529 270.82 287.565 276.71 289.265 280.378H313.877C314.044 280.721 313.536 281.581 313.277 281.581H289.866C290.508 283.971 296.252 288.842 291.266 288.825C288.09 288.817 286.181 284.113 284.663 281.581H275.059V287.396C275.059 287.597 274.425 290.129 274.283 290.229C273.791 290.58 271.607 290.571 271.232 290.028C270.731 289.31 271.182 283.11 270.656 281.581H261.652C260.943 281.581 257.833 287.739 256.875 288.424C256.049 289.017 252.431 289.092 252.247 288.19C252.081 287.371 255.732 282.926 255.849 281.581H232.238C231.429 282.993 230.529 288.859 229.445 289.402C228.786 289.736 227.235 289.736 226.518 289.519C224.717 288.976 224.993 283.135 223.442 281.773L91.2193 281.548C89.4767 284.422 90.6523 291.014 85.6499 289.51C84.3826 289.134 84.7328 287.781 84.3492 286.812C84.2075 286.461 83.6072 286.202 83.4488 285.709C83.082 284.522 83.5655 282.642 82.2982 281.565H54.7849C53.9261 283.411 54.1763 286.878 52.4504 288.09C48.6986 290.738 33.2411 290.922 29.9228 287.614C28.7222 286.419 28.5555 283.236 28.0969 281.623C27.63 281.222 18.4589 281.89 16.7331 281.581C16.0411 281.456 15.6159 281.155 15.7326 280.378H27.7384C25.9209 271.488 24.7703 262.415 24.5452 253.316C24.8203 251.888 26.938 251.269 28.1386 250.902C31.4569 249.891 35.1087 249.849 38.5437 249.498C37.9601 240.625 39.319 230.791 38.5353 222.035C37.8267 214.139 31.5403 212.343 26.9297 207.196C22.786 202.576 22.736 199.125 20.6183 193.87C20.2515 192.968 16.633 186.802 16.9415 186.534C26.1627 186.493 34.5918 193.962 37.1513 202.568C37.5265 203.821 39.319 212.619 38.9439 212.995C38.6687 213.279 37.935 212.911 37.5599 212.585C36.1842 211.391 34.8502 206.478 34.1415 205.784C33.9581 205.609 33.066 205.651 33.3828 206.344C34.7251 209.678 36.9262 213.062 38.2185 216.337C38.5187 217.089 39.7442 220.347 39.7442 220.824V252.706H42.5456V227.641C42.5456 223.221 49.3072 212.836 53.3258 211.173C53.8428 210.956 54.7099 210.605 54.5431 211.591C52.6672 213.103 50.4661 214.958 48.9404 216.805C48.5652 217.256 47.9733 217.456 48.14 218.208C48.8153 218.342 49.1988 217.874 49.6991 217.565C53.551 215.192 61.6799 209.168 62.9388 204.757C63.189 203.863 62.1718 204.122 61.5882 204.205C56.2856 204.991 45.422 213.688 43.8546 218.919C43.5794 219.854 43.246 223.514 42.9375 223.815C42.3539 224.383 42.2121 223.773 42.1371 223.221C41.8453 221.007 43.7462 212.443 44.4132 209.853C46.5559 201.54 48.5235 202.852 54.1512 197.956C61.3297 191.715 63.8309 183.869 66.1487 174.888C56.4107 179.215 48.0483 185.874 46.5809 197.187C46.5225 197.613 46.2391 198.649 46.9311 198.541C48.8237 194.263 52.9257 191.514 55.9438 188.122C57.0527 186.877 58.5451 184.153 59.5289 183.293C59.7873 183.067 60.3042 182.649 60.5377 182.9C61.9384 184.421 52.317 193.127 51.1331 194.522C46.8394 199.568 43.5211 207.439 41.5201 213.772C41.1366 214.992 41.8453 215.66 40.1361 215.376C39.7276 204.464 41.1116 193.578 40.1278 182.699C38.1351 180.076 35.1003 178.071 32.9493 175.456C26.6212 167.777 25.3956 158.094 25.7375 148.402C27.2215 146.873 34.6418 155.863 35.5089 157.258C38.7104 162.405 39.1189 166.19 40.6697 171.746C40.7864 172.155 40.7698 172.958 41.345 172.866C42.0704 164.544 44.9051 153.298 50.2243 146.664C50.9247 145.795 51.6334 144.584 52.9507 144.793C54.5598 155.295 53.7927 166.173 47.9149 175.238C46.0557 178.113 43.7379 180.018 41.7536 182.699C41.7536 192.141 41.8453 201.582 41.345 210.965L44.3465 202.952C45.497 194.447 47.448 186.526 54.1429 180.686C58.0782 177.244 62.8471 175.648 67.1993 172.907C67.5327 172.749 68.1164 173.3 68.1581 173.484C68.2748 174.102 64.723 184.07 64.1644 185.515C62.4303 189.968 60.1959 193.962 56.7692 197.354C53.7511 200.329 48.5068 202.451 46.8394 206.252C45.8722 208.45 44.9801 211.85 45.1552 214.19C50.0242 208.851 57.2528 202.417 64.9648 202.969C63.6058 207.113 60.446 210.998 57.1527 213.78C52.1169 218.033 47.8899 218.743 44.5549 225.143C44.4048 225.435 43.7879 225.377 43.8129 225.603C43.8379 225.903 44.2214 226.338 44.1714 226.822C43.3627 234.309 43.9296 241.945 43.7629 249.498C47.1645 249.699 50.983 249.866 54.2596 250.81C59.1787 252.238 58.3866 253.717 58.1699 258.513C58.0531 261.078 57.6279 264.27 57.3278 266.893C56.8109 271.413 55.9771 275.95 54.9767 280.378H82.9903C83.2237 279.693 82.1565 276.385 81.8147 276.142C80.5557 275.232 76.8873 277.379 76.212 272.934L75.7701 234.275C61.1046 230.866 62.4803 214.85 75.7951 209.603C80.2139 207.865 85.9083 206.344 90.5939 206.988C90.1687 202.843 93.6621 198.499 97.5807 197.338C98.9897 196.92 99.7567 197.112 101.007 196.953C101.658 196.87 102.708 196.561 103.008 196.552C108.678 196.343 115.148 196.962 121.017 196.953C121.284 196.953 121.551 196.953 121.817 196.953C122.618 196.953 123.418 196.953 124.219 196.953C124.485 196.953 124.752 196.953 125.019 196.953C126.086 196.953 127.153 196.953 128.221 196.953C128.754 196.953 129.288 196.953 129.821 196.953C136.033 196.953 142.036 196.953 148.23 196.953C149.297 196.953 150.365 196.953 151.432 196.953C152.632 196.953 153.833 196.953 155.034 196.953C156.443 196.953 158.093 196.552 159.036 196.552C165.881 196.552 173.026 196.544 179.846 196.552C180.346 196.552 180.963 196.552 181.446 196.552C181.847 196.552 182.247 196.552 182.647 196.552C182.93 196.552 184.056 196.953 185.048 196.953C186.907 196.953 188.792 196.953 190.651 196.953C191.451 196.953 192.252 196.953 193.052 196.953C196.579 196.962 199.964 196.92 203.457 196.953C205.183 196.97 206.934 196.895 208.66 196.953C209.418 196.978 210.202 196.928 211.061 196.953C212.336 196.995 213.854 196.803 215.063 196.953C220.082 197.597 223.859 202.025 224.284 206.963C225.076 207.038 225.876 206.954 226.668 206.979C227.702 207.021 228.878 206.862 229.87 206.979H229.828ZM41.7452 180.51C51.625 172.239 53.676 158.712 52.1419 146.422C46.1557 153.474 43.2626 163.333 42.5456 172.49L45.7972 164.728L46.3475 164.076L46.9227 164.644L41.7452 180.51ZM26.9297 150.031V157.852C26.9297 159.64 28.2637 164.419 28.9223 166.282C30.8066 171.604 35.167 177.645 40.1278 180.318C38.0351 173.442 33.6746 167.543 31.1401 160.859C30.8399 160.074 30.2146 158.871 30.7315 158.06L39.7442 176.901C40.3779 177.01 40.1778 176.333 40.1528 175.89C39.7276 166.524 35.1087 155.053 26.9297 150.031ZM32.1322 201.766C32.1322 201.766 31.4319 201.264 31.3402 201.565L31.7404 202.568H32.1322C32.1072 202.317 32.2073 201.908 32.1322 201.766C32.1739 201.816 32.8576 201.782 33.2744 202.409C34.7835 204.648 35.9174 207.288 36.9346 209.787C37.6432 209.887 37.3347 208.876 37.2847 208.433C36.1508 198.198 29.5143 189.183 18.9258 187.729C22.4358 192.876 27.9385 195.474 31.757 200.354C32.1739 200.888 32.0655 201.665 32.1322 201.757V201.766ZM21.1269 191.74V192.141C21.3853 192.007 21.3853 191.873 21.1269 191.74ZM34.5334 211.792C32.2156 206.428 30.9817 200.045 26.3211 196.168L21.3353 192.55C23.0278 199.217 24.9287 204.139 30.1312 208.792C30.6732 209.277 34.0832 212.235 34.5334 211.792ZM222.983 207.74C223.217 207.472 222.992 206.169 222.917 205.676C222.191 200.813 217.522 197.856 212.837 197.73L101.174 197.755C96.4968 198.039 90.9858 201.958 91.7278 207.196C91.8362 207.948 93.2202 208.099 94.129 208.817C101.849 214.917 101.391 227.29 101.366 236.255C102.475 235.771 103.625 235.37 104.818 235.102C115.806 232.688 143.495 232.295 153.783 236.456C154.8 236.865 157.043 238.595 157.243 238.628C157.443 238.661 159.944 236.924 160.72 236.581C169.432 232.746 191.451 232.988 201.206 233.849C205.191 234.2 209.143 234.86 213.012 235.846C213.412 227.332 212.895 213.212 221.274 208.232C221.783 207.932 222.917 207.806 222.975 207.74H222.983ZM32.7325 203.771V204.172C32.991 204.038 32.991 203.905 32.7325 203.771ZM93.7705 241.068C94.9711 239.748 99.3232 237.818 100.174 236.865C100.39 236.623 100.582 236.414 100.574 236.063C100.257 227.842 100.732 211.959 91.2859 208.475C86.7004 206.779 82.6401 209.001 78.1629 209.803L83.3488 211.215C94.3458 216.37 93.4787 230.699 93.7705 241.084V241.068ZM236.632 209.787C231.579 208.943 227.427 206.587 222.358 208.909C216.047 211.8 214.504 222.67 214.204 228.811C214.129 230.315 213.962 236.038 214.621 236.848C215.079 237.4 217.672 238.636 218.581 239.297C219.598 240.023 220.849 242.363 221.016 240.074C221.774 229.621 220.09 215.368 232.296 210.864L236.623 209.795L236.632 209.787ZM85.7666 260.719L92.1197 255.647C91.7528 252.715 91.461 249.038 91.7695 246.089C92.0196 243.649 93.0952 242.48 92.9784 239.647C92.6866 232.303 92.5532 221.525 87.7509 215.61C84.0908 211.107 76.1286 209.686 71.3846 213.229C63.2974 219.269 65.4984 231.877 75.7534 233.047C76.2537 228.535 71.6181 229.011 71.1095 224.232C70.3008 216.571 82.2816 214.198 84.8412 222.937C86.617 229.011 85.1163 244.41 85.3414 251.712C85.4331 254.578 86.1251 257.719 85.7583 260.719H85.7666ZM228.227 260.719C228.277 260.752 228.711 261.78 229.028 260.719C229.545 250.141 228.344 238.929 229.011 228.418C229.245 224.742 229.678 220.932 232.83 218.609C238.808 214.215 246.661 221.417 242.234 227.633C240.909 229.496 238.149 229.914 238.633 233.047C251.147 232.738 250.913 213.413 239.541 211.491C224.392 208.926 222.175 224.884 221.808 236.046C221.633 241.552 223.308 246.206 223.017 251.294C222.958 252.364 222.166 254.912 222.308 255.672C222.383 256.057 227.627 260.376 228.219 260.727L228.227 260.719ZM34.7335 212.193V212.594C34.9919 212.46 34.9919 212.326 34.7335 212.193ZM84.9579 275.156L84.5493 227.24C84.1575 225.051 84.0324 222.937 82.7318 221.041C78.263 214.549 69.2252 220.59 73.0104 226.772C74.2193 228.744 76.4788 228.569 76.9123 231.685C78.1546 240.458 76.0786 251.879 76.929 260.944C77.9711 264.629 76.8456 268.957 77.3208 272.583C77.4042 273.201 78.5881 275.165 79.1467 275.165H84.9495L84.9579 275.156ZM229.828 275.156C232.471 275.031 236.765 276.109 237.415 272.524C238.007 269.258 237.315 263.359 237.415 259.691C237.44 258.739 237.824 257.861 237.849 256.917C238.041 248.236 237.665 239.53 237.849 230.841C238.232 228.819 242.443 227.716 242.618 223.982C242.91 217.607 233.722 215.852 231.129 222.503C229.62 226.38 229.912 240.558 229.82 245.655C229.653 255.48 229.978 265.331 229.837 275.148L229.828 275.156ZM47.1395 219.01V219.412C47.398 219.278 47.398 219.144 47.1395 219.01ZM156.501 242.973C157.11 242.263 157.11 240.157 156.559 239.305C155.034 236.957 144.87 235.361 141.994 235.06C130.18 233.832 105.276 232.947 95.9799 240.683C94.7293 241.719 92.7033 243.232 95.1545 243.499C97.1471 243.725 100.249 243.817 102.358 243.9C117.315 244.468 135.958 244.727 150.815 243.9C151.732 243.85 156.167 243.374 156.501 242.981V242.973ZM220.624 243.474C221.524 242.597 217.981 240.14 217.381 239.714C209.994 234.476 199.955 234.835 191.218 234.651C182.897 234.476 172.742 234.4 164.597 236.456C161.237 237.3 155.059 239.255 158.877 243.399C160.745 243.24 162.612 243.8 164.38 243.9C180.029 244.736 200.881 244.66 216.422 243.491C217.814 243.382 219.231 243.558 220.615 243.491L220.624 243.474ZM156.593 244.276L93.1869 244.259C92.5616 244.368 91.2693 256.232 94.7877 255.881C112.788 255.689 132.523 257.569 150.406 256.324C151.457 256.249 156.593 255.664 156.593 254.503V244.276ZM221.824 254.102C222.35 251.645 221.441 247.543 221.824 244.878L157.793 244.276C157.626 247.919 157.985 251.512 158.369 255.129C158.727 255.639 163.454 256.24 164.396 256.307C181.288 257.46 199.413 255.438 216.43 256.324C217.981 256.023 221.424 255.973 221.816 254.102H221.824ZM38.5353 250.693C38.0101 250.166 29.3475 251.562 28.0386 252.013C21.477 254.252 30.3063 255.931 32.7825 256.266C37.9017 256.959 44.4048 256.967 49.5407 256.307C51.1415 256.107 56.7608 255.196 57.3445 253.701C57.6363 252.965 56.9193 253.116 56.5607 252.915C53.0174 250.935 47.9482 250.843 43.9713 250.693L43.7379 253.909C41.8536 253.533 40.4196 253.533 38.5353 253.909C38.4269 253.316 38.6854 250.843 38.5353 250.701V250.693ZM247.637 251.896C245.844 253.199 246.745 254.444 248.529 255.012C263.103 254.92 280.036 256.8 294.451 255.497C295.685 255.388 299.512 254.837 299.012 252.974C298.937 252.706 298.161 251.888 298.053 251.888H247.629L247.637 251.896ZM56.9443 255.505C47.2646 258.455 35.4172 258.48 25.7375 255.505C26.4044 264.495 27.0798 274.145 29.4476 282.86C30.7065 287.497 31.0984 287.823 36.0341 288.691C41.32 289.627 47.0728 289.109 52.0502 287.096C55.1017 276.894 56.5858 266.15 56.9443 255.505ZM119.775 257.109C119.508 257.109 119.241 257.109 118.974 257.109C118.174 257.109 117.374 257.109 116.573 257.109C109.845 257.109 103.075 257.268 96.3467 257.126C92.845 257.051 93.2286 256.224 89.9603 258.714C88.8181 259.583 88.1511 260.669 87.359 261.521C87.3007 261.579 85.4164 261.797 87.359 261.922C91.0525 262.164 95.2045 261.914 98.9647 261.922C99.2315 261.922 99.4983 261.922 99.7651 261.922C100.299 261.922 100.832 261.922 101.366 261.922C101.766 261.922 102.166 261.922 102.566 261.922C103.1 261.922 103.634 261.922 104.167 261.922C104.701 261.922 105.234 261.922 105.768 261.922C107.761 261.922 109.778 261.922 111.771 261.922C112.705 261.922 113.638 261.922 114.572 261.922C118.432 261.922 122.318 261.922 126.178 261.922C126.578 261.922 126.978 261.922 127.378 261.922C128.579 261.922 129.78 261.922 130.98 261.922C131.781 261.922 132.581 261.922 133.381 261.922C135.641 261.922 137.925 261.922 140.185 261.922C140.451 261.922 140.718 261.922 140.985 261.922C169.791 261.922 198.621 261.922 227.427 261.922C226.41 260.694 222.917 257.109 221.541 256.792C220.04 256.458 218.74 257.101 217.247 257.126C198.838 257.452 180.396 256.834 161.987 257.126C157.985 255.447 156.334 256.809 152.807 257.126C142.794 258.02 130.105 257.101 119.775 257.109ZM253.84 287.99C254.824 287.981 255.949 287.756 256.591 286.945C259.676 281.364 264.612 276.259 267.613 270.72C268.397 269.274 269.197 267.871 269.072 266.15C268.981 264.838 264.52 256.683 263.57 256.399C263.036 256.241 261.277 255.923 261.494 256.875C262.119 259.7 265.829 264.086 265.37 266.843C265.179 268.021 263.386 270.962 262.719 272.232C260.293 276.836 256.241 282.074 254.223 286.578C254.007 287.054 253.69 287.371 253.848 287.998L253.84 287.99ZM270.648 256.307H265.045C266.779 260.075 270.531 263.651 269.823 268.113C269.239 271.756 263.845 276.869 262.244 280.37H271.048L270.648 256.307ZM274.25 256.307H271.44L272.249 289.594C273.208 289.702 273.666 289.577 273.85 288.591L274.25 256.307ZM275.05 256.909V280.37H283.454C281.095 275.165 274.025 269.868 276.576 263.651C276.934 262.782 281.036 256.65 280.653 256.307C279.569 256.491 275.392 255.798 275.05 256.909ZM284.655 256.307C283.804 256.433 282.479 255.956 281.812 256.558C281.478 256.859 277.385 263.793 277.226 264.303C276.426 266.977 277.243 268.882 278.477 271.104C281.57 276.677 286.372 281.882 289.566 287.463L292.25 287.981L280.736 267.645C279.961 263.927 283.429 259.75 284.647 256.307H284.655ZM228.628 262.724H85.7583V275.156H228.628V262.724ZM90.5606 275.958H82.9569C82.5901 279.81 91.1609 279.986 90.5606 275.958ZM90.9608 280.37H223.825C224.709 280.37 222.858 276.41 222.791 275.933H91.9946C91.9696 277.003 89.9937 279.71 90.9608 280.37ZM231.429 275.958C231.179 275.699 225.251 276.151 224.226 275.958C223.534 279.351 229.595 279.543 231.02 277.755C231.379 277.312 231.679 276.209 231.429 275.958ZM89.7018 279.626C89.4684 279.476 84.8912 279.467 84.4159 279.626C82.4984 280.261 84.2492 285.057 88.1844 283.804C89.8019 283.286 90.9024 280.387 89.7018 279.626ZM225.084 279.626C223.875 280.387 224.734 282.943 226.393 283.603C230.604 285.274 232.246 280.245 230.37 279.626C229.895 279.467 225.318 279.484 225.084 279.626ZM88.9598 284.781C88.2511 284.89 84.7078 284.623 84.5577 284.781C83.1153 286.302 89.6685 287.689 88.9598 284.781ZM230.228 285.976C231.229 284.648 226.035 284.18 225.434 285.383C225.059 286.143 226.818 286.369 227.235 286.394C227.811 286.419 230.012 286.268 230.228 285.976ZM88.1594 287.188C88.026 287.054 86.0834 287.279 85.5582 287.188C84.541 290.112 89.4684 288.524 88.1594 287.188ZM229.428 287.188C228.978 287.371 225.793 286.661 226.235 287.781C226.793 289.209 229.728 289.41 229.428 287.188Z" fill="#E7E3D3"/>
<path d="M203.015 189.333L202.84 116.544C203.632 84.7201 233.522 57.5829 265.437 70.0319C283.429 77.0502 294.935 95.5649 296.277 114.522L296.261 189.333C277.193 189.35 258.101 189.308 239.033 189.333C238.633 189.333 238.233 189.333 237.832 189.333C232.905 189.333 227.953 189.317 223.025 189.333C222.625 189.333 222.225 189.333 221.825 189.333C220.224 189.333 218.623 189.333 217.022 189.333C216.489 189.333 215.955 189.333 215.421 189.333C213.562 189.342 211.678 189.317 209.819 189.333C208.768 189.342 203.299 189.15 203.015 189.333ZM295.46 188.13C295.452 187.245 295.068 186.434 295.043 185.54C294.251 162.021 296.594 136.956 295.077 113.72C293.634 91.5879 275.751 69.6476 252.856 68.2022C225.059 66.4393 204.875 90.4433 203.799 116.929L203.816 188.13H295.46Z" fill="#E7E3D3"/>
<path d="M291.058 127.573V183.318C290.666 183.184 290.191 183.719 290.057 183.719H252.439C252.397 183.719 251.839 183.159 251.839 183.117V127.573H291.058ZM289.857 128.776H253.039V182.516H289.857V128.776Z" fill="#E7E3D3"/>
<path d="M247.437 127.573V183.117C247.437 183.159 246.878 183.719 246.837 183.719H208.818C208.776 183.719 208.218 183.159 208.218 183.117V127.573H247.437ZM246.236 128.375H209.418V182.516H246.236V128.375Z" fill="#E7E3D3"/>
<path d="M251.839 123.162V73.0314C269.656 73.6914 283.638 87.2851 288.457 103.912C290.099 109.593 290.474 114.297 290.658 120.145C290.674 120.705 291.558 123.162 290.458 123.162H251.839ZM289.857 121.958C290.683 99.0907 276.993 76.5572 253.039 73.8335V121.958H289.857Z" fill="#E7E3D3"/>
<path d="M247.437 73.0314V123.162H208.818C208.376 123.162 208.251 122.184 208.201 121.783C207.684 117.48 209.543 108.239 210.819 103.912C215.738 87.2516 229.511 73.6998 247.437 73.0314ZM209.418 121.958H246.636L246.028 73.8251C222.216 76.6742 208.609 99.2662 209.418 121.958Z" fill="#E7E3D3"/>
</svg>
