<svg width="340" height="321" viewBox="0 0 340 321" fill="none" xmlns="http://www.w3.org/2000/svg">
<path d="M106.519 135.013C106.589 129.222 106.719 123.127 106.537 117.353C106.502 116.282 105.624 114.393 106.519 113.653L142.849 101.384C145.092 101.044 148.075 100.887 149.527 102.899L200.456 168.685C203.125 169.93 208.943 168.328 211.256 169.939C212.125 170.54 212.499 175.155 212.577 176.418C212.621 177.045 212.203 177.323 211.838 176.966C211.369 176.513 210.995 171.628 211.09 170.653H202.186L210.056 181.338C213.29 181.651 216.977 181.66 220.151 182.182C221.36 182.382 222.003 183.009 222.194 184.228C222.421 185.7 222.586 194.39 222.96 194.782C225.568 194.939 231.264 194.094 232.142 197.281C232.725 199.38 232.594 206.102 233.881 207.426C235.168 208.749 239.898 206.372 242.072 209.254C242.977 210.447 242.777 211.614 243.403 212.755C244.203 214.218 245.533 215.054 246.394 217.187C246.942 218.545 247.655 223.108 249.098 223.387C250.724 223.709 253.542 222.69 254.698 224.092C255.759 225.372 255.394 229.36 256.237 231.093C256.828 232.295 260.767 233.636 260.411 236.57C258.967 237.345 258.254 234.637 257.263 233.784C256.689 233.288 255.828 233.349 255.202 232.504C253.889 230.719 254.455 225.468 252.724 224.946L214.421 224.51V238.251L266.611 238.904C269.15 239.966 266.506 244.268 269.211 246.036C269.75 246.393 270.55 246.48 271.219 246.924C274.141 248.848 272.098 252.183 273.75 254.047C275.297 255.797 279.35 254.595 281.497 255.013C282.41 259.593 283.376 264.374 283.402 269.076H291.932L291.714 270.199L82.2068 270.182C77.0852 271.654 72.1462 271.749 67.0332 270.182L26.4082 270.199V269.085H38.6514C38.5992 267.857 38.7296 266.594 38.6514 265.375H39.7644C39.7818 266.612 39.747 267.857 39.7644 269.085H54.5988V206.694L55.7205 206.912V269.085H66.0941C61.0682 262.754 61.2682 255.318 60.9204 247.716C60.8856 246.872 60.5552 246.114 60.5378 245.322H62.0247C62.1551 251.948 62.2681 262.65 66.8506 267.779C69.1201 270.313 73.0853 270.051 76.32 269.851C81.0329 269.546 82.0329 269.12 83.9111 264.827C87.1023 257.521 86.3806 247.62 86.8762 239.757L62.0334 239.392C62.016 240.75 62.0508 242.117 62.0334 243.476H60.5465C60.5291 242.587 60.2682 238.277 61.103 238.277H71.3027C68.8767 235.691 71.2853 234.881 71.607 233.557C71.7201 233.096 71.3375 232.556 71.4679 231.955C71.7549 230.597 73.3027 228.211 73.4505 226.496C73.5113 225.834 72.9461 223.596 72.5896 223.065C71.9027 222.037 68.6854 221.523 67.3463 220.888C65.042 219.799 61.2856 216.168 59.6247 214.139C58.5726 212.859 57.277 211.501 57.59 209.681C60.3552 208.923 62.5203 211.257 65.0159 210.978C64.9811 209.324 60.4943 207.774 59.4334 206.912C58.3726 206.05 57.9726 204.03 56.8509 203.56C55.7292 203.089 50.9032 203.786 50.9119 202.062C50.9119 200.904 54.9727 198.03 56.1292 197.612C59.2074 196.524 60.4856 198.091 63.1638 198.901C63.1551 197.621 62.816 197.194 64.2768 197.412C64.0507 199.31 64.9029 200.895 65.6159 202.576L69.8332 208.558C67.668 210.412 63.9203 201.243 63.1464 200.59C62.9899 200.46 59.6769 198.77 59.4682 198.709C56.9205 197.926 54.1553 199.833 52.7727 201.879C54.9292 201.774 57.1987 201.809 58.7117 203.551C59.2769 204.204 59.4508 205.197 60.1639 205.806C60.9464 206.477 62.0769 206.555 62.9116 207.138C66.2941 209.489 69.3723 213.234 71.4592 216.778C72.1027 217.866 72.7809 220.365 73.5374 221.193C73.9026 221.593 74.1113 221.645 74.6504 221.567C74.607 223.152 75.0852 225.285 74.9548 226.478C74.7896 228.002 72.9287 230.327 72.7809 231.807C72.7114 232.486 73.4679 232.251 73.5374 232.574C74.0592 234.829 71.781 234.698 71.6505 235.865C71.494 237.345 73.9461 237.859 74.2678 237.528C74.3983 237.398 75.0678 234.237 75.0504 233.984C75.0156 233.314 74.4418 233.444 74.3896 233.349C73.4679 231.694 76.1287 232.243 76.4939 231.955C76.546 231.912 76.1287 231.137 76.1026 230.649C75.9548 227.079 75.4678 224.118 75.3809 220.452C75.6591 220.513 76.3895 220.365 76.4939 220.452C76.5808 220.531 76.1982 221.532 77.2243 221.193C77.6591 219.521 78.859 218.572 80.2329 217.701C82.2676 216.403 89.3109 214.366 90.1283 212.755C90.4413 212.145 90.4326 211.118 90.5805 210.421H91.6935C91.4152 212.407 91.9804 212.711 90.2153 214.322C86.4675 217.753 79.6851 217.091 77.4504 223.073C76.8765 224.615 76.4852 230.205 76.8504 231.694C76.9547 232.112 77.7373 232.129 77.9982 232.469C78.8764 233.636 78.1634 236.779 77.9808 238.242C78.433 238.112 79.0677 238.634 79.2677 238.634H87.424C87.911 238.634 88.3805 241.534 88.3805 242.161C88.3631 247.464 87.6153 257.634 86.1371 262.598C85.4589 264.879 84.1806 266.96 83.1546 269.085H106.145V183.671C100.189 183.288 94.2586 184.472 88.3457 183.671V182.557H106.145V168.816L61.8508 168.05C61.3725 170.557 59.7465 168.825 59.4161 167.144C59.5117 166.726 60.6508 167.309 60.9117 166.029C61.3638 163.739 61.016 156.852 60.9204 154.126C60.8421 152.019 60.6595 149.781 60.5378 147.639H61.6508C61.7377 148.684 62.1638 149.676 62.016 150.756C63.0507 151.662 63.1464 150.277 63.7203 149.92C69.6593 146.176 77.7199 143.677 84.7198 144.774C88.3371 145.34 90.424 146.55 94.476 146.176C97.8064 145.871 101.189 143.912 104.658 144.304C104.615 144.609 104.728 145.34 104.658 145.41C104.528 145.549 101.476 145.758 100.867 145.88C98.6498 146.341 95.8586 147.465 93.7195 147.63C90.0587 147.917 86.7632 146.098 83.3372 145.784C75.6678 145.07 68.7723 148.579 62.3638 152.254C61.5899 157.008 63.1029 162.085 62.0247 166.952L106.154 167.701C106.154 164.236 106.145 160.761 106.154 157.304H107.267C107.189 160.761 107.328 164.244 107.267 167.701L142.866 165.847V105.685L109.119 116.082L109.893 114.82L143.979 103.83L142.414 103.16C130.675 106.887 119.18 111.45 107.267 114.611C108.406 119.905 108.084 125.687 108.024 131.146C108.006 132.366 107.65 133.602 107.641 135.03H106.528L106.519 135.013ZM147.953 103.186L145.092 102.89L213.69 192.048L215.916 191.456L215.543 190.533L147.944 103.186H147.953ZM143.979 105.494V165.838L145.101 165.62L145.483 106.965C145.814 105.711 144.431 103.918 143.979 105.494ZM192.926 167.693L146.944 107.906L146.196 165.838L192.926 167.693ZM107.267 168.807V269.076H142.866L142.501 167.327L107.267 168.816V168.807ZM152.875 173.083C153.075 175.016 152.727 177.236 152.875 179.213C154.509 179.187 156.283 178.586 157.883 178.473C163.057 178.124 168.326 178.978 173.457 179.204C183.291 179.64 193.117 180.04 202.934 180.693L194.787 169.73L193.839 169.19C179.691 168.276 165.561 167.893 151.388 167.327C151.17 167.536 152.779 172.194 152.866 173.083H152.875ZM194.039 231.563C193.952 230.989 193.413 230.283 193.326 229.491C193.16 227.976 193.378 226.4 193.291 224.885C191.569 224.771 188.517 226.435 187.326 224.728C186.9 224.118 187.048 223.126 186.969 223.047C186.648 222.708 179.9 223.996 179.926 219.886C179.943 217.527 179.804 217.248 179.569 215.054C179.413 213.626 180.352 208.384 179.517 207.861C178.239 207.06 171.535 208.828 170.639 207.574C169.352 205.78 169.909 197.882 169.578 195.357C169.248 192.832 166.674 192.806 164.648 193.058C163.431 193.206 160.7 194.66 159.883 193.554C158.9 192.222 158.614 182.191 158.431 179.962L151.388 180.711C151.875 178.481 151.414 169.399 149.535 168.267C148.962 167.919 145.692 168.267 145.483 168.485C145.214 168.781 144.405 175.486 144.344 176.444C144.196 178.525 143.988 184.298 144.327 186.109C144.405 186.519 148.492 191.97 149.118 192.901C154.596 201.104 160.205 209.115 165.718 217.257C177.317 234.402 188.856 251.791 200.343 269.094H213.325L213.699 255.353H206.838C203.578 255.353 204.551 250.302 204.43 248.3H205.543C205.595 249.249 205.638 253.263 206.256 253.707C206.969 254.221 210.038 253.672 211.108 253.872C211.117 249.048 211.09 244.207 211.108 239.392C211.108 239.165 211.108 238.887 211.108 238.651C211.09 233.827 211.125 228.995 211.108 224.171H194.047C194.604 226.496 194.639 229.169 194.787 231.598H194.047L194.039 231.563ZM211.099 194.434L210.821 190.437L204.169 182.243C189.387 181.329 174.665 180.432 159.927 179.953L162.518 186.823C160.953 187.276 160.987 184.168 159.927 183.662L160.666 192.57C162.457 192.274 164.579 191.343 166.396 191.438C168.1 191.526 169.031 192.727 170.135 192.927C175.117 193.85 180.691 192.727 185.682 193.702L211.099 194.434ZM221.481 195.174L220.577 184.011C218.621 183.671 216.325 183.366 214.264 183.271C213.821 183.253 211.464 182.966 211.838 183.837C212.403 185.178 217.429 189.993 217.334 191.203C217.169 193.163 213.795 192.893 214.429 195.165H221.473L221.481 195.174ZM144.344 188.861C144.066 214.052 144.588 239.331 144.362 264.452C144.344 265.994 143.718 267.5 143.97 269.076H198.856L144.718 188.861C144.962 187.546 143.318 187.973 144.344 188.861ZM213.325 242.709C213.403 226.678 213.256 210.639 213.343 194.599L212.586 192.945C212.951 201.574 212.125 210.169 212.195 218.772C212.264 228.133 212.856 237.589 212.595 246.993C212.534 249.144 211.856 251.565 212.212 253.846H213.325C213.343 250.389 213.308 246.906 213.325 243.449H214.438C214.403 245.748 214.003 251.809 214.421 253.603C214.525 254.047 215.377 254.064 215.76 254.186L271.915 254.595C272.158 254.343 271.602 250.05 271.376 249.379C270.593 247.107 267.254 247.916 266.759 244.346C266.637 243.484 267.046 239.74 266.167 239.74H214.438C214.421 240.724 214.464 241.725 214.438 242.709H213.325ZM211.099 195.914C197.717 195.557 184.369 195.026 171.048 194.425C170.805 195.766 171.387 197.037 171.439 198.309C171.518 200.512 171.083 203.76 171.422 205.754C171.683 207.243 172.726 206.32 173.813 206.294C179.396 206.172 184.952 207.121 190.517 207.426C197.36 207.791 204.247 207.818 211.09 208.175V195.923L211.099 195.914ZM228.716 196.663C224.394 196.088 218.899 197.09 214.438 196.663V207.992C214.438 207.992 214.951 208.549 214.995 208.549H232.238C231.968 206.903 231.186 205.475 230.846 203.812C230.481 202.018 230.568 198.901 230.02 197.29C229.942 197.072 228.925 196.689 228.716 196.663ZM211.099 209.655C201.073 209.455 191.047 208.697 181.056 208.166C181.404 212.006 181.761 215.959 181.152 219.817C181.839 222.307 187.795 221.21 188.456 221.924C188.995 222.49 187.082 224.441 190.804 223.683C191.804 223.474 192.43 222.777 193.465 222.638C196.717 222.203 202.969 222.516 206.473 222.638C207.951 222.69 209.508 223.326 211.09 223.021V209.655H211.099ZM214.438 209.655V223.021L246.707 223.204C245.794 221.41 245.663 218.641 244.759 216.987C244.098 215.768 242.872 215.524 242.09 214.462C240.985 212.955 241.29 211.083 240.038 209.838L214.447 209.655H214.438ZM71.6592 220.801C71.8244 220.635 70.2853 216.995 69.7723 216.56C69.3549 216.203 68.4332 216.029 67.8245 215.541C64.9811 213.295 62.8681 211.449 59.0508 210.778C58.7726 211.039 60.416 213.033 60.7117 213.382C63.5377 216.726 67.155 220.165 71.6505 220.801H71.6592ZM65.7289 212.258C65.755 212.311 66.6506 213.06 66.8333 212.816L65.7289 211.51L65.3637 212.067L65.7289 212.258ZM67.3985 213.373V213.748C67.6419 213.626 67.6419 213.504 67.3985 213.373ZM76.4765 238.251C77.0069 236.631 77.4417 235.168 77.2156 233.427L75.7635 237.354L76.4765 238.251ZM282.297 269.076L280.758 256.694L280.21 256.102L214.812 255.335V269.076H282.306H282.297Z" fill="#E7E3D3"/>
<path d="M232.324 54.5188L273.689 41.5182C274.541 41.0306 276.689 42.4674 277.132 43.0856C277.871 44.087 277.41 55.3025 277.462 57.61C277.767 71.2811 277.88 85.1263 278.236 98.7974C278.271 100.008 278.454 106.216 277.862 106.626L237.194 114.924C235.403 115.211 233.611 114.689 232.029 113.87L232.316 54.5275L232.324 54.5188ZM233.351 55.5463V112.364L274.541 103.282L274.141 42.9202L233.351 55.5463ZM275.993 43.6603L275.254 44.2089L275.445 104.571L235.203 113.844L276.576 105.328L275.993 43.6603Z" fill="#E7E3D3"/>
<path d="M61.6507 147.639H60.5377C60.3551 144.452 59.8247 133.367 58.8769 130.92C58.6247 130.267 56.3552 127.663 55.7292 127.019C55.3118 126.584 54.9292 125.983 54.2422 126.105L55.0248 190.881L55.3466 191.29C56.4683 191.604 59.4856 191.821 59.4421 193.511L53.1292 192.405C52.2249 191.848 53.7553 190.541 53.8944 189.444C54.3379 185.909 53.5466 181.773 53.4944 178.298C53.2336 160.378 53.3292 142.501 52.764 124.624C51.5206 124.424 50.6858 125.208 49.7989 125.922C46.4598 128.586 43.4947 132.783 40.1383 135.561L39.7991 136.336C40.3209 179.326 39.0687 222.394 39.7991 265.375H38.6861C38.6861 265.253 38.0687 264.574 38.2861 264.121L38.3905 135.666C38.4861 135.082 38.9035 134.725 39.2339 134.281C40.26 132.897 48.5815 124.511 49.825 123.719C53.9727 121.106 58.1465 127.75 60.4769 130.476C60.8508 136.023 61.5986 141.569 61.9986 147.108C62.016 147.386 61.6768 147.604 61.6855 147.656L61.6507 147.639Z" fill="#E7E3D3"/>
<path d="M307.644 139.967C306.505 141.308 306.505 143.32 305.123 144.678C302.905 146.864 298.079 146.15 295.14 146.568C283.749 148.196 272.323 150.582 260.932 152.045C256.828 152.567 248.063 153.603 246.315 148.588L245.22 134.09C245.602 130.546 248.785 128.464 251.889 127.402C261.663 124.067 273.889 123.379 284.167 121.472C290.106 120.375 303.001 116.274 308.079 116.822C309.94 117.022 312.522 118.015 313.166 119.896C314.079 122.552 313.374 131.982 312.244 134.734C311.088 137.555 309.227 138.112 307.644 139.976V139.967ZM304.836 118.407C298.723 119.069 290.688 121.82 284.219 123.013C277.41 124.267 270.48 124.929 263.689 126.218C260.524 126.819 252.62 128.282 250.15 129.736C245.62 132.409 246.663 136.275 247.081 140.76C247.22 142.266 247.776 147.447 248.272 148.475C249.167 150.347 251.367 150.634 253.193 150.974C267.228 149.85 281.193 147.081 295.149 145.087C297.427 144.765 301.34 144.992 303.088 144.13C305.149 143.111 304.836 141.439 305.862 139.854C307.244 137.738 309.653 136.841 310.801 134.029C311.766 131.678 312.279 124.058 311.966 121.446C311.592 118.224 307.357 118.128 304.827 118.398L304.836 118.407Z" fill="#E7E3D3"/>
<path d="M62.8159 161.702C62.7116 161.527 62.729 160.674 62.7637 160.639C63.2159 160.178 67.3462 161.754 68.3114 161.954C76.8938 163.687 87.6675 163.478 95.3629 158.941C96.702 158.149 99.7106 155.45 100.858 155.145C102.302 154.77 102.997 155.519 101.58 156.625C92.6065 163.582 84.7284 165.228 73.3374 164.349C71.8592 164.236 63.3637 162.59 62.8159 161.702Z" fill="#E7E3D3"/>
<path d="M107.632 135.013C107.571 142.458 107.423 149.929 107.258 157.296H106.145C106.162 150.103 106.423 142.292 106.519 135.013H107.632Z" fill="#E7E3D3"/>
<path d="M73.5198 221.166V214.296C72.6155 210.404 71.1025 205.763 69.2678 202.21C68.1634 200.068 58.9637 188.591 60.5375 186.997C61.4853 186.04 66.4765 190.655 66.0939 192.196C65.3635 192.936 63.5288 189.949 63.5027 191.639L70.1721 200.747V193.136C70.1721 191.151 68.3721 187.302 68.033 185.247C67.6852 183.079 67.72 181.311 69.6764 180.014C71.0242 179.117 74.772 177.881 76.111 179.021C77.1458 179.909 75.1372 186.51 74.998 188.312C74.7633 191.377 75.1546 194.686 74.998 197.778L84.8239 182.182C85.163 181.538 86.3717 181.782 86.4847 182.374C86.589 182.87 82.1718 189.523 81.4935 191.107C80.137 194.268 79.824 197.612 78.6153 200.486C77.6936 202.663 75.7719 203.838 76.4763 206.694L79.7979 200.93C81.2414 199.049 82.5022 196.968 84.0674 195.183C84.8239 194.321 88.502 190.298 89.4585 190.89C90.7194 192.3 90.0759 194.512 89.4672 196.132C88.4325 198.91 82.5804 204.265 80.1805 206.52C79.5544 207.112 76.6849 209.08 76.5197 209.55C76.311 210.16 76.9197 214.766 76.8589 216.186C76.798 217.605 76.2937 218.989 76.4676 220.435C76.3632 220.348 75.6328 220.496 75.3546 220.435C75.2937 217.849 75.3632 215.228 75.3546 212.633C75.3546 211.431 75.6589 204.395 75.3546 204.091C75.1633 203.899 72.8155 204.387 72.7546 203.899C72.7372 202.314 73.7111 200.999 73.8676 199.449C74.1807 196.506 73.285 192.701 73.485 189.401C73.6676 186.283 74.4415 183.105 75.3632 180.136C75.3806 179.57 72.6677 180.205 72.2242 180.336C66.8939 181.903 69.833 185.221 70.6503 188.922C71.7199 193.763 70.9981 197.795 71.6677 202.018C72.1459 205.014 74.1198 208.706 74.6154 212.624C75.0589 216.142 74.7111 218.214 74.6154 221.541C74.0763 221.619 73.8676 221.567 73.5024 221.166H73.5198ZM63.3201 190.35V190.724C63.5635 190.602 63.5635 190.481 63.3201 190.35ZM79.5979 204.996C82.9717 201.487 88.8933 197.952 88.7194 192.579C84.8413 195.766 82.0066 200.015 79.4936 204.317L79.5892 204.996H79.5979ZM76.111 202.602C77.1632 201.713 78.3545 196.358 78.711 194.808L75.5545 199.998L75.3806 202.419C75.3372 202.741 76.0676 202.645 76.1197 202.602H76.111Z" fill="#E7E3D3"/>
<path d="M205.534 243.824C205.586 245.304 205.456 246.802 205.534 248.282H204.421C204.334 246.906 204.116 245.33 204.047 243.824H205.534Z" fill="#E7E3D3"/>
<path d="M76.4762 238.251L75.7632 237.354L77.2153 233.427C77.4327 235.177 77.0066 236.631 76.4762 238.251Z" fill="#E7E3D3"/>
<path d="M90.9455 207.8C88.5108 209.089 83.6414 211.527 81.1371 212.276C79.8415 212.659 77.1285 213.173 78.7197 211.335C83.0501 208.976 90.3108 200.877 95.6758 203.246C96.0584 203.411 96.2671 203.211 96.1454 203.899C95.9019 205.318 92.2411 207.103 90.9455 207.8C91.0412 207.722 91.7542 207.844 92.0585 207.8C92.415 208.793 91.7716 209.785 91.6933 210.404H90.5803C90.676 209.986 90.8325 207.905 90.9542 207.8H90.9455ZM94.6585 204.091C91.2933 203.655 87.7804 206.172 85.337 208.323C85.1718 208.471 83.9892 208.723 84.6413 209.289C85.0674 209.655 93.7194 204.944 94.6498 204.099L94.6585 204.091ZM84.0848 209.289V209.664C84.3283 209.542 84.3283 209.42 84.0848 209.289Z" fill="#E7E3D3"/>
<path d="M62.0243 243.449C62.0156 244.068 62.0156 244.686 62.0243 245.304H60.5374C60.52 244.686 60.5461 244.068 60.5374 243.449H62.0243Z" fill="#E7E3D3"/>
<path d="M214.438 242.709C214.438 242.953 214.438 243.206 214.438 243.449H213.325C213.325 243.206 213.325 242.953 213.325 242.709H214.438Z" fill="#E7E3D3"/>
<path d="M211.099 239.366H210.725V238.625H211.099C211.099 238.86 211.099 239.148 211.099 239.366Z" fill="#E7E3D3"/>
<path d="M194.778 231.563C194.795 231.807 194.76 232.06 194.778 232.304H194.039C194.039 232.06 194.073 231.79 194.039 231.563H194.778Z" fill="#E7E3D3"/>
<path d="M144.344 188.861C143.309 187.973 144.961 187.546 144.718 188.861H144.344Z" fill="#E7E3D3"/>
<path d="M67.3984 213.373C67.6419 213.495 67.6419 213.617 67.3984 213.747V213.373Z" fill="#E7E3D3"/>
<path d="M125.44 164.723C125.84 159.725 126.953 151.078 121.858 148.065C118.78 146.246 108.867 146.263 108.397 145.758C108.249 145.601 108.432 144.678 108.371 144.295C113.519 145.157 121.588 144.173 125.058 148.936C127.266 151.967 127.753 158.236 127.197 161.841C127.145 162.207 126.145 165.577 125.432 164.715L125.44 164.723Z" fill="#E7E3D3"/>
<path d="M194.778 232.312C195.091 237.406 193.465 238.408 199.412 238.251C203.386 238.146 206.69 238.712 210.725 238.625V239.365H205.16C204.934 240.889 205.482 242.335 205.534 243.824H204.047C203.977 242.326 204.16 240.881 203.638 239.409C202.325 238.852 194.882 240.071 194.447 239.696C194.343 239.601 193.691 237.31 193.647 236.971C193.473 235.308 194.065 233.906 194.03 232.321H194.769L194.778 232.312Z" fill="#E7E3D3"/>
<path d="M63.3203 190.35C63.5638 190.472 63.5638 190.594 63.3203 190.724V190.35Z" fill="#E7E3D3"/>
<path d="M270.715 45.9592C271.828 45.8112 272.297 45.9244 272.306 47.1696L272.845 102.341L235.176 110.718L234.646 57.4011L235.942 56.4781L270.706 45.9679L270.715 45.9592ZM270.802 47.3786L235.985 57.8104L236.316 109.395L271.497 101.549L270.802 47.3786Z" fill="#E7E3D3"/>
</svg>
