<svg width="35" height="35" viewBox="0 0 35 35" fill="none" xmlns="http://www.w3.org/2000/svg">
<path d="M3.48691 15.4448L16.6112 4.53712C16.7375 4.43022 16.8977 4.37156 17.0632 4.37156C17.2287 4.37156 17.3889 4.43022 17.5153 4.53712L30.6395 15.4448C30.8566 15.6238 31.1073 15.7576 31.3768 15.8385C31.6463 15.9193 31.9292 15.9456 32.209 15.9157C32.4887 15.8858 32.7597 15.8004 33.006 15.6645C33.2524 15.5285 33.4691 15.3448 33.6435 15.124C34.0034 14.6723 34.1727 14.098 34.1155 13.5233C34.0583 12.9487 33.7791 12.419 33.3373 12.0471L20.213 1.12481C19.3245 0.397432 18.2115 0 17.0632 0C15.9149 0 14.802 0.397432 13.9134 1.12481L0.78915 12.0471C0.347326 12.419 0.0680983 12.9487 0.0109033 13.5233C-0.0462917 14.098 0.123062 14.6723 0.482917 15.124C0.65734 15.3448 0.874069 15.5285 1.12041 15.6645C1.36674 15.8004 1.63773 15.8858 1.9175 15.9157C2.19726 15.9456 2.48018 15.9193 2.74967 15.8385C3.01916 15.7576 3.2698 15.6238 3.48691 15.4448Z" fill="#685F50"/>
<path d="M32.1271 32.0835V21.8757C32.116 21.4373 32.0159 21.0057 31.8329 20.6071C31.6499 20.2086 31.3879 19.8513 31.0626 19.5571L18.9591 9.34937C18.449 8.91956 17.8034 8.68384 17.1363 8.68384C16.4693 8.68384 15.8236 8.91956 15.3135 9.34937L3.21003 19.5571C2.88479 19.8513 2.62272 20.2086 2.43973 20.6071C2.25674 21.0057 2.15664 21.4373 2.14551 21.8757V32.0835C2.14551 32.857 2.45278 33.5988 2.99973 34.1458C3.54668 34.6927 4.2885 35 5.06201 35H12.8491C13.2358 35 13.6067 34.8464 13.8802 34.5729C14.1537 34.2994 14.3073 33.9285 14.3073 33.5417V25.5214C14.3073 25.1346 14.461 24.7637 14.7344 24.4902C15.0079 24.2168 15.3788 24.0631 15.7656 24.0631H18.6821C19.0688 24.0631 19.4397 24.2168 19.7132 24.4902C19.9867 24.7637 20.1403 25.1346 20.1403 25.5214V33.5417C20.1403 33.9285 20.294 34.2994 20.5674 34.5729C20.8409 34.8464 21.2118 35 21.5986 35H29.444C30.1763 34.9412 30.8595 34.6082 31.357 34.0675C31.8545 33.5268 32.1295 32.8182 32.1271 32.0835Z" fill="#685F50"/>
</svg>
