<svg width="410" height="115" viewBox="0 0 410 115" fill="none" xmlns="http://www.w3.org/2000/svg">
<path d="M386.792 50.7697C392.435 50.1514 398.232 53.5745 398.853 59.4079C405.711 58.5118 411.984 64.5604 409.41 71.4602C406.827 78.369 397.791 77.8044 391.688 77.5087C389.618 77.4101 382.157 76.0033 380.987 76.2632C380.357 76.4065 379.619 77.6521 378.926 78.1001C374.093 81.2454 368.657 81.8905 363.302 79.5159C361.934 78.9066 359.117 76.3886 358.379 76.308C356.75 76.1288 349.576 78.1897 346.786 78.36C340.684 78.7274 330.091 78.2883 328.273 70.9494C326.878 65.3041 331.036 61.6929 336.067 60.3757C336.877 60.1606 338.227 60.4743 338.803 60.0889C339.019 59.9366 340.135 56.2896 340.828 55.2232C342.646 52.4454 346.525 49.9364 349.837 49.569C351.16 49.4256 354.77 50.0708 355.211 49.7661C355.427 49.6138 356.813 46.1549 357.281 45.3574C364.517 33.099 384.101 36.8536 386.783 50.7518L386.792 50.7697ZM368.918 40.6172C365.633 41.0562 362.159 43.0634 360.152 45.6531C358.892 47.284 357.101 52.9114 356.489 53.225C355.985 53.4848 353.284 52.1676 351.961 52.0959C348.568 51.8988 344.833 53.6551 342.988 56.5315C341.935 58.1713 341.458 61.675 340.945 62.2395C340.054 63.2163 337.417 62.7324 336.067 62.9743C331.81 63.736 328.768 68.8436 331.855 72.5534C335.167 76.541 343.762 76.2363 348.442 75.7166C351.007 75.4388 357.542 73.4495 359.288 73.6197C360.116 73.7004 362.501 76.4424 363.968 77.1413C369.629 79.8116 376.064 78.2077 380.114 73.6914C386.945 74.1932 395.622 76.2632 402.309 74.7309C407.196 73.6108 409.149 67.3293 405.522 63.727C402.75 60.9761 398.682 62.7413 397.269 61.6212C396.099 60.6893 396.423 56.1193 392.642 54.1838C390.095 52.8755 385.298 53.906 384.974 53.6641C384.704 53.458 383.516 48.6191 382.751 47.2571C380.033 42.4004 374.39 39.8824 368.909 40.6172H368.918Z" fill="#E7E3D3" fill-opacity="0.6"/>
<path d="M34.6094 112.46C34.6002 111.337 35.536 105.249 34.7975 104.791C34.1415 104.465 32.3661 105.171 31.9578 104.882C31.4303 104.511 32.0725 103.548 31.9716 103.438C31.912 103.379 30.7743 103.117 30.3843 102.934C29.6366 102.576 27.5768 101.6 27.6227 100.724L38.2426 78.7741L38.9904 79.1454C39.94 81.1442 40.7565 83.2072 41.7612 85.1785C42.8347 87.2736 45.8578 90.5468 43.9586 92.8665C43.6558 93.2379 42.9402 93.4304 42.9952 93.8293C43.5044 95.3559 47.0368 99.5048 47.1606 100.706C47.3212 102.283 44.6054 102.627 43.4173 102.558C43.9356 103.943 43.6099 105.68 41.8851 105.648C42.0135 106.592 42.1465 112.387 42.564 112.648C46.8395 112.602 51.1471 112.813 55.4226 112.69C64.7259 112.419 74.0568 111.021 83.3693 110.691C92.6818 110.361 101.063 111.213 109.912 111.14L110.366 92.0872C108.201 89.74 104.219 90.4689 102.086 88.2592C101.705 87.865 101.329 86.916 101.008 86.6959C100.586 86.4025 100.035 86.5721 99.7694 86.3934C99.1409 85.967 99.9896 83.7069 99.7832 82.9688L85.5621 84.2708C85.2226 84.257 84.8098 83.9178 84.8419 83.5602L96.9114 60.8536C95.6682 60.9773 90.6863 62.504 89.8605 61.963C89.6357 61.8163 89.6036 61.5871 89.6816 61.3441L102.196 37.0834C102.265 36.7808 102.182 36.6708 101.875 36.7624C101.366 36.9137 100.641 37.473 99.9483 37.6977C99.0217 38.0048 95.8793 38.9217 95.1453 38.422C94.87 38.234 94.8976 37.8673 94.9755 37.5831C101.572 25.6452 107.444 13.3177 112.729 0.738088L113.546 0L132.115 37.5831C132.308 38.5825 130.822 38.3441 130.083 38.2753C128.193 38.1011 126.491 37.0375 124.665 36.6524L137.396 61.3533C137.474 61.5962 137.446 61.8255 137.217 61.9722C136.308 62.5636 130.904 60.9453 129.501 61.0828L140.951 84.4221L140.584 84.9263C135.776 84.6375 131.001 83.661 126.198 83.2026C126.17 83.8949 127.023 86.2283 126.432 86.6272C126.092 86.8564 125.45 86.5951 125.138 86.7647C125.023 86.8289 124.055 88.548 123.67 88.9285C122.817 89.7675 121.78 90.0242 120.656 90.3176C119.39 90.6477 116.5 90.6569 116.275 92.321C115.867 95.3513 116.417 99.569 116.514 102.663C116.601 105.414 116.5 108.179 116.725 110.925C127.065 110.379 137.336 108.761 147.667 108.064C153.649 107.66 159.622 107.683 165.613 107.404L166.058 95.8969C165.269 94.5399 161.406 94.8379 161.273 93.4029C161.131 91.8259 162.59 93.1279 163.085 93.3158C165.2 94.1181 164.718 92.6923 164.732 91.1199C161.461 92.321 158.736 93.2104 160.108 88.4793C156.622 88.7681 152.883 90.0288 149.428 90.2351C148.947 90.2626 147.782 90.4368 147.777 89.6987L155.259 75.6016C153.424 75.7483 151.612 76.271 149.759 76.1564C149.736 75.7804 149.74 75.4137 149.86 75.0469C150.451 73.2544 153.713 68.6654 154.86 66.6253C156.424 63.8472 157.814 60.9682 159.443 58.2221C158.489 58.3551 154.282 60.3768 154.644 58.2771C156.736 54.3987 158.86 50.5203 160.741 46.5318C162.925 41.897 164.677 36.194 166.966 31.8479C167.356 31.1053 167.719 30.5414 168.306 31.5545C171.87 41.0535 176.196 50.2269 180.999 59.1436C181.063 59.7992 180.018 59.68 179.605 59.6524C178.366 59.5699 177.187 58.8456 175.971 58.6622C178.953 64.3056 181.88 69.9857 185.119 75.487C185.867 77.8572 181.059 75.4549 179.935 75.6062L188.082 90.1297V90.6798C187.624 91.1474 176.875 89.0111 175.306 89.1394C175.072 89.3457 176.898 92.6786 176.527 93.5313C176.031 94.6591 173.549 94.5903 172.512 95.0396C171.856 95.3238 171.173 96.0344 170.453 96.3278L170.925 107.601L183.132 107.835C191.138 108.417 199.133 109.017 207.12 109.829C208.964 110.975 207.395 111.2 206.028 111.14C203.652 111.039 200.955 110.471 198.537 110.264C181.559 108.816 164.443 108.215 147.456 109.384C135.877 110.182 124.262 112.144 112.669 112.47C106.917 112.635 101.205 112.107 95.4939 112.011C82.2775 111.796 69.6253 113.313 56.5006 113.771C38.5546 114.4 20.5076 113.643 2.55232 114.212C1.31371 114.253 -0.232257 115.216 0.0292277 113.121C6.33696 112.713 12.663 112.74 18.98 112.584C19.0809 112.52 19.1176 112.428 19.1543 112.318C19.3974 111.589 19.2277 106.679 19.1818 105.529C18.9891 100.724 18.5854 93.9347 17.8514 89.254C17.7001 88.3005 16.6128 86.4575 16.2596 85.3435C15.8743 84.1241 15.5348 82.7075 15.4384 81.4284C14.8604 81.3826 15.0715 81.4009 15.0072 81.7631C14.8283 82.7121 14.6402 86.9252 14.131 87.2736C12.7043 88.25 13.4108 84.0095 13.4842 83.3264C13.6585 81.7448 14.1448 77.6325 14.6081 76.3122C14.6999 76.0463 14.9889 75.6704 15.3008 75.7208C16.0302 75.84 16.0211 78.334 16.1633 79.0537C16.7321 81.974 17.957 88.0254 20.0626 90.1205C21.5994 91.6471 21.9801 88.6626 21.9985 87.4799C22.0857 81.7448 17.0486 73.8183 15.5531 68.2253L15.2228 68.0098C13.865 74.7902 12.8511 81.7448 10.1537 88.1446C10.0299 88.9423 11.7547 87.9108 11.9291 89.0294C12.186 90.6798 8.30956 95.6951 8.39672 97.1484C8.47012 98.3816 10.1078 98.8859 11.14 98.8171C11.7914 98.7713 12.4658 98.3679 13.0805 98.4229C13.7549 98.4825 14.6678 99.2481 15.3375 99.2343C15.9522 99.2206 16.5761 98.2716 17.4248 98.5971C17.8377 99.6423 16.3926 100.486 15.5348 100.573C14.6769 100.66 13.9613 99.9724 13.131 99.9036C11.3373 99.7523 9.75002 100.843 7.97927 99.1243C5.42865 96.6441 9.74543 92.5594 10.3739 89.9004C7.2361 89.1578 9.52523 86.6088 10.1675 84.6329C12.2089 78.3431 12.897 71.5123 14.6723 65.1492C15.6586 64.3881 15.888 65.4884 16.2137 66.254C18.4065 71.3977 23.7325 83.6519 23.127 88.7818C22.8426 91.1795 21.4939 93.1049 19.191 91.1153L20.5076 105.749V112.46H34.6002H34.6094ZM130.395 36.9825C124.037 26.0166 119.032 14.3813 113.775 2.86984C113.683 2.67271 113.711 2.26012 113.44 2.54435C108.348 14.2942 102.88 25.879 96.7096 37.0971C98.6776 37.0421 100.737 36.0977 102.375 35.057C102.985 34.6674 104.774 32.6731 105.04 34.0485L91.6496 60.2117C91.4937 60.7665 92.2644 60.5052 92.5717 60.4731C93.8378 60.3401 98.9529 58.6531 99.4254 58.7998C100.324 59.084 99.2877 59.7396 99.0354 60.1109C98.439 60.9911 97.884 61.8988 97.3289 62.8065L86.7961 82.7579L90.7138 82.492C96.783 75.0423 102.357 66.8729 104.848 57.4519C104.137 57.5986 100.733 59.0702 100.352 58.9785C99.9713 58.8868 99.9804 58.3642 100.045 58.0479C100.109 57.7316 103.311 53.5873 103.866 52.6108C105.563 49.6126 106.797 46.1605 107.311 42.7451C107.793 42.3784 108.527 42.5067 108.541 43.2036C108.564 44.1663 107.586 47.2012 107.219 48.2602C106.155 51.3363 104.458 54.3529 102.435 56.8972C103.21 57.0072 105.926 55.5127 106.38 56.1408C104.293 65.956 98.6455 74.5472 92.5212 82.3086L101.109 81.6485C101.288 82.6708 100.948 83.6748 100.884 84.6192C100.861 84.9676 100.852 84.9905 101.219 84.9493C102.536 84.8255 109.71 80.8416 110.224 80.9975C110.917 81.2038 110.238 84.7246 110.036 85.3985C109.779 86.2604 108.981 86.5813 108.807 85.9028C108.6 85.0914 109.247 83.8673 109.036 82.9734L101.994 85.9395C103.747 89.2082 107.559 88.4655 110.302 90.4001C111.064 90.9365 112.922 93.2608 113.114 93.3112C113.481 93.4029 114.247 91.9405 114.642 91.5417C115.128 91.0511 115.803 90.7623 116.307 90.2947C116.436 87.4294 115.633 84.5321 116.027 81.7035C116.119 81.5155 116.238 81.2863 116.449 81.2267C116.977 81.0754 123.771 84.9722 125 85.1693C125.546 85.206 125.239 85.1327 125.23 84.9447C125.202 84.3441 124.422 81.8685 125.239 81.676L139.203 83.629L127.533 59.735C127.455 58.3734 129.225 59.5883 130.129 59.7992C131.923 60.2163 133.845 60.4685 135.675 60.6381L122.023 33.998C122.606 32.6135 123.482 34.0668 124.156 34.5207C126.092 35.8318 128.033 36.7212 130.395 36.9779V36.9825ZM172.893 90.1251C173.118 90.9182 172.728 92.619 172.893 93.5359L175.315 93.0912C175.513 92.8253 173.682 89.0661 173.591 88.3051C173.558 88.0529 173.513 87.8558 173.765 87.6908C174.536 87.1819 180.389 88.8323 181.701 88.5801C179.357 85.5269 177.279 82.2399 175.719 78.7145C175.196 77.5317 173.068 72.1496 173.357 71.2281C173.613 70.4075 174.792 71.329 175.315 70.976C173.971 68.78 172.494 65.8598 171.948 63.3383C171.746 62.4031 171.577 60.6473 172.852 61.775C173.246 63.4392 173.733 65.0346 174.398 66.6116C174.779 67.5193 177.545 72.1542 177.077 72.6263C176.627 72.8372 174.792 71.9387 174.884 72.7226C175.049 74.1484 176.15 76.734 176.756 78.1185C177.898 80.7499 179.559 83.6381 181.215 85.9853C181.495 86.3796 183.169 88.736 183.311 88.8414C183.568 89.0294 185.536 89.3182 186 89.3503C186.344 89.3732 186.376 89.3824 186.325 89.0202C183.683 84.9951 181.6 80.3603 178.935 76.381C178.545 75.8034 176.742 73.7358 176.687 73.5662C176.609 73.3324 176.637 73.0802 176.646 72.8418C177.871 72.6676 178.283 73.667 179.458 74.098C180.325 74.4189 182.013 74.8223 182.949 75.0148C183.298 75.0836 183.284 75.0653 183.247 74.7169C179.807 68.9497 176.838 62.9211 173.659 57.0027C173.448 56.5717 173.503 55.9024 174.1 55.8932C174.935 55.8841 177.701 58.6255 179.063 57.9883C174.714 50.181 170.994 42.0345 167.833 33.6725C167.526 33.6909 167.494 34.0072 167.388 34.2135C165.439 38.0644 163.957 42.7176 162.081 46.7336C160.333 50.4744 158.351 54.1374 156.392 57.7683C157.218 57.5665 158.126 57.3511 158.879 56.9568C159.81 56.4709 161.31 54.3483 162.117 54.8984L162.292 55.5173L151.543 74.7123C153.365 74.726 155.475 74.3547 157.034 73.3782C157.351 73.1811 158.562 71.6728 159.012 72.4201C159.558 73.3324 158.103 74.0063 157.599 74.5977C154.245 78.5173 152.227 84.4633 149.562 88.901L161.094 86.9389C161.952 87.1865 160.98 90.2168 161.012 90.8815C162.783 90.7715 164.218 89.7629 165.847 89.3457C166.498 90.8082 165.471 92.5548 165.902 94.0264C166.053 94.549 168.012 95.7318 168.421 96.3645L171.476 94.1823C171.875 93.3342 171.572 89.96 172.136 89.7812C172.398 89.6987 172.834 89.8683 172.902 90.1067L172.893 90.1251ZM42.0961 101.238H45.2889C45.3486 101.238 45.9954 101.013 45.8165 100.715C45.0045 99.0968 41.541 94.7553 41.4355 93.1875C41.3621 92.078 42.3943 92.6923 42.8759 92.2247C44.3669 90.7715 42.0319 88.2821 41.3208 86.9389C40.4125 85.2197 39.6418 83.3218 38.6784 81.6485C38.5408 81.4101 38.7014 81.1121 38.2426 81.213L29.0907 100.468C29.1549 101.109 32.2423 102.65 32.6138 102.329L35.0865 95.0075C35.1186 94.6178 36.0407 94.5353 36.1508 94.6407C36.715 95.1909 33.6781 102.219 33.5084 103.443C34.4626 103.337 35.3342 103.64 36.1462 104.103C36.348 103.943 36.9077 101.76 37.1462 101.467C37.972 100.445 38.2931 102.508 38.6417 102.934C38.9904 103.36 41.5043 104.667 41.963 104.534C42.8025 104.286 41.9355 101.893 42.0961 101.242V101.238ZM117.628 89.5795C120.266 89.199 122.922 89.034 124.009 86.1825L117.188 82.9826C117.115 85.1922 117.316 87.3974 117.628 89.5841V89.5795ZM115.422 111.14L114.871 93.0958C114.66 93.0912 114.041 94.7966 113.825 95.0212C113.045 95.8281 112.348 93.8155 111.683 93.5405L111.243 111.145H115.426L115.422 111.14ZM169.15 97.4968C168.453 98.2303 167.416 96.6166 167.2 97.4143L166.728 107.619H169.59L169.145 97.4968H169.15ZM41.2153 112.68C40.9492 110.301 40.651 107.968 40.7474 105.556L37.5866 103.654C37.1554 104.451 37.1416 105.089 36.137 105.332L35.9306 112.68H41.2153Z" fill="#E7E3D3"/>
<path d="M259.463 11.209C262.34 10.8927 265.294 12.6439 265.61 15.6284C269.106 15.1699 272.303 18.2644 270.991 21.7944C269.675 25.329 265.069 25.0402 261.959 24.8889C260.904 24.8385 257.101 24.1187 256.504 24.2516C256.183 24.325 255.807 24.9622 255.454 25.1915C252.99 26.8006 250.22 27.1307 247.49 25.9158C246.793 25.6041 245.357 24.3158 244.981 24.2746C244.15 24.1829 240.494 25.2373 239.072 25.3244C235.962 25.5124 230.562 25.2877 229.636 21.5331C228.925 18.6449 231.044 16.7974 233.608 16.1235C234.021 16.0135 234.709 16.1739 235.003 15.9768C235.113 15.8988 235.682 14.033 236.035 13.4874C236.962 12.0663 238.939 10.7826 240.627 10.5947C241.302 10.5213 243.141 10.8514 243.366 10.6955C243.476 10.6176 244.182 8.848 244.421 8.43999C248.109 2.16851 258.092 4.08938 259.459 11.1998L259.463 11.209ZM250.353 6.01483C248.678 6.23947 246.907 7.26638 245.884 8.59128C245.242 9.42564 244.329 12.3047 244.017 12.4651C243.76 12.5981 242.384 11.9242 241.71 11.8875C239.98 11.7866 238.077 12.6852 237.136 14.1568C236.599 14.9957 236.356 16.7882 236.095 17.077C235.641 17.5767 234.297 17.3292 233.608 17.453C231.439 17.8426 229.888 20.4558 231.461 22.3537C233.15 24.3938 237.531 24.2379 239.916 23.972C241.224 23.8299 244.554 22.8121 245.444 22.8992C245.866 22.9405 247.082 24.3433 247.829 24.7009C250.715 26.0671 253.995 25.2465 256.059 22.9359C259.541 23.1926 263.964 24.2516 267.372 23.4677C269.863 22.8947 270.858 19.681 269.01 17.838C267.597 16.4306 265.523 17.3338 264.803 16.7607C264.207 16.2839 264.372 13.9459 262.445 12.9556C261.147 12.2863 258.702 12.8135 258.537 12.6897C258.399 12.5843 257.793 10.1087 257.403 9.41189C256.018 6.92713 253.142 5.63891 250.348 6.01483H250.353Z" fill="#E7E3D3"/>
<path d="M52.6933 6.15225C52.8401 6.28061 55.1568 5.96887 56.4871 6.87659C57.5881 7.62843 57.9689 9.25131 58.2258 9.43011C58.4368 9.57681 59.4552 9.63182 60.0149 9.95273C61.5379 10.8284 62.2077 12.8317 61.1572 14.3308C59.9094 16.1096 57.1707 16.2196 55.1935 16.0913C54.2026 16.0271 52.386 15.3944 51.6611 15.4403C50.8905 15.4861 49.7482 17.2007 47.271 16.9623C45.6332 16.8064 44.624 15.5411 43.9588 15.4219C42.6009 15.1744 39.8668 16.05 38.0456 15.8391C35.2656 15.5182 33.2609 13.0564 35.1555 10.5762C36.1648 9.25131 37.2061 9.65933 37.908 9.14587C38.3346 8.83413 38.353 7.6972 39.5595 7.05538C40.4357 6.58777 41.5917 6.73447 41.844 6.58318C41.9541 6.519 42.5688 4.85027 42.9863 4.31389C45.4085 1.17815 50.4409 1.61826 52.3538 5.06574C52.5236 5.36831 52.652 6.11557 52.6933 6.15683V6.15225ZM46.4452 3.58956C45.2112 3.80044 43.9175 4.95571 43.4634 6.11099C43.2891 6.56026 43.2157 7.67886 42.9909 7.83931C42.2523 8.37111 40.4861 7.14248 39.4815 8.95333C39.2429 9.38426 39.2705 10.0948 38.9264 10.3791C38.3346 10.8696 37.1327 10.1819 36.2473 11.2226C34.7289 13.0105 36.6327 14.395 38.4539 14.5463C40.2751 14.6976 42.9634 13.8174 44.4038 14.1016C45.4268 14.3033 45.6791 15.697 47.9361 15.6512C49.9409 15.6099 50.4042 14.23 51.2483 14.0925C52.0419 13.9641 53.9686 14.6701 54.9825 14.7526C56.5376 14.8764 60.3865 14.9406 60.3865 12.6667C60.3865 10.3928 57.9735 11.0942 57.2853 10.6908C56.9092 10.4708 56.7991 8.62325 55.5192 7.83473C53.8723 6.81699 52.9365 7.95851 52.1474 7.69719C51.7896 7.58258 51.5052 6.25769 51.2207 5.74882C50.2207 3.94256 48.4591 3.24114 46.4452 3.58497V3.58956Z" fill="#E7E3D3"/>
<path d="M90.7418 69.5318C90.6867 69.6097 89.1361 69.9306 88.8609 69.9627C85.3561 70.357 81.6953 70.0957 78.2501 69.3988C72.447 68.2298 68.9009 65.7405 62.6299 67.5101C57.3176 69.0092 52.1476 72.8005 47.1702 75.1706C46.2252 75.6245 45.5646 74.6297 46.4179 73.9741C54.6844 70.2332 61.3087 63.9892 71.0249 66.0568C76.3922 67.1983 80.1539 69.0642 86.035 68.8991C86.8149 68.8762 90.3335 68.1794 90.6638 68.6562C90.7784 68.8212 90.8381 69.3897 90.7418 69.5318Z" fill="#E7E3D3"/>
<path d="M218.24 77.8983C217.951 78.3109 216.103 77.7149 215.616 77.5866C212.772 76.821 209.63 75.2944 207.134 73.7402C200.716 69.7472 198.56 65.0894 189.922 68.6332C189.101 68.9679 186.124 70.8016 185.738 70.8383C185.33 70.875 184.904 70.3111 185.023 69.9122C185.115 69.6097 187.95 68.0556 188.454 67.8263C200.203 62.403 203.616 71.6681 213.355 75.4456C214.139 75.7482 217.818 76.7384 218.039 76.9218C218.273 77.1189 218.374 77.7103 218.24 77.8983Z" fill="#E7E3D3"/>
<path d="M152.837 65.7909C152.479 66.2952 150.034 65.0482 149.199 64.952C147.195 64.7227 145.456 65.25 143.612 65.9239C141.731 66.6115 139.135 68.3169 137.451 68.7891C135.873 69.2292 135.974 68.2711 137.07 67.5284C139.68 65.7634 145.873 63.352 148.998 63.6133C149.745 63.6775 153.709 64.5669 152.837 65.7909Z" fill="#E7E3D3"/>
<path d="M12.5623 65.1765C12.9889 65.8596 12.3375 66.396 11.4842 66.153C8.90606 65.4149 8.73174 64.7777 5.77284 65.7129C4.6535 66.0659 2.76807 67.4137 2.07536 67.5329C1.1487 67.6934 0.827576 67.1662 1.46523 66.4693C3.03414 64.7502 7.52983 63.7875 9.77768 64.1084C10.1676 64.1634 12.4659 65.0298 12.5577 65.1765H12.5623Z" fill="#E7E3D3"/>
<path d="M14.1311 89.795C14.4109 90.0655 13.0484 96.1581 12.7915 96.3736C12.5989 96.5387 11.4979 96.4791 11.5254 95.8922C11.5483 95.4246 12.7044 90.9686 12.92 90.4505C13.1127 89.9829 13.7778 89.4466 14.1311 89.7904V89.795Z" fill="#E7E3D3"/>
<path d="M127.748 57.8873C127.377 58.1578 124.188 56.104 123.349 56.3515L128.354 77.206C128.625 78.3613 128.404 79.2003 127.349 78.21L122.032 55.7968V54.8111C123.262 54.7103 124.331 55.508 125.546 55.5859C123.491 52.1201 121.413 48.448 119.94 44.6888C119.211 42.8275 118.064 39.7743 117.711 37.8763C117.569 37.0924 118.344 36.9915 118.835 37.427C120.775 44.3495 123.867 50.8777 127.808 56.865C128.01 57.0484 127.808 57.846 127.744 57.8919L127.748 57.8873Z" fill="#E7E3D3"/>
<path d="M160.787 70.4303C161.09 70.7466 162.764 68.8395 162.526 71.3976C162.287 73.9557 159.342 80.9791 157.879 83.2621C157.434 83.9543 157.347 84.5687 156.402 84.0552C156.305 83.7572 156.402 83.4776 156.484 83.1933C157.025 81.3825 158.778 78.8106 159.571 76.8118C160.209 75.1981 160.604 73.4835 161.223 71.8606C160.608 71.5489 159.094 72.5391 159.012 71.4205C158.961 70.7558 161.264 65.7725 161.668 64.6081C162.15 63.2328 162.37 61.4173 162.819 60.2575C163.058 59.6478 163.865 59.3406 164.063 60.0145C164.586 61.8024 160.402 70.036 160.783 70.4303H160.787Z" fill="#E7E3D3"/>
<path d="M42.9772 98.8171L41.9863 98.6016C40.922 95.9748 38.8898 93.6963 39.2384 90.6752C40.6835 90.4001 40.2798 91.8625 40.6239 92.9215C40.9312 93.8797 43.413 98.3816 42.9818 98.8171H42.9772Z" fill="#E7E3D3"/>
</svg>
