<svg width="33" height="30" viewBox="0 0 33 30" fill="none" xmlns="http://www.w3.org/2000/svg">
<path d="M16.0347 5.17249L18.1774 9.35142L22.7588 10.0218L19.3968 13.0722L20.5174 17.5863L16.0347 15.0471L11.5519 17.5863L12.6726 13.0722L9.31055 10.0218L14.0174 9.35142L16.0347 5.17249Z" fill="#685F50"/>
<path d="M18.0228 30L16.0345 28.8462L20.6158 20.7692H27.4877C27.7886 20.7697 28.0867 20.7103 28.3648 20.5945C28.6429 20.4787 28.8956 20.3087 29.1084 20.0943C29.3212 19.88 29.4899 19.6254 29.6049 19.3452C29.7198 19.065 29.7788 18.7647 29.7783 18.4615V4.61538C29.7788 4.31221 29.7198 4.01192 29.6049 3.73173C29.4899 3.45154 29.3212 3.19696 29.1084 2.98258C28.8956 2.7682 28.6429 2.59824 28.3648 2.48243C28.0867 2.36662 27.7886 2.30724 27.4877 2.30769H4.58128C4.28034 2.30724 3.98227 2.36662 3.70416 2.48243C3.42604 2.59824 3.17334 2.7682 2.96054 2.98258C2.74775 3.19696 2.57904 3.45154 2.46408 3.73173C2.34913 4.01192 2.29019 4.31221 2.29064 4.61538V18.4615C2.29019 18.7647 2.34913 19.065 2.46408 19.3452C2.57904 19.6254 2.74775 19.88 2.96054 20.0943C3.17334 20.3087 3.42604 20.4787 3.70416 20.5945C3.98227 20.7103 4.28034 20.7697 4.58128 20.7692H14.8892V23.0769H4.58128C3.36625 23.0769 2.20098 22.5907 1.34183 21.7251C0.482669 20.8596 0 19.6856 0 18.4615V4.61538C0 3.39131 0.482669 2.21737 1.34183 1.35181C2.20098 0.486262 3.36625 0 4.58128 0H27.4877C28.7027 0 29.868 0.486262 30.7271 1.35181C31.5863 2.21737 32.069 3.39131 32.069 4.61538V18.4615C32.069 19.6856 31.5863 20.8596 30.7271 21.7251C29.868 22.5907 28.7027 23.0769 27.4877 23.0769H21.9501L18.0228 30Z" fill="#685F50"/>
</svg>
