<svg width="29" height="27" viewBox="0 0 29 27" fill="none" xmlns="http://www.w3.org/2000/svg">
<path d="M7.25 17.4136H9.6425C9.83583 17.4136 10.0234 17.3773 10.2051 17.3048C10.3868 17.2322 10.5497 17.1234 10.6937 16.9783L17.4725 10.1579C17.69 9.94027 17.8534 9.69212 17.9626 9.41351C18.0718 9.13489 18.126 8.86304 18.125 8.59797C18.124 8.33289 18.0699 8.07314 17.9626 7.81871C17.8553 7.56428 17.704 7.32823 17.5087 7.11056L16.1675 5.73198C15.95 5.51431 15.7083 5.3513 15.4425 5.24295C15.1767 5.13459 14.8987 5.07994 14.6087 5.07897C14.3429 5.07897 14.0771 5.13363 13.8112 5.24295C13.5454 5.35227 13.3037 5.51528 13.0862 5.73198L6.235 12.516C6.09 12.6611 5.98125 12.8246 5.90875 13.0065C5.83625 13.1884 5.8 13.3756 5.8 13.5681V15.9625C5.8 16.3736 5.9392 16.7185 6.2176 16.9971C6.496 17.2757 6.84013 17.4146 7.25 17.4136ZM14.5725 10.0128L13.195 8.67052L14.6087 7.25567L15.95 8.63425L14.5725 10.0128ZM13.34 17.4136H21.75C22.1608 17.4136 22.5054 17.2743 22.7838 16.9957C23.0622 16.7171 23.201 16.3727 23.2 15.9625C23.199 15.5523 23.0598 15.2079 22.7824 14.9293C22.505 14.6506 22.1608 14.5113 21.75 14.5113H16.24L13.34 17.4136ZM5.8 23.2181L2.465 26.5557C2.00584 27.0153 1.47997 27.1183 0.887402 26.8648C0.294836 26.6114 -0.000964305 26.1577 2.36156e-06 25.5037V2.90227C2.36156e-06 2.10414 0.284202 1.42114 0.852602 0.853267C1.421 0.28539 2.10347 0.000967423 2.9 0H26.1C26.8975 0 27.5804 0.284422 28.1488 0.853267C28.7172 1.42211 29.001 2.10511 29 2.90227V20.3159C29 21.114 28.7163 21.7975 28.1488 22.3663C27.5814 22.9352 26.8985 23.2191 26.1 23.2181H5.8Z" fill="#685F50"/>
</svg>
