<svg width="448" height="19" viewBox="0 0 448 19" fill="none" xmlns="http://www.w3.org/2000/svg">
<path d="M224.412 7.78886C221.21 7.82583 216.726 12.7818 216.762 15.8771C216.778 17.2712 217.869 18.0915 219.681 18.0706C221.65 18.0479 222.939 17.0311 224.519 17.0128C226.112 16.9945 227.427 17.9812 229.38 17.9587C231.191 17.9378 232.263 17.0924 232.247 15.6984C232.211 12.6031 227.614 7.7519 224.412 7.78886ZM218.467 7.35372C218.032 5.97448 216.729 5.09304 215.558 5.38461C214.387 5.67618 213.791 7.03057 214.226 8.4098C214.662 9.78904 215.964 10.6705 217.135 10.3789C218.306 10.0873 218.903 8.73295 218.467 7.35372ZM221.874 6.48424C223.118 6.14469 223.723 4.4678 223.225 2.73892C222.728 1.01005 221.316 -0.115826 220.072 0.223724C218.828 0.563274 218.223 2.24016 218.721 3.96904C219.218 5.69792 220.63 6.82418 221.874 6.48424ZM233.208 5.18129C232.03 4.91683 230.749 5.82809 230.345 7.21701C229.942 8.60593 230.569 9.9462 231.746 10.2107C232.924 10.4751 234.205 9.56385 234.609 8.17493C235.012 6.78601 234.385 5.44575 233.208 5.18129ZM226.919 6.426C228.171 6.73675 229.556 5.57859 230.014 3.83869C230.471 2.09879 229.828 0.436713 228.576 0.125567C227.325 -0.185579 225.939 0.972975 225.482 2.71288C225.025 4.45278 225.668 6.11525 226.919 6.426Z" fill="#E86E2F"/>
<path d="M0 12.8854L205 12.8854" stroke="#E86E2F"/>
<line x1="243" y1="12.3855" x2="448" y2="12.3855" stroke="#E86E2F"/>
</svg>
