<svg width="373" height="124" viewBox="0 0 373 124" fill="none" xmlns="http://www.w3.org/2000/svg">
<path d="M52.0171 101.415C50.4302 104.032 49.9476 107.171 50.6754 110.144C51.4032 113.116 53.2818 115.677 55.898 117.264C58.5142 118.851 61.6536 119.334 64.6257 118.606C67.5977 117.878 70.1589 116 71.7459 113.383C73.2816 110.851 73.7242 107.971 73.2359 105.29C75.8384 104.485 78.1881 102.762 79.7238 100.229C81.3107 97.6131 81.7934 94.4733 81.0656 91.501C80.3377 88.5287 78.4591 85.9673 75.8429 84.3803C73.2267 82.7932 70.0873 82.3105 67.1152 83.0384C64.1432 83.7663 61.582 85.6451 59.9951 88.2615C55.4623 85.8717 50.8767 83.4948 46.5035 80.8419C42.1303 78.189 37.9038 75.2202 33.6901 72.3042C35.277 69.6878 35.7597 66.5481 35.0319 63.5758C34.3041 60.6035 32.4254 58.042 29.8092 56.455C27.193 54.8679 24.0536 54.3852 21.0815 55.1131C18.1095 55.841 15.5483 57.7198 13.9614 60.3362C12.4256 62.8683 11.9831 65.7486 12.4714 68.429C9.86889 69.2343 7.5192 70.9578 5.98344 73.4898C4.39653 76.1063 3.91388 79.246 4.64169 82.2183C5.3695 85.1906 7.24814 87.752 9.86433 89.339C12.4805 90.9261 15.62 91.4088 18.592 90.6809C21.5641 89.953 24.1252 88.0742 25.7122 85.4578C30.2449 87.8476 34.8305 90.2245 39.2037 92.8774C43.5769 95.5303 47.8035 98.4991 52.0171 101.415Z" fill="#F1D7AD"/>
<path d="M370 64C354.747 43.6667 307.119 3 238.637 3C170.155 3 107.011 36.9449 84 53.9174" stroke="#F1D7AD" stroke-width="6" stroke-linecap="round" stroke-linejoin="round" stroke-dasharray="25 25"/>
</svg>
