<svg width="506" height="148" viewBox="0 0 506 148" fill="none" xmlns="http://www.w3.org/2000/svg">
<path d="M462.032 37.4239C451.412 33.7515 430.699 44.9025 427.129 55.228C425.521 59.8784 428.146 63.8965 434.155 65.9742C440.687 68.2329 446.155 66.3824 451.394 68.1938C456.677 70.0209 459.847 74.8584 466.321 77.0971C472.33 79.1749 476.876 77.6365 478.484 72.9861C482.054 62.6606 472.652 41.0962 462.032 37.4239ZM442.916 28.9326C443.121 23.8346 439.87 19.3628 435.655 18.9436C431.44 18.5243 427.857 22.3173 427.652 27.4153C427.446 32.5133 430.698 36.9851 434.913 37.4044C439.128 37.8236 442.71 34.0307 442.916 28.9326ZM455.203 30.0816C459.716 30.4278 463.712 25.5738 464.129 19.2406C464.546 12.9074 461.225 7.494 456.712 7.14783C452.199 6.80165 448.203 11.6556 447.786 17.9888C447.37 24.322 450.691 29.7372 455.203 30.0816ZM494.187 39.1849C490.613 36.9109 485.296 38.4198 482.308 42.5554C479.32 46.6916 479.795 51.8876 483.369 54.1617C486.943 56.4357 492.26 54.9269 495.249 50.7912C498.236 46.655 497.761 41.459 494.187 39.1849ZM471.936 35.8678C475.699 38.3832 481.654 36.1774 485.238 30.9393C488.822 25.7011 488.677 19.4168 484.914 16.9C481.152 14.3832 475.196 16.5903 471.613 21.8285C468.029 27.0666 468.174 33.3523 471.936 35.8678Z" fill="#F1D7AE"/>
<path d="M436.5 95.5406C418.834 118.374 370.3 159.141 317.5 139.541C251.5 115.041 225.5 79.5406 142.5 83.0406C76.1005 85.8406 21.8338 109.874 3.00049 121.541" stroke="#F1D7AD" stroke-width="6" stroke-linecap="round" stroke-linejoin="round" stroke-dasharray="25 25"/>
</svg>
