<svg width="26" height="33" viewBox="0 0 26 33" fill="none" xmlns="http://www.w3.org/2000/svg">
<path d="M4.36417 23.4916C4.77268 23.3724 5.21179 23.4204 5.58491 23.625C5.95802 23.8297 6.23457 24.1741 6.35372 24.5827C6.47287 24.9912 6.42486 25.4304 6.22025 25.8035C6.01564 26.1767 5.67119 26.4533 5.26268 26.5724C4.46044 26.8067 3.88283 27.0538 3.51219 27.2784C3.89406 27.5079 4.49734 27.7646 5.33488 28.0037C7.18804 28.5333 9.84024 28.8831 12.8358 28.8831C15.8313 28.8831 18.4835 28.5333 20.3367 28.0037C21.1758 27.7646 21.7775 27.5079 22.1594 27.2784C21.7904 27.0538 21.2128 26.8067 20.4105 26.5724C20.0084 26.448 19.6713 26.1706 19.4719 25.7999C19.2724 25.4293 19.2266 24.9951 19.3442 24.5909C19.4619 24.1868 19.7336 23.8451 20.1008 23.6394C20.4681 23.4338 20.9014 23.3807 21.3074 23.4916C22.3792 23.8045 23.3611 24.2056 24.1152 24.7207C24.8132 25.2005 25.6716 26.0365 25.6716 27.2784C25.6716 28.5349 24.7923 29.3773 24.0832 29.8571C23.3162 30.3737 22.3134 30.7765 21.2176 31.0894C19.0066 31.7232 16.0447 32.0923 12.8358 32.0923C9.62685 32.0923 6.66499 31.7232 4.45402 31.0894C3.35816 30.7765 2.35537 30.3737 1.58843 29.8571C0.879252 29.3757 0 28.5349 0 27.2784C0 26.0365 0.858393 25.2005 1.55634 24.7207C2.31044 24.2056 3.29238 23.8045 4.36417 23.4916ZM12.8358 0C16.0273 0 19.0881 1.26793 21.3448 3.52485C23.6015 5.78178 24.8694 8.84283 24.8694 12.0346C24.8694 16.1553 22.6231 19.5057 20.2966 21.8869C19.3718 22.8239 18.378 23.6902 17.3235 24.4784C16.3705 25.194 14.1916 26.5355 14.1916 26.5355C13.7783 26.7704 13.3111 26.8939 12.8358 26.8939C12.3605 26.8939 11.8933 26.7704 11.48 26.5355C10.3987 25.9084 9.3531 25.2217 8.34808 24.4784C7.29207 23.6921 6.29811 22.8257 5.37499 21.8869C3.0485 19.5057 0.802237 16.1553 0.802237 12.0346C0.802237 8.84283 2.07005 5.78178 4.32678 3.52485C6.58351 1.26793 9.6443 0 12.8358 0ZM12.8358 8.82538C11.9847 8.82538 11.1685 9.16349 10.5667 9.76534C9.96493 10.3672 9.62685 11.1835 9.62685 12.0346C9.62685 12.8857 9.96493 13.702 10.5667 14.3039C11.1685 14.9057 11.9847 15.2438 12.8358 15.2438C13.6869 15.2438 14.5031 14.9057 15.1049 14.3039C15.7067 13.702 16.0447 12.8857 16.0447 12.0346C16.0447 11.1835 15.7067 10.3672 15.1049 9.76534C14.5031 9.16349 13.6869 8.82538 12.8358 8.82538Z" fill="#685F50"/>
</svg>
