<svg width="39" height="35" viewBox="0 0 39 35" fill="none" xmlns="http://www.w3.org/2000/svg">
<path fill-rule="evenodd" clip-rule="evenodd" d="M15.1671 35H23.8329C29.9189 35 32.9628 35 35.1488 33.5708C36.0922 32.9547 36.9046 32.1592 37.5395 31.2297C39 29.0909 39 26.11 39 20.1523C39 14.1945 39 11.2137 37.5395 9.07479C36.9046 8.14533 36.0922 7.3498 35.1488 6.73368C33.7448 5.81396 31.9858 5.48535 29.2929 5.36869C28.0078 5.36869 26.9022 4.41591 26.6507 3.18119C26.4584 2.27677 25.9589 1.46627 25.2366 0.88666C24.5143 0.307051 23.6134 -0.0061149 22.6863 9.04764e-05H16.3137C14.3871 9.04764e-05 12.7277 1.33203 12.3494 3.18119C12.0978 4.41591 10.9922 5.36869 9.7071 5.36869C7.0161 5.48535 5.2572 5.81591 3.85125 6.73368C2.9085 7.35 2.09678 8.14552 1.4625 9.07479C0 11.2137 0 14.1926 0 20.1523C0 26.112 1.16229e-07 29.0889 1.46055 31.2297C2.09235 32.1553 2.90355 32.9506 3.85125 33.5708C6.0372 35 9.08115 35 15.1671 35ZM19.5 12.1976C15.0131 12.1976 11.3744 15.7578 11.3744 20.1503C11.3744 24.5428 15.015 28.1089 19.5 28.1089C23.985 28.1089 27.6257 24.5467 27.6257 20.1542C27.6257 15.7617 23.985 12.1976 19.5 12.1976ZM19.5 15.3787C16.809 15.3787 14.625 17.5156 14.625 20.1523C14.625 22.787 16.809 24.9239 19.5 24.9239C22.191 24.9239 24.375 22.787 24.375 20.1523C24.375 17.5175 22.191 15.3787 19.5 15.3787ZM28.7079 13.7881C28.7079 12.9092 29.4352 12.1976 30.3342 12.1976H32.4987C33.3957 12.1976 34.125 12.9092 34.125 13.7881C34.1209 14.2137 33.9475 14.6203 33.6429 14.9186C33.3383 15.2168 32.9275 15.3823 32.5007 15.3787H30.3342C30.1227 15.3807 29.9128 15.3412 29.7166 15.2624C29.5204 15.1836 29.3417 15.067 29.1907 14.9193C29.0397 14.7716 28.9193 14.5957 28.8365 14.4016C28.7536 14.2075 28.7099 13.999 28.7079 13.7881Z" fill="#685F50"/>
</svg>
