<svg width="41" height="30" viewBox="0 0 41 30" fill="none" xmlns="http://www.w3.org/2000/svg">
<path d="M11.1818 0C4.84545 0 -2.38419e-07 6.82516 -2.38419e-07 15.0004V24.3756C-2.38419e-07 24.8729 0.196345 25.3498 0.545845 25.7014C0.895344 26.0531 1.36937 26.2506 1.86364 26.2506H4.04595C4.43176 27.3472 5.14588 28.2966 6.09004 28.968C7.03419 29.6395 8.16198 30 9.31818 30C10.4744 30 11.6022 29.6395 12.5463 28.968C13.4905 28.2966 14.2046 27.3472 14.5904 26.2506H26.4096C26.7954 27.3472 27.5095 28.2966 28.4537 28.968C29.3978 29.6395 30.5256 30 31.6818 30C32.838 30 33.9658 29.6395 34.91 28.968C35.8541 28.2966 36.5682 27.3472 36.954 26.2506H39.1364C39.6306 26.2506 40.1047 26.0531 40.4542 25.7014C40.8037 25.3498 41 24.8729 41 24.3756V3.75009C41 2.7555 40.6073 1.80165 39.9083 1.09838C39.2093 0.395097 38.2613 0 37.2727 0H11.1818ZM31.6818 22.5005C32.1761 22.5005 32.6501 22.6981 32.9996 23.0497C33.3491 23.4014 33.5455 23.8783 33.5455 24.3756C33.5455 24.8729 33.3491 25.3498 32.9996 25.7014C32.6501 26.0531 32.1761 26.2506 31.6818 26.2506C31.1876 26.2506 30.7135 26.0531 30.364 25.7014C30.0145 25.3498 29.8182 24.8729 29.8182 24.3756C29.8182 23.8783 30.0145 23.4014 30.364 23.0497C30.7135 22.6981 31.1876 22.5005 31.6818 22.5005ZM9.31818 22.5005C9.81245 22.5005 10.2865 22.6981 10.636 23.0497C10.9855 23.4014 11.1818 23.8783 11.1818 24.3756C11.1818 24.8729 10.9855 25.3498 10.636 25.7014C10.2865 26.0531 9.81245 26.2506 9.31818 26.2506C8.82391 26.2506 8.34989 26.0531 8.00039 25.7014C7.65089 25.3498 7.45455 24.8729 7.45455 24.3756C7.45455 23.8783 7.65089 23.4014 8.00039 23.0497C8.34989 22.6981 8.82391 22.5005 9.31818 22.5005ZM10.7345 3.77071L8.74418 13.1253H3.83164C4.41495 7.95769 7.36323 4.0876 10.7345 3.77071ZM31.6818 3.75009H37.2727V9.37522H31.6818V3.75009ZM22.3636 3.75009H27.9545V9.37522H22.3636V3.75009ZM14.5531 3.75009H18.6364V9.37522H13.3548L14.5531 3.75009Z" fill="#685F50"/>
</svg>
