<svg width="31" height="55" viewBox="0 0 31 55" fill="none" xmlns="http://www.w3.org/2000/svg">
<path d="M1.18566 1.21197C0.426485 1.98816 0 3.04079 0 4.13837C0 5.23594 0.426485 6.28858 1.18566 7.06476L21.2289 27.5528L1.18566 48.0408C0.471271 48.8252 0.0823912 49.8623 0.100845 50.9339C0.119298 52.0054 0.543647 53.0279 1.2846 53.7861C2.02556 54.5443 3.02535 54.9792 4.07361 54.9993C5.12188 55.0193 6.13689 54.623 6.90507 53.8936L29.8143 30.4824C30.5735 29.7062 31 28.6536 31 27.556C31 26.4584 30.5735 25.4058 29.8143 24.6296L6.91139 1.21197C6.15206 0.435949 5.12228 0 4.04853 0C2.97478 0 1.945 0.435949 1.18566 1.21197Z" fill="white"/>
</svg>
