<svg width="31" height="55" viewBox="0 0 31 55" fill="none" xmlns="http://www.w3.org/2000/svg">
<path d="M29.8143 1.21197C30.5735 1.98816 31 3.04079 31 4.13837C31 5.23594 30.5735 6.28858 29.8143 7.06476L9.7711 27.5528L29.8143 48.0408C30.5287 48.8252 30.9176 49.8623 30.8992 50.9339C30.8807 52.0054 30.4564 53.0279 29.7154 53.7861C28.9744 54.5443 27.9747 54.9792 26.9264 54.9993C25.8781 55.0193 24.8631 54.623 24.0949 53.8936L1.18566 30.4824C0.426489 29.7062 1.90735e-06 28.6536 1.90735e-06 27.556C1.90735e-06 26.4584 0.426489 25.4058 1.18566 24.6296L24.0886 1.21197C24.8479 0.435949 25.8777 0 26.9515 0C28.0252 0 29.055 0.435949 29.8143 1.21197Z" fill="white"/>
</svg>
