<?xml version="1.0" encoding="UTF-8"?>
<svg id="Layer_1" data-name="Layer 1" xmlns="http://www.w3.org/2000/svg" xmlns:xlink="http://www.w3.org/1999/xlink" viewBox="0 0 1920 800">
  <defs>
    <style>
      .cls-1 {
        fill: #7decef;
      }

      .cls-2 {
        fill: none;
      }

      .cls-3 {
        fill: #d7fffa;
        opacity: .2;
      }

      .cls-4 {
        clip-path: url(#clippath);
      }
    </style>
    <clipPath id="clippath">
      <rect class="cls-2" width="1920" height="800"/>
    </clipPath>
  </defs>
  <rect class="cls-1" width="1920" height="800"/>
  <path class="cls-1" d="M0,747.28C0,533.94,0,320.61,0,107.27c41.65-11.86,104.05-27.71,180.96-39.76,137.51-21.55,244.47-18.9,291.85-17.46,326.62,9.97,627.64,48.47,882.84,50.88,130.41,1.23,324.2-6.25,563.02-52.03.45,220.58.89,441.17,1.34,661.75-226.81,30.07-410.92,36.07-532.84,36.4-390.05,1.06-568.92-54.74-953.8-41.26-188.27,6.6-340.1,26.77-433.36,41.48Z"/>
  <path class="cls-2" d="M0,747.28C0,533.94,0,320.61,0,107.27c41.65-11.86,104.05-27.71,180.96-39.76,137.51-21.55,244.47-18.9,291.85-17.46,326.62,9.97,627.64,48.47,882.84,50.88,130.41,1.23,324.2-6.25,563.02-52.03.45,220.58.89,441.17,1.34,661.75-226.81,30.07-410.92,36.07-532.84,36.4-390.05,1.06-568.92-54.74-953.8-41.26-188.27,6.6-340.1,26.77-433.36,41.48Z"/>
  <g class="cls-4">
    <path class="cls-3" d="M60.7,1068.86c20.92,45.04,43.89,70.8,95.53,73.72,28.88,1.64,68.12,5.54,71.36,34.28,1.12,9.93-3.24,19.56-7.49,28.6-22.92,48.77-44.42,118.43-78.74,171.79h17.43c4.06-16.16,9.5-32.16,15.62-47.97,9.18-23.69,20.21-46.64,32.01-69.12,18.17-34.63,19.41-75.11,38.46-108.94,10.11-17.95,34.41-20.76,52.73-26.89,51.66-17.27,104.14-36.43,159.52-33.29,44.35,2.52,88.37,11.37,130.37,25.81,34.99,12.02,64.81,31.46,98.88,46.06,25.68,11,14.07,40.2,8.7,62.39-8.44,34.91-.79,70.93,11.11,104.07,7.24,20.16,20.44,33.37,34.21,47.89h34.19c-41.22-32-71.2-77.27-73.61-128.67-1.35-28.74,5.76-56.67,16.41-83.62,3.36-8.52,7.09-16.95,11-25.28,1.86-3.95,3.77-7.88,5.69-11.79,2.28-4.61,4.59-9.18,6.93-13.72.02-.05.05-.09.07-.15,1.7-3.32,3.42-6.64,5.14-9.95,1.17-2.24,2.34-4.49,3.51-6.73,2.28-4.35,4.57-8.69,6.88-13.02,1.15-2.15,2.29-4.29,3.44-6.43,4.67-8.7,9.41-17.37,14.2-26,2.4-4.34,4.83-8.67,7.27-12.99,17.11-30.32,34.96-60.22,53.53-89.68,27.24-43.2,56.97-86.41,98.77-115.76,65.75-46.16,150.89-51.38,231.15-55,3.86-.18,7.79-.31,11.77-.38,7.86-.14,15.88-.02,23.8.57,27.39,2.05,53.58,9.77,67.58,32.14.81,1.29,1.56,2.6,2.25,3.92,17.03,32.65-2.08,73.24-17.06,107.86-19.85,45.9-31.97,95.07-36.1,144.9-3.63,43.85-1.08,88.21,7.85,131.29,4.94,23.86,11.53,49.9.36,71.55-5.54,10.74-14.87,18.95-23.98,26.9-24.84,21.66-52.51,52.56-81.48,80.03h30.96c-4.17-35.56,36.28-63.58,64.67-75.45,27.64-11.56,57.57,1.59,86.75-5.52,28.69-7,54.22-22.95,78.97-38.45,35.87-22.47,71.1-45.96,105.64-70.42,3.82-2.7,7.63-5.42,11.43-8.15,11.72-8.41,23.14-17.21,34.4-26.21,35.44-28.31,69.29-58.59,106.12-85.04,1.34-.96,2.68-1.92,4.02-2.87,32.16-22.7,81.03-63.01,123.25-52.03,16.74,4.4,31.65,15.72,45.17,28.92,13.19,12.88,25.05,27.55,35.99,39.34,26.96,29.04,52.8,59.13,77.44,90.17,17.85,22.48,35.07,45.46,51.64,68.9.7.99,1.42,1.99,2.13,2.99v-24.84c-48.85-53.73-92.3-113.92-137.17-171.47-5.65-7.24-11.31-14.44-17.02-21.57-22.63-28.32-46.46-60.07-45.1-96.3.44-11.83,3.66-23.2,8.86-33.75,8.05-16.32,20.85-30.67,35.48-41.69,23.29-17.54,50.98-28,78.39-38,.95-.35,1.89-.69,2.84-1.03,23.61-8.61,48.66-17.13,73.72-22.22v-36.25c-38.65,21.84-82.29,39.14-116.38,56.39-4.17,2.11-8.2,4.22-12.05,6.33-22.1,12.14-46.42,24.66-71.08,20.01-24.69-4.65-43.07-25.25-59.43-44.84-.19-.22-.37-.45-.56-.67-27.68-33.19-55.03-66.7-82.95-99.66-25.24-29.79-61.91-53.74-92.23-78.78-8.98-7.42-18.27-15.22-23.06-25.84-7.89-17.47-1.66-38.18,8.04-54.71,11.29-19.24,22.53-38.96,34.31-57.86,2.11-3.39,4.24-6.76,6.39-10.09,14.04-21.71,28.85-44.19,51.06-57.41,1.44-.86,2.91-1.67,4.4-2.45,14.67-7.66,31.16-11.42,46.91-16.73,28.47-9.6,50.33-31.46,76-46.71,22.26-13.22,45.56-24.95,69.58-34.64,49.76-20.08,102.64-31.41,155.89-29.16,1.71.07,3.43.17,5.15.27v-8.24c-22.51,4.81-46.84,4.23-69.37,6.7-37.59,4.1-74.19,12.77-109.73,25.1-11.52,4-22.93,8.37-34.23,13.11-11.57,4.85-22.23,10.74-32.53,17.13-22.44,13.93-43.12,30.25-67.45,43.33-9.4,5.06-20.44,9.77-30.41,5.98-10.69-4.06-15.69-16.09-19.54-26.89-26.52-74.35-20.06-138.77-79.28-187.24-7.67-6.28-16.43-12.29-26.52-18.02-15.07-8.56-31.26-15.33-45.02-25.86-13.76-10.54-25.21-25.97-25.6-43.35-.74-33,48.59-66.19,72.14-83.85,35.56-26.67,80.26-25.16,119.09-43.91,58.65-28.33,94.28-88,130.36-142.46-7.26,8.05-14.28,15.64-19,22.19-41.96,58.18-89.07,94.4-156.22,117.51-30.24,10.41-58.23,25.51-85.85,41.34-41.57,23.83-82.31,49.32-128.65,62.96-13.64,4.01-27.81,6.75-42.24,8.25-73.27,7.6-153.16-16.81-203.92-68.93-13.09-13.45-26.27-26.63-39.45-39.74-51.59-51.3-103.04-101.28-148.42-160.41h-24.56c6.75,7.12,13.46,14.28,20.27,21.35,14.14,14.69,27,30.02,42.71,43.11,12.36,10.3,33.32,25.15,18.55,42.57-18.27,21.55-47.59,15.5-71.94,22.86-3.78,1.14-7.45,2.61-10.93,4.56-43.08,24.08-76.8,61.78-119.73,86.72-48.88,28.4-99.08,54.5-150.32,78.39-25.39,11.84-52.5,23.37-80.11,23.59-4.74.04-9.49-.26-14.25-.95-41.47-5.99-55.98-33.82-73.56-66.59-9.48-17.67-18.97-35.33-28.45-53-24.46-45.57-48.91-91.14-73.37-136.71-11.59-21.58-23.22-43.41-32.9-65.9h-35.1c13.28,18.88,25.52,38.62,37.49,58.22,13.78,22.55,27.46,45.16,41.05,67.83,14.2,23.69,28.3,47.45,42.29,71.27,16.19,27.56,64.13,81.36,47.72,116.26-16.24,34.54-67.85-4.24-94.55-10.42-19.47-4.52-39.3-7.15-59.24-8.49-25.08-1.68-50.33-1.29-75.33.01-66.51,3.47-133.09,13.26-199.44,7.46C28.65,95.31,14.23,93.15,0,90.12v6.5c24.75,5.11,49.34,12.21,73.17,19.33,15.9,4.75,33.35,10.71,41.42,25.21,8.47,15.22,3.25,34.78-6.59,49.16-9.82,14.39-23.67,25.53-34.62,39.09-22.12,27.41-30.76,62.17-41.18,96.22-5.16,16.81-10.74,33.46-18.61,48.96C9.58,382.48,4.99,389.97,0,397.16v21.49c27.09-4.38,57.08,1.54,83.49,10.98,48.58,17.37,93.48,44.71,131.01,79.77,6.36,5.94,12.57,12.17,18.51,18.66,18.15,19.85,33.86,42.23,44.12,66.84.61,1.47,1.25,2.98,1.92,4.53h0c.53,1.24,1.09,2.52,1.65,3.8,6.77,15.49,15.26,34.08,19.25,51.85,1.26,5.63,2.07,11.19,2.23,16.53.09,3.28-.06,6.48-.49,9.58-.23,1.66-.55,3.28-.96,4.88-.37,1.45-.8,2.88-1.26,4.28-.68,2.03-1.46,4.02-2.33,5.95-4.25,9.47-10.65,17.79-18.14,25.38-.91.92-1.83,1.83-2.77,2.73-14.18,13.59-31.58,24.89-45.68,36.45-86.75,71.12-136.66,162.21-173.43,266.18-7.83,22.15-17.55-10.1-19.72-18.11-5.44-20.02-13-38.65-21.21-58.11C10.74,937.94,5.35,925.04,0,912.12v14.24c3.46,9.51,6.2,18.81,8.56,26.48,12.18,39.58,34.59,78.23,52.14,116.02ZM1043.18,776.76c-38.18,7.65-74.86,21.42-109.13,39.85-32.82,17.65-51.59,51.44-73.95,80.61-6.34,8.27-13.22,16.94-23.02,20.44-13.2,4.71-27.5-1.27-39.73-8.43-.72-.42-1.43-.84-2.13-1.27-19.28-11.72-37.29-25.54-53.62-41.12h0c-1.19-1.13-2.37-2.28-3.54-3.43-.28-.27-.56-.55-.83-.82-4.74-4.71-9.4-9.72-13.56-15.05-.53-.68-1.05-1.37-1.57-2.06-7.12-9.58-12.5-20.19-13.84-31.95-.22-1.92-.28-3.78-.22-5.58.05-1.33.16-2.63.36-3.9,1.11-7.55,4.61-14.11,9.47-20.02.73-.88,1.49-1.76,2.27-2.61,6.27-6.85,14.27-12.83,22.24-18.53,7.62-5.45,15.2-10.62,21.21-16.03,26.51-23.81,49.72-50.89,69.01-80.3,1.95-2.97,3.86-5.96,5.72-8.97,1.57-2.55,3.12-5.1,4.63-7.68.61-1.04,1.22-2.07,1.81-3.11,4.19-7.25,8.14-14.62,11.85-22.09.09-.19.19-.37.28-.56,19.94-40.32,17.7-76.46,59.01-105.66,31.01-21.92,76.83-28.12,108.12-6.57,37.04,25.51,39.16,75.08,59.61,110.52,14.08,24.39,29.59,48.67,50.81,68.13,17.31,15.87,59.39,25.97,60.28,50.47,1.5,41.04-120.9,29.6-151.56,35.74ZM682.12,777.69c-8.94-5.51-16-12.45-21.77-20.35-18.43-25.27-23.44-60.38-33.03-90.12-1.11-3.42-2.27-6.77-3.52-10.02-3.24-8.43-7.37-16.31-12.04-23.87-2.62-4.24-5.4-8.37-8.28-12.44-5.04-7.11-10.4-14.03-15.76-20.96-4.99-6.47-9.97-12.94-14.66-19.58-2.82-3.98-5.52-8.02-8.07-12.16-4.48-7.28-8.46-14.85-11.61-22.92-11.39-29.14-8.92-60.94-6.31-91.71.4-4.76.82-9.58,1.35-14.39.27-2.51.57-5.02.91-7.51,2.34-17.16,6.59-33.99,16.81-48.49,2.46-3.5,5.39-6.95,8.72-10.33,5.37-5.47,11.79-10.78,18.95-15.84,6.72-4.75,14.11-9.28,21.93-13.54,2.91-1.59,5.88-3.13,8.9-4.64,6.8-3.4,13.86-6.58,21.01-9.52,30.25-12.41,62.44-20.4,86.22-21.17,66.1-2.12,136.79,17.79,183.09,67.15,17.82,18.99,30.99,42.51,36.17,68.13,5.01,24.74-6.13,33.73-26.79,43.57-52.76,25.1-59.42,79.13-79.49,128.43-.61,1.49-1.23,2.97-1.87,4.44-4.44,10.29-9.61,20.19-15.36,29.75-1.32,2.2-2.68,4.38-4.06,6.54-2.48,3.88-5.06,7.7-7.72,11.46-9.2,13.01-19.41,25.34-30.2,37.1-1.31,1.43-2.63,2.85-3.95,4.26-3.15,3.35-6.35,6.66-9.59,9.93-9.87,9.96-27.72,31.81-46.36,46.71-15.33,12.24-31.19,19.78-43.61,12.11ZM1562.33,649.64c42.37,33.9,83.19,70.3,118.81,111.33,8.65,9.97,17.34,20.28,25.67,30.96,23.5,30.12,44.16,63.2,53.15,99.81,1.83,7.44,3.17,15.03,3.96,22.77,2.76,27.14-2.98,56.39-21.45,76.48-10.79,11.73-22.57,16.77-36.74,22.31-17.71,6.92-34.87,19.24-51.03,29.16-13.85,8.5-27.53,17.21-41.05,26.14-34.72,22.93-68.34,47.31-100.77,73.27-6.61,5.29-13.17,10.64-19.67,16.07-8.39,6.99-16.87,13.95-25.46,20.8-36.73,29.3-75.49,56.57-117.81,75.39-20.15,13.42-42.56,23.44-66.07,29.23-12.52,3.09-28.04,4.04-36-6.11-3.84-4.9-4.93-11.34-5.89-17.49-7.13-45.41-19.45-92.7-19-138.66.15-15.9,1.48-31.72,3.62-47.44,4.17-30.65,11.43-60.96,19.15-90.82,6.95-26.88,14.95-53.46,23.4-79.9,3.57-11.18,7.6-22.11,11.61-33.06,4.83-13.2,5.98-28.8,4.14-44.36-2.64-22.41-11.5-44.75-24.55-59.81-9.78-11.28-36.7-19.71-23.03-36.37,18.06-22.02,57.59-22.59,82.75-30.64,15.18-4.86,30.44-11.02,43.72-20.05,3.05-2.07,5.99-4.29,8.8-6.68,13.22-11.25,22.3-24.99,37.75-33.93,23.06-13.34,47.85-27.16,75.45-25.56,28.82,1.67,54.05,19.15,76.56,37.17ZM1309.22,116.04c14.46-8.63,30.19-13.44,46.43-15.12,40.59-4.2,84.32,11.12,119.1,34.97,19.84,13.61,37,28.89,51.54,45.46,47.46,54.07,66.93,121.81,59.73,189.29-3.58,33.57-13.77,67.08-30.39,98.82-9.96,19.01-22.22,37.38-36.77,54.76-40.89,48.84-104.34,107.64-172.53,144.98-50.34,27.57-103.27,43.43-151.6,34.92-57.1-10.05-109.52-60.49-108.47-119.79.65-36.42,18.93-66.5,41.45-95.41,23.28-29.89,51.09-58.54,68.61-91.64,24.22-45.76,28.11-99.42,38.39-150.39,10.28-50.97,30.6-104.63,74.51-130.85ZM943.41-67.68c1.59-.78,3.24-1.49,4.92-2.15,30.82-11.91,68.19,2.22,97.78,21.25,10.22,6.58,19.51,13.74,27.28,20.61,25.46,22.51,53.62,41.67,82.06,60.16,11.65,7.57,24.47,19.16,36.94,24.78.49.22.97.44,1.47.65,15.48,6.49,35.37,7.78,51.67,11.22,6.41,1.35,13.13,2.87,18.01,7.22,7.95,7.1,8.49,19.28,7.31,29.87-3.82,34.35-23.12,62.68-31.5,95.59-9.51,37.32-22.13,73.77-35.51,109.85-14.06,37.93-28.62,76.01-48.73,111.23-8.56,15.01-17.85,31.35-28.56,44.74-2.61,3.26-5.32,6.56-8.15,9.8-20.01,22.93-45.63,42.97-77.81,26.45-14.39-7.38-28.16-15.68-42.38-23.36-34.69-18.74-40.55-55.44-52.39-90.12-13.28-38.89-26.9-77.72-36.65-117.68-2.44-10.02-4.67-20.09-6.67-30.21-13.98-70.63-17.11-143.36-8.49-214.83,4.45-36.87,16.31-78.93,49.4-95.08ZM479.07,133.7c2.87-9.16,13.2-14.3,22.81-14.26,8.19.04,15.02,3.31,22.56,5.92,6.28,2.17,13.28,2,20.01,2.72,10.33,1.11,20.71,1.57,31.08,1.44,48.59-.63,96.94-14.45,140.25-36.84,52.55-27.16,98.08-66.5,137.62-110.5,3.52-3.91,7.28-8.4,11.68-11.36,4.96-3.34,8.78-5.17,12.71-9.5,4.55-5,10.12-8.84,16.34-11.62,1.95-.87,4.12-1.64,6.19-1.13,11.45,2.85.02,27.13-2.35,32.83-15.75,37.82-18.02,80.39-19.65,120.84-1.75,43.87,3.26,87.76,11.8,130.74.33,1.67.68,3.35,1.02,5.02,4.57,21.9,10.49,43.49,16.61,64.99,3.3,11.59,6.46,23.23,9.92,34.77,2.67,8.88,10.08,17.95,7.57,27.83-.32,1.28-1.03,2.74-2.34,2.87-.95.09-1.79-.6-2.5-1.24-15.74-14.15-27.79-31.87-49.05-37.63-5.88-1.59-10.31-4.74-15.94-7.14-11.01-4.69-22.77-8.03-34.34-11.08-10.75-2.83-21.15-7.14-32.07-9.76-41.26-9.93-82.14-3.52-122.55,6.82-11.4,2.92-22.91,6.24-33.9,10.6-5.71,2.27-11.28,4.81-16.62,7.71-1.79.98-3.56,1.99-5.31,3.06-.58.35-1.16.72-1.73,1.09-1.36.86-2.69,1.74-4,2.66-2.04,1.43-4.03,2.92-5.96,4.49-2.09,1.7-4.11,3.5-6.07,5.39-.2.19-.39.38-.59.58-6.43,6.34-11.86,13.57-17.09,20.96-3.73,5.28-7.36,10.64-11.17,15.84-2,2.72-4.66,5.62-7.65,6.74-.22.08-.44.15-.66.22-1.19.33-2.43.37-3.69,0-4.33-1.28-5.87-6.49-6.67-10.93-.6-3.26-1.15-6.53-1.67-9.81-3.08-19.24-5-38.68-5.72-58.15-.8-21.1,1.09-42.57-.99-63.61-2.8-28.36-16.27-55.55-37.14-74.97-5.46-5.07-11.43-9.68-15.84-15.67-4.41-5.99-7.11-13.84-4.88-20.95ZM300,606.79h0c-1.91-3-3.77-6.12-5.61-9.35-15.68-27.57-27.7-51.03-42.67-71.45-16.14-22.01-35.73-40.49-67.04-56.83-43.29-22.58-95.39-40.79-120.67-85.85-6.37-11.37-10.36-23.64-12.3-36.31-4.98-32.47,3.48-67.55,19.69-96.73,22.53-40.58,57.95-72.16,92.7-102.93,49.95-44.22,95.67-60.9,149.03-50.06,18.98,3.86,38.91,11.19,60.35,22,34,17.15,69.53,32.76,102.82,51,25.41,13.92,37.84,43.67,44.8,71.46l.08.33c6.75,27.11,8.13,55.23,9.49,83.13,1.68,34.54,3.35,69.07,5.03,103.6.1,2.15.21,4.31.31,6.46.22,4.49.44,8.98.66,13.47.63,12.97,1.26,25.94,1.89,38.91.03.53.06,1.07.08,1.61.06,1.14.11,2.29.16,3.43.77,15.9,1.35,32.71-6.22,46.71-1.96,3.62-4.29,6.8-6.91,9.64-3.26,3.54-6.99,6.52-11.02,9.12-1.04.66-2.1,1.31-3.17,1.92-13.91,7.96-30.84,11.92-45.44,17.22-29.37,10.67-52.94,32.01-76.9,51.75-2.01,1.66-3.99,3.17-5.95,4.57-.05.04-.11.08-.17.12-6.46,4.57-12.61,7.7-18.49,9.56-17.03,5.38-31.74.07-44.78-11.92-2.87-2.63-5.65-5.59-8.37-8.82-2.43-2.9-4.8-6.03-7.12-9.35-1.45-2.06-2.86-4.19-4.27-6.39ZM100.63,953.07c29.59-53.69,71.48-99.41,112.96-144.55,23.99-26.11,48.05-52.29,72.88-77.65.62-.63,1.24-1.26,1.86-1.9,7.34-7.47,14.75-14.87,22.24-22.17,5.58-5.44,11.21-10.83,16.9-16.15,3.15-2.96,6.33-5.89,9.52-8.8,12.33-11.27,24.94-22.22,37.89-32.76,4.48-3.65,9-7.25,13.57-10.8,1.33-1.03,2.65-2.05,3.98-3.07,2.44-1.86,4.87-3.71,7.33-5.54,29.01-21.62,65.1-41.03,99.91-44.46,6.58-.65,13.11-.72,19.54-.13,12.89,1.18,25.37,5.02,36.98,12.29,2.63,1.65,5.13,3.42,7.5,5.29,3.72,2.93,7.12,6.12,10.27,9.55,5.11,5.57,9.53,11.74,13.42,18.36,6.35,10.8,11.3,22.77,15.61,35.23,3.24,9.36,6.11,18.98,8.94,28.58,3.16,10.73,6.27,21.43,9.77,31.68,8.81,25.84,21.63,49.96,37.24,72.19,1.14,1.62,2.29,3.23,3.46,4.83,3.01,4.13,6.12,8.19,9.32,12.18,1.82,2.28,3.67,4.53,5.55,6.76.61.72,1.22,1.43,1.82,2.14,7.94,9.29,16.35,18.19,25.13,26.67,1.46,1.41,2.94,2.82,4.42,4.21,1.76,1.66,3.54,3.29,5.33,4.92,2.1,1.9,4.21,3.78,6.34,5.63,2.51,2.19,5.17,4.33,7.92,6.42,3.66,2.78,7.48,5.49,11.39,8.17h0c19.27,13.18,40.58,25.55,53.19,41.58,11.99,15.23,16.11,33.77,3.13,59.45-5.68,11.23-11.16,22.55-16.45,33.96-3.23,6.98-6.39,14-9.46,21.06-1.87,4.29-3.7,8.58-5.5,12.89-.63,1.52-1.27,3.05-1.9,4.58-1.8,4.37-3.56,8.75-5.29,13.15-3,7.64-6.32,17.08-10.31,26.68-1.06,2.54-2.16,5.09-3.33,7.62-1.55,3.39-3.2,6.74-4.97,9.98-2.45,4.51-5.13,8.81-8.06,12.7-2.37,3.13-4.91,6.01-7.64,8.51-2.96,2.71-6.15,5.01-9.6,6.73-4.51,2.33-10.01,3.12-16.16,2.79-31.83-1.71-81.47-33.56-105.4-40.4-98.06-28.01-204.69-26.68-301.47,5.99-31.19,10.53-61.61,24.19-94.11,29.42-32.5,5.23-68.58.72-93.09-21.25-43.66-39.12-30.87-111.22-2.57-162.56Z"/>
  </g>
</svg>