<svg width="41" height="36" viewBox="0 0 41 36" fill="none" xmlns="http://www.w3.org/2000/svg">
<path d="M20.1865 15.0593C13.9232 15.0093 4.96644 24.5287 4.91817 30.5823C4.89644 33.3087 6.99803 34.9544 10.5418 34.9827C14.3939 35.0134 16.9532 33.0744 20.0427 33.099C23.1589 33.1239 25.6941 35.1035 29.5123 35.1339C33.0561 35.1622 35.1836 33.5502 35.2054 30.8238C35.2536 24.7702 26.4498 15.1092 20.1865 15.0593ZM8.57794 13.9815C7.77925 11.2681 5.26614 9.4949 2.96502 10.0203C0.663911 10.5457 -0.553598 13.1712 0.245098 15.8847C1.0438 18.5981 3.55691 20.3713 5.85802 19.8459C8.15913 19.3205 9.37664 16.695 8.57794 13.9815ZM15.273 12.4114C17.7184 11.795 18.9654 8.53926 18.0586 5.13979C17.1518 1.74032 14.4343 -0.514976 11.9889 0.101475C9.54346 0.717927 8.29647 3.97366 9.20328 7.37313C10.1101 10.7726 12.8284 13.0287 15.273 12.4114ZM37.4853 10.2963C35.1929 9.73428 32.6526 11.4672 31.8099 14.1675C30.9681 16.8679 32.1436 19.5125 34.436 20.0745C36.7285 20.6365 39.2687 18.9036 40.1114 16.2033C40.9532 13.5029 39.7777 10.8583 37.4853 10.2963ZM25.1416 12.4901C27.5768 13.1455 30.3299 10.9338 31.2908 7.54923C32.2517 4.16465 31.0568 0.890225 28.6216 0.234081C26.1863 -0.422063 23.4332 1.7904 22.4723 5.17498C21.5114 8.55956 22.7063 11.8348 25.1416 12.4901Z" fill="#685F50"/>
</svg>
