<svg width="28" height="35" viewBox="0 0 28 35" fill="none" xmlns="http://www.w3.org/2000/svg">
<path d="M11.2682 25.9262C11.2772 25.7297 11.6039 25.6511 11.699 25.8226C12.155 26.6264 12.9305 27.807 13.8119 28.3446C14.6915 28.8804 16.1007 29.034 17.027 29.0733C17.2244 29.0823 17.3034 29.4056 17.1311 29.502C16.3233 29.9557 15.1367 30.7273 14.5964 31.6025C14.056 32.4777 13.9035 33.8816 13.864 34.8032C13.855 34.9997 13.5283 35.0765 13.4331 34.905C12.9772 34.1013 12.2017 32.9224 11.3221 32.3848C10.4425 31.8472 9.03149 31.6954 8.10521 31.6561C7.90774 31.6471 7.83055 31.3221 8.00289 31.2274C8.81069 30.7737 9.99547 30.0021 10.5358 29.1251C11.0761 28.2499 11.2287 26.846 11.2682 25.9262ZM26.0151 24.1401C26.0008 23.9436 25.6561 23.8614 25.5538 24.0293C25.245 24.5348 24.798 25.1421 24.3026 25.4457C23.8071 25.7494 23.0586 25.8673 22.4662 25.9137C22.2687 25.928 22.1879 26.2709 22.3549 26.3727C22.8629 26.6799 23.475 27.1229 23.7784 27.6176C24.0818 28.1124 24.2039 28.8554 24.2487 29.4448C24.2649 29.6413 24.6078 29.7217 24.7119 29.5538C25.0206 29.0501 25.4658 28.441 25.9631 28.1392C26.4603 27.8373 27.2053 27.7159 27.7977 27.6712C27.9952 27.6552 28.0777 27.314 27.909 27.2104C27.401 26.9032 26.7888 26.4602 26.4855 25.9655C26.1821 25.4707 26.0618 24.7295 26.0151 24.1401ZM19.2152 3.57649L18.7808 3.02994C17.0988 0.916965 16.2587 -0.140418 15.2803 0.0149743C14.302 0.172153 13.8334 1.43673 12.8982 3.96766L12.6576 4.62137C12.3902 5.34118 12.2573 5.70019 12.0042 5.96454C11.7475 6.22888 11.4011 6.36641 10.7045 6.64326L10.0709 6.8951L9.62568 7.07371C7.47153 7.93105 6.38728 8.41866 6.24905 9.3653C6.10185 10.3745 7.12866 11.2389 9.18228 12.9661L9.71364 13.4126C10.2971 13.9038 10.5897 14.1503 10.7548 14.4843C10.9235 14.8183 10.9469 15.2041 10.9954 15.9757L11.0384 16.6777C11.2054 19.3926 11.2898 20.75 12.1765 21.218C13.0633 21.6859 14.1655 20.9554 16.3699 19.4926L16.9408 19.1139C17.5691 18.6978 17.8814 18.4888 18.2387 18.4334C18.5977 18.3763 18.9603 18.4763 19.6855 18.6763L20.3461 18.8585C22.8988 19.5623 24.1751 19.9141 24.8699 19.1943C25.5664 18.4745 25.2217 17.1581 24.5288 14.5272L24.3511 13.8467C24.1536 13.0983 24.0567 12.725 24.1105 12.3553C24.1644 11.9855 24.3654 11.6605 24.7657 11.0121L25.1301 10.4227C26.5411 8.1436 27.2466 7.00406 26.7888 6.08956C26.3329 5.17864 25.0171 5.0947 22.3836 4.93216L21.7033 4.88929C20.9547 4.84285 20.5813 4.81963 20.2564 4.64817C19.9333 4.4767 19.6927 4.17663 19.2152 3.57649ZM8.67965 20.2303C4.84347 22.095 1.64995 25.0492 0.445423 28.5786C-0.904509 20.1713 0.969598 14.7415 3.97284 11.3658C4.23133 11.8927 4.56882 12.3285 4.8704 12.6696C5.49869 13.3769 6.39984 14.1342 7.31535 14.9041L7.97416 15.4578L8.27934 15.7167C8.28831 15.8311 8.29729 15.9668 8.30626 16.1401L8.36011 17.0063C8.43192 18.1762 8.50372 19.3176 8.67965 20.2303Z" fill="#6D5B57"/>
</svg>
