<svg width="28" height="35" viewBox="0 0 28 35" fill="none" xmlns="http://www.w3.org/2000/svg">
<rect x="7" y="8.75" width="10.5" height="7" fill="#685F50"/>
<path d="M3.5 21V33.25C3.5 33.7458 3.332 34.1617 2.996 34.4977C2.66 34.8337 2.24467 35.0012 1.75 35C1.25533 34.9988 0.84 34.8308 0.504 34.496C0.168 34.1612 0 33.7458 0 33.25V1.75001C0 1.25417 0.168 0.838839 0.504 0.504006C0.84 0.169173 1.25533 0.0011727 1.75 6.03447e-06C2.24467 -0.00116063 2.66058 0.16684 2.99775 0.504006C3.33491 0.841173 3.50233 1.25651 3.5 1.75001V3.5H25.4187C26.0312 3.5 26.5125 3.7555 26.8625 4.2665C27.2125 4.7775 27.2708 5.32409 27.0375 5.90625L24.5 12.25L27.0375 18.5938C27.2708 19.1771 27.2125 19.7242 26.8625 20.2352C26.5125 20.7462 26.0312 21.0012 25.4187 21H3.5ZM15.5977 14.721C16.2826 14.0373 16.625 13.2137 16.625 12.25C16.625 11.2863 16.2826 10.4627 15.5977 9.779C14.9129 9.09534 14.0887 8.75234 13.125 8.75C12.1613 8.74767 11.3377 9.09067 10.654 9.779C9.97033 10.4673 9.62733 11.291 9.625 12.25C9.62266 13.209 9.96566 14.0333 10.654 14.7228C11.3423 15.4123 12.166 15.7547 13.125 15.75C14.084 15.7453 14.9082 15.4029 15.5977 14.7228" fill="#685F50"/>
</svg>
