<svg width="24" height="27" viewBox="0 0 24 27" fill="none" xmlns="http://www.w3.org/2000/svg">
<path d="M22 2.0325H19V1.01625C19 0.746724 18.8946 0.488237 18.7071 0.297653C18.5196 0.107069 18.2652 0 18 0C17.7348 0 17.4804 0.107069 17.2929 0.297653C17.1054 0.488237 17 0.746724 17 1.01625V2.0325H7V1.01625C7 0.746724 6.89464 0.488237 6.70711 0.297653C6.51957 0.107069 6.26522 0 6 0C5.73478 0 5.48043 0.107069 5.29289 0.297653C5.10536 0.488237 5 0.746724 5 1.01625V2.0325H2C1.46957 2.0325 0.960859 2.24664 0.585786 2.62781C0.210714 3.00897 0 3.52595 0 4.065V24.39C0 24.9291 0.210714 25.446 0.585786 25.8272C0.960859 26.2084 1.46957 26.4225 2 26.4225H22C22.5304 26.4225 23.0391 26.2084 23.4142 25.8272C23.7893 25.446 24 24.9291 24 24.39V4.065C24 3.52595 23.7893 3.00897 23.4142 2.62781C23.0391 2.24664 22.5304 2.0325 22 2.0325ZM5 4.065V5.08125C5 5.35078 5.10536 5.60926 5.29289 5.79985C5.48043 5.99043 5.73478 6.0975 6 6.0975C6.26522 6.0975 6.51957 5.99043 6.70711 5.79985C6.89464 5.60926 7 5.35078 7 5.08125V4.065H17V5.08125C17 5.35078 17.1054 5.60926 17.2929 5.79985C17.4804 5.99043 17.7348 6.0975 18 6.0975C18.2652 6.0975 18.5196 5.99043 18.7071 5.79985C18.8946 5.60926 19 5.35078 19 5.08125V4.065H22V8.13H2V4.065H5ZM22 24.39H2V10.1625H22V24.39ZM17.2075 13.5085C17.3005 13.6029 17.3742 13.715 17.4246 13.8383C17.4749 13.9617 17.5008 14.094 17.5008 14.2275C17.5008 14.3611 17.4749 14.4933 17.4246 14.6167C17.3742 14.74 17.3005 14.8521 17.2075 14.9465L11.2075 21.044C11.1146 21.1385 11.0043 21.2134 10.8829 21.2646C10.7615 21.3157 10.6314 21.3421 10.5 21.3421C10.3686 21.3421 10.2385 21.3157 10.1171 21.2646C9.99566 21.2134 9.88537 21.1385 9.7925 21.044L6.7925 17.9952C6.60486 17.8046 6.49944 17.5459 6.49944 17.2763C6.49944 17.0066 6.60486 16.7479 6.7925 16.5573C6.98014 16.3666 7.23464 16.2594 7.5 16.2594C7.76536 16.2594 8.01986 16.3666 8.2075 16.5573L10.5 18.8883L15.7925 13.5085C15.8854 13.414 15.9957 13.3391 16.1171 13.2879C16.2385 13.2368 16.3686 13.2105 16.5 13.2105C16.6314 13.2105 16.7615 13.2368 16.8829 13.2879C17.0043 13.3391 17.1146 13.414 17.2075 13.5085Z" fill="#E86E2F"/>
</svg>
