<svg width="25" height="25" viewBox="0 0 25 25" fill="none" xmlns="http://www.w3.org/2000/svg">
<path d="M22.9949 25H2.00513C1.47334 25 0.963324 24.7887 0.587289 24.4127C0.211254 24.0367 0 23.5267 0 22.9949L0 2.00513C0 1.47334 0.211254 0.963324 0.587289 0.587289C0.963324 0.211254 1.47334 0 2.00513 0L22.9949 0C23.5267 0 24.0367 0.211254 24.4127 0.587289C24.7887 0.963324 25 1.47334 25 2.00513V22.9949C25 23.5267 24.7887 24.0367 24.4127 24.4127C24.0367 24.7887 23.5267 25 22.9949 25Z" fill="white"/>
<path d="M12.5 3.91553C9.00619 3.91553 6.17065 6.74769 6.17065 10.2415C6.17065 12.2331 7.51078 14.0661 8.78003 15.4805C10.2687 17.1379 11.278 19.1498 11.9835 21.2528C12.0679 21.5026 12.2839 21.6241 12.5 21.6241C12.716 21.6241 12.9321 21.4992 13.0165 21.2528C13.7186 19.1498 14.7313 17.1413 16.2199 15.4805C17.4892 14.0661 18.8293 12.2365 18.8293 10.2415C18.8293 6.74769 15.9971 3.91553 12.5034 3.91553M12.5 12.3513C11.3354 12.3513 10.3902 11.4061 10.3902 10.2415C10.3902 9.07688 11.3354 8.1317 12.5 8.1317C13.6646 8.1317 14.6098 9.07688 14.6098 10.2415C14.6098 11.4061 13.6646 12.3513 12.5 12.3513Z" fill="#A4DACD"/>
</svg>
