<svg width="50" height="50" viewBox="0 0 50 50" fill="none" xmlns="http://www.w3.org/2000/svg">
<path d="M25 3.57153C13.1661 3.57153 3.57145 13.1662 3.57145 25.0001C3.57145 36.834 13.1661 46.4287 25 46.4287C36.8339 46.4287 46.4286 36.834 46.4286 25.0001C46.4286 13.1662 36.8339 3.57153 25 3.57153ZM20.0357 16.1251C19.7992 15.8712 19.6704 15.5354 19.6765 15.1885C19.6826 14.8415 19.8232 14.5104 20.0686 14.2651C20.3139 14.0197 20.645 13.8791 20.9919 13.873C21.3389 13.8669 21.6747 13.9957 21.9286 14.2322L31.75 24.0537C32.0008 24.3048 32.1417 24.6452 32.1417 25.0001C32.1417 25.355 32.0008 25.6954 31.75 25.9465L21.9286 35.768C21.806 35.8996 21.6581 36.0051 21.4938 36.0783C21.3296 36.1515 21.1522 36.1909 20.9724 36.194C20.7926 36.1972 20.6139 36.1641 20.4472 36.0968C20.2804 36.0294 20.1289 35.9291 20.0017 35.802C19.8746 35.6748 19.7743 35.5233 19.7069 35.3565C19.6396 35.1898 19.6065 35.0111 19.6097 34.8313C19.6129 34.6515 19.6522 34.4741 19.7254 34.3099C19.7986 34.1456 19.9041 33.9977 20.0357 33.8751L28.9107 25.0001L20.0357 16.1251Z" fill="#E86E2F"/>
</svg>
