<svg width="50" height="50" viewBox="0 0 50 50" fill="none" xmlns="http://www.w3.org/2000/svg">
<path d="M25 3.57153C36.8339 3.57153 46.4286 13.1662 46.4286 25.0001C46.4286 36.834 36.8339 46.4287 25 46.4287C13.1661 46.4287 3.57141 36.834 3.57141 25.0001C3.57141 13.1662 13.1661 3.57153 25 3.57153ZM29.9643 16.1251C30.2008 15.8712 30.3296 15.5354 30.3235 15.1885C30.3174 14.8415 30.1768 14.5104 29.9314 14.2651C29.6861 14.0197 29.355 13.8791 29.0081 13.873C28.6611 13.8669 28.3253 13.9957 28.0714 14.2322L18.25 24.0537C17.9992 24.3048 17.8583 24.6452 17.8583 25.0001C17.8583 25.355 17.9992 25.6954 18.25 25.9465L28.0714 35.768C28.194 35.8996 28.3419 36.0051 28.5062 36.0783C28.6704 36.1515 28.8478 36.1908 29.0276 36.194C29.2074 36.1972 29.3861 36.1641 29.5528 36.0968C29.7196 36.0294 29.8711 35.9291 29.9983 35.802C30.1254 35.6748 30.2257 35.5233 30.2931 35.3565C30.3604 35.1898 30.3935 35.0111 30.3903 34.8313C30.3871 34.6515 30.3478 34.4741 30.2746 34.3099C30.2014 34.1456 30.0959 33.9977 29.9643 33.8751L21.0893 25.0001L29.9643 16.1251Z" fill="#E86E2F"/>
</svg>
