<svg width="35" height="34" viewBox="0 0 35 34" fill="none" xmlns="http://www.w3.org/2000/svg">
<path d="M17.3152 14.2193C11.9356 13.1467 2.66613 19.863 1.62949 25.0624C1.1626 27.4041 2.69989 29.1653 5.74361 29.7721C9.05221 30.4318 11.5725 29.1845 14.226 29.7136C16.9025 30.2472 18.7579 32.3668 22.0373 33.0207C25.081 33.6275 27.1762 32.5906 27.6431 30.2489C28.6797 25.0495 22.6947 15.2918 17.3152 14.2193ZM7.50658 11.3839C7.26558 8.9185 5.39527 6.98006 3.32947 7.05376C1.26366 7.12745 -0.215245 9.18578 0.02575 11.6512C0.266745 14.1166 2.13706 16.0551 4.20286 15.9814C6.26867 15.9077 7.74757 13.8493 7.50658 11.3839ZM13.5238 11.1339C15.7287 11.0056 17.3366 8.40997 17.1153 5.33665C16.8941 2.26333 14.9272 -0.123409 12.7223 0.00487994C10.5175 0.133169 8.9096 2.72879 9.13082 5.80211C9.35205 8.87543 11.3195 11.263 13.5238 11.1339ZM32.9787 12.9658C31.0991 12.1055 28.6291 13.1786 27.4603 15.3629C26.2923 17.5474 26.8687 20.0155 28.7483 20.8758C30.6279 21.7361 33.0979 20.6631 34.2667 18.4787C35.4347 16.2942 34.8583 13.8261 32.9787 12.9658ZM21.9999 12.8238C23.987 13.7879 26.7188 12.3379 28.1018 9.58446C29.4847 6.83098 28.9951 3.81786 27.0081 2.85312C25.0212 1.88838 22.2892 3.33899 20.9063 6.09247C19.5233 8.84596 20.0128 11.8597 21.9999 12.8238Z" fill="#F1D7AE"/>
</svg>
