<svg width="1536" height="1184" viewBox="0 0 1536 1184" fill="none" xmlns="http://www.w3.org/2000/svg">
<path d="M1425 3.00113C1451.67 2.83447 1505.2 21.0011 1506 95.0011C1507 187.501 1408 217.001 1343 219.501C1291 221.501 536.333 220.335 165.5 219.501C111.333 228.668 3 278.201 3 403.001C3 559.001 124 556.001 165.5 556.001C207 556.001 704 670.501 756.5 702.501C809 734.501 1207 827.001 1290 830.001C1356.4 832.401 1397.33 831.001 1409.5 830.001C1447.33 832.001 1524.9 867.901 1532.5 995.501C1542 1155 1385.5 1171.5 1290 1177.5C1213.6 1182.3 622.167 1179.5 336 1177.5" stroke="#F1D7AD" stroke-width="6" stroke-linecap="round" stroke-dasharray="25 25"/>
</svg>
