<svg width="35" height="34" viewBox="0 0 35 34" fill="none" xmlns="http://www.w3.org/2000/svg">
<path d="M17.4692 14.3861C12.1364 15.6714 6.54357 25.659 7.78583 30.8132C8.34532 33.1345 10.48 34.0874 13.4972 33.3602C16.777 32.5697 18.5407 30.3796 21.1711 29.7456C23.8243 29.1061 26.3982 30.2508 29.6491 29.4673C32.6663 28.7401 34.1325 26.9193 33.573 24.598C32.3307 19.4438 22.8019 13.1008 17.4692 14.3861ZM7.37655 15.9312C6.12267 13.7948 3.61131 12.8208 1.76736 13.7551C-0.0765841 14.6893 -0.554578 17.1784 0.699306 19.3148C1.95319 21.4511 4.46455 22.4251 6.30849 21.4909C8.15244 20.5566 8.63044 18.0676 7.37655 15.9312ZM12.7327 13.1778C14.68 12.1356 15.0494 9.10474 13.5582 6.40833C12.067 3.71192 9.27981 2.3716 7.33256 3.4138C5.38531 4.456 5.01587 7.48684 6.50705 10.1832C7.99823 12.8797 10.7863 14.2205 12.7327 13.1778ZM31.1588 6.67184C29.0917 6.68022 27.3005 8.69121 27.1569 11.1644C27.014 13.6375 28.5735 15.6355 30.6406 15.6271C32.7077 15.6187 34.4989 13.6077 34.6425 11.1345C34.7854 8.66144 33.2259 6.66345 31.1588 6.67184ZM21.135 11.1527C23.3433 11.1933 25.2138 8.73036 25.3129 5.65068C25.4119 2.571 23.7024 0.0419229 21.494 0.000610642C19.2856 -0.0407016 17.4152 2.42291 17.3162 5.50259C17.2171 8.58227 18.9268 11.112 21.135 11.1527Z" fill="#F1D7AE"/>
</svg>
