<svg width="109" height="29" viewBox="0 0 109 29" fill="none" xmlns="http://www.w3.org/2000/svg">
<rect x="0.5" y="0.5" width="108" height="28" rx="14" fill="#E86E2F" stroke="white"/>
<path d="M37.7185 15.88H51.1265V17.592H37.7185V15.88ZM43.3025 16.968H45.4305V22.424H43.3025V16.968ZM39.2545 8.328H49.5265V14.296H39.2545V8.328ZM47.4465 9.992H41.3505V12.632H47.4465V9.992ZM55.8293 16.232H57.9253V19.736H55.8293V16.232ZM60.5173 16.232H62.5973V19.72H60.5173V16.232ZM52.4373 19.064H65.8613V20.792H52.4373V19.064ZM53.9573 8.552H64.3413V13.464H56.0853V15.976H53.9733V11.8H62.2293V10.248H53.9573V8.552ZM53.9733 15.096H64.6773V16.792H53.9733V15.096ZM77.844 7.592H79.876V22.408H77.844V7.592ZM72.964 12.664H75.428V14.392H72.964V12.664ZM74.852 7.832H76.836V21.736H74.852V7.832ZM69.78 10.008H71.38V11.528C71.38 12.36 71.316 13.1813 71.188 13.992C71.0707 14.8027 70.884 15.5707 70.628 16.296C70.372 17.0107 70.036 17.656 69.62 18.232C69.204 18.808 68.7027 19.2827 68.116 19.656L66.852 18.088C67.5773 17.6293 68.1533 17.0533 68.58 16.36C69.0067 15.656 69.3107 14.888 69.492 14.056C69.684 13.2133 69.78 12.3707 69.78 11.528V10.008ZM70.26 10.008H71.844V11.528C71.844 12.3493 71.9347 13.16 72.116 13.96C72.2973 14.76 72.596 15.4907 73.012 16.152C73.428 16.8027 73.9933 17.336 74.708 17.752L73.476 19.288C72.6867 18.8187 72.0573 18.184 71.588 17.384C71.1187 16.584 70.7773 15.6827 70.564 14.68C70.3613 13.6667 70.26 12.616 70.26 11.528V10.008ZM67.396 9.08H74.004V10.792H67.396V9.08ZM88.4828 16.824C89.5494 16.824 90.4774 16.936 91.2668 17.16C92.0561 17.384 92.6641 17.704 93.0908 18.12C93.5281 18.536 93.7468 19.0373 93.7468 19.624C93.7468 20.2 93.5281 20.696 93.0908 21.112C92.6641 21.5387 92.0561 21.864 91.2668 22.088C90.4774 22.312 89.5494 22.424 88.4828 22.424C87.4268 22.424 86.5041 22.312 85.7148 22.088C84.9254 21.864 84.3121 21.5387 83.8748 21.112C83.4481 20.696 83.2348 20.2 83.2348 19.624C83.2348 19.0373 83.4481 18.536 83.8748 18.12C84.3121 17.704 84.9254 17.384 85.7148 17.16C86.5041 16.936 87.4268 16.824 88.4828 16.824ZM88.4828 18.424C87.8214 18.424 87.2561 18.4667 86.7868 18.552C86.3174 18.6373 85.9601 18.7707 85.7148 18.952C85.4801 19.1333 85.3628 19.3573 85.3628 19.624C85.3628 19.8907 85.4801 20.1147 85.7148 20.296C85.9601 20.4667 86.3174 20.6 86.7868 20.696C87.2561 20.7813 87.8214 20.824 88.4828 20.824C89.1548 20.824 89.7254 20.7813 90.1948 20.696C90.6641 20.6 91.0214 20.4667 91.2668 20.296C91.5121 20.1147 91.6348 19.8907 91.6348 19.624C91.6348 19.3573 91.5121 19.1333 91.2668 18.952C91.0214 18.7707 90.6641 18.6373 90.1948 18.552C89.7254 18.4667 89.1548 18.424 88.4828 18.424ZM83.3948 8.264H92.7868V9.928H83.3948V8.264ZM81.9068 14.216H95.2348V15.896H81.9068V14.216ZM86.8348 11.624H88.9628V14.632H86.8348V11.624ZM91.5388 8.264H93.6668V9.48C93.6668 10.0667 93.6508 10.68 93.6188 11.32C93.5868 11.96 93.4641 12.664 93.2508 13.432L91.1388 13.224C91.3414 12.4667 91.4588 11.7947 91.4908 11.208C91.5228 10.6213 91.5388 10.0453 91.5388 9.48V8.264Z" fill="white"/>
<path fill-rule="evenodd" clip-rule="evenodd" d="M19.6667 9.66667C17.25 9.66667 17 6.5 19.6667 6.5C21.5833 6.5 22.4167 7.08333 24 7.75C25.75 7.08333 26.4167 6.5 28.3333 6.5C31 6.5 30.75 9.66667 28.3333 9.66667H19.6667Z" fill="#6D5B57"/>
<path fill-rule="evenodd" clip-rule="evenodd" d="M30.8334 14.6665H24.6667V21.4998H29.6667C30.3334 21.4998 30.9167 20.9165 30.9167 20.2498V14.6665H30.8334ZM17.1667 14.6665H23.4167V21.4998H18.4167C17.75 21.4998 17.1667 20.9165 17.1667 20.2498V14.6665ZM23.3334 13.9998V9.6665H17.1667C16.5 9.6665 15.9167 10.2498 15.9167 10.9165V13.9998H23.3334ZM32.1667 13.9998H24.6667V9.6665H30.9167C31.5834 9.6665 32.1667 10.2498 32.1667 10.9165V13.9998Z" fill="white"/>
<path fill-rule="evenodd" clip-rule="evenodd" d="M17.1667 14H23.4167V15.25H17.1667V14ZM24.6667 14H30.9167V15.25H24.6667V14Z" fill="white"/>
<path fill-rule="evenodd" clip-rule="evenodd" d="M25.25 9.6665H25.9167V21.4998H25.25V9.6665Z" fill="white"/>
<path fill-rule="evenodd" clip-rule="evenodd" d="M22.75 9.6665H25.25V21.4998H22.75V9.6665Z" fill="#6D5B57"/>
</svg>
