<svg width="109" height="29" viewBox="0 0 109 29" fill="none" xmlns="http://www.w3.org/2000/svg">
<rect x="0.5" y="0.5" width="108" height="28" rx="14" fill="#3D1F04" stroke="white"/>
<path d="M44.7259 9.488H54.9499V11.168H44.7259V9.488ZM43.0779 12.336H56.4859V14.016H43.0779V12.336ZM44.7259 6.752H46.8379V10.448H44.7259V6.752ZM44.5819 14.832H54.9019V18.736H46.7419V20.08H44.5979V17.248H52.7739V16.432H44.5819V14.832ZM44.5979 19.648H55.3339V21.264H44.5979V19.648ZM48.7259 10.496H50.8539V13.328H48.7259V10.496ZM68.0526 6.608H70.1806V21.424H68.0526V6.608ZM65.2046 12.272H69.0926V14H65.2046V12.272ZM63.2046 8.128H65.3006C65.3006 9.248 65.194 10.32 64.9806 11.344C64.778 12.3573 64.4313 13.3173 63.9406 14.224C63.45 15.1307 62.778 15.9733 61.9246 16.752C61.082 17.52 60.0206 18.224 58.7406 18.864L57.6206 17.216C58.666 16.6933 59.5406 16.128 60.2446 15.52C60.9593 14.912 61.5353 14.256 61.9726 13.552C62.41 12.848 62.7246 12.08 62.9166 11.248C63.1086 10.4053 63.2046 9.49333 63.2046 8.512V8.128ZM58.3246 8.128H64.3246V9.824H58.3246V8.128ZM82.7074 6.576H84.8514V21.44H82.7074V6.576ZM73.3154 16.256H74.6274C75.502 16.256 76.3287 16.2453 77.1074 16.224C77.886 16.192 78.6487 16.144 79.3954 16.08C80.142 16.0053 80.9047 15.8987 81.6834 15.76L81.9074 17.472C80.7127 17.6853 79.534 17.8293 78.3714 17.904C77.2194 17.968 75.9714 18 74.6274 18H73.3154V16.256ZM73.2834 7.84H80.2754V13.584H75.4754V16.912H73.3154V11.904H78.1154V9.552H73.2834V7.84Z" fill="white"/>
<path opacity="0.2" d="M36.9792 13.628C36.9792 14.9553 36.5856 16.2527 35.8482 17.3564C35.1108 18.46 34.0627 19.3201 32.8364 19.8281C31.6101 20.336 30.2608 20.4689 28.959 20.21C27.6572 19.951 26.4614 19.3119 25.5228 18.3733C24.5843 17.4348 23.9451 16.239 23.6862 14.9372C23.4273 13.6354 23.5602 12.286 24.0681 11.0598C24.576 9.83351 25.4362 8.7854 26.5398 8.04799C27.6434 7.31058 28.9409 6.91699 30.2682 6.91699C32.0481 6.91699 33.755 7.62404 35.0136 8.88259C36.2721 10.1411 36.9792 11.8481 36.9792 13.628Z" fill="white"/>
<path d="M37.5384 19.7797H34.1403C35.6217 18.8463 36.7164 17.4094 37.2228 15.7333C37.7293 14.0572 37.6135 12.2546 36.8968 10.6571C36.1801 9.0595 34.9107 7.77445 33.322 7.03826C31.7333 6.30207 29.9323 6.16426 28.2501 6.65018C26.5679 7.13609 25.1178 8.21305 24.1664 9.68297C23.2149 11.1529 22.8263 12.9169 23.0718 14.6506C23.3174 16.3842 24.1807 17.9709 25.5029 19.1188C26.8251 20.2667 28.5173 20.8985 30.2682 20.8982H37.5384C37.6867 20.8982 37.829 20.8393 37.9339 20.7344C38.0387 20.6295 38.0977 20.4872 38.0977 20.3389C38.0977 20.1906 38.0387 20.0484 37.9339 19.9435C37.829 19.8386 37.6867 19.7797 37.5384 19.7797ZM30.2682 7.47625C31.3465 7.47504 32.4059 7.7589 33.3392 8.29904C32.6652 8.60378 32.0139 8.9563 31.3902 9.35392C30.4029 8.72435 29.3476 8.20843 28.2444 7.816C28.8951 7.58959 29.5793 7.47473 30.2682 7.47625ZM26.8121 8.54162C28.0656 8.88085 29.2674 9.38807 30.385 10.0495C29.9074 10.4089 29.4507 10.7952 29.0169 11.2064C27.8692 10.5957 26.6345 10.1649 25.3559 9.92925C25.7625 9.39054 26.2544 8.92183 26.8121 8.54162ZM24.7261 10.959C25.9333 11.1354 27.1052 11.5013 28.1983 12.0432C27.8101 12.4698 27.4454 12.9172 27.1057 13.3833C26.1853 12.9702 25.2076 12.6992 24.206 12.5794C24.303 12.0176 24.478 11.4722 24.7261 10.959ZM24.1165 13.6979C24.9255 13.7978 25.7167 14.0095 26.4674 14.327C25.9374 15.1779 25.491 16.0781 25.1343 17.0149C24.482 16.0306 24.1285 14.8786 24.1165 13.6979ZM25.9634 18.0187C26.6349 16.0043 27.7366 14.1601 29.1922 12.6141C30.6477 11.0681 32.4223 9.85739 34.3927 9.06591C34.8341 9.46533 35.216 9.92605 35.5265 10.434C33.5787 11.1154 31.8236 12.2557 30.4095 13.7585C28.9954 15.2613 27.9639 17.0825 27.4021 19.068C26.8747 18.7893 26.3904 18.4359 25.9641 18.0187H25.9634ZM30.1046 19.7797C29.5391 19.7638 28.9785 19.6697 28.4388 19.5001C28.9429 17.6378 29.8984 15.9285 31.2208 14.5237C32.5432 13.1189 34.1916 12.0619 36.0201 11.4462C36.221 11.9749 36.3476 12.529 36.3962 13.0925C34.894 13.6313 33.5408 14.5182 32.4473 15.6805C31.3537 16.8428 30.551 18.2475 30.1046 19.7797ZM36.3836 14.2963C36.2367 15.6252 35.6618 16.8704 34.7455 17.8441C33.8291 18.8178 32.6211 19.4672 31.3035 19.6944C31.7177 18.4849 32.3851 17.3776 33.2611 16.4464C34.1371 15.5152 35.2016 14.7815 36.3836 14.2942V14.2963Z" fill="white"/>
</svg>
