<svg width="109" height="29" viewBox="0 0 109 29" fill="none" xmlns="http://www.w3.org/2000/svg">
<rect x="0.5" y="0.5" width="108" height="28" rx="14" fill="#857464" stroke="white"/>
<path d="M50.5499 11.232H54.4539V12.944H50.5499V11.232ZM46.5179 7.728H48.2299V9.888C48.2299 10.816 48.1499 11.7173 47.9899 12.592C47.8299 13.4667 47.5845 14.2827 47.2539 15.04C46.9232 15.7973 46.5019 16.464 45.9899 17.04C45.4885 17.616 44.8912 18.08 44.1979 18.432L42.8699 16.736C43.4992 16.4373 44.0379 16.048 44.4859 15.568C44.9445 15.088 45.3232 14.544 45.6219 13.936C45.9312 13.3173 46.1552 12.6667 46.2939 11.984C46.4432 11.2907 46.5179 10.592 46.5179 9.888V7.728ZM46.9499 7.728H48.6459V9.888C48.6459 10.5813 48.7152 11.2693 48.8539 11.952C48.9925 12.624 49.2005 13.2533 49.4779 13.84C49.7659 14.4267 50.1339 14.9493 50.5819 15.408C51.0299 15.856 51.5632 16.2187 52.1819 16.496L50.9019 18.192C50.2085 17.8507 49.6112 17.4027 49.1099 16.848C48.6085 16.2827 48.1979 15.6373 47.8779 14.912C47.5685 14.1867 47.3339 13.3973 47.1739 12.544C47.0245 11.6907 46.9499 10.8053 46.9499 9.888V7.728ZM53.3819 6.576H55.5099V21.44H53.3819V6.576ZM67.9566 6.576H70.0846V21.44H67.9566V6.576ZM58.5166 7.76H60.6286V11.376H63.7006V7.76H65.8126V17.984H58.5166V7.76ZM60.6286 13.024V16.288H63.7006V13.024H60.6286ZM78.0194 7.456H79.8594V8.528C79.8594 9.168 79.7687 9.792 79.5874 10.4C79.4167 10.9973 79.1607 11.5627 78.8194 12.096C78.478 12.6293 78.0567 13.1147 77.5554 13.552C77.0647 13.9787 76.4994 14.3467 75.8594 14.656C75.2194 14.9653 74.5154 15.1947 73.7474 15.344L72.8354 13.568C73.4967 13.4507 74.0994 13.2747 74.6434 13.04C75.198 12.7947 75.6834 12.5013 76.0994 12.16C76.5154 11.8187 76.8674 11.4507 77.1554 11.056C77.4434 10.6507 77.6567 10.2347 77.7954 9.808C77.9447 9.37067 78.0194 8.944 78.0194 8.528V7.456ZM78.4354 7.456H80.2914V8.528C80.2914 8.95467 80.3607 9.38667 80.4994 9.824C80.6487 10.2613 80.862 10.6827 81.1394 11.088C81.4274 11.4827 81.7794 11.8453 82.1954 12.176C82.6114 12.5067 83.0914 12.7947 83.6354 13.04C84.1794 13.2747 84.7927 13.4507 85.4754 13.568L84.5634 15.344C83.7954 15.1947 83.0914 14.9653 82.4514 14.656C81.8114 14.3467 81.2407 13.9787 80.7394 13.552C80.2487 13.1253 79.8274 12.6453 79.4754 12.112C79.134 11.5787 78.8727 11.008 78.6914 10.4C78.5207 9.792 78.4354 9.168 78.4354 8.528V7.456ZM72.5154 17.872H85.9394V19.616H72.5154V17.872Z" fill="white"/>
<path d="M37 19V18H35.9495C35.8846 17.6871 35.7604 17.3896 35.5835 17.1235L36.3285 16.3785L35.6215 15.6715L34.8765 16.4165C34.6104 16.2396 34.3129 16.1154 34 16.0505V15H33V16.0505C32.6871 16.1154 32.3896 16.2396 32.1235 16.4165L31.3785 15.6715L30.6715 16.3785L31.4165 17.1235C31.2396 17.3896 31.1154 17.6871 31.0505 18H30V19H31.0505C31.1155 19.3185 31.2425 19.6145 31.4165 19.8765L30.6715 20.6215L31.3785 21.3285L32.1235 20.5835C32.3896 20.7604 32.6871 20.8846 33 20.9495V22H34V20.9495C34.3129 20.8846 34.6104 20.7604 34.8765 20.5835L35.6215 21.3285L36.3285 20.6215L35.5835 19.8765C35.7604 19.6104 35.8846 19.3129 35.9495 19H37ZM33.5 20C32.673 20 32 19.327 32 18.5C32 17.673 32.673 17 33.5 17C34.327 17 35 17.673 35 18.5C35 19.327 34.327 20 33.5 20ZM28 10H30V11H28V10Z" fill="white"/>
<path d="M25 21V9H33V13.5H34V9C34 8.4485 33.5515 8 33 8H25C24.4485 8 24 8.4485 24 9V21C24 21.5515 24.4485 22 25 22H29V21H25Z" fill="white"/>
</svg>
