<svg width="109" height="29" viewBox="0 0 109 29" fill="none" xmlns="http://www.w3.org/2000/svg">
<rect x="0.5" y="0.5" width="108" height="28" rx="14" fill="#595315" stroke="white"/>
<path d="M44.9745 6.608H47.1185V17.52H44.9745V6.608ZM35.0705 7.648H42.8945V9.36H35.0705V7.648ZM34.9265 15.744L34.7185 14.016C35.5078 14.016 36.3825 14.0107 37.3425 14C38.3025 13.9787 39.2785 13.9467 40.2705 13.904C41.2625 13.8507 42.2012 13.7707 43.0865 13.664L43.2145 15.232C42.2972 15.3813 41.3478 15.4933 40.3665 15.568C39.3852 15.6427 38.4252 15.6907 37.4865 15.712C36.5585 15.7333 35.7052 15.744 34.9265 15.744ZM36.2545 9.152H38.3025V14.208H36.2545V9.152ZM39.6945 9.152H41.7265V14.208H39.6945V9.152ZM43.1825 9.184H46.1425V10.896H43.1825V9.184ZM43.1825 12.176H46.1425V13.872H43.1825V12.176ZM37.3265 19.456H47.4385V21.168H37.3265V19.456ZM37.3265 16.704H39.4545V20.736H37.3265V16.704ZM54.2053 7.584C54.9733 7.584 55.6666 7.73867 56.2853 8.048C56.9039 8.35733 57.3893 8.78933 57.7413 9.344C58.0933 9.888 58.2693 10.5173 58.2693 11.232C58.2693 11.936 58.0933 12.5653 57.7413 13.12C57.3893 13.6747 56.9039 14.1067 56.2853 14.416C55.6666 14.7253 54.9733 14.88 54.2053 14.88C53.4266 14.88 52.7279 14.7253 52.1093 14.416C51.4906 14.1067 50.9999 13.6747 50.6373 13.12C50.2853 12.5653 50.1093 11.936 50.1093 11.232C50.1093 10.5173 50.2853 9.888 50.6373 9.344C50.9999 8.78933 51.4906 8.35733 52.1093 8.048C52.7279 7.73867 53.4266 7.584 54.2053 7.584ZM54.2053 9.408C53.8213 9.408 53.4746 9.48267 53.1653 9.632C52.8666 9.77067 52.6266 9.97867 52.4453 10.256C52.2746 10.5227 52.1893 10.848 52.1893 11.232C52.1893 11.616 52.2746 11.9467 52.4453 12.224C52.6266 12.5013 52.8666 12.7147 53.1653 12.864C53.4746 13.0027 53.8213 13.072 54.2053 13.072C54.5786 13.072 54.9146 13.0027 55.2133 12.864C55.5119 12.7147 55.7466 12.5013 55.9173 12.224C56.0986 11.9467 56.1893 11.616 56.1893 11.232C56.1893 10.848 56.0986 10.5227 55.9173 10.256C55.7466 9.97867 55.5119 9.77067 55.2133 9.632C54.9146 9.48267 54.5786 9.408 54.2053 9.408ZM59.6613 6.576H61.7893V21.44H59.6613V6.576ZM49.7413 18.448L49.5013 16.72C50.3653 16.72 51.3199 16.7147 52.3653 16.704C53.4213 16.6827 54.5039 16.64 55.6133 16.576C56.7333 16.5013 57.8159 16.3893 58.8613 16.24L59.0053 17.776C57.9386 17.9893 56.8559 18.144 55.7573 18.24C54.6586 18.3253 53.5973 18.384 52.5733 18.416C51.5493 18.4373 50.6053 18.448 49.7413 18.448ZM67.756 7.744H69.5V9.888C69.5 10.848 69.4147 11.7707 69.244 12.656C69.0733 13.5307 68.812 14.352 68.46 15.12C68.1187 15.8773 67.676 16.5493 67.132 17.136C66.5987 17.712 65.964 18.1707 65.228 18.512L63.964 16.752C64.6147 16.464 65.1747 16.0853 65.644 15.616C66.124 15.136 66.5187 14.592 66.828 13.984C67.1373 13.3653 67.3667 12.7093 67.516 12.016C67.676 11.3227 67.756 10.6133 67.756 9.888V7.744ZM68.172 7.744H69.9V9.888C69.9 10.5813 69.9747 11.2587 70.124 11.92C70.2733 12.5813 70.4973 13.2053 70.796 13.792C71.1053 14.3787 71.4893 14.9013 71.948 15.36C72.4173 15.808 72.9667 16.1653 73.596 16.432L72.364 18.16C71.6493 17.8293 71.0253 17.3867 70.492 16.832C69.9693 16.2773 69.5373 15.6373 69.196 14.912C68.8547 14.176 68.5987 13.3867 68.428 12.544C68.2573 11.6907 68.172 10.8053 68.172 9.888V7.744ZM74.316 6.576H76.444V21.44H74.316V6.576ZM86.4268 8.768H90.0748V10.464H86.4268V8.768ZM89.1308 6.608H91.2748V14.128H89.1308V6.608ZM81.4828 14.736H91.2748V18.736H83.6108V20.592H81.4988V17.2H89.1628V16.384H81.4828V14.736ZM81.4988 19.6H91.6908V21.264H81.4988V19.6ZM82.2508 7.072H83.9788V8.144C83.9788 9.06133 83.8294 9.93067 83.5308 10.752C83.2428 11.5733 82.7948 12.288 82.1868 12.896C81.5788 13.4933 80.8001 13.9413 79.8508 14.24L78.7628 12.576C79.5841 12.32 80.2508 11.968 80.7628 11.52C81.2748 11.0613 81.6481 10.5387 81.8828 9.952C82.1281 9.36533 82.2508 8.76267 82.2508 8.144V7.072ZM82.6828 7.072H84.3948V8.144C84.3948 8.57067 84.4588 8.99733 84.5868 9.424C84.7254 9.85067 84.9281 10.2507 85.1948 10.624C85.4614 10.9973 85.8028 11.328 86.2188 11.616C86.6454 11.904 87.1468 12.1387 87.7228 12.32L86.6348 13.952C85.7388 13.664 84.9974 13.232 84.4108 12.656C83.8241 12.08 83.3868 11.4027 83.0988 10.624C82.8214 9.84533 82.6828 9.01867 82.6828 8.144V7.072Z" fill="white"/>
<path d="M30 13.7197V20.44C30 20.5885 29.9385 20.7309 29.8291 20.836C29.7197 20.941 29.5714 21 29.4167 21H25.3333C25.1786 21 25.0302 20.941 24.9209 20.836C24.8115 20.7309 24.75 20.5885 24.75 20.44V16.7998C24.75 16.7256 24.7193 16.6544 24.6646 16.6018C24.6099 16.5493 24.5357 16.5198 24.4583 16.5198H21.5417C21.4643 16.5198 21.3901 16.5493 21.3354 16.6018C21.2807 16.6544 21.25 16.7256 21.25 16.7998V20.44C21.25 20.5885 21.1885 20.7309 21.0791 20.836C20.9697 20.941 20.8214 21 20.6667 21H16.5833C16.4286 21 16.2803 20.941 16.1709 20.836C16.0615 20.7309 16 20.5885 16 20.44V13.7197C16.0001 13.4227 16.1232 13.1379 16.342 12.928L22.1753 7.32779C22.3941 7.1179 22.6907 7 23 7C23.3093 7 23.6059 7.1179 23.8247 7.32779L29.658 12.928C29.8768 13.1379 29.9999 13.4227 30 13.7197Z" fill="white"/>
</svg>
