<svg width="109" height="29" viewBox="0 0 109 29" fill="none" xmlns="http://www.w3.org/2000/svg">
<rect x="0.5" y="0.5" width="108" height="28" rx="14" fill="#26442C" stroke="white"/>
<path d="M46.7259 9.488H56.9499V11.168H46.7259V9.488ZM45.0779 12.336H58.4859V14.016H45.0779V12.336ZM46.7259 6.752H48.8379V10.448H46.7259V6.752ZM46.5819 14.832H56.9019V18.736H48.7419V20.08H46.5979V17.248H54.7739V16.432H46.5819V14.832ZM46.5979 19.648H57.3339V21.264H46.5979V19.648ZM50.7259 10.496H52.8539V13.328H50.7259V10.496ZM70.0526 6.608H72.1806V21.424H70.0526V6.608ZM67.2046 12.272H71.0926V14H67.2046V12.272ZM65.2046 8.128H67.3006C67.3006 9.248 67.194 10.32 66.9806 11.344C66.778 12.3573 66.4313 13.3173 65.9406 14.224C65.45 15.1307 64.778 15.9733 63.9246 16.752C63.082 17.52 62.0206 18.224 60.7406 18.864L59.6206 17.216C60.666 16.6933 61.5406 16.128 62.2446 15.52C62.9593 14.912 63.5353 14.256 63.9726 13.552C64.41 12.848 64.7246 12.08 64.9166 11.248C65.1086 10.4053 65.2046 9.49333 65.2046 8.512V8.128ZM60.3246 8.128H66.3246V9.824H60.3246V8.128ZM84.7074 6.576H86.8514V21.44H84.7074V6.576ZM75.3154 16.256H76.6274C77.502 16.256 78.3287 16.2453 79.1074 16.224C79.886 16.192 80.6487 16.144 81.3954 16.08C82.142 16.0053 82.9047 15.8987 83.6834 15.76L83.9074 17.472C82.7127 17.6853 81.534 17.8293 80.3714 17.904C79.2194 17.968 77.9714 18 76.6274 18H75.3154V16.256ZM75.2834 7.84H82.2754V13.584H77.4754V16.912H75.3154V11.904H80.1154V9.552H75.2834V7.84Z" fill="white"/>
<path opacity="0.2" d="M38.9792 13.628C38.9792 14.9553 38.5856 16.2527 37.8482 17.3564C37.1108 18.46 36.0627 19.3201 34.8364 19.8281C33.6101 20.336 32.2608 20.4689 30.959 20.21C29.6572 19.951 28.4614 19.3119 27.5228 18.3733C26.5843 17.4348 25.9451 16.239 25.6862 14.9372C25.4273 13.6354 25.5602 12.286 26.0681 11.0598C26.576 9.83351 27.4362 8.7854 28.5398 8.04799C29.6434 7.31058 30.9409 6.91699 32.2682 6.91699C34.0481 6.91699 35.755 7.62404 37.0136 8.88259C38.2721 10.1411 38.9792 11.8481 38.9792 13.628Z" fill="white"/>
<path d="M39.5384 19.7797H36.1403C37.6217 18.8463 38.7164 17.4094 39.2228 15.7333C39.7293 14.0572 39.6135 12.2546 38.8968 10.6571C38.1801 9.0595 36.9107 7.77445 35.322 7.03826C33.7333 6.30207 31.9323 6.16426 30.2501 6.65018C28.5679 7.13609 27.1178 8.21305 26.1664 9.68297C25.2149 11.1529 24.8263 12.9169 25.0718 14.6506C25.3174 16.3842 26.1807 17.9709 27.5029 19.1188C28.8251 20.2667 30.5173 20.8985 32.2682 20.8982H39.5384C39.6867 20.8982 39.829 20.8393 39.9339 20.7344C40.0387 20.6295 40.0977 20.4872 40.0977 20.3389C40.0977 20.1906 40.0387 20.0484 39.9339 19.9435C39.829 19.8386 39.6867 19.7797 39.5384 19.7797ZM32.2682 7.47625C33.3465 7.47504 34.4059 7.7589 35.3392 8.29904C34.6652 8.60378 34.0139 8.9563 33.3902 9.35392C32.4029 8.72435 31.3476 8.20843 30.2444 7.816C30.8951 7.58959 31.5793 7.47473 32.2682 7.47625ZM28.8121 8.54162C30.0656 8.88085 31.2674 9.38807 32.385 10.0495C31.9074 10.4089 31.4507 10.7952 31.0169 11.2064C29.8692 10.5957 28.6345 10.1649 27.3559 9.92925C27.7625 9.39054 28.2544 8.92183 28.8121 8.54162ZM26.7261 10.959C27.9333 11.1354 29.1052 11.5013 30.1983 12.0432C29.8101 12.4698 29.4454 12.9172 29.1057 13.3833C28.1853 12.9702 27.2076 12.6992 26.206 12.5794C26.303 12.0176 26.478 11.4722 26.7261 10.959ZM26.1165 13.6979C26.9255 13.7978 27.7167 14.0095 28.4674 14.327C27.9374 15.1779 27.491 16.0781 27.1343 17.0149C26.482 16.0306 26.1285 14.8786 26.1165 13.6979ZM27.9634 18.0187C28.6349 16.0043 29.7366 14.1601 31.1922 12.6141C32.6477 11.0681 34.4223 9.85739 36.3927 9.06591C36.8341 9.46533 37.216 9.92605 37.5265 10.434C35.5787 11.1154 33.8236 12.2557 32.4095 13.7585C30.9954 15.2613 29.9639 17.0825 29.4021 19.068C28.8747 18.7893 28.3904 18.4359 27.9641 18.0187H27.9634ZM32.1046 19.7797C31.5391 19.7638 30.9785 19.6697 30.4388 19.5001C30.9429 17.6378 31.8984 15.9285 33.2208 14.5237C34.5432 13.1189 36.1916 12.0619 38.0201 11.4462C38.221 11.9749 38.3476 12.529 38.3962 13.0925C36.894 13.6313 35.5408 14.5182 34.4473 15.6805C33.3537 16.8428 32.551 18.2475 32.1046 19.7797ZM38.3836 14.2963C38.2367 15.6252 37.6618 16.8704 36.7455 17.8441C35.8291 18.8178 34.6211 19.4672 33.3035 19.6944C33.7177 18.4849 34.3851 17.3776 35.2611 16.4464C36.1371 15.5152 37.2016 14.7815 38.3836 14.2942V14.2963Z" fill="white"/>
</svg>
