<svg width="109" height="29" viewBox="0 0 109 29" fill="none" xmlns="http://www.w3.org/2000/svg">
<rect x="0.5" y="0.5" width="108" height="28" rx="14" fill="#394B19" stroke="white"/>
<path d="M42.0779 18.032H55.5019V19.76H42.0779V18.032ZM47.6939 14.672H49.8059V18.8H47.6939V14.672ZM43.1019 7.808H54.3979V9.52H43.1019V7.808ZM43.1819 13.712H54.3499V15.392H43.1819V13.712ZM45.1179 9.216H47.2459V13.904H45.1179V9.216ZM50.2539 9.216H52.3819V13.904H50.2539V9.216ZM58.3646 13.936H68.7806V15.616H58.3646V13.936ZM56.7966 18.08H70.2206V19.792H56.7966V18.08ZM62.4286 14.784H64.5566V18.832H62.4286V14.784ZM58.3646 7.6H68.6686V9.312H60.5246V14.56H58.3646V7.6ZM59.8686 10.752H68.3326V12.4H59.8686V10.752ZM76.7474 8.16H78.6354V8.528C78.6354 9.11467 78.5074 9.67467 78.2514 10.208C78.006 10.7413 77.6434 11.2267 77.1634 11.664C76.6834 12.0907 76.0807 12.448 75.3554 12.736C74.6407 13.024 73.814 13.2267 72.8754 13.344L72.0914 11.648C72.7314 11.5733 73.302 11.4613 73.8034 11.312C74.3154 11.1627 74.7527 10.9867 75.1154 10.784C75.4887 10.5707 75.7927 10.3413 76.0274 10.096C76.2727 9.84 76.454 9.57867 76.5714 9.312C76.6887 9.04533 76.7474 8.784 76.7474 8.528V8.16ZM77.7874 8.16H79.6594V8.528C79.6594 8.784 79.718 9.04533 79.8354 9.312C79.9527 9.57867 80.134 9.84 80.3794 10.096C80.6247 10.3413 80.9287 10.5707 81.2914 10.784C81.654 10.9867 82.086 11.1627 82.5874 11.312C83.0994 11.4613 83.6754 11.5733 84.3154 11.648L83.5474 13.344C82.598 13.2267 81.766 13.024 81.0514 12.736C80.3367 12.448 79.734 12.0907 79.2434 11.664C78.7634 11.2267 78.4007 10.7467 78.1554 10.224C77.91 9.69067 77.7874 9.12533 77.7874 8.528V8.16ZM72.7314 7.232H83.7074V8.912H72.7314V7.232ZM73.1314 19.456H83.4034V21.168H73.1314V19.456ZM73.1314 16.928H75.2594V20.08H73.1314V16.928ZM71.4994 14.32H84.9234V16.016H71.4994V14.32ZM77.1154 12.288H79.2434V15.008H77.1154V12.288Z" fill="white"/>
<path d="M32.45 8C32.778 7.99989 33.0939 8.12694 33.3344 8.35566C33.5748 8.58439 33.7222 8.8979 33.7467 9.23333L33.75 9.33333C33.75 9.49662 33.8085 9.65422 33.9143 9.77625C34.0201 9.89827 34.1658 9.97623 34.3239 9.99533L34.4 10H35.05C35.5474 9.99997 36.026 10.1949 36.3879 10.5449C36.7498 10.8948 36.9676 11.3734 36.9967 11.8827L37 12V18C37 18.5101 36.81 19.001 36.4688 19.3722C36.1275 19.7433 35.6609 19.9667 35.1644 19.9967L35.05 20H25.95C25.4526 20 24.974 19.8051 24.6121 19.4551C24.2502 19.1052 24.0324 18.6266 24.0033 18.1173L24 18V12C24 11.4899 24.19 10.999 24.5312 10.6278C24.8725 10.2567 25.3391 10.0333 25.8356 10.0033L25.95 10H26.6C26.7724 10 26.9377 9.92976 27.0596 9.80474C27.1815 9.67971 27.25 9.51014 27.25 9.33333C27.2499 8.99695 27.3738 8.67296 27.5968 8.4263C27.8198 8.17965 28.1254 8.02856 28.4525 8.00333L28.55 8H32.45ZM30.5 12.6667C30.0168 12.6666 29.5508 12.8506 29.1923 13.1829C28.8338 13.5152 28.6084 13.9722 28.5598 14.4653L28.5526 14.5667L28.55 14.6667L28.5526 14.7667C28.5717 15.1575 28.7021 15.534 28.9278 15.8495C29.1534 16.1651 29.4643 16.4058 29.8221 16.5418C30.1798 16.6779 30.5686 16.7034 30.9402 16.6151C31.3119 16.5268 31.6502 16.3286 31.9131 16.045C32.1761 15.7615 32.3521 15.405 32.4195 15.0199C32.4869 14.6347 32.4426 14.2378 32.2922 13.8781C32.1418 13.5185 31.8918 13.2121 31.5732 12.9967C31.2547 12.7814 30.8815 12.6666 30.5 12.6667Z" fill="white"/>
</svg>
