<svg width="32" height="36" viewBox="0 0 32 36" fill="none" xmlns="http://www.w3.org/2000/svg">
<path d="M28.4444 32.4V12.6H3.55556V32.4H28.4444ZM23.1111 0H26.6667V3.6H28.4444C29.3874 3.6 30.2918 3.97928 30.9586 4.65442C31.6254 5.32955 32 6.24522 32 7.2V32.4C32 34.398 30.4178 36 28.4444 36H3.55556C2.61256 36 1.70819 35.6207 1.0414 34.9456C0.374602 34.2705 0 33.3548 0 32.4V7.2C0 5.22 1.6 3.6 3.55556 3.6H5.33333V0H8.88889V3.6H23.1111V0ZM16 29.106L14.9689 28.152C11.3067 24.786 8.88889 22.572 8.88889 19.854C8.88889 17.64 10.6133 15.894 12.8 15.894C14.0444 15.894 15.2178 16.47 16 17.388C16.7822 16.47 17.9556 15.894 19.2 15.894C21.3867 15.894 23.1111 17.64 23.1111 19.854C23.1111 22.572 20.6933 24.786 17.0311 28.152L16 29.106Z" fill="#695F50"/>
</svg>
