<svg width="32" height="35" viewBox="0 0 32 35" fill="none" xmlns="http://www.w3.org/2000/svg">
<path d="M16.064 3.97727L12.048 7.95455H20.048L16.064 3.97727ZM3.2 11.1364V31.8182H28.8V11.1364H3.2ZM16 0L24 7.95455H28.8C29.6487 7.95455 30.4626 8.28977 31.0627 8.88648C31.6629 9.48318 32 10.2925 32 11.1364V31.8182C32 32.6621 31.6629 33.4714 31.0627 34.0681C30.4626 34.6648 29.6487 35 28.8 35H3.2C2.35131 35 1.53737 34.6648 0.937258 34.0681C0.337142 33.4714 0 32.6621 0 31.8182V11.1364C0 10.2925 0.337142 9.48318 0.937258 8.88648C1.53737 8.28977 2.35131 7.95455 3.2 7.95455H8L16 0ZM8 28.6364V22.2727H16V28.6364H8ZM19.2 27.0455V15.9091H25.6V27.0455H19.2ZM6.4 19.0909V14.3182H14.4V19.0909H6.4Z" fill="#685F50"/>
</svg>
