<svg width="11" height="11" viewBox="0 0 11 11" fill="none" xmlns="http://www.w3.org/2000/svg">
<path fill-rule="evenodd" clip-rule="evenodd" d="M7.87879 7.09416L10.8377 10.0531C10.9417 10.1572 11.0001 10.2983 11 10.4454C10.9999 10.5926 10.9415 10.7336 10.8374 10.8376C10.7333 10.9417 10.5922 11.0001 10.4451 11C10.2979 10.9999 10.1568 10.9415 10.0528 10.8374L7.09398 7.87844C6.20946 8.56355 5.09717 8.88595 3.98339 8.78006C2.86961 8.67418 1.838 8.14795 1.09842 7.30844C0.358845 6.46893 -0.0331442 5.37919 0.00219788 4.26092C0.03754 3.14265 0.497559 2.07984 1.28867 1.2887C2.07979 0.497571 3.14257 0.0375409 4.26081 0.00219793C5.37906 -0.0331451 6.46876 0.358854 7.30825 1.09845C8.14775 1.83805 8.67396 2.86968 8.77984 3.98349C8.88573 5.0973 8.56333 6.20962 7.87824 7.09416M4.4002 7.69969C5.27538 7.69969 6.11471 7.35202 6.73355 6.73317C7.35239 6.11431 7.70005 5.27496 7.70005 4.39976C7.70005 3.52457 7.35239 2.68522 6.73355 2.06636C6.11471 1.44751 5.27538 1.09984 4.4002 1.09984C3.52503 1.09984 2.6857 1.44751 2.06686 2.06636C1.44802 2.68522 1.10036 3.52457 1.10036 4.39976C1.10036 5.27496 1.44802 6.11431 2.06686 6.73317C2.6857 7.35202 3.52503 7.69969 4.4002 7.69969Z" fill="white"/>
</svg>
