<svg width="24" height="35" viewBox="0 0 24 35" fill="none" xmlns="http://www.w3.org/2000/svg">
<path d="M22.9704 2.02879C23.2576 2.07006 23.5198 2.21065 23.7089 2.42473C23.898 2.63882 24.0014 2.91204 24 3.19425V31.8023C24.0018 32.0848 23.8986 32.3584 23.7095 32.5729C23.5203 32.7873 23.2579 32.9281 22.9704 32.9695L8.57116 34.9889C8.39994 35.012 8.22561 34.999 8.05999 34.9508C7.89437 34.9027 7.74134 34.8205 7.61127 34.7098C7.4812 34.5991 7.37712 34.4625 7.3061 34.3093C7.23508 34.156 7.19877 33.9897 7.19963 33.8217V31.4995H1.26174C0.927394 31.4986 0.607019 31.3691 0.370603 31.1392C0.134187 30.9093 0.000949838 30.5979 0 30.2728V4.72544C0 4.04822 0.566971 3.49699 1.26174 3.49699H7.19963V1.17657C7.19903 1.00865 7.23553 0.842566 7.30666 0.689553C7.3778 0.536539 7.48191 0.400167 7.61195 0.289663C7.742 0.17916 7.89494 0.0971023 8.06042 0.0490442C8.22591 0.000986225 8.40009 -0.0119513 8.57116 0.011107L22.9704 2.02879ZM10.7994 18.6672C11.1181 18.6672 11.4237 18.5441 11.649 18.3251C11.8743 18.106 12.0009 17.8089 12.0009 17.4991C12.0009 17.1893 11.8743 16.8922 11.649 16.6732C11.4237 16.4541 11.1181 16.331 10.7994 16.331C10.4808 16.331 10.1752 16.4541 9.9499 16.6732C9.72459 16.8922 9.59801 17.1893 9.59801 17.4991C9.59801 17.8089 9.72459 18.106 9.9499 18.3251C10.1752 18.5441 10.4808 18.6672 10.7994 18.6672ZM2.39928 29.1668H7.19963V5.8314H2.39928V29.1668Z" fill="#695F50"/>
</svg>
