<svg width="55" height="51" viewBox="0 0 55 51" fill="none" xmlns="http://www.w3.org/2000/svg">
<path d="M52.5045 33.2434C52.4179 32.9588 52.0547 32.3734 52.0547 32.1619C52.0547 31.9876 52.3346 31.4952 52.4076 31.2495C53.0709 29.0216 51.9432 27.0649 50.0739 25.9094C50.5011 23.7473 49.155 21.7604 47.1098 21.1079C47.1719 18.6307 45.2634 16.5013 42.7634 16.4572C42.7846 13.8265 40.4705 11.6892 37.848 11.9791C37.0158 9.7734 34.8116 8.55783 32.4875 9.13324C32.1027 9.22853 31.7698 9.44435 31.3903 9.54263C29.9642 7.67795 27.5299 7.06469 25.4143 8.16769C24.7624 8.50769 24.3335 9.0582 23.7993 9.53965C21.3475 8.22281 18.2858 9.37131 17.3954 12.0027C14.8294 11.6467 12.3752 13.8491 12.4894 16.4569C10.0292 16.4927 7.98993 18.6157 8.16222 21.094C6.90939 21.5353 5.8398 22.365 5.35281 23.6294C5.19779 24.0318 5.05571 24.6318 5.0504 25.0591C5.04741 25.2799 5.21206 25.8228 5.1055 26.0057C5.08094 26.0482 4.43128 26.4344 4.29153 26.5523C2.91222 27.7124 2.25593 29.6212 2.85944 31.3674C2.94011 31.6001 3.19771 31.9484 3.19771 32.1616C3.19771 32.3671 2.81993 32.9927 2.72798 33.2895C2.12348 35.2445 3.03538 37.2234 4.89636 38.0289C5.06699 38.1026 5.57822 38.2102 5.63365 38.2544C5.67847 38.2902 6.05923 39.0795 6.19301 39.2554C7.17728 40.553 8.97885 41.0072 10.4558 40.2877C10.6612 40.1875 11.032 39.8574 11.1993 39.8315C11.4347 39.795 11.687 39.9454 11.925 39.9633C12.9627 40.0417 13.8239 39.8916 14.6451 39.2319C14.8187 39.0924 15.1746 38.6013 15.3718 38.6309C18.6652 42.5346 24.0191 43.5629 28.9242 43.3537C32.3162 43.2089 35.9741 42.1571 38.582 39.9315C39.062 39.5217 39.4597 39.0151 39.9437 38.6322C40.0074 38.6233 40.3019 39.0071 40.4088 39.0984C41.2918 39.8521 42.1778 40.0447 43.3274 39.963C43.5458 39.9474 43.7799 39.8099 43.9867 39.8312C44.1736 39.8504 44.7708 40.3053 45.0692 40.4132C46.414 40.8993 47.9799 40.5304 48.9057 39.4331C49.1348 39.1615 49.4664 38.3875 49.6038 38.272C49.7306 38.1651 50.382 38.016 50.623 37.8968C52.3273 37.0544 53.0463 35.025 52.5045 33.242V33.2434ZM24.1277 36.1261C23.6878 35.8641 22.6693 34.9324 23.1965 34.4051C23.2456 34.356 23.4777 34.261 23.55 34.2541C24.0722 34.2039 24.1984 34.8129 24.5765 35.0795C25.5651 35.7761 27.283 35.2847 27.033 33.8958C26.1659 33.5827 24.8746 32.4943 25.3353 31.464C25.7715 30.4882 28.086 30.5506 28.9398 30.7817C30.5531 31.219 30.1113 32.6606 29.0427 33.4452C28.7353 33.671 28.1427 33.7766 28.1554 34.1501C28.17 34.5841 28.2626 34.787 28.6009 35.0393C29.2303 35.5081 30.0804 35.533 30.7029 35.0393C31.0322 34.778 31.4461 33.7935 32.0108 34.4177C32.6634 35.1396 31.1175 36.2373 30.4831 36.4133C29.3969 36.7144 28.4482 36.3751 27.5927 35.714C26.6336 36.5856 25.2663 36.8041 24.1287 36.1261H24.1277ZM21.1065 26.1691C23.4744 25.9626 23.4767 30.1741 20.8366 29.7222C19.2176 29.4449 19.1764 26.3374 21.1065 26.1691ZM34.2927 29.7325C31.8654 30.0688 31.7857 26.3497 33.8538 26.1691C36.007 25.9812 36.1889 29.4695 34.2927 29.7325Z" fill="#695F50"/>
<path d="M23.1962 34.4051C23.2453 34.3559 23.4773 34.261 23.5497 34.254C24.0719 34.2039 24.198 34.8128 24.5761 35.0794C25.5647 35.776 27.2826 35.2846 27.0327 33.8957C26.1656 33.5826 24.8742 32.4942 25.335 31.464C25.7712 30.4881 28.0856 30.5505 28.9395 30.7816C30.5528 31.2189 30.111 32.6606 29.0424 33.4452C28.735 33.671 28.1424 33.7766 28.155 34.1501C28.1696 34.5841 28.2623 34.7869 28.6005 35.0393C29.2299 35.5081 30.0801 35.533 30.7025 35.0393C31.0318 34.778 31.4458 33.7935 32.0105 34.4177C32.6631 35.1395 31.1171 36.2372 30.4828 36.4132C29.3966 36.7144 28.4478 36.375 27.5924 35.714C26.6333 36.5855 25.266 36.804 24.1283 36.126C23.6885 35.864 22.67 34.9323 23.1972 34.4051H23.1962Z" fill="white"/>
<path d="M33.8538 26.1691C36.0069 25.9811 36.1888 29.4695 34.2927 29.7324C31.8654 30.0688 31.7857 26.3497 33.8538 26.1691Z" fill="white"/>
<path d="M21.1064 26.169C23.4743 25.9625 23.4766 30.1739 20.8365 29.722C19.2175 29.4448 19.1763 26.3373 21.1064 26.169Z" fill="white"/>
<path d="M15.8562 25.6358C16.0215 25.5566 16.2198 25.6264 16.299 25.7918C16.5634 26.3438 16.6368 27.0142 16.6153 27.6811C16.5935 28.3527 16.4743 29.0507 16.3279 29.6774C16.1812 30.3054 16.0053 30.8704 15.8662 31.2779C15.7966 31.4819 15.7361 31.6472 15.6927 31.7619C15.6858 31.78 15.6793 31.7969 15.6734 31.8125C16.2545 33.2207 16.1141 34.4698 15.795 35.3962C15.4696 36.3405 14.9568 36.9568 14.8245 37.0892C14.6949 37.2189 14.4847 37.2189 14.355 37.0892C14.2254 36.9595 14.2254 36.7493 14.355 36.6197C14.4242 36.5505 14.8783 36.0185 15.1672 35.1799C15.4527 34.3515 15.5754 33.231 15.0111 31.9519L14.9542 31.8229L15.0075 31.6924C15.0075 31.6923 15.0075 31.6922 15.0075 31.6921C15.0077 31.6918 15.0079 31.6912 15.0082 31.6904C15.0089 31.6888 15.0099 31.6863 15.0113 31.6828C15.014 31.6759 15.0183 31.6654 15.0238 31.6514C15.0348 31.6233 15.0511 31.5813 15.0717 31.527C15.1128 31.4182 15.1709 31.2598 15.2379 31.0635C15.3721 30.6702 15.5411 30.1272 15.6814 29.5263C15.822 28.9242 15.9319 28.2723 15.9517 27.6596C15.9717 27.0422 15.8991 26.4938 15.7003 26.0787C15.621 25.9134 15.6909 25.7151 15.8562 25.6358Z" fill="white"/>
<path d="M38.5767 25.7918C38.6559 25.6264 38.8542 25.5566 39.0195 25.6358C39.1848 25.7151 39.2546 25.9134 39.1754 26.0787C38.9766 26.4938 38.904 27.0422 38.924 27.6596C38.9438 28.2723 39.0536 28.9242 39.1943 29.5263C39.3346 30.1272 39.5036 30.6702 39.6378 31.0635C39.7048 31.2598 39.7628 31.4182 39.8039 31.527C39.8245 31.5814 39.8408 31.6233 39.8519 31.6514C39.8574 31.6654 39.8616 31.6759 39.8644 31.6828C39.8658 31.6863 39.8668 31.6888 39.8674 31.6904C39.8677 31.6912 39.868 31.6918 39.8681 31.6921L39.8682 31.6924L39.9215 31.8229L39.8646 31.9519C39.3003 33.231 39.423 34.3515 39.7084 35.1799C39.9974 36.0185 40.4514 36.5505 40.5206 36.6197C40.6503 36.7493 40.6503 36.9595 40.5206 37.0892C40.391 37.2189 40.1808 37.2189 40.0512 37.0892C39.9188 36.9569 39.4061 36.3405 39.0807 35.3962C38.7615 34.4698 38.6211 33.2207 39.2023 31.8125C39.1963 31.7969 39.1898 31.78 39.1829 31.7619C39.1396 31.6472 39.079 31.4819 39.0094 31.2779C38.8704 30.8704 38.6945 30.3054 38.5478 29.6774C38.4014 29.0507 38.2821 28.3527 38.2604 27.6811C38.2388 27.0142 38.3123 26.3438 38.5767 25.7918Z" fill="white"/>
</svg>
