<svg width="39" height="36" viewBox="0 0 39 36" fill="none" xmlns="http://www.w3.org/2000/svg">
<path d="M19.2397 15.0136C13.2723 15.0248 4.82922 24.6311 4.84045 30.6849C4.8455 33.4114 6.86322 35.0365 10.2396 35.0302C13.9098 35.0233 16.3296 33.0594 19.2731 33.0539C22.2422 33.0483 24.6761 35.0031 28.314 34.9963C31.6903 34.99 33.702 33.3574 33.697 30.6308C33.6857 24.577 25.2071 15.0024 19.2397 15.0136ZM8.17019 14.0492C7.38364 11.3437 4.97268 9.59506 2.7854 10.1429C0.598125 10.6907 -0.536971 13.328 0.249578 16.0335C1.03613 18.739 3.44709 20.4876 5.63437 19.9398C7.82165 19.3919 8.95674 16.7547 8.17019 14.0492ZM14.5337 12.4138C16.8575 11.7736 18.0147 8.50582 17.1187 5.11536C16.2227 1.7249 13.6124 -0.50378 11.2886 0.136498C8.96469 0.776777 7.80747 4.04452 8.7035 7.43498C9.59953 10.8254 12.2105 13.0549 14.5337 12.4138ZM35.6751 10.0821C33.4858 9.54247 31.082 11.3001 30.3048 14.0085C29.5283 16.717 30.6731 19.3499 32.8624 19.8896C35.0517 20.4292 37.4554 18.6716 38.2327 15.9632C39.0092 13.2547 37.8643 10.6218 35.6751 10.0821ZM23.9361 12.3962C26.2623 13.0278 28.8643 10.7894 29.7477 7.39559C30.6312 4.0018 29.4618 0.73919 27.1356 0.106835C24.8094 -0.525521 22.2074 1.71369 21.3239 5.10749C20.4405 8.50128 21.6098 11.7647 23.9361 12.3962Z" fill="#685F50"/>
</svg>
