<svg width="35" height="35" viewBox="0 0 35 35" fill="none" xmlns="http://www.w3.org/2000/svg">
<path d="M12.5179 5.96404C14.7351 1.98801 15.8428 0 17.5 0C19.1572 0 20.2649 1.98801 22.4821 5.96404L23.0561 6.99304C23.6861 8.12355 24.0011 8.68881 24.4911 9.06156C24.9811 9.43431 25.5936 9.57256 26.8185 9.84906L27.9315 10.1011C32.2364 11.0758 34.3871 11.5623 34.8998 13.2091C35.4108 14.8541 33.9444 16.5709 31.0097 20.0026L30.2502 20.8899C29.4172 21.8646 28.999 22.3529 28.8117 22.9549C28.6245 23.5587 28.6875 24.2097 28.8135 25.5099L28.929 26.6947C29.3717 31.2745 29.594 33.5635 28.2535 34.5802C26.913 35.597 24.8971 34.6695 20.8687 32.8145L19.8239 32.335C18.6795 31.8065 18.1072 31.544 17.5 31.544C16.8928 31.544 16.3205 31.8065 15.1761 32.335L14.1331 32.8145C10.1029 34.6695 8.08697 35.597 6.74825 34.582C5.40603 33.5635 5.62828 31.2745 6.07102 26.6947L6.18652 25.5117C6.31251 24.2097 6.37551 23.5587 6.18652 22.9566C6.00102 22.3529 5.58278 21.8646 4.7498 20.8916L3.99032 20.0026C1.05564 16.5726 -0.410829 14.8558 0.100159 13.2091C0.611147 11.5623 2.76535 11.0741 7.07024 10.1011L8.18322 9.84906C9.40644 9.57256 10.0172 9.43431 10.5089 9.06156C11.0007 8.68881 11.3139 8.12355 11.9439 6.99304L12.5179 5.96404Z" fill="#685F50"/>
</svg>
