<svg width="35" height="35" viewBox="0 0 35 35" fill="none" xmlns="http://www.w3.org/2000/svg">
<path d="M1.94445 35C1.39352 35 0.932044 34.8133 0.560007 34.44C0.18797 34.0666 0.001303 33.6052 6.70497e-06 33.0555C-0.00128959 32.5059 0.185377 32.0444 0.560007 31.6711C0.934636 31.2978 1.39612 31.1111 1.94445 31.1111H29.1667C29.7176 31.1111 30.1797 31.2978 30.5531 31.6711C30.9264 32.0444 31.1124 32.5059 31.1111 33.0555C31.1098 33.6052 30.9231 34.0673 30.5511 34.4419C30.1791 34.8165 29.7176 35.0026 29.1667 35H1.94445ZM7.77778 27.2222C5.63889 27.2222 3.80788 26.4606 2.28473 24.9375C0.761581 23.4143 6.70497e-06 21.5833 6.70497e-06 19.4444V3.88889C6.70497e-06 2.81944 0.381117 1.90426 1.14334 1.14333C1.90556 0.382407 2.82075 0.0012963 3.88889 0H31.1111C32.1806 0 33.0964 0.381111 33.8586 1.14333C34.6208 1.90555 35.0013 2.82074 35 3.88889V9.72221C35 10.7917 34.6195 11.7075 33.8586 12.4697C33.0977 13.2319 32.1819 13.6124 31.1111 13.6111H27.2222V19.4444C27.2222 21.5833 26.4606 23.4143 24.9375 24.9375C23.4144 26.4606 21.5833 27.2222 19.4444 27.2222H7.77778ZM27.2222 9.72221H31.1111V3.88889H27.2222V9.72221Z" fill="#685F50"/>
</svg>
