<svg width="1774" height="151" viewBox="0 0 1774 151" fill="none" xmlns="http://www.w3.org/2000/svg">
<g opacity="0.2">
<path d="M1711.27 34.652C1713.23 34.8673 1716.51 36.2288 1718.49 36.9851C1729.25 41.1081 1744.18 47.7387 1754.42 53.0057C1763.41 57.6274 1758.09 61.9759 1756.93 69.0856C1756.2 73.5565 1757.29 81.2027 1756.82 86.4511C1756.39 91.3767 1755.54 96.2872 1754.56 101.133C1752.52 111.16 1749.41 125.771 1746.19 135.23C1745.55 137.11 1743.85 139.323 1741.96 140.042C1739.13 141.12 1720.13 142.71 1717.2 142.005C1715.79 141.666 1714.15 140.964 1712.78 140.387C1701.62 135.693 1684.65 126.397 1674.02 120.142C1665.84 115.333 1666.97 114.272 1670.32 105.594C1675.14 93.0744 1684.78 72.3846 1692.12 61.4009C1695.23 56.7584 1702.12 50.3133 1704.28 46.0954C1705.83 43.0548 1705.68 34.0457 1711.27 34.6548L1711.27 34.652ZM1754.68 56.8588C1749.35 55.039 1712.9 36.9085 1710.59 38.0357C1708.29 39.1629 1708.87 42.112 1708.3 43.8652C1705.82 51.4345 1698.66 57.15 1694.27 63.8705C1687.95 73.5726 1680.56 89.7071 1675.8 100.562C1674.6 103.305 1671.68 109.64 1671.18 112.189C1671.02 112.994 1670.78 113.706 1671.33 114.454L1716.74 138.679C1717.72 136.967 1717.36 134.888 1717.97 133.17C1723.8 116.757 1732.22 95.3205 1741.28 80.5206C1743.85 76.3206 1748.2 71.4386 1750.29 67.4494C1752.07 64.0591 1752.32 59.955 1754.68 56.8626L1754.68 56.8588ZM1756.53 60.6251L1755.41 60.2418L1752.25 69.5176C1751.56 71.5357 1744.48 80.3444 1742.68 83.3814C1735.02 96.2899 1728.22 113.693 1722.9 127.889C1721.55 131.503 1720.52 135.267 1719.18 138.879C1722.52 138.889 1740.61 138.01 1741.93 136.166C1742.74 135.036 1743.68 131.665 1744.15 130.112C1747.82 117.933 1752.5 99.112 1753.63 86.6125C1753.93 83.3652 1753.1 70.702 1753.56 69.3359L1756.53 60.6223L1756.53 60.6251Z" fill="#E76E2F"/>
<path d="M1754.68 56.8589C1752.32 59.9513 1752.08 64.0564 1750.29 67.4457C1748.19 71.434 1743.84 76.3168 1741.27 80.5169C1732.22 95.313 1723.79 116.749 1717.97 133.166C1717.36 134.884 1717.72 136.965 1716.73 138.676L1671.32 114.45C1670.78 113.705 1671.02 112.991 1671.18 112.185C1671.68 109.638 1674.6 103.303 1675.8 100.558C1680.56 89.7071 1687.95 73.5727 1694.27 63.8668C1698.66 57.1472 1705.82 51.4317 1708.3 43.8614C1708.87 42.112 1708.3 39.1546 1710.59 38.032C1712.88 36.9094 1749.34 55.0381 1754.68 56.8551L1754.68 56.8589ZM1747.86 65.8213C1748.49 64.4996 1748.52 63.8189 1747.21 63.101L1709.88 46.5976L1709.31 48.2785L1747.86 65.8213ZM1710.68 74.2818C1714.32 82.6273 1730.88 73.3284 1724.34 65.9285C1719.58 60.5459 1707.73 67.5216 1710.68 74.2818ZM1707.45 72.1195C1709.18 69.5806 1702.11 66.7235 1700.24 66.0327C1698.37 65.3419 1696.87 66.7902 1698.57 67.8179C1701.26 69.4478 1704.67 70.5379 1707.45 72.1195ZM1734.03 82.4575C1733.72 81.6149 1720.68 75.554 1722.61 79.1715L1733.46 84.129C1733.55 83.6422 1734.1 82.6618 1734.03 82.4575ZM1728 85.4131C1727.57 84.5171 1723.07 84.3539 1723.68 87.0703C1724.73 87.5142 1728.81 87.111 1728 85.4131ZM1702.69 80.5392C1702.7 74.4519 1695.25 76.0905 1693.82 80.9126C1692.73 84.6146 1696.93 89.1671 1699.56 87.0251C1702.68 84.4919 1696.38 86.2924 1696.02 82.6358C1695.63 78.7875 1700.2 78.1556 1702.69 80.5392ZM1706.31 88.1294C1706.57 88.49 1705.78 91.3903 1706.66 91.9334C1707.37 92.3768 1708.19 91.7748 1708.48 91.0593C1709.03 89.7333 1709.87 81.0709 1708.06 80.4603C1705.92 79.7367 1699.75 87.8931 1700.01 88.4114C1700.89 90.1097 1704.48 85.6471 1706.3 88.1285L1706.31 88.1294ZM1718.41 87.7838C1720.92 86.5538 1714.75 82.9279 1713.65 83.2838C1713.03 83.4797 1708.89 91.4688 1709.06 92.1357C1709.22 92.8027 1710.39 93.4859 1710.86 93.3651C1711.27 93.258 1712.43 90.303 1712.59 90.2262C1713.01 90.0262 1715.63 91.4978 1715.95 91.3376C1716.14 91.244 1716.58 89.9989 1716.21 89.4902C1715.18 88.0585 1712.29 88.7094 1713.92 86.2562C1714.81 86.3881 1718.13 87.9255 1718.41 87.7838ZM1721.6 89.5035C1729.28 93.8843 1726.2 87.5101 1720.72 86.7806C1717.73 92.3235 1712.93 97.1048 1722.09 99.0783C1723.93 96.1815 1719.33 96.3586 1719.21 94.6467C1719 91.3856 1722.53 96.2584 1723.72 94.2943C1724.97 92.2152 1718.85 92.4918 1721.6 89.5035ZM1688.71 87.784C1687.89 87.7765 1687.69 88.148 1687.33 88.7926C1686.8 89.76 1684.2 95.6991 1684.19 96.4222C1684.18 97.9285 1687.86 98.9369 1689.06 98.9855C1691.91 99.0988 1691.41 95.6939 1691.91 94.1224C1692.23 93.0944 1693.38 92.3246 1693.42 90.981C1693.46 89.3284 1690.13 87.7937 1688.71 87.784ZM1697.54 91.967C1696.07 88.7536 1691.69 98.7414 1691.68 100.235C1691.67 101.728 1696.63 103.182 1696.9 103.043C1697.09 102.945 1697.53 101.705 1697.16 101.196C1696.65 100.491 1694.43 99.8203 1694.34 99.6291C1693.88 98.6868 1697.56 93.5871 1697.54 91.9698L1697.54 91.967ZM1707.26 98.4137C1708.34 96.0761 1703.14 93.7388 1701.91 94.6696C1701.36 95.0865 1697.6 103.54 1697.83 103.99C1697.98 104.287 1703.56 106.725 1704.11 105.806C1705.26 103.894 1699.95 103.368 1700.39 102.037C1701.17 99.7292 1704.38 102.174 1704.8 101.967C1706.42 99.5143 1703.54 100.162 1702.5 98.7334C1700.65 96.1692 1705.86 97.5083 1707.26 98.4137ZM1711.9 105.021C1710.59 104.343 1711.23 96.431 1708.77 97.6746C1708.26 97.9359 1705.26 105.752 1704.95 107.045L1706.63 107.618C1706.9 107.487 1707.64 103.194 1709.28 103.503C1709.67 116.223 1713.71 106.448 1715.88 100.725C1712.5 98.6438 1713.2 102.435 1711.9 105.017L1711.9 105.021ZM1716.81 101.672C1716.58 105.767 1709.44 111.768 1716.36 112.677C1723.5 113.614 1724.95 102.201 1716.81 101.672ZM1716.1 122.14L1715.89 119.676L1680.95 101.997C1680.06 103.823 1680.45 103.656 1681.8 104.597L1716.1 122.14Z" fill="#F0B77F"/>
<path d="M1756.53 60.6251L1753.56 69.3387C1753.1 70.7047 1753.93 83.3679 1753.63 86.6153C1752.5 99.1148 1747.82 117.936 1744.15 130.115C1743.68 131.665 1742.74 135.039 1741.93 136.169C1740.62 138.013 1722.52 138.891 1719.18 138.882C1720.52 135.267 1721.55 131.505 1722.9 127.891C1728.22 113.699 1735.02 96.2965 1742.68 83.3842C1744.48 80.3471 1751.56 71.5385 1752.25 69.5203L1755.41 60.2446L1756.53 60.6279L1756.53 60.6251ZM1747.49 83.3118L1745.75 83.0369C1743.44 93.2821 1739.67 103.156 1736.7 113.19C1736.3 114.535 1736.35 115.928 1735.98 117.287C1735.29 119.768 1731.92 125.187 1734.66 126.586L1747.49 83.3118ZM1740.42 135.453C1742.7 134.316 1735.99 127.6 1734.28 127.718C1732.56 128.414 1739.8 135.763 1740.42 135.453ZM1733.52 128.087C1732.55 126.23 1724.29 132.521 1723.36 133.579C1721.54 135.637 1721.47 137.233 1724.33 135.569C1725.41 134.946 1733.88 128.778 1733.52 128.087Z" fill="#FCD3A2"/>
<path d="M1710.68 74.2817C1707.73 67.5215 1719.58 60.5458 1724.34 65.9284C1730.88 73.3283 1714.31 82.63 1710.68 74.2817ZM1723.98 69.6083C1723.74 69.0263 1717.94 71.3092 1717.3 71.6983C1716.11 72.4189 1715.06 73.1274 1714.76 74.6129C1718.6 76.2544 1722.59 73.1778 1723.98 69.6083Z" fill="#E76E2F"/>
<path d="M1747.86 65.8214L1709.31 48.2785L1709.88 46.5977L1747.21 63.1011C1748.51 63.818 1748.49 64.4997 1747.86 65.8214Z" fill="#E76E2F"/>
<path d="M1716.1 122.14L1681.8 104.597C1680.45 103.656 1680.06 103.824 1680.95 101.997L1715.89 119.676L1716.1 122.14Z" fill="#E76E2F"/>
<path d="M1711.9 105.021C1713.2 102.439 1712.5 98.6475 1715.88 100.729C1713.71 106.451 1709.67 116.226 1709.28 103.506C1707.64 103.197 1706.9 107.491 1706.63 107.622L1704.95 107.049C1705.26 105.755 1708.26 97.9368 1708.77 97.6783C1711.23 96.4319 1710.59 104.347 1711.9 105.025L1711.9 105.021Z" fill="#E76E2F"/>
<path d="M1688.71 87.7839C1690.12 87.7955 1693.46 89.3283 1693.42 90.9809C1693.38 92.3218 1692.23 93.0943 1691.91 94.1223C1691.41 95.6938 1691.91 99.0988 1689.06 98.9854C1687.86 98.9378 1684.18 97.9285 1684.19 96.4222C1684.2 95.6991 1686.8 89.76 1687.33 88.7926C1687.69 88.1479 1687.89 87.7765 1688.71 87.7839ZM1688.16 91.8992C1688.4 92.3864 1691.28 92.9451 1691.44 91.4614C1691.69 89.1397 1687.31 90.1767 1688.16 91.8992ZM1690.19 95.1099L1687.39 94.1516L1686.63 96.3965C1688.39 97.2341 1689.8 97.3489 1690.19 95.1099Z" fill="#E76E2F"/>
<path d="M1716.81 101.672C1724.95 102.201 1723.5 113.614 1716.36 112.677C1709.44 111.768 1716.58 105.767 1716.81 101.672ZM1715.82 110.119C1718.66 111.859 1721.89 106.839 1719.63 105.2C1717.16 103.413 1716.38 108.841 1715.82 110.119Z" fill="#E76E2F"/>
<path d="M1721.6 89.5033C1718.85 92.4917 1724.97 92.2151 1723.72 94.2942C1722.53 96.2592 1719 91.3864 1719.21 94.6466C1719.33 96.3604 1723.93 96.1842 1722.09 99.0782C1712.93 97.1047 1717.73 92.3234 1720.72 86.7805C1726.2 87.5128 1729.28 93.8842 1721.6 89.5033Z" fill="#E76E2F"/>
<path d="M1706.31 88.1294C1704.48 85.6452 1700.89 90.1107 1700.02 88.4124C1699.75 87.894 1705.93 79.7376 1708.07 80.4613C1709.88 81.0718 1709.03 89.737 1708.49 91.0603C1708.19 91.7758 1707.37 92.3778 1706.66 91.9344C1705.79 91.3912 1706.57 88.49 1706.31 88.1304L1706.31 88.1294ZM1706.97 86.3891L1707.09 83.2983L1704.73 85.6244L1706.97 86.3891Z" fill="#E76E2F"/>
<path d="M1707.26 98.4136C1705.86 97.5082 1700.65 96.1691 1702.5 98.7333C1703.53 100.165 1706.42 99.5142 1704.8 101.967C1704.39 102.175 1701.17 99.7291 1700.39 102.037C1699.94 103.368 1705.25 103.893 1704.11 105.806C1703.56 106.725 1697.98 104.287 1697.83 103.99C1697.6 103.536 1701.36 95.0864 1701.91 94.6695C1703.14 93.7425 1708.34 96.0788 1707.26 98.4136Z" fill="#E76E2F"/>
<path d="M1702.69 80.5393C1700.2 78.1557 1695.63 78.7875 1696.02 82.6358C1696.4 86.4842 1702.68 84.4919 1699.56 87.0251C1696.93 89.1671 1692.73 84.6137 1693.82 80.9126C1695.25 76.0906 1702.7 74.4519 1702.69 80.5393Z" fill="#E76E2F"/>
<path d="M1718.41 87.7838C1718.13 87.9218 1714.81 86.3881 1713.92 86.2562C1712.29 88.7094 1715.18 88.0613 1716.21 89.4902C1716.58 89.9989 1716.14 91.244 1715.95 91.3376C1715.63 91.4978 1713.01 90.0271 1712.59 90.2262C1712.43 90.303 1711.27 93.258 1710.86 93.3651C1710.39 93.4859 1709.22 92.8299 1709.06 92.1357C1708.89 91.4415 1713.03 83.4797 1713.65 83.2839C1714.75 82.9279 1720.92 86.5566 1718.41 87.7838Z" fill="#E76E2F"/>
<path d="M1697.54 91.967C1697.56 93.5843 1693.89 98.685 1694.34 99.6262C1694.43 99.8175 1696.65 100.488 1697.17 101.193C1697.54 101.702 1697.09 102.941 1696.91 103.041C1696.63 103.182 1691.67 101.717 1691.68 100.232C1691.69 98.7461 1696.07 88.7508 1697.54 91.9642L1697.54 91.967Z" fill="#E76E2F"/>
<path d="M1734.03 82.4574C1734.1 82.6617 1733.55 83.6421 1733.47 84.129L1722.61 79.1715C1720.68 75.554 1733.72 81.613 1734.03 82.4574Z" fill="#E76E2F"/>
<path d="M1707.45 72.1196C1704.67 70.5407 1701.26 69.4478 1698.57 67.8179C1696.87 66.7902 1698.3 65.3199 1700.24 66.0328C1702.17 66.7456 1709.17 69.5807 1707.45 72.1196Z" fill="#E76E2F"/>
<path d="M1728 85.413C1728.82 87.1118 1724.73 87.5141 1723.68 87.0702C1723.07 84.3538 1727.58 84.517 1728 85.413Z" fill="#E76E2F"/>
<path d="M1747.49 83.3118L1734.66 126.586C1731.92 125.184 1735.29 119.768 1735.98 117.287C1736.35 115.93 1736.3 114.537 1736.7 113.19C1739.67 103.156 1743.44 93.2849 1745.75 83.0369L1747.49 83.3118Z" fill="#E76E2F"/>
<path d="M1733.52 128.087C1733.88 128.778 1725.41 134.946 1724.33 135.569C1721.47 137.233 1721.53 135.637 1723.36 133.579C1724.29 132.521 1732.55 126.23 1733.52 128.087Z" fill="#E76E2F"/>
<path d="M1740.42 135.454C1739.8 135.763 1732.56 128.414 1734.28 127.718C1736 127.601 1742.7 134.316 1740.42 135.454Z" fill="#E76E2F"/>
<path d="M1723.98 69.6084C1722.59 73.1779 1718.6 76.2517 1714.76 74.613C1715.06 73.1274 1716.11 72.419 1717.3 71.6984C1717.94 71.3093 1723.74 69.0264 1723.98 69.6084Z" fill="#FCD3A2"/>
<path d="M1690.2 95.1098C1689.81 97.3488 1688.39 97.2312 1686.63 96.3964L1687.39 94.1515L1690.2 95.1098Z" fill="#F0B77F"/>
<path d="M1688.16 91.8992C1687.32 90.1767 1691.69 89.1397 1691.44 91.4614C1691.28 92.9451 1688.4 92.3864 1688.16 91.8992Z" fill="#FCD3A2"/>
<path d="M1715.82 110.119C1716.38 108.841 1717.16 103.415 1719.63 105.2C1721.89 106.839 1718.66 111.859 1715.82 110.119Z" fill="#F0B77F"/>
<path d="M1706.97 86.3891L1704.73 85.6262L1707.09 83.3002L1706.97 86.3891Z" fill="#FCD3A2"/>
</g>
<g opacity="0.2">
<path d="M96.714 60.7741C97.3853 64.1582 101.575 66.302 101.299 72.7929C101.178 75.6544 101.142 77.4069 101.145 80.1908C101.148 85.3422 99.0775 93.312 92.5 92.4154C87.7274 91.7631 87.3849 89.3915 84.244 87.1398C82.5447 85.9215 80.7326 86.0259 79.08 84.8872C77.7449 83.9696 76.4879 81.8892 75.6117 81.4963C74.7355 81.1034 71.0745 81.4354 68.421 80.2012C64.9026 78.5643 64.668 77.0729 60.7131 76.8072C56.5033 76.525 51.253 74.8982 47.9069 72.2489C46.7725 71.3513 46.2944 69.7633 44.8236 69.1564C43.6941 68.6908 39.1151 68.9311 36.5994 67.8957C33.6952 66.7027 31.9456 64.217 29.8099 63.3066C28.9835 62.9543 24.7272 63.0302 23.06 62.6014C21.5388 62.2088 20.1932 61.0812 18.6625 60.8214C15.8841 60.3539 13.2279 62.0237 9.80289 60.0925C3.13919 56.3343 3.51785 50.6363 6.934 44.7326C9.31287 40.6231 11.5506 37.6247 15.7378 35.2761C17.3616 34.3664 22.4441 33.0011 23.1317 32.3937C23.7529 31.8439 24.5963 29.869 25.6294 28.7836C29.155 25.0836 33.9937 24.1419 38.8472 23.9054C40.995 23.8004 44.988 24.4965 46.6112 24.2091C48.2344 23.9217 50.3417 22.1071 52.3192 21.5501C61.8159 18.8678 80.5782 26.7726 84.0485 36.2203C84.5039 37.4608 84.5492 39.7781 84.9389 40.3486C88.39 45.4181 94.6741 46.0368 96.7776 54.6175C97.3173 56.818 96.472 59.5577 96.7156 60.7722L96.714 60.7741ZM52.8678 61.8772C51.5512 64.0213 49.1423 66.0528 47.7047 68.2003C53.2332 73.513 60.4842 76.071 67.1787 71.34C75.6499 65.3517 87.6 44.3802 80.2108 34.5014C74.9605 27.4837 58.3211 20.728 49.9176 25.6092C57.8164 33.4801 58.4615 45.1016 55.3563 55.2959C54.901 56.7956 53.5788 60.7173 52.8659 61.8757L52.8678 61.8772ZM66.018 75.4861C76.2466 85.1477 90.4981 70.4819 93.9374 60.883C96.3287 54.2095 90.2492 47.7539 85.3405 44.0043C84.1483 47.0006 83.8439 50.1724 82.7265 53.2296C79.4854 62.0931 73.7244 70.0357 66.018 75.4861ZM78.4799 80.552C82.5571 84.9799 86.4739 85.1283 91.4742 82.214C99.1272 77.7515 100.998 71.5632 95.9614 64.1899C95.5036 63.5191 95.3249 63.7341 94.9345 64.2904C93.6359 66.1426 92.4203 68.9408 91.043 70.6745C87.771 74.7989 83.0739 78.1236 78.478 80.5505L78.4799 80.552ZM48.0296 27.7338C45.4807 26.2465 37.5393 26.5197 34.6094 27.1837C32.3912 27.6877 27.2774 29.7716 26.3669 31.8482C25.7508 33.2517 28.542 33.4454 29.722 34.3067C36.0345 38.9055 37.7125 52.0219 34.6744 58.7995C33.2249 62.0328 31.0073 61.672 35.5582 64.5034C48.0388 72.2672 52.9791 58.3752 54.4363 48.3618C55.3529 42.0715 54.0054 31.2241 48.028 27.7357L48.0296 27.7338ZM87.2193 87.0495C94.1662 92.8689 99.4473 88.3284 98.2909 80.1282C96.2031 81.1604 94.7217 82.9943 92.7322 84.2345C90.9045 85.3704 88.752 85.6024 87.2193 87.0495ZM11.4308 43.0487C16.8829 44.8467 20.0695 49.3841 20.8786 54.9215C21.0865 56.34 20.019 57.7645 21.618 59.0861C23.1001 60.3123 30.2294 61.2252 31.5219 59.8182C36.3231 54.5952 33.3227 34.3183 24.4901 34.905C20.7469 35.1539 13.292 39.5928 11.4289 43.0472L11.4308 43.0487ZM12.2276 45.7592C9.14096 44.2385 7.10941 49.0915 7.18423 51.7362C7.2812 55.1592 9.18109 57.3045 12.4298 58.2359C13.0432 58.4111 17.8498 58.4588 18.087 58.3012C19.3237 57.4746 18.0774 52.3084 17.4531 51.0481C16.434 48.9928 14.295 46.7768 12.2291 45.7573L12.2276 45.7592Z" fill="#E76E2F"/>
<path d="M52.8694 61.8774C53.5804 60.7174 54.901 56.7977 55.3598 55.2976C58.4646 45.0998 57.8195 33.4783 49.9211 25.6109C58.3227 20.7281 74.964 27.4854 80.2143 34.5031C87.6035 44.3819 75.6534 65.3534 67.1822 71.3417C60.4877 76.0727 53.2351 73.5167 47.7082 68.2021C49.1458 66.0545 51.5547 64.0231 52.8713 61.879L52.8694 61.8774ZM70.1282 36.0463C72.3006 35.3483 70.1219 29.7017 69.498 29.7895C68.1287 30.5556 69.0083 36.1825 70.1282 36.0463ZM76.4019 49.4725C78.3008 48.1712 78.0644 46.0332 78.7251 44.4969C79.2989 43.1609 81.351 41.5312 80.5208 39.7451C78.9975 36.4701 79.0244 39.4238 78.6396 40.2273C77.5565 42.4919 76.9158 45.239 76.0932 47.943C75.8462 48.7537 75.2751 48.8431 76.4019 49.4725ZM63.1269 25.8646C61.9811 25.9191 63.8674 31.1224 64.1753 31.5623C65.125 32.9285 66.6133 32.0009 66.1364 30.3021C65.9393 29.6014 63.7181 25.8364 63.1269 25.8646ZM56.7557 60.2571C57.5226 63.3169 60.1714 56.3555 60.3589 55.8443C63.0466 48.589 63.978 40.2125 60.9722 32.9324C60.1773 31.0091 57.5319 24.7419 55.1633 27.0171C61.0534 32.8838 62.2861 41.9991 60.4694 49.857C60.0163 51.8153 56.6225 59.7204 56.7572 60.2552L56.7557 60.2571Z" fill="#FCD3A2"/>
<path d="M48.0297 27.7338C54.0071 31.2222 55.3546 42.0695 54.438 48.3599C52.9808 58.3733 48.0423 72.2668 35.5599 64.5014C31.009 61.6701 33.2265 62.0308 34.676 58.7976C37.7126 52.0219 36.0342 38.902 29.7237 34.3048C28.5421 33.4454 25.7525 33.2498 26.3686 31.8463C27.279 29.7697 32.3928 27.6858 34.6111 27.1817C37.5374 26.5181 45.4823 26.2446 48.0312 27.7319L48.0297 27.7338ZM44.7882 28.7756C43.5103 29.8559 44.1617 30.5826 44.6508 31.774C45.0322 32.6986 46.8611 36.6352 48.1189 35.6343C49.2089 34.7646 45.5882 28.6911 44.7882 28.7756ZM42.1815 34.3055C44.7327 34.0701 39.7617 26.6321 38.4849 30.6547C39.4968 30.9987 41.5564 34.3635 42.1815 34.3055ZM37.7459 60.0652C41.8641 52.7036 42.2733 40.9402 36.4226 34.3648C35.5742 33.4101 32.5303 30.3242 31.4397 30.6122C28.6711 31.3407 31.8874 32.2648 32.7483 32.9422C41.5637 39.8977 38.8083 49.4994 37.4105 58.5331C37.2964 59.267 36.5531 59.4425 37.744 60.0636L37.7459 60.0652Z" fill="#FCD3A2"/>
<path d="M66.0176 75.4861C73.724 70.0357 79.485 62.093 82.7261 53.2296C83.8435 50.1723 84.1479 47.0005 85.3401 44.0042C90.2504 47.7519 96.3318 54.2091 93.937 60.8829C90.4957 70.4802 76.2462 85.1477 66.0176 75.4861ZM86.4005 54.4447C86.4884 54.7241 87.2521 55.1688 87.6989 55.2079C89.5354 55.363 90.4533 48.4573 88.6149 48.5977C88.3026 48.6205 86.3074 54.1483 86.4009 54.4482L86.4005 54.4447ZM92.3021 57.3538C91.4409 56.3952 91.3755 56.8623 90.7657 57.6833C88.822 60.3022 88.0786 64.5783 85.1827 66.87L86.3279 67.8052C89.2574 64.8 91.0149 61.2913 92.3021 57.3538Z" fill="#FCD3A2"/>
<path d="M11.4309 43.0489C13.294 39.5945 20.749 35.1556 24.4922 34.9067C33.3247 34.32 36.3232 54.5954 31.5239 59.82C30.2315 61.2269 23.1021 60.3141 21.62 59.0879C20.021 57.7663 21.0885 56.3417 20.8806 54.9232C20.0715 49.3858 16.883 44.8469 11.4328 43.0504L11.4309 43.0489ZM24.648 41.7054C26.547 40.056 24.0869 36.955 21.9125 37.249L24.648 41.7054ZM23.4065 57.2987C26.6129 57.0075 21.6063 40.7004 16.7656 41.9885L21.3685 48.8959C21.7507 50.23 22.2267 51.6407 22.4607 53.0038C22.612 53.8779 22.0202 57.425 23.403 57.2991L23.4065 57.2987Z" fill="#FCD3A2"/>
<path d="M78.4799 80.5521C83.0758 78.1252 87.7729 74.8005 91.0449 70.6762C92.4203 68.9409 93.6363 66.1462 94.9365 64.292C95.3268 63.7357 95.5056 63.5208 95.9633 64.1915C101.001 71.5629 99.1291 77.7531 91.4761 82.2156C86.4758 85.1299 82.559 84.9815 78.4818 80.5537L78.4799 80.5521ZM96.8012 70.6084C95.7846 67.5651 90.4974 74.1222 93.8397 74.29C94.9383 74.344 96.947 71.0436 96.8012 70.6084Z" fill="#FCD3A2"/>
<path d="M12.2263 45.7591C14.2922 46.7785 16.4312 48.9946 17.4502 51.0498C18.0746 52.3102 19.3209 57.4763 18.0842 58.3029C17.8504 58.4601 13.0404 58.4128 12.4269 58.2376C9.17824 57.3063 7.27835 55.1609 7.18139 51.738C7.10813 49.0913 9.13968 44.2383 12.2247 45.761L12.2263 45.7591Z" fill="#FCD3A2"/>
<path d="M87.2193 87.0495C88.7536 85.6005 90.9045 85.3704 92.7323 84.2345C94.7236 82.9958 96.2051 81.162 98.2909 80.1282C99.4473 88.3285 94.1662 92.8689 87.2193 87.0495Z" fill="#FCD3A2"/>
<path d="M56.7552 60.257C56.6205 59.7223 60.0162 51.8187 60.4674 49.8589C62.2841 42.0009 61.0548 32.8853 55.1613 27.019C57.5298 24.7438 60.1753 31.011 60.9701 32.9342C63.9775 40.2124 63.0446 48.5908 60.3569 55.8462C60.1674 56.3558 57.5187 63.3172 56.7536 60.2589L56.7552 60.257Z" fill="#E76E2F"/>
<path d="M76.3995 49.4724C75.2727 48.843 75.8437 48.7536 76.0907 47.9429C76.9114 45.2373 77.5541 42.4918 78.6372 40.2272C79.022 39.4237 78.9951 36.47 80.5184 39.745C81.3486 41.5311 79.2999 43.1605 78.7227 44.4967C78.0604 46.035 78.2987 48.1745 76.3995 49.4724Z" fill="#F0B77F"/>
<path d="M63.1257 25.8644C63.7169 25.8361 65.9381 29.6012 66.1352 30.3019C66.6121 32.0007 65.1238 32.9283 64.1741 31.5621C63.8677 31.1203 61.9799 25.9188 63.1257 25.8644Z" fill="#F0B77F"/>
<path d="M70.1275 36.0461C69.0076 36.1824 68.1298 30.557 69.4973 29.7893C70.1211 29.7016 72.2999 35.3481 70.1275 36.0461Z" fill="#F0B77F"/>
<path d="M37.7453 60.0651C36.5544 59.4439 37.2977 59.2685 37.4119 58.5345C38.8077 49.4993 41.5631 39.8976 32.7496 32.9437C31.8884 32.2628 28.6705 31.3406 31.4411 30.6137C32.5317 30.3257 35.5775 33.4132 36.4239 34.3663C42.2728 40.9401 41.8655 52.7051 37.7472 60.0667L37.7453 60.0651Z" fill="#E76E2F"/>
<path d="M44.7877 28.7756C45.5877 28.6911 49.2085 34.7647 48.1185 35.6343C46.8607 36.6353 45.0318 32.6987 44.6504 31.7741C44.1594 30.5811 43.5079 29.8544 44.7877 28.7756Z" fill="#F0B77F"/>
<path d="M42.1804 34.3053C41.5533 34.3618 39.4937 30.9969 38.4838 30.6545C39.7606 26.6319 44.7335 34.0714 42.1804 34.3053Z" fill="#F0B77F"/>
<path d="M92.3031 57.3539C91.0178 61.2929 89.2584 64.8 86.3289 67.8052L85.1837 66.8701C88.0815 64.5799 88.823 60.3022 90.7667 57.6834C91.3765 56.8623 91.442 56.3952 92.3031 57.3539Z" fill="#E76E2F"/>
<path d="M86.4008 54.4449C86.3092 54.1466 88.3044 48.6188 88.6148 48.5944C90.4516 48.4559 89.5337 55.3616 87.6988 55.2046C87.252 55.1655 86.4868 54.7227 86.4004 54.4414L86.4008 54.4449Z" fill="#F0B77F"/>
<path d="M23.4074 57.2987C22.0245 57.4246 22.6144 53.8759 22.465 53.0034C22.231 51.6403 21.755 50.2296 21.3728 48.8956L16.7699 41.9881C21.6106 40.7 26.6172 57.0071 23.4108 57.2984L23.4074 57.2987Z" fill="#E76E2F"/>
<path d="M24.6477 41.7053L21.9122 37.2488C24.0866 36.9549 26.5468 40.0559 24.6477 41.7053Z" fill="#F0B77F"/>
<path d="M96.8014 70.6084C96.9471 71.0436 94.9369 74.3459 93.8398 74.29C90.4975 74.1222 95.7847 67.5651 96.8014 70.6084Z" fill="#F0B77F"/>
</g>
</svg>
