<svg width="1775" height="135" viewBox="0 0 1775 135" fill="none" xmlns="http://www.w3.org/2000/svg">
<g opacity="0.2">
<path d="M1742.89 38.2961C1758.99 35.6503 1758.89 46.7206 1760.62 58.6928C1761.35 63.761 1765.15 82.624 1754.85 79.7842C1748.77 78.1087 1751.83 73.3755 1751.75 68.7924C1751.69 65.8849 1749.65 52.2665 1748.81 49.6754C1747.98 47.1269 1744.07 46.8125 1742.98 47.88C1741.52 49.3055 1742.28 83.672 1741.13 88.5322C1739.4 96.6941 1727.7 96.8227 1721.08 96.1945C1712.25 95.3584 1682.02 88.674 1681.33 77.5854C1681.21 75.6814 1682.63 73.2032 1682.2 71.8383C1682.08 71.4788 1678.14 67.9877 1677.22 66.7712C1667.54 53.9259 1679.9 39.2112 1675.46 28.4229C1674.14 25.218 1668.22 21.3254 1674.61 19.9126C1679.25 18.8849 1680.43 19.6336 1682.58 23.6529C1688.94 35.5792 1678.61 51.1666 1683.63 60.0548C1684.01 60.7392 1685.5 62.584 1686.2 62.7739L1705.23 24.249C1707.68 20.5499 1710.53 19.5359 1714.75 18.7826C1715.99 18.5619 1719.24 18.7629 1719.74 18.3739C1720.17 18.0339 1719.26 14.4236 1721.62 12.8557C1724.3 11.0695 1731.91 13.0215 1733.68 15.5942C1735.51 18.2532 1732.53 20.5533 1733.03 21.665C1733.24 22.1504 1736.58 23.8085 1737.59 24.6273C1742.17 28.326 1744.04 32.3014 1742.89 38.2912L1742.89 38.2961ZM1724.85 15.4693C1724.67 15.4231 1724.48 15.3657 1724.3 15.3313C1723.92 15.259 1723.56 15.1191 1723.18 15.0559C1722.81 16.2401 1722.51 17.6257 1723.47 18.6776C1723.4 19.0487 1723.23 19.4249 1723.19 19.7939C1723.08 20.753 1723.45 20.8915 1723.47 21.0483C1723.5 21.2358 1723.28 21.4748 1723.33 21.6065C1724.36 24.0925 1724.99 22.9369 1726.54 22.9929C1726.74 23.0001 1726.94 23.1461 1727.1 23.131C1727.42 23.1037 1728.04 23.5065 1728.22 23.4071C1728.39 23.3076 1728.32 22.5492 1728.49 22.2907C1728.59 22.1517 1728.54 21.9015 1728.63 21.7326C1728.65 21.6962 1729.18 21.6914 1729.33 21.3124C1729.46 20.9607 1729.49 20.5555 1729.6 20.1961C1731.38 19.2209 1731.73 18.4126 1730.43 16.847C1730.15 16.5005 1730.24 16.1425 1729.46 16.0127C1728.01 15.8428 1726.09 14.5883 1724.85 15.4665L1724.85 15.4693ZM1739.81 33.9667C1741.98 32.0465 1734.04 24.9515 1731.69 24.3996C1730.43 24.1023 1728.89 26.4672 1725.02 25.6179C1720.22 24.5687 1722.01 23.4821 1720.34 21.7263C1718.91 20.2343 1709.29 22.7772 1708.2 25.2658C1707.74 26.3247 1708.25 26.0347 1708.69 26.4171C1712.65 29.9124 1723.65 32.7553 1728.93 33.6477C1730.33 33.884 1739.25 34.4591 1739.8 33.9661L1739.81 33.9667ZM1740.37 36.4874C1728.51 37.3234 1716.3 34.7123 1706.35 28.0686C1705.39 33.0448 1688.62 62.7811 1689.25 64.7068C1689.5 65.4794 1691.1 66.0088 1691.18 67.3697C1691.27 69.022 1690.23 72.3577 1688.66 73.1419C1686.37 74.2885 1683.85 72.1563 1684.59 77.5256C1685.33 82.8949 1699.6 88.3374 1704.36 89.8043C1711.45 91.9842 1726.91 94.82 1733.88 92.2448C1737.52 90.9003 1737.66 89.1929 1738.25 85.4896L1740.37 36.493L1740.37 36.4874ZM1678.4 23.0178C1677.91 22.9402 1676.1 23.5256 1676.03 23.8207C1685.2 36.6945 1669.73 53.3729 1680.21 65.9227C1681.48 67.4528 1687.21 72.9608 1688.42 69.5348C1689.21 67.2959 1686.91 67.2459 1685.47 66.0698C1673.78 56.5082 1682.86 43.9139 1681.94 31.6377C1681.81 29.8634 1680.31 23.3232 1678.4 23.0178ZM1757.51 76.7165C1759.52 75.4437 1759.18 70.7735 1759.08 68.6407C1758.92 65.1951 1756.13 46.8936 1754.86 44.5985C1752.56 40.4374 1741.86 38.3998 1742.5 44.7079C1745.31 45.3269 1749.57 43.6559 1751.11 46.8602C1752.17 49.0596 1754.47 64.4735 1754.62 67.5335C1754.71 69.4244 1753.95 74.8916 1754.11 75.4323C1754.46 76.584 1756.45 77.3822 1757.51 76.7144L1757.51 76.7165Z" fill="#E76E2F"/>
<path d="M1740.37 36.4874L1738.25 85.484C1737.66 89.1874 1737.52 90.8947 1733.88 92.2392C1726.91 94.8145 1711.45 91.9787 1704.37 89.7987C1699.6 88.3318 1685.34 82.8956 1684.59 77.52C1683.85 72.1444 1686.37 74.2829 1688.66 73.1364C1690.23 72.3521 1691.27 69.0165 1691.18 67.3642C1691.1 66.0033 1689.5 65.4739 1689.25 64.7012C1688.63 62.7755 1705.39 33.0386 1706.35 28.0631C1716.3 34.7068 1728.51 37.3207 1740.37 36.4819L1740.37 36.4874ZM1698.43 64.5344C1699.83 64.072 1708.55 40.6561 1710.5 37.6535C1711.36 35.4744 1710.19 33.9622 1708.07 35.2624C1706.49 38.5506 1694.85 62.6133 1695.69 63.9347C1696.47 64.0094 1697.81 64.7347 1698.43 64.5316L1698.43 64.5344Z" fill="#A4D9CD"/>
<path d="M1739.81 33.9667C1739.25 34.4597 1730.33 33.8847 1728.93 33.6484C1723.65 32.7559 1712.65 29.913 1708.69 26.4178C1708.26 26.0354 1707.74 26.3226 1708.2 25.2664C1709.28 22.7772 1718.91 20.2314 1720.34 21.727C1722.01 23.4827 1720.23 24.5701 1725.02 25.6186C1728.89 26.4671 1730.43 24.1057 1731.69 24.4003C1734.04 24.9521 1741.98 32.0472 1739.81 33.9674L1739.81 33.9667Z" fill="#A4D9CD"/>
<path d="M1757.51 76.7165C1756.45 77.3844 1754.46 76.5861 1754.11 75.4344C1753.95 74.8937 1754.71 69.4271 1754.61 67.5356C1754.47 64.4756 1752.17 49.0617 1751.11 46.8623C1749.56 43.6574 1745.3 45.3284 1742.49 44.71C1741.86 38.4019 1752.56 40.4367 1754.86 44.6006C1756.13 46.8957 1758.92 65.1972 1759.08 68.6428C1759.18 70.7763 1759.52 75.4465 1757.51 76.7186L1757.51 76.7165Z" fill="#A4D9CD"/>
<path d="M1678.4 23.0177C1680.31 23.3224 1681.81 29.8634 1681.94 31.6376C1682.86 43.9159 1673.78 56.5081 1685.47 66.0697C1686.9 67.2452 1689.21 67.2958 1688.42 69.5347C1687.21 72.9579 1681.49 67.4506 1680.21 65.9226C1669.73 53.3736 1685.2 36.6945 1676.03 23.8207C1676.1 23.5248 1677.91 22.9401 1678.4 23.0177Z" fill="#A4D9CD"/>
<path d="M1730.43 16.8498C1730.11 17.9481 1729.95 19.1095 1729.6 20.1988C1729.49 20.5582 1729.46 20.9634 1729.33 21.3152L1728.63 21.7353C1728.54 21.9043 1728.59 22.1545 1728.49 22.2935L1727.1 23.1337C1726.93 23.1488 1726.74 23.0029 1726.54 22.9957L1723.33 21.6092C1723.28 21.4776 1723.5 21.2386 1723.47 21.0511L1723.19 19.7967C1723.23 19.4277 1723.4 19.0514 1723.47 18.6803C1723.68 17.5564 1724.06 16.4531 1724.3 15.3312C1724.48 15.3656 1724.67 15.423 1724.85 15.4693C1725.89 15.71 1726.91 16.0045 1727.94 16.2543C1728.68 16.4344 1729.35 15.9955 1729.45 16.0155C1730.24 16.1453 1730.14 16.5032 1730.43 16.8498Z" fill="#A4D9CD"/>
<path d="M1724.3 15.3312C1724.07 16.4531 1723.68 17.5564 1723.47 18.6803C1722.5 17.6277 1722.81 16.2429 1723.18 15.0586C1723.56 15.119 1723.92 15.2625 1724.29 15.334L1724.3 15.3312Z" fill="#A4D9CD"/>
<path d="M1729.6 20.1989C1729.95 19.1095 1730.11 17.9482 1730.43 16.8498C1731.73 18.4154 1731.38 19.2238 1729.6 20.1989Z" fill="#A4D9CD"/>
<path d="M1729.45 16.0155C1729.35 15.9991 1728.68 16.4345 1727.94 16.2544C1726.91 16.0045 1725.88 15.7094 1724.85 15.4693C1726.09 14.5911 1728.01 15.8456 1729.45 16.0155Z" fill="#A4D9CD"/>
<path d="M1726.54 22.9957C1724.99 22.9397 1724.36 24.0953 1723.33 21.6093L1726.54 22.9957Z" fill="#A4D9CD"/>
<path d="M1728.49 22.2935C1728.32 22.552 1728.39 23.307 1728.22 23.4099C1728.05 23.5128 1727.42 23.1065 1727.1 23.1338L1728.49 22.2935Z" fill="#A4D9CD"/>
<path d="M1723.47 21.051C1723.45 20.8942 1723.08 20.7557 1723.19 19.7966L1723.47 21.051Z" fill="#FCD3A2"/>
<path d="M1728.63 21.7353L1729.33 21.3152C1729.18 21.6942 1728.65 21.699 1728.63 21.7353Z" fill="#A4D9CD"/>
<path d="M1698.43 64.5343C1697.81 64.7374 1696.47 64.0093 1695.69 63.9374C1694.85 62.616 1706.49 38.5533 1708.07 35.2651C1710.19 33.9621 1711.36 35.4771 1710.5 37.6562C1708.55 40.6588 1699.82 64.0747 1698.42 64.5371L1698.43 64.5343Z" fill="#FDFDFC"/>
<path d="M1723.07 15.4361C1723.07 15.4361 1722.87 14.6494 1723.81 14.5396C1724.76 14.4299 1730.45 15.0381 1731.05 16.8029C1731.64 18.5676 1732.28 17.5221 1730.57 20.1475C1728.86 22.7729 1729.47 23.5614 1727.83 23.7336C1726.19 23.9058 1723.7 23.7517 1723.26 21.9448C1722.81 20.1379 1723.07 15.4396 1723.07 15.4396L1723.07 15.4361Z" fill="#A4D9CD"/>
</g>
<g opacity="0.2">
<path d="M79.4737 96.7766C79.516 97.6634 91.526 106.024 93.0766 108.162C94.8216 110.568 93.0683 118.093 90.6581 119.664C89.8348 120.202 88.6446 119.886 87.8249 120.621C87.0788 121.288 86.9667 122.355 85.9132 123.194C83.5989 125.035 78.194 123.427 76.1933 121.564C75.2064 120.644 75.1071 119.16 73.7444 118.908L46.9778 116.825C44.1292 123.835 30.9183 119.523 32.9423 112.005C29.6078 110.36 20.8055 101.264 17.9341 100.786C17.1749 100.66 16.1445 101.283 15.188 101.258C12.5957 101.194 8.12153 99.2763 7.84081 96.3827C7.71878 95.1226 8.27641 93.9118 8.11324 92.8462C7.6425 89.7644 6.05173 90.356 7.09392 85.1645C11.1342 65.0352 19.3586 44.384 23.7709 24.1794C26.3581 17.4345 31.822 19.1846 37.5629 20.0514C41.9496 20.7134 46.3298 21.9332 50.7035 22.6778C59.4671 24.169 74.3611 25.4066 82.1234 28.394C86.609 30.1208 101.561 40.1528 105.755 43.4402C107.773 45.0219 109.26 46.0879 109.526 48.7982C109.863 52.2571 106.448 63.9507 104.571 67.0516C101.718 71.7678 93.2428 66.9263 91.699 67.8535C91.3844 68.0426 90.9135 70.2312 91.3277 70.8416C92.8279 73.0591 100.352 72.5522 102.502 77.2285C103.995 80.4793 102.52 81.8893 102.266 84.5005C101.967 87.5753 102.958 94.5296 101.906 96.5692C100.225 99.8287 94.5474 98.3454 95 94.289C95.3552 91.1147 97.0671 88.031 97.0474 84.4793C97.0087 77.1801 92.9031 78.5963 87.9761 75.7637C86.9038 75.1481 85.7285 72.9573 85.1079 74.39C83.16 78.8894 86.4585 78.5824 89.2599 80.6649C96.5276 86.0592 88.1395 95.1157 81.6009 88.9855L79.4743 96.7744L79.4737 96.7766ZM26.1892 92.8554C25.7753 91.903 26.378 88.3563 26.63 87.1529C28.446 78.4446 32.0191 64.6659 35.0297 56.4057C38.0444 48.1299 45.8018 59.837 51.1361 59.6195L100.793 67.0126C102.281 66.8951 103.287 65.0151 103.797 63.7221C104.899 60.9404 106.735 54.213 107.201 51.2576C107.867 47.0228 105.764 46.1999 102.723 44.0496C96.3236 39.5262 83.8523 30.956 76.633 29.2886C64.2765 26.4338 49.1732 24.1156 36.5121 22.1581C34.3379 21.8228 30.3284 20.917 28.4522 21.8539C26.4663 22.8421 25.0417 26.9655 24.3205 29.0906C18.0367 47.6412 15.0466 67.9423 9.08243 86.6615L9.02264 90.4521C18.5167 98.1616 28.1419 105.785 38.0583 112.928L41.5832 113.946L87.9058 118.128C90.6193 119.053 92.0092 111.161 91.5197 110.547C91.2702 110.235 90.8759 110.129 90.4897 110.091L41.9782 105.426C38.8762 103.893 36.2033 101.532 33.5058 99.375C32.1643 98.3009 26.6612 93.9456 26.1892 92.8554ZM95.5171 76.5242C95.648 76.4475 95.8439 75.511 95.692 75.1132C95.284 74.0429 91.2861 74.049 89.789 72.1002C88.2919 70.1515 89.9561 69.0372 89.5793 67.7123C89.3567 66.9342 87.8195 67.0669 87.602 67.2682C86.6557 68.1432 86.9218 72.1233 87.8231 73.2254C88.7243 74.3276 94.8571 76.9107 95.5165 76.5264L95.5171 76.5242ZM85.209 67.0165C84.2917 66.8833 78.7132 65.4654 78.413 65.6369C78.0483 65.8434 76.7951 72.2543 73.4127 71.6871L82.5355 76.8083L85.209 67.0165ZM76.0717 65.4759L55.717 62.3887C54.581 62.2077 54.5618 64.6942 55.0132 65.0015C55.646 65.4326 59.1419 66.9849 60.0405 67.3091C62.8472 68.3217 71.7857 70.7479 74.3273 69.3351C75.6969 68.5731 75.6078 66.7984 76.0695 65.4753L76.0717 65.4759ZM37.69 55.4773L28.0899 90.6387L77.1434 96.3126C77.4856 94.2012 80.1738 88.4524 79.0167 86.8954C78.6286 86.3733 69.4814 78.9689 68.8523 78.8043C68.453 78.7001 68.054 81.982 65.0165 80.6505C63.8124 80.1233 64.0439 78.3739 61.3641 78.1922C59.8437 78.088 59.1678 80.7037 56.5672 79.0849C53.6029 77.2402 56.8882 74.0576 56.6356 73.5821C56.5958 73.509 55.6333 73.2439 55.2005 72.7192C53.6401 70.8273 54.7135 68.8654 54.495 67.1007C54.3804 66.1727 53.22 65.6956 52.9347 64.6134C52.6742 63.624 53.1601 62.1856 53.0999 62.0735C52.9599 61.8248 48.8101 61.4857 47.4772 60.9664C44.1276 59.6573 41.4069 56.1238 37.6916 55.4801L37.69 55.4773ZM100.655 82.236C103.437 79.0835 96.8735 73.0182 96.667 77.4862C96.6556 77.7557 97.9744 78.8953 98.2904 79.6464C98.9848 81.2875 97.6875 81.9161 100.652 82.2354L100.655 82.236ZM66.8854 71.1006L58.2107 68.7322C57.9861 68.6708 57.4692 67.7717 56.7769 67.8648C54.4198 72.0421 60.5873 74.1302 63.8066 74.5859C66.2458 74.9314 65.6349 72.7655 66.8854 71.1006ZM69.875 72.3975C66.872 71.0969 67.0636 76.3216 68.7919 74.6485C69.0159 74.4323 69.9409 72.5064 69.875 72.3975ZM87.2221 82.3946C87.7508 83.3472 83.9178 85.1654 84.8616 87.6877C86.1934 91.2485 92.1412 86.7268 88.7709 83.2001C86.8861 81.2268 76.9523 75.5828 74.2329 74.5917C71.0085 73.4196 68.9917 75.3176 71.0756 77.9096C72.05 79.1202 80.4251 85.7112 82.0047 86.6925C82.9612 87.286 83.1077 85.0423 83.5823 84.2321C84.0568 83.4219 86.5407 81.1612 87.2227 82.3924L87.2221 82.3946ZM100.571 84.1525C100.373 83.9407 99.6529 83.9353 99.2801 83.7689C99.3864 86.3471 96.2758 93.9845 97.2163 95.6522C97.7474 96.5959 98.9384 96.7417 99.7692 96.1412C101.449 94.9259 99.9782 91.9704 100.008 90.3045C100.025 89.3049 100.906 84.5117 100.571 84.1547L100.571 84.1525ZM67.2082 76.9302C65.4257 76.0179 63.2502 76.2561 61.5238 75.8565C60.247 75.5605 57.1035 72.8753 57.2689 76.7776C57.3725 79.1733 59.5495 76.5131 60.0386 76.3764C61.0735 76.0875 63.5028 76.6527 64.4029 77.2165C65.467 77.88 65.9217 81.0029 67.2059 76.9296L67.2082 76.9302ZM89.2378 108.286C89.282 107.642 88.755 107.157 88.3446 106.734C87.0796 105.432 78.2337 98.552 76.9404 98.1941C61.0754 96.5121 45.2047 94.1685 29.318 93.1262L42.1133 103.399L89.2378 108.286ZM15.7118 99.2084C15.6248 97.934 10.764 94.5264 10.2134 94.8448C10.0344 94.949 9.81947 96.2438 9.93961 96.6879C10.2706 97.9093 14.2853 99.6535 15.7096 99.2078L15.7118 99.2084ZM85.5079 120.187C84.4627 119.919 77.7386 118.915 77.5318 119.681C79.0063 121.975 84.659 123.533 85.5079 120.187ZM44.4187 116.621C40.8219 116.165 38.8935 115.349 35.7576 113.862C34.3673 113.202 35.1269 115.655 35.9127 116.41C37.4925 117.925 43.7301 119.747 44.4187 116.621Z" fill="#E76E2F"/>
<path d="M26.1877 92.8552C26.6613 93.9482 32.1627 98.3006 33.5043 99.3748C36.2011 101.534 38.8746 103.892 41.9766 105.426L90.4881 110.091C90.8722 110.128 91.2671 110.231 91.5181 110.546C92.0077 111.161 90.6177 119.053 87.9042 118.128L41.5816 113.945L38.0568 112.928C28.1426 105.785 18.5152 98.1614 9.02108 90.4519L9.08088 86.6613C15.0434 67.9392 18.0352 47.6409 24.319 29.0903C25.038 26.9647 26.4647 22.8418 28.4506 21.8536C30.3291 20.9174 34.3385 21.8231 36.5105 22.1579C49.1717 24.1154 64.275 26.4336 76.6314 29.2883C83.8507 30.9557 96.3192 39.5276 102.721 44.0493C105.763 46.1974 107.865 47.0226 107.199 51.2574C106.734 54.2128 104.897 60.9402 103.796 63.7219C103.285 65.0148 102.279 66.8948 100.792 67.0123L51.1345 59.6193C45.8002 59.8368 38.0429 48.1297 35.0281 56.4055C32.0176 64.6656 28.4444 78.4444 26.6285 87.1527C26.3786 88.3567 25.7759 91.9034 26.1877 92.8552ZM30.0255 24.1655C36.1384 27.7404 42.2044 32.6775 48.3581 36.0506C50.5184 37.2335 50.775 35.8209 48.8715 34.2491C45.5156 31.4748 36.4555 25.7035 32.5296 23.6775C31.1113 22.9459 30.0663 22.2039 30.0232 24.1649L30.0255 24.1655ZM103.893 45.8305C103.731 45.3295 99.5955 44.5805 98.7895 44.425C85.9024 41.9467 70.622 38.9991 57.6952 37.5597C54.5731 37.2119 52.6857 38.6359 56.1031 39.4254C69.7934 42.5942 86.3453 44.3777 100.523 46.8019C101.743 47.0105 104.439 47.5098 103.894 45.8283L103.893 45.8305ZM81.144 46.4106C73.6909 45.7483 70.3227 57.2443 77.3159 60.4402C87.3986 65.0487 92.6486 47.4306 81.144 46.4106ZM97.1787 50.7622C91.7311 50.3007 89.2447 58.6897 94.2987 61.258C98.2762 63.279 102.401 62.6164 103.513 57.9032C104.382 54.2233 100.535 51.0474 97.1781 50.7644L97.1787 50.7622ZM52.4575 39.9007C51.9356 39.8252 51.5359 39.3717 51.0112 39.788C50.1171 40.498 46.241 54.6508 46.6578 55.7331C46.8981 56.3583 47.4728 56.1708 47.9606 56.371L52.4569 39.903L52.4575 39.9007ZM61.4886 44.8678C55.9774 44.4989 53.9415 52.9798 58.6286 55.3428C60.849 56.4631 64.0267 57.2901 66.0869 55.5569C71.0455 51.3845 67.073 45.2399 61.4864 44.8672L61.4886 44.8678ZM39.9286 112.043C40.2017 111.261 42.2354 105.126 40.1792 105.898C39.5989 106.115 36.9283 112.395 39.9286 112.043Z" fill="#FCEEDB"/>
<path d="M37.691 55.4774C41.4057 56.1233 44.127 59.6546 47.4766 60.9637C48.8089 61.4853 52.9593 61.8221 53.0993 62.0708C53.1624 62.1813 52.6758 63.6219 52.9341 64.6107C53.2188 65.6951 54.3792 66.1722 54.4945 67.098C54.713 68.8627 53.6389 70.8268 55.2 72.7165C55.6327 73.2412 56.5958 73.5041 56.635 73.5794C56.8876 74.0549 53.6029 77.2352 56.5667 79.0822C59.1673 80.701 59.8432 78.0853 61.3635 78.1895C64.0433 78.3712 63.8141 80.1212 65.0159 80.6478C68.0541 81.9771 68.453 78.6951 68.8518 78.8016C69.4802 78.9684 78.6274 86.3728 79.0161 86.8926C80.1738 88.4474 77.4851 94.1985 77.1428 96.3099L28.0893 90.636L37.6894 55.4746L37.691 55.4774Z" fill="#A4D9CD"/>
<path d="M89.2378 108.285L42.1132 103.399L29.318 93.1261C45.2075 94.1668 61.076 96.5098 76.9404 98.194C78.2337 98.5519 87.0796 105.432 88.3446 106.734C88.7549 107.156 89.2819 107.642 89.2378 108.285ZM77.2249 99.7519C74.1908 98.9068 71.0272 98.6409 67.9185 98.244C57.8203 96.9576 46.3813 95.4701 36.2897 94.8072C35.4653 94.7543 34.9143 94.8812 34.8046 95.8173C36.6248 96.4075 38.5477 96.5428 40.4306 96.7986C51.3725 98.2772 64.2482 99.8078 75.2209 100.491C76.0247 100.541 77.2154 101.012 77.2271 99.7525L77.2249 99.7519ZM80.9455 103.632L80.2323 102.034L40.2516 97.8043L38.7664 98.8144L80.9449 103.635L80.9455 103.632ZM83.8152 105.377C82.7292 105.057 81.6441 104.742 80.5237 104.538C70.7917 102.768 54.1902 101.184 44.2439 100.865C43.3485 100.835 42.3053 100.419 42.2862 101.688C44.2496 102.358 46.3201 102.522 48.3571 102.791C58.5887 104.14 71.1635 105.591 81.4011 106.069C82.2438 106.108 83.8272 106.708 83.8168 105.38L83.8152 105.377Z" fill="#A4D9CD"/>
<path d="M76.0726 65.4759C75.6088 66.7983 75.7001 68.5737 74.3305 69.3356C71.7889 70.7484 62.8497 68.3245 60.0436 67.3097C59.1428 66.9848 55.6469 65.4325 55.0164 65.0021C54.5649 64.6947 54.5841 62.2082 55.7202 62.3893L76.0749 65.4765L76.0726 65.4759Z" fill="#FCEEDB"/>
<path d="M87.2209 82.3944C86.5389 81.1632 84.0696 83.3968 83.5805 84.2341C83.0914 85.0714 82.9594 87.288 82.0029 86.6945C80.4233 85.7132 72.0483 79.1222 71.0738 77.9116C68.9899 75.3196 71.0067 73.4216 74.2312 74.5937C76.9534 75.5832 86.8865 81.2294 88.7691 83.2021C92.1394 86.7288 86.1916 91.2505 84.8598 87.6897C83.916 85.1674 87.749 83.3492 87.2203 82.3966L87.2209 82.3944Z" fill="#A4D9CD"/>
<path d="M85.2072 67.0163L82.5338 76.8081L73.4109 71.6869C76.7934 72.2541 78.0466 65.8432 78.4113 65.6367C78.7137 65.4658 84.2922 66.8836 85.2072 67.0163Z" fill="#A4D9CD"/>
<path d="M66.8877 71.101C65.6366 72.7681 66.2459 74.9312 63.8089 74.5863C60.5896 74.1306 54.4221 72.0425 56.7792 67.8652C57.4715 67.7721 57.9862 68.6706 58.213 68.7326L66.8877 71.101Z" fill="#FCEEDB"/>
<path d="M100.571 84.1524C100.906 84.5116 100.025 89.3025 100.008 90.3022C99.9788 91.9681 101.452 94.9242 99.7698 96.1388C98.939 96.7394 97.748 96.5935 97.2169 95.6498C96.2764 93.9822 99.3864 86.347 99.2807 83.7666C99.6535 83.933 100.374 83.9383 100.572 84.1502L100.571 84.1524Z" fill="#FCEEDB"/>
<path d="M95.5183 76.5242C94.8589 76.9085 88.7114 74.3094 87.8249 73.2232C86.9384 72.1371 86.6553 68.1404 87.6039 67.266C87.8214 67.0647 89.3608 66.9326 89.5811 67.7101C89.9579 69.035 88.3127 70.176 89.7908 72.098C91.2689 74.0201 95.2858 74.0407 95.6939 75.111C95.8452 75.511 95.6498 76.4453 95.519 76.522L95.5183 76.5242Z" fill="#FCEEDB"/>
<path d="M100.654 82.2356C97.6899 81.9141 98.9845 81.2871 98.2923 79.6466C97.9741 78.895 96.6552 77.7553 96.6689 77.4864C96.8754 73.0185 103.439 79.0837 100.657 82.2362L100.654 82.2356Z" fill="#A4D9CD"/>
<path d="M85.5065 120.187C84.6576 123.533 79.0049 121.975 77.5304 119.681C77.7372 118.915 84.459 119.918 85.5065 120.187Z" fill="#A4D9CD"/>
<path d="M67.2104 76.9309C65.924 81.0036 65.4708 77.8835 64.4074 77.2178C63.5067 76.6562 61.0802 76.0893 60.043 76.3777C59.554 76.5144 57.3747 79.1739 57.2733 76.7789C57.1057 72.8759 60.2492 75.5612 61.5282 75.8578C63.2547 76.2574 65.4301 76.0192 67.2126 76.9315L67.2104 76.9309Z" fill="#FCEEDB"/>
<path d="M15.7111 99.2085C14.2868 99.6542 10.2699 97.9094 9.94115 96.6886C9.82101 96.2444 10.0359 94.9496 10.2149 94.8455C10.7633 94.5265 15.6263 97.9347 15.7133 99.2091L15.7111 99.2085Z" fill="#A4D9CD"/>
<path d="M69.8748 72.3974C69.9401 72.5085 69.0157 74.4322 68.7917 74.6484C67.0634 76.3215 66.8718 71.0968 69.8748 72.3974Z" fill="#F0B77F"/>
<path d="M103.894 45.8306C104.439 47.5121 101.743 47.0128 100.523 46.8043C86.3476 44.3806 69.7941 42.5943 56.1031 39.4277C52.6864 38.636 54.5754 37.2148 57.6952 37.562C70.6227 38.9992 85.9025 41.9491 98.7895 44.4274C99.5956 44.5829 103.731 45.3318 103.893 45.8328L103.894 45.8306Z" fill="#E76E2F"/>
<path d="M61.4895 44.8679C67.0761 45.2406 71.0486 51.3852 66.09 55.5577C64.0292 57.2931 60.8499 56.4633 58.6317 55.3435C53.9446 52.9805 55.9783 44.4991 61.4917 44.8685L61.4895 44.8679ZM61.5951 46.7046C58.4209 45.6634 56.3187 51.2972 58.6683 53.065C58.8693 50.5516 59.4705 48.2623 61.5951 46.7046ZM64.0598 51.6747C62.279 51.2554 63.2448 49.4339 63.5731 48.1964C59.9865 48.3506 58.888 54.1509 62.952 54.7081C66.306 55.1695 68.0654 50.0733 64.9137 48.5648L64.0598 51.6747Z" fill="#E76E2F"/>
<path d="M97.1807 50.7626C100.535 51.0472 104.384 54.2215 103.516 57.9013C102.403 62.6146 98.2788 63.2771 94.3014 61.2562C89.2473 58.6878 91.7337 50.2989 97.1814 50.7604L97.1807 50.7626ZM96.8205 52.4936C93.5962 52.3976 92.0754 56.3919 93.8912 58.8629C94.3526 56.105 95.0742 54.6616 96.8205 52.4936ZM98.5219 56.7842L98.5803 53.9353C94.7919 55.0125 95.0746 61.4004 99.3911 60.6037C101.294 60.2505 103.284 55.241 100.586 54.4758L99.8526 57.1451L98.5203 56.7814L98.5219 56.7842Z" fill="#E76E2F"/>
<path d="M81.1446 46.4106C92.6491 47.4306 87.4007 65.0515 77.3165 60.4402C70.3217 57.2415 73.6915 45.7483 81.1446 46.4106ZM80.652 48.1796C74.5056 47.9315 72.7931 58.8608 80.2624 59.341C86.7307 59.7584 88.56 48.4974 80.652 48.1796Z" fill="#E76E2F"/>
<path d="M30.0267 24.1657C30.0698 22.2046 31.1148 22.9467 32.5331 23.6783C36.459 25.7043 45.5197 31.4733 48.875 34.2498C50.7779 35.8239 50.5191 37.2359 48.3616 36.0514C42.2079 32.6782 36.1396 27.7406 30.0289 24.1663L30.0267 24.1657Z" fill="#E76E2F"/>
<path d="M52.4612 39.9012L47.9649 56.3692C47.477 56.169 46.9024 56.3565 46.662 55.7313C46.2453 54.649 50.1213 40.4962 51.0155 39.7862C51.5402 39.3699 51.9398 39.8234 52.4618 39.8989L52.4612 39.9012Z" fill="#E76E2F"/>
<path d="M39.9296 112.043C36.93 112.393 39.5999 106.115 40.1802 105.898C42.2358 105.128 40.2027 111.261 39.9296 112.043Z" fill="#E76E2F"/>
<path d="M80.9442 103.632L38.7657 98.8121L40.2508 97.802L80.2316 102.032L80.9442 103.632Z" fill="#E76E2F"/>
<path d="M77.2249 99.7519C77.216 101.01 76.0225 100.54 75.2186 100.491C64.2482 99.8079 51.3725 98.2772 40.4283 96.7981C38.5449 96.5445 36.6248 96.4076 34.8023 95.8168C34.9115 94.8829 35.463 94.7537 36.2875 94.8066C46.379 95.4695 57.8181 96.9571 67.9163 98.2435C71.025 98.6403 74.1885 98.9062 77.2226 99.7513L77.2249 99.7519Z" fill="#E76E2F"/>
<path d="M83.8149 105.377C83.8252 106.705 82.2418 106.105 81.3992 106.066C71.1615 105.588 58.5845 104.137 48.3551 102.788C46.3182 102.519 44.2476 102.356 42.2843 101.686C42.3034 100.416 43.3459 100.835 44.242 100.862C54.1883 101.181 70.7914 102.768 80.5217 104.535C81.6422 104.739 82.7266 105.056 83.8132 105.374L83.8149 105.377Z" fill="#E76E2F"/>
<path d="M64.0592 51.6746L64.9131 48.5647C68.0648 50.0733 66.3031 55.1688 62.9514 54.708C58.8874 54.1509 59.9881 48.3512 63.5725 48.1963C63.2441 49.4339 62.2784 51.2554 64.0592 51.6746Z" fill="#A4D9CD"/>
<path d="M61.5942 46.7042C59.4696 48.262 58.8684 50.5513 58.6674 53.0647C56.3178 51.2969 58.4179 45.6624 61.5942 46.7042Z" fill="#FCD3A2"/>
<path d="M98.5198 56.7838L99.8521 57.1476L100.586 54.4761C103.284 55.2412 101.295 60.2507 99.3913 60.6039C95.0742 61.4028 94.7914 55.015 98.5804 53.9356L98.522 56.7844L98.5198 56.7838Z" fill="#A4D9CD"/>
<path d="M96.8199 52.4934C95.0736 54.6614 94.352 56.1048 93.8906 58.8628C92.0748 56.3918 93.5956 52.3974 96.8199 52.4934Z" fill="#FCD3A2"/>
<path d="M80.6534 48.1801C88.5615 48.4979 86.7321 59.7588 80.2638 59.3415C72.7945 58.8613 74.5064 47.9341 80.6534 48.1801ZM82.6654 50.0637C81.381 47.8526 78.8011 53.9228 80.2267 54.654C81.6523 55.3852 82.8057 50.3029 82.6654 50.0637Z" fill="#FCEEDB"/>
<path d="M82.6668 50.0638C82.8071 50.303 81.662 55.3899 80.2281 54.6541C78.7942 53.9182 81.3823 47.8527 82.6668 50.0638Z" fill="#E76E2F"/>
</g>
</svg>
