<svg width="1765" height="168" viewBox="0 0 1765 168" fill="none" xmlns="http://www.w3.org/2000/svg">
<g opacity="0.2">
<path d="M1703.09 52.3124C1705.05 52.6231 1707.96 53.829 1709.92 54.5648C1724.8 60.1485 1741.78 67.1689 1756.3 73.6764C1765.26 77.6951 1760.64 82.1445 1757.96 88.9781C1748.2 113.878 1737.69 138.554 1727.22 163.184C1724.71 166.03 1721.72 164.54 1718.7 163.381C1712.92 161.166 1707.23 158.266 1701.53 155.926C1690.66 151.459 1678.72 147.315 1668.16 142.342C1662.48 139.665 1664.84 135.52 1666.59 130.909C1671.59 117.746 1677.88 104.401 1683.3 91.3821C1688.06 79.9311 1692.31 67.4548 1697.49 56.2819C1698.61 53.8576 1700.19 51.8533 1703.09 52.3103L1703.09 52.3124ZM1702.32 54.4369C1701.08 54.3843 1700.12 56.0232 1699.63 57.0282C1696.38 63.8156 1693.89 72.0469 1690.96 79.0961C1683.41 97.2854 1675.2 115.456 1667.99 133.811C1666.53 137.525 1666.29 138.817 1670.21 140.636C1681.42 145.841 1693.41 149.974 1704.86 154.675C1710.44 156.967 1715.96 159.881 1721.61 162.003C1724.55 163.111 1725.32 162.2 1726.55 159.579C1728.53 155.327 1730.09 149.965 1731.94 145.544C1740.08 126.056 1748.5 106.612 1756.26 86.9381C1757.1 84.8124 1760.87 79.1723 1758.29 77.365C1757.47 76.7893 1754.26 75.5129 1752.97 74.9269C1738.62 68.4428 1722.16 61.8447 1707.45 56.117C1706.22 55.6401 1703.43 54.4863 1702.32 54.4391L1702.32 54.4369Z" fill="#E76E2F"/>
<path d="M1702.32 54.4369C1703.43 54.4841 1706.22 55.638 1707.45 56.1149C1722.16 61.8425 1738.62 68.442 1752.97 74.9248C1754.26 75.5108 1757.47 76.7871 1758.29 77.3628C1760.87 79.1709 1757.1 84.8103 1756.26 86.9359C1748.5 106.61 1740.08 126.054 1731.94 145.542C1730.09 149.963 1728.54 155.325 1726.55 159.576C1725.32 162.197 1724.55 163.108 1721.61 162.001C1715.97 159.877 1710.45 156.965 1704.86 154.673C1693.41 149.972 1681.42 145.839 1670.21 140.634C1666.29 138.814 1666.53 137.523 1667.99 133.809C1675.21 115.456 1683.41 97.2833 1690.96 79.0939C1693.89 72.0447 1696.38 63.8134 1699.64 57.026C1700.12 56.021 1701.09 54.3822 1702.32 54.4348L1702.32 54.4369ZM1703.4 58.1646C1702.55 58.1577 1701.4 60.5406 1701.02 61.3798C1691.5 82.3377 1682.82 105.361 1674.29 126.856C1673.57 128.662 1670.1 135.426 1670.51 136.916L1722.98 158.856L1755.49 80.1456C1755.34 79.2903 1754.79 79.024 1754.09 78.6733C1747.86 75.5524 1739.85 73.1829 1733.3 70.4661C1725.04 67.0424 1716.88 63.104 1708.55 59.8788C1707.44 59.4475 1704.3 58.1714 1703.4 58.1639L1703.4 58.1646Z" fill="#F0B77F"/>
<path d="M1703.4 58.1644C1704.3 58.1719 1707.44 59.448 1708.55 59.8793C1716.88 63.1045 1725.04 67.0429 1733.3 70.4666C1739.85 73.1834 1747.86 75.5529 1754.09 78.6738C1754.8 79.0245 1755.34 79.2908 1755.49 80.1461L1722.98 158.857L1670.51 136.917C1670.1 135.428 1673.57 128.662 1674.29 126.856C1682.82 105.364 1691.5 82.3382 1701.02 61.3803C1701.4 60.539 1702.54 58.1575 1703.4 58.1651L1703.4 58.1644ZM1672.07 135.979L1722.58 156.54L1753.64 80.688L1703.41 60.0301L1672.07 135.979Z" fill="#E76E2F"/>
<path d="M1672.07 135.98L1703.41 60.0306L1753.64 80.6885L1722.58 156.541L1672.07 135.98ZM1714.18 73.4454C1714.45 71.897 1713.95 69.7851 1712.21 69.384C1711.55 70.7093 1708.7 75.3981 1709 76.4775C1709.74 79.1418 1712 75.107 1712.15 73.7047C1712.97 74.2471 1712.4 75.7359 1713.47 76.1256C1714.72 76.5813 1715.1 74.9312 1716.01 75.055C1715.69 76.0413 1713.93 79.3777 1716.17 79.4464C1717.08 79.4743 1720.5 72.0991 1717.91 71.9246C1716.71 71.8428 1714.65 74.3521 1714.18 73.4432L1714.18 73.4454ZM1726.09 75.2052C1725.96 74.833 1722.12 72.9007 1721.15 73.4629C1720.06 74.099 1717.84 79.6723 1718.44 80.5043C1718.93 81.1813 1722.85 82.9786 1723.55 82.5048C1724.82 81.6383 1721.24 79.2773 1720.28 79.4346L1720.73 78.1481C1725.55 80.4805 1725.91 78.0239 1721.41 76.2142C1722.66 74.5627 1724.04 76.153 1725.66 76.4854C1725.72 76.1123 1726.15 75.361 1726.1 75.206L1726.09 75.2052ZM1729.92 80.8701C1729.5 80.1487 1729.91 75.3566 1727.74 75.9906C1727.28 76.1247 1724.49 82.5158 1724.6 82.8921C1725.45 85.79 1727.74 81.2245 1727.97 80.1951C1728.36 81.1416 1728.82 86.4193 1730.71 85.4937C1730.9 85.3977 1732.34 82.165 1732.58 81.5781C1733.2 80.0498 1734.2 78.1254 1731.97 77.7281C1731.7 77.8584 1730.89 82.5346 1729.92 80.868L1729.92 80.8701ZM1736.72 86.0989C1736.28 86.2151 1735.09 85.6271 1734.93 85.0664C1734.6 83.8979 1737.65 79.2718 1735.63 79.0101C1734.63 78.8808 1733.3 83.214 1733.14 84.142C1732.71 86.5732 1734.41 87.8897 1736.74 87.9871C1739.07 88.0846 1742.73 80.0979 1739.57 80.8666C1738.85 81.0424 1737.54 85.8869 1736.72 86.0981L1736.72 86.0989ZM1742.41 93.4435L1702.3 77.0296C1701.82 78.0216 1701.78 78.5608 1702.78 79.1231C1715.88 84.2539 1728.76 90.0208 1741.81 95.1603C1741.88 94.7181 1742.48 93.59 1742.41 93.4435ZM1699 86.4897L1711.8 91.9716C1714.35 92.6378 1714 90.6685 1712.1 89.6489L1699.85 84.8514C1699.4 84.7565 1698.96 86.4063 1699 86.4897ZM1731.51 99.7717C1733.66 98.715 1728.43 95.8128 1727.59 97.2048C1726.75 98.5969 1731.29 99.8817 1731.51 99.7717ZM1738.67 102.754C1738.81 102.688 1739.06 101.778 1738.94 101.376C1738.71 100.609 1733.93 98.3715 1734.7 100.917C1734.92 101.625 1738.47 102.853 1738.67 102.756L1738.67 102.754ZM1719.15 97.8738L1699.16 89.4248C1697.61 88.7748 1696.5 90.1133 1698.14 91.0212C1702.77 93.5713 1709.54 95.76 1714.61 97.7411C1716.21 98.3674 1718.34 100.831 1719.15 97.8759L1719.15 97.8738ZM1730.01 104.074C1732.27 102.958 1726.47 100.001 1725.65 101.357C1724.83 102.72 1729.76 104.196 1730.01 104.074ZM1737.17 107.056C1739.44 105.941 1733.63 102.984 1732.82 104.339C1731.99 105.703 1736.92 107.178 1737.17 107.056ZM1710.74 101.21L1711.01 99.8318C1707.47 97.6349 1703.2 96.3134 1699.24 94.7845C1698.37 94.4436 1696.92 92.7977 1695.94 93.8801C1695.65 94.2032 1695.33 94.9906 1696.06 95.2466C1700.81 97.4251 1705.72 99.5806 1710.74 101.212L1710.74 101.21ZM1728.44 106.978C1727.9 104.26 1718.68 105.62 1727.93 108.658C1728.03 108.13 1728.54 107.45 1728.44 106.978ZM1731.01 109.677C1731.18 110.161 1735.69 112.574 1735.89 110.72C1736.02 109.464 1732.59 108.215 1731.54 107.988C1731.45 108.486 1730.89 109.328 1731.01 109.675L1731.01 109.677ZM1713.57 105.579C1711.08 104.931 1695.02 97.3362 1694.08 97.811C1693.93 97.8881 1693.6 98.8283 1693.87 99.2269C1694.62 100.324 1698.65 101.218 1700.14 101.86C1701.8 102.578 1712.3 107.635 1712.96 107.295C1713.11 107.222 1713.35 105.971 1713.56 105.578L1713.57 105.579ZM1721.85 110.877C1722 111.401 1726.62 113.717 1726.8 111.892C1726.98 110.079 1721.25 108.756 1721.85 110.877ZM1734.19 114.226C1734.07 113.953 1729.17 111.052 1729.09 113.645C1729.05 114.707 1732.82 115.968 1733.54 115.471C1733.88 115.234 1734.25 114.366 1734.19 114.226ZM1706.02 109.213C1707.27 108.383 1703.88 106.606 1703.39 106.375C1701.26 105.387 1695.69 102.92 1693.64 102.461C1691.89 102.067 1691.03 102.88 1692.63 104.056C1694.55 104.618 1705.24 109.735 1706.02 109.211L1706.02 109.213ZM1724.49 117.112C1725.72 114.689 1722.5 114.648 1720.79 113.894C1719.09 116.526 1722.51 116.063 1724.49 117.112ZM1731.65 120.094C1732.88 117.671 1729.66 117.631 1727.95 116.876C1726.25 119.508 1729.67 119.045 1731.65 120.094ZM1702.89 116.808C1703.33 115.92 1702.71 114.994 1701.97 114.573C1698.03 113.815 1694.23 110.899 1690.51 110.055C1688.61 109.626 1687.94 110.774 1689.5 111.649C1692.22 113.175 1695.46 114.129 1698.37 115.237C1699.85 115.802 1700.88 117.133 1702.89 116.808L1702.89 116.808ZM1721.36 124.706C1722.59 122.284 1719.36 122.243 1717.66 121.488C1715.95 124.121 1719.38 123.658 1721.36 124.706ZM1725.08 124.637C1721.81 124.529 1727.48 128.977 1728.59 127.472C1729.82 125.811 1726.27 124.678 1725.08 124.637ZM1708.56 122.658L1687.51 113.861L1686.91 115.578C1693.84 118.277 1700.6 121.689 1707.62 124.025C1708.16 124.015 1708.66 122.843 1708.56 122.658ZM1719.43 128.86C1721.57 127.803 1716.34 124.901 1715.5 126.293C1714.67 127.685 1719.2 128.97 1719.43 128.86ZM1726.59 131.842C1726.72 131.776 1726.98 130.866 1726.86 130.464C1726.62 129.697 1721.85 127.459 1722.62 130.005C1722.84 130.713 1726.39 131.941 1726.59 131.844L1726.59 131.842ZM1702.31 126.746C1702.79 125.772 1702.84 125.201 1701.84 124.651C1697.08 123.267 1691.77 119.58 1687.08 118.511C1685.32 118.111 1684.46 118.937 1686.06 120.109L1702.31 126.747L1702.31 126.746ZM1713.7 131.63C1713.88 132.15 1718.22 134.592 1718.29 132.092C1718.33 130.902 1715.14 130.377 1714.22 129.944C1714.14 130.441 1713.57 131.282 1713.7 131.63ZM1725.08 136.144C1727.35 135.029 1721.55 132.072 1720.73 133.427C1719.91 134.783 1724.84 136.266 1725.08 136.144ZM1689.5 126.139C1688.1 125.162 1686.86 126.94 1685.81 127.014C1684.62 127.098 1683.22 125.977 1682.21 126.97C1679.24 129.913 1680.83 135.188 1685.34 135.691C1685.96 135.761 1690.73 134.695 1691.12 134.31C1692.79 132.635 1691.55 130.95 1690.09 129.611C1689.52 129.093 1688.23 128.657 1688.17 128.566C1688.09 128.451 1689.66 126.972 1689.5 126.14L1689.5 126.139ZM1697.61 132.932C1694.67 132.59 1691.4 137.825 1695.56 139.848C1698.34 141.201 1702.67 142.984 1704.23 139.206C1705.79 135.427 1700.59 133.28 1697.6 132.932L1697.61 132.932ZM1715.72 139.252C1715.01 138.539 1709.51 139.793 1708.93 140.909C1708.25 142.206 1709.58 145.414 1710.77 146.1C1713.68 147.782 1718.59 149.219 1720.6 145.69C1722.5 142.341 1717.72 141.859 1715.99 140.367C1715.56 139.993 1715.78 139.32 1715.72 139.252Z" fill="#FCEEDB"/>
<path d="M1742.41 93.4433C1742.47 93.5919 1741.88 94.7179 1741.81 95.16C1728.76 90.0213 1715.88 84.2515 1702.78 79.1228C1701.78 78.5598 1701.82 78.0206 1702.3 77.0293L1742.41 93.4433Z" fill="#E76E2F"/>
<path d="M1715.71 139.252C1715.78 139.319 1715.55 139.992 1715.99 140.367C1717.72 141.856 1722.5 142.338 1720.6 145.69C1718.59 149.219 1713.68 147.782 1710.76 146.1C1709.58 145.416 1708.25 142.206 1708.93 140.909C1709.51 139.793 1715.01 138.538 1715.71 139.252ZM1711.42 144.892L1717.44 146.993C1717.7 146.436 1717.74 145.618 1718.07 145.144C1718.5 144.529 1721.9 144.807 1717.07 142.523L1717.18 144.969C1716.27 144.442 1714.63 144.826 1713.88 144.266C1712.73 143.418 1714.55 141.244 1713.99 140.961C1711.6 139.747 1712.38 143.558 1711.42 144.892ZM1716.21 142.222L1715.35 141.923L1714.9 143.209L1715.76 143.508L1716.21 142.222ZM1711.18 141.431L1710.32 141.132L1709.72 142.849L1710.58 143.147L1711.18 141.431Z" fill="#E76E2F"/>
<path d="M1689.5 126.139C1689.65 126.971 1688.09 128.45 1688.17 128.564C1688.23 128.655 1689.52 129.09 1690.09 129.61C1691.54 130.948 1692.78 132.635 1691.11 134.308C1690.73 134.694 1685.96 135.76 1685.34 135.69C1680.83 135.187 1679.23 129.912 1682.21 126.969C1683.22 125.976 1684.61 127.097 1685.81 127.013C1686.85 126.939 1688.1 125.161 1689.49 126.138L1689.5 126.139ZM1689.01 130.313C1686.35 129.647 1681.94 126.397 1682.3 131.226C1682.44 133.062 1684.51 134.709 1686.35 134.248C1687.08 134.068 1689.16 130.625 1689.01 130.313ZM1690.7 132.353L1689.85 132.054L1689.4 133.34L1690.25 133.639L1690.7 132.353Z" fill="#E76E2F"/>
<path d="M1714.17 73.445C1714.65 74.3524 1716.7 71.8453 1717.91 71.9263C1720.5 72.1008 1717.08 79.476 1716.17 79.4482C1713.93 79.3794 1715.68 76.043 1716.01 75.0567C1715.1 74.9308 1714.72 76.5837 1713.46 76.1273C1712.39 75.7391 1712.96 74.2489 1712.15 73.7064C1712 75.1088 1709.74 79.1436 1709 76.4792C1708.7 75.3999 1711.55 70.711 1712.21 69.3857C1713.95 69.7847 1714.44 71.898 1714.17 73.4471L1714.17 73.445Z" fill="#E76E2F"/>
<path d="M1719.15 97.8734C1718.33 100.828 1716.21 98.3649 1714.61 97.7386C1709.54 95.7596 1702.77 93.5688 1698.14 91.0187C1696.5 90.1108 1697.6 88.7744 1699.16 89.4223L1719.15 97.8713L1719.15 97.8734Z" fill="#E76E2F"/>
<path d="M1708.56 122.658C1708.66 122.843 1708.16 124.015 1707.62 124.025C1700.6 121.689 1693.84 118.277 1686.91 115.578L1687.51 113.861L1708.56 122.658Z" fill="#E76E2F"/>
<path d="M1729.92 80.8699C1730.89 82.5365 1731.7 77.8625 1731.97 77.7301C1734.2 78.1251 1733.2 80.0496 1732.57 81.5801C1732.33 82.1669 1730.9 85.3997 1730.7 85.4957C1728.82 86.4213 1728.36 81.1435 1727.97 80.197C1727.74 81.2235 1725.45 85.7897 1724.6 82.894C1724.49 82.517 1727.28 76.1266 1727.73 75.9925C1729.91 75.3585 1729.5 80.1506 1729.92 80.872L1729.92 80.8699Z" fill="#E76E2F"/>
<path d="M1713.56 105.579C1713.35 105.972 1713.11 107.223 1712.97 107.296C1712.3 107.635 1701.8 102.578 1700.14 101.861C1698.65 101.216 1694.62 100.323 1693.87 99.2278C1693.6 98.8313 1693.93 97.8882 1694.08 97.8118C1695.02 97.337 1711.08 104.932 1713.57 105.58L1713.56 105.579Z" fill="#E76E2F"/>
<path d="M1697.6 132.932C1700.59 133.282 1705.86 135.25 1704.23 139.206C1702.6 143.163 1698.35 141.199 1695.56 139.848C1691.4 137.826 1694.68 132.59 1697.61 132.933L1697.6 132.932ZM1701.83 140.578C1703.74 136.662 1702.81 135.624 1698.79 134.665C1694.58 133.657 1694.52 138.026 1695.59 138.401L1701.83 140.578Z" fill="#E76E2F"/>
<path d="M1702.31 126.746L1686.06 120.108C1684.46 118.936 1685.32 118.11 1687.07 118.51C1691.77 119.582 1697.08 123.268 1701.84 124.65C1702.83 125.2 1702.79 125.771 1702.31 126.745L1702.31 126.746Z" fill="#E76E2F"/>
<path d="M1726.09 75.205C1726.15 75.3622 1725.72 76.1113 1725.65 76.4844C1724.04 76.1527 1722.65 74.5617 1721.4 76.2132C1725.91 78.0216 1725.55 80.4774 1720.72 78.1479L1720.28 79.4344C1721.24 79.2749 1724.82 81.6381 1723.55 82.5045C1722.85 82.9783 1718.93 81.1811 1718.44 80.5041C1717.84 79.672 1720.06 74.0988 1721.15 73.4627C1722.12 72.9004 1725.96 74.8306 1726.09 75.205Z" fill="#E76E2F"/>
<path d="M1736.72 86.0984C1737.54 85.8864 1738.85 81.0398 1739.57 80.8668C1742.73 80.0982 1739.14 88.0872 1736.74 87.9873C1734.34 87.8875 1732.71 86.5734 1733.14 84.1422C1733.3 83.2121 1734.63 78.881 1735.63 79.0103C1737.65 79.272 1734.6 83.896 1734.93 85.0666C1735.09 85.6266 1736.28 86.2167 1736.73 86.0991L1736.72 86.0984Z" fill="#E76E2F"/>
<path d="M1710.74 101.21C1705.73 99.576 1700.82 97.4226 1696.06 95.2441C1695.33 94.9881 1695.65 94.2007 1695.94 93.8776C1696.92 92.7952 1698.37 94.4418 1699.25 94.782C1703.2 96.313 1707.47 97.6345 1711.01 99.8293L1710.74 101.208L1710.74 101.21Z" fill="#E76E2F"/>
<path d="M1699 86.4896C1698.96 86.4062 1699.4 84.7565 1699.85 84.8514L1712.1 89.6489C1714 90.6685 1714.35 92.6378 1711.8 91.9716L1699 86.4896Z" fill="#E76E2F"/>
<path d="M1702.89 116.807C1700.88 117.132 1699.84 115.803 1698.36 115.236C1695.46 114.129 1692.22 113.175 1689.5 111.648C1687.94 110.773 1688.61 109.625 1690.5 110.054C1694.23 110.898 1698.03 113.814 1701.97 114.572C1702.71 114.993 1703.33 115.916 1702.88 116.806L1702.89 116.807Z" fill="#E76E2F"/>
<path d="M1706.02 109.212C1705.23 109.735 1694.55 104.618 1692.62 104.058C1691.03 102.878 1691.88 102.066 1693.64 102.462C1695.69 102.922 1701.26 105.389 1703.39 106.377C1703.88 106.608 1707.26 108.385 1706.02 109.215L1706.02 109.212Z" fill="#E76E2F"/>
<path d="M1734.19 114.226C1734.25 114.366 1733.88 115.234 1733.54 115.471C1732.81 115.967 1729.05 114.707 1729.09 113.645C1729.17 111.051 1734.07 113.953 1734.19 114.226Z" fill="#E76E2F"/>
<path d="M1731.01 109.677C1730.88 109.329 1731.45 108.486 1731.54 107.99C1732.59 108.218 1736.03 109.466 1735.89 110.722C1735.69 112.575 1731.18 110.162 1731.01 109.679L1731.01 109.677Z" fill="#E76E2F"/>
<path d="M1728.44 106.978C1728.53 107.45 1728.03 108.129 1727.93 108.658C1718.67 105.622 1727.9 104.259 1728.44 106.978Z" fill="#E76E2F"/>
<path d="M1713.7 131.63C1713.57 131.282 1714.14 130.441 1714.22 129.943C1715.15 130.377 1718.33 130.902 1718.29 132.092C1718.22 134.594 1713.88 132.15 1713.7 131.63Z" fill="#E76E2F"/>
<path d="M1725.08 124.637C1726.27 124.677 1729.82 125.81 1728.59 127.472C1727.48 128.979 1721.81 124.53 1725.08 124.637Z" fill="#E76E2F"/>
<path d="M1721.85 110.876C1721.25 108.755 1726.98 110.079 1726.8 111.892C1726.61 113.716 1722 111.401 1721.85 110.876Z" fill="#E76E2F"/>
<path d="M1730.01 104.074C1729.76 104.196 1724.83 102.72 1725.66 101.357C1726.47 100.001 1732.27 102.958 1730.01 104.074Z" fill="#E76E2F"/>
<path d="M1737.17 107.056C1736.92 107.178 1731.99 105.702 1732.81 104.339C1733.63 102.983 1739.43 105.94 1737.17 107.056Z" fill="#E76E2F"/>
<path d="M1725.08 136.144C1724.84 136.266 1719.91 134.79 1720.73 133.427C1721.55 132.063 1727.35 135.028 1725.08 136.144Z" fill="#E76E2F"/>
<path d="M1724.49 117.112C1722.51 116.063 1719.09 116.526 1720.79 113.894C1722.49 114.648 1725.72 114.689 1724.49 117.112Z" fill="#E76E2F"/>
<path d="M1731.65 120.094C1729.67 119.045 1726.25 119.508 1727.95 116.876C1729.65 117.63 1732.88 117.671 1731.65 120.094Z" fill="#E76E2F"/>
<path d="M1721.36 124.706C1719.38 123.657 1715.95 124.12 1717.65 121.488C1719.36 122.243 1722.59 122.283 1721.36 124.706Z" fill="#E76E2F"/>
<path d="M1726.59 131.842C1726.39 131.941 1722.84 130.711 1722.62 130.003C1721.84 127.459 1726.62 129.695 1726.86 130.462C1726.98 130.866 1726.72 131.774 1726.59 131.84L1726.59 131.842Z" fill="#E76E2F"/>
<path d="M1738.67 102.754C1738.47 102.853 1734.92 101.623 1734.71 100.915C1733.93 98.3706 1738.71 100.606 1738.94 101.374C1739.06 101.778 1738.81 102.685 1738.67 102.752L1738.67 102.754Z" fill="#E76E2F"/>
<path d="M1731.51 99.7715C1731.29 99.8815 1726.78 98.5524 1727.59 97.2046C1728.4 95.8569 1733.66 98.7156 1731.51 99.7715Z" fill="#E76E2F"/>
<path d="M1719.43 128.859C1719.2 128.969 1714.69 127.64 1715.5 126.293C1716.32 124.945 1721.57 127.803 1719.43 128.859Z" fill="#E76E2F"/>
<path d="M1711.42 144.891C1712.37 143.558 1711.6 139.747 1713.99 140.961C1714.55 141.241 1712.73 143.417 1713.88 144.266C1714.63 144.827 1716.27 144.443 1717.18 144.969L1717.07 142.523C1721.9 144.807 1718.49 144.528 1718.07 145.144C1717.74 145.618 1717.7 146.436 1717.44 146.993L1711.42 144.891Z" fill="#FCEEDB"/>
<path d="M1711.18 141.431L1710.32 141.132L1709.72 142.849L1710.58 143.147L1711.18 141.431Z" fill="#F0B77F"/>
<path d="M1716.21 142.222L1715.35 141.923L1714.9 143.209L1715.76 143.508L1716.21 142.222Z" fill="#F0B77F"/>
<path d="M1689.01 130.313C1689.16 130.627 1687.08 134.068 1686.35 134.248C1684.51 134.708 1682.44 133.062 1682.3 131.226C1681.94 126.397 1686.35 129.647 1689.01 130.313Z" fill="#FCEEDB"/>
<path d="M1690.71 132.353L1689.85 132.054L1689.4 133.341L1690.26 133.639L1690.71 132.353Z" fill="#F0B77F"/>
<path d="M1701.83 140.578L1695.59 138.401C1694.51 138.025 1694.58 133.657 1698.79 134.665C1702.81 135.627 1703.74 136.664 1701.83 140.578ZM1696.84 136.904C1697.82 136.711 1702.02 139.981 1702.22 138.067C1702.33 137.034 1696.71 134.069 1696.84 136.904Z" fill="#FCEEDB"/>
<path d="M1696.84 136.904C1696.71 134.069 1702.33 137.034 1702.22 138.067C1702.02 139.981 1697.82 136.713 1696.84 136.904Z" fill="#E76E2F"/>
</g>
<g opacity="0.2">
<path d="M57.9298 17.1586C57.781 17.2883 57.7625 17.701 57.642 17.8064C57.2949 18.1117 57.0392 18.5081 56.8863 18.634C55.2877 19.9574 53.4736 21.9143 52.7844 19.1363C52.6921 18.7635 52.5377 16.2875 52.4607 15.5007C52.1072 11.9409 51.2276 8.88424 56.2392 10.0573C62.0822 11.4239 59.8838 13.7218 57.9298 17.1586ZM54.3722 19.0631C56.1015 16.8784 61.6522 11.7019 55.5985 11.4773C51.9491 11.341 54.0692 16.7033 54.3722 19.0631Z" fill="#E76E2F"/>
<path d="M35.2306 22.5716C35.2858 16.639 38.503 10.4338 43.8448 7.59105C64.2545 -3.27507 81.0465 24.0495 63.0467 37.086C62.0599 37.801 60.0087 37.8561 60.0705 39.2532L75.7209 92.7728C77.7102 101.196 62.5784 107.705 56.1816 109.675C50.827 111.325 42.8899 112.842 38.4284 108.602C27.6163 86.3251 16.6949 64.0843 6.61256 41.4566C9.97546 29.8615 25.4903 27.0727 35.2274 22.5701L35.2306 22.5716ZM60.0881 22.7747C61.0267 22.9538 64.758 23.4077 64.9796 23.5723C68.1149 25.9258 61.2093 34.247 58.0711 34.2956L58.788 36.1606C69.2797 32.6088 71.0531 19.5673 63.5427 11.942C51.9342 0.149698 31.034 13.7343 40.0852 30.6832C40.9555 32.312 42.2489 34.1407 44.0357 32.6993C44.1874 32.4234 40.0894 28.2429 41.7188 27.1252C42.8742 26.332 50.4211 23.9254 51.1909 24.9295C51.5855 25.4465 51.1415 26.2537 51.6051 26.5589C52.1846 25.7131 52.5203 23.5134 53.508 23.1499C53.8162 23.0368 58.7489 22.943 60.0872 22.7724C59.98 22.7518 59.7395 22.3635 59.3394 22.2863C58.4393 22.1166 54.0513 22.8524 55.3592 20.7866C55.8018 20.0874 56.2667 19.7395 56.8874 18.6307C56.9256 18.5624 57.3349 18.3352 57.6431 17.8031C57.7631 17.5986 57.8171 17.3549 57.931 17.1553C58.7338 16.4573 61.4739 14.0183 62.1543 14.1543C64.0965 14.5492 67.3653 20.735 64.789 22.343C64.2676 22.6696 62.9401 22.1002 62.0493 22.2411C61.3279 22.3546 60.6187 22.7024 60.0896 22.7715L60.0881 22.7747ZM24.3395 40.8122C29.538 39.2868 34.7988 36.4429 40.0098 34.7892C37.9142 31.8373 36.3828 28.8028 35.2981 25.3173C27.9379 28.063 20.8001 30.5352 14.4121 35.2305C10.6969 37.961 5.69735 42.3159 13.9459 42.3845C16.7248 42.4069 21.6937 41.5901 24.3404 40.8146L24.3395 40.8122ZM62.1276 15.5585C61.1692 15.3279 57.5827 19.9508 57.3182 21.1482C62.49 20.8175 66.9457 22.2902 62.1276 15.5585ZM49.4383 25.7964C47.7667 27.0835 41.9791 26.343 43.3308 29.4197C45.8864 35.2377 51.3268 26.5612 49.4383 25.7964ZM56.9992 24.5018C56.7498 25.159 61.371 30.645 62.5149 29.8777C63.0268 29.5332 64.522 25.4966 64.0516 24.7965C63.6313 24.1711 57.1261 24.1683 56.9992 24.5018ZM60.8041 31.6284L55.9557 25.9772L57.9992 32.7118L60.8041 31.6284ZM10.6515 45.0017L40.855 107.506C45.0965 111.774 61.3224 105.268 65.7781 102.704C69.2776 100.691 74.6257 97.3405 72.9454 92.7035L53.9631 27.812C42.7884 38.5126 26.0702 44.6725 10.6483 45.0003L10.6515 45.0017Z" fill="#E76E2F"/>
<path d="M10.6515 45.0018C26.0711 44.675 42.7893 38.515 53.9663 27.8136L72.9486 92.7051C74.6289 97.3421 69.2785 100.693 65.7813 102.706C61.3256 105.27 45.0997 111.775 40.8582 107.508L10.6547 45.0033L10.6515 45.0018ZM42.7964 104.456C44.8584 105.497 50.6797 104.517 52.943 103.875C56.894 102.757 69.9547 97.8012 70.1676 93.0193C65.381 75.1672 60.1214 57.3625 54.6826 39.7342C54.2408 39.1574 53.1457 38.8156 52.434 38.6889C45.5036 37.4476 23.2324 45.9917 18.8949 51.58C17.0836 53.9145 18.5304 56.0093 19.5919 58.4777C24.9525 70.9579 32.0301 84.7415 38.1549 97.0032C39.1416 98.9767 41.1119 103.607 42.794 104.456L42.7964 104.456Z" fill="#FCEEDB"/>
<path d="M24.3392 40.8122C21.6902 41.5887 16.7245 42.4068 13.9448 42.3822C5.6994 42.315 10.6957 37.9587 14.4109 35.2281C20.799 30.5329 27.9391 28.0598 35.2969 25.315C36.3816 28.8005 37.913 31.8349 40.0086 34.7868C34.7977 36.4406 29.5368 39.2845 24.3383 40.8099L24.3392 40.8122Z" fill="#FCEEDB"/>
<path d="M56.9999 24.5018C57.1268 24.1684 63.6321 24.1712 64.0523 24.7966C64.5218 25.4943 63.0275 29.5333 62.5156 29.8778C61.3717 30.6451 56.7506 25.159 56.9999 24.5018Z" fill="#FFAF5F"/>
<path d="M49.4382 25.7964C51.3243 26.5621 45.8863 35.2377 43.3306 29.4196C41.9789 26.343 47.7689 27.0826 49.4382 25.7964Z" fill="#FFAF5F"/>
<path d="M60.8037 31.6284L57.9988 32.7118L55.9553 25.9772L60.8037 31.6284Z" fill="#FFAF5F"/>
<path d="M57.6408 17.8064C57.7614 17.701 57.7799 17.2883 57.9287 17.1586C57.8148 17.3581 57.7608 17.6018 57.6408 17.8064Z" fill="#F0B77F"/>
<path d="M46.7396 18.774C46.4412 18.5074 46.2127 18.332 45.9121 18.0178C46.38 18.2435 46.5752 18.6815 46.7396 18.774Z" fill="#F0B77F"/>
<path d="M57.6426 17.8064C57.3344 18.3385 56.9251 18.5656 56.8869 18.634C57.0398 18.5081 57.2955 18.1117 57.6426 17.8064Z" fill="#FFAF5F"/>
<path d="M47.3859 19.0621C47.2238 18.9338 46.8896 18.9091 46.7383 18.7739C46.9401 18.887 47.1922 18.9352 47.3859 19.0621Z" fill="#F0B77F"/>
<path d="M50.3371 21.151C50.1083 21.0725 49.9073 20.9617 49.6895 20.8628C49.7904 20.9717 50.2401 20.9895 50.3371 21.151Z" fill="#F0B77F"/>
<path d="M45.9113 18.0177C45.7939 17.8937 45.3781 17.8735 45.2637 17.7295C45.4846 17.8084 45.7005 17.9161 45.9113 18.0177Z" fill="#F0B77F"/>
<path d="M60.0867 22.7746C58.7507 22.9444 53.818 23.0382 53.5075 23.1522C52.5174 23.5166 52.1841 25.7154 51.6046 26.5612C51.141 26.256 51.585 25.4488 51.1903 24.9318C50.4197 23.9254 42.8737 26.3343 41.7182 27.1275C40.0913 28.2443 44.1869 32.4257 44.0352 32.7016C42.2484 34.143 40.955 32.3143 40.0847 30.6855C31.0335 13.7366 51.9337 0.151994 63.5422 11.9443C71.0512 19.5729 69.2801 32.6135 58.7875 36.1629L58.0706 34.2979C61.2064 34.2502 68.1121 25.929 64.9767 23.5755C64.7542 23.4086 61.023 22.9546 60.0853 22.7779C60.6153 22.7111 61.3245 22.3634 62.045 22.2476C62.9358 22.1066 64.2633 22.6761 64.7847 22.3494C67.3625 20.7382 64.0946 14.5547 62.15 14.1607C61.4687 14.0224 58.7271 16.4647 57.9267 17.1618C59.8807 13.725 62.0791 11.427 56.2361 10.0605C51.2245 8.88741 52.1031 11.9418 52.4576 15.5038L51.9898 15.6836C51.1569 11.156 50.5421 8.76025 45.6741 11.907C42.7459 13.8007 43.2479 15.1977 45.2611 17.7327C38.5008 15.3275 39.1655 24.0827 40.9158 25.333C42.0815 26.166 49.4696 23.7373 51.0562 23.0254C50.7637 22.4529 50.6481 21.6702 50.3335 21.1519C50.8402 21.3251 52.3266 21.8119 52.5596 21.3706C52.1791 20.695 52.3566 19.9902 52.3125 19.3169L52.7803 19.1371C53.4696 21.9152 55.2837 19.9583 56.8822 18.6348C56.2638 19.7427 55.7966 20.0915 55.354 20.7907C54.0461 22.8565 58.4365 22.1198 59.3342 22.2904C59.7343 22.3676 59.9772 22.755 60.082 22.7764L60.0867 22.7746Z" fill="#FFAF5F"/>
<path d="M48.2143 19.8185C47.7717 19.5401 47.6427 19.2674 47.3867 19.0623C47.8232 19.3457 47.9523 19.6049 48.2143 19.8185Z" fill="#F0B77F"/>
<path d="M48.8625 20.1066C48.6606 19.9935 48.4124 19.9412 48.2148 19.8184C48.3714 19.9462 48.7071 19.9676 48.8625 20.1066Z" fill="#F0B77F"/>
<path d="M49.6889 20.8629C49.2166 20.6469 49.0281 20.1984 48.8613 20.1067C49.1533 20.3705 49.3719 20.5201 49.6889 20.8629Z" fill="#F0B77F"/>
<path d="M42.7963 104.455C41.1142 103.606 39.1415 98.9765 38.1572 97.0022C32.0323 84.7405 24.9547 70.9569 19.5941 58.4766C18.5326 56.0082 17.0859 53.9134 18.8971 51.5789C23.2346 45.9906 45.5059 37.4465 52.4362 38.6879C53.1456 38.8154 54.2407 39.1572 54.6848 39.7332C60.126 57.3606 65.3856 75.1652 70.1698 93.0182C69.9569 97.8001 56.8972 102.758 52.9453 103.874C50.6811 104.513 44.8607 105.496 42.7986 104.454L42.7963 104.455ZM48.7561 44.7783C49.8722 45.0073 54.8046 41.4275 52.4007 40.509C47.7642 38.7406 31.186 45.5584 26.6499 48.0458C23.6702 49.6799 15.0642 54.9671 23.7059 54.4522C25.8553 54.3243 35.0165 52.4442 36.0679 51.0731C36.4146 50.6203 36.2346 49.5722 36.5948 48.9799C37.7952 47.0118 41.7282 43.5556 43.9402 42.9203C47.3542 41.9411 48.0233 44.6248 48.7552 44.7759L48.7561 44.7783ZM38.0298 50.5903L44.8125 47.9833C45.3224 47.7874 46.4893 46.2699 47.6722 46.3444C45.231 41.3687 39.5047 47.66 38.0298 50.5903ZM36.8797 53.1783C31.7735 55.1463 26.4037 56.0097 21.0135 56.5963L22.3487 60.1332L42.9036 102.032C45.9336 105.264 58.9322 100.042 62.302 98.0539C64.4311 96.7978 68.3101 94.4931 68.0932 91.7081L54.2237 43.8343C48.3864 46.8057 52.3032 47.0648 53.7063 50.7502C55.0428 54.2624 50.1295 58.7856 47.2824 60.3527C46.2027 60.9449 43.4575 61.2964 43.3396 61.4787C42.9004 62.1658 43.811 67.6009 41.1661 69.254C39.1444 70.5172 30.3438 71.1147 28.7888 69.22C27.4051 67.5334 26.0059 59.7239 27.5048 58.1272C29.3375 56.1766 35.1045 55.6064 37.7763 55.5248L36.883 53.1797L36.8797 53.1783ZM42.5992 56.8913C43.7075 57.9102 43.5871 59.6781 45.7935 58.9375C47.1983 58.4647 52.2688 54.155 52.2273 52.8388C52.1743 51.1645 50.323 47.1089 48.2945 47.9422C45.1289 49.2395 41.9618 51.9367 38.2858 52.6459C38.6743 54.2504 40.1009 54.8892 41.1249 55.8492C41.1567 57.196 40.5772 56.9944 39.61 57.1459C36.8227 57.5834 31.5203 56.9598 29.2285 58.8962C28.0795 59.8669 28.8575 66.7308 29.8284 67.6924C30.9779 68.8325 38.8514 68.868 40.0385 68.0035C42.2783 66.3718 41.0837 59.241 42.5992 56.8913Z" fill="#E76E2F"/>
<path d="M51.9923 15.6803C52.1453 16.5185 52.2503 18.3421 52.3159 19.316C52.3623 19.9884 52.1849 20.6931 52.563 21.3696C52.33 21.811 50.8436 21.3241 50.3368 21.151C50.2399 20.9895 49.7901 20.9717 49.6892 20.8627C49.3722 20.5199 49.1536 20.3703 48.8616 20.1065C48.7062 19.9675 48.3705 19.9461 48.214 19.8183C47.9521 19.6047 47.8229 19.3455 47.3865 19.0621C47.1927 18.9351 46.9407 18.887 46.7388 18.7739C46.5744 18.6813 46.3792 18.2433 45.9113 18.0176C45.7004 17.916 45.4845 17.8083 45.2636 17.7294C43.2527 15.1935 42.7483 13.7974 45.6766 11.9037C50.5446 8.75697 51.1594 11.1527 51.9923 15.6803ZM49.4392 11.8246C49.0872 11.6699 45.3914 13.5013 45.0135 14.369C45.2275 16.1479 49.3984 18.423 50.9695 19.291L49.4407 11.8214L49.4392 11.8246Z" fill="#E76E2F"/>
<path d="M45.2631 17.7295C45.3775 17.8736 45.7933 17.8937 45.9107 18.0178C46.2113 18.3319 46.4398 18.5073 46.7383 18.774C46.8896 18.9092 47.2238 18.9338 47.3859 19.0622C47.6419 19.2673 47.7709 19.54 48.2135 19.8184C48.411 19.9413 48.6593 19.9935 48.8611 20.1066C49.0279 20.1983 49.2164 20.6469 49.6887 20.8629C49.9065 20.9618 50.1075 21.0725 50.3363 21.1511C50.6509 21.6694 50.7657 22.4498 51.0591 23.0246C49.4715 23.7341 42.0844 26.1652 40.9186 25.3322C39.1684 24.0819 38.5037 15.3267 45.264 17.7319L45.2631 17.7295ZM49.291 22.6218C46.8139 20.5981 40.5705 14.9701 41.2254 21.9538C41.5949 25.9183 46.5494 22.6335 49.291 22.6218Z" fill="#E76E2F"/>
<path d="M52.46 15.5007C52.5369 16.2876 52.6913 18.7635 52.7836 19.1363L52.3158 19.3161C52.2502 18.3422 52.1452 16.5187 51.9922 15.6805L52.46 15.5007Z" fill="#FFAF5F"/>
<path d="M36.8788 53.1784L37.7721 55.5235C35.1003 55.6051 29.3324 56.1729 27.5007 58.1259C26.0018 59.7226 27.4009 67.5321 28.7847 69.2187C30.3397 71.1134 39.1403 70.5159 41.162 69.2527C43.8069 67.5996 42.8963 62.1645 43.3355 61.4774C43.4533 61.2951 46.1985 60.9436 47.2782 60.3513C50.1277 58.7834 55.0387 54.2611 53.7022 50.7489C52.2991 47.0635 48.3823 46.8044 54.2196 43.833L68.0891 91.7068C68.3059 94.4918 64.427 96.7965 62.2979 98.0526C58.9281 100.041 45.9318 105.262 42.8994 102.031L22.3446 60.1318L21.0093 56.5949C26.3996 56.0084 31.7702 55.1473 36.8756 53.177L36.8788 53.1784ZM46.7132 62.3733C44.8126 63.5604 41.7475 73.2416 42.7274 75.3439C43.7565 77.5535 52.4981 80.4622 54.8056 79.5376C57.2208 78.5718 60.1229 68.3758 58.9935 65.8985C57.8642 63.4213 48.886 61.0145 46.7132 62.3733ZM33.5599 74.3931C32.1614 75.5456 34.8015 80.1656 37.0848 78.305C38.1472 77.4374 36.57 71.9093 33.5599 74.3931ZM39.1907 80.278C38.7907 80.1873 37.6555 80.7607 37.3916 81.1495C36.669 82.2168 40.399 89.4071 41.2519 90.9136C41.8479 91.9684 44.266 96.0317 44.9717 93.0559C45.2148 92.0332 39.8806 80.4318 39.193 80.2771L39.1907 80.278ZM66.2331 91.8507C66.0099 90.7602 65.0796 90.7982 64.202 90.7568C59.786 90.5607 48.9589 94.7275 45.601 97.6054C44.4504 98.5929 42.7786 100.976 45.4103 99.8542C46.6553 99.3219 47.6703 98.1771 48.8784 97.5141C54.6743 94.3302 59.8301 93.1408 66.2308 91.8516L66.2331 91.8507Z" fill="#FCD3A2"/>
<path d="M48.7553 44.7785C48.0234 44.6274 47.3543 41.9436 43.9403 42.9228C41.7283 43.5582 37.7953 47.0143 36.5949 48.9824C36.2338 49.5724 36.4147 50.6228 36.068 51.0757C35.0166 52.4467 25.8577 54.326 23.706 54.4547C15.0634 54.9673 23.6679 49.6834 26.65 48.0484C31.1861 45.5609 47.7643 38.7431 52.4008 40.5116C54.8038 41.4277 49.8723 45.0098 48.7562 44.7808L48.7553 44.7785Z" fill="#F0B77F"/>
<path d="M41.1248 55.8469C41.2475 55.9636 41.9303 56.2732 42.6 56.8914C41.0836 59.2387 42.2791 66.3719 40.0393 68.0036C38.8523 68.868 30.9788 68.8326 29.8292 67.6925C28.8583 66.7308 28.0804 59.867 29.2293 58.8963C31.5202 56.9576 36.8235 57.5834 39.6108 57.1459C40.578 56.9944 41.1598 57.1951 41.1257 55.8493L41.1248 55.8469ZM33.5493 58.8634C32.2217 59.7255 31.7164 61.6655 33.4097 61.4685C36.6299 61.0956 37.5142 56.2866 33.5493 58.8634ZM38.7842 63.7322L37.076 66.258C38.9182 67.4891 39.2294 65.0651 38.7842 63.7322Z" fill="#FCEEDB"/>
<path d="M42.5992 56.8914C41.9294 56.2732 41.2467 55.9636 41.124 55.8469C40.0977 54.8878 38.6734 54.2481 38.2849 52.6437C41.9633 51.9335 45.1304 49.2363 48.2936 47.94C50.323 47.1089 52.1735 51.1622 52.2265 52.8365C52.2679 54.1527 47.1974 58.4624 45.7926 58.9352C43.5871 59.6782 43.7052 57.9112 42.5983 56.889L42.5992 56.8914Z" fill="#FCEEDB"/>
<path d="M38.0309 50.5903C39.5058 47.6599 45.232 41.3686 47.6733 46.3443C46.4895 46.2675 45.3234 47.7873 44.8136 47.9833L38.0309 50.5903Z" fill="#F0B77F"/>
<path d="M49.4407 11.8247L50.9695 19.2943C49.4008 18.4255 45.2267 16.149 45.0136 14.3723C45.3914 13.5046 49.0872 11.6732 49.4393 11.828L49.4407 11.8247Z" fill="#FFAF5F"/>
<path d="M49.2924 22.6218C46.5508 22.6335 41.5963 25.9182 41.2268 21.9538C40.5743 14.9692 46.8177 20.5972 49.2924 22.6218Z" fill="#FFAF5F"/>
<path d="M54.3721 19.0631C54.0715 16.7024 51.949 11.341 55.5984 11.4772C61.6498 11.7028 56.099 16.8792 54.3721 19.0631Z" fill="#FFAF5F"/>
<path d="M62.1278 15.5585C66.9459 22.2903 62.4879 20.8185 57.3184 21.1483C57.5838 19.9532 61.1718 15.3271 62.1278 15.5585Z" fill="#FFAF5F"/>
<path d="M46.7132 62.3732C48.886 61.0144 57.8358 63.3542 58.9935 65.8984C60.1513 68.4427 57.2184 78.5726 54.8057 79.5376C52.4981 80.4621 43.7565 77.5534 42.7274 75.3438C41.7475 73.2415 44.8126 63.5603 46.7132 62.3732ZM47.4351 64.2444C45.8855 65.1784 43.7434 73.0008 44.5731 74.6425C45.293 76.0685 52.3726 78.4664 54.1068 77.6844C55.6607 76.9851 58.0859 68.831 57.3117 67.082C56.415 65.0632 49.397 63.0633 47.4351 64.2444Z" fill="#E76E2F"/>
<path d="M39.1913 80.2779C39.8789 80.4326 45.2131 92.034 44.97 93.0567C44.2642 96.0325 41.8461 91.9691 41.2501 90.9144C40.3996 89.4069 36.6696 82.2167 37.3898 81.1502C37.6538 80.7614 38.789 80.1881 39.1889 80.2788L39.1913 80.2779Z" fill="#F0B77F"/>
<path d="M66.2341 91.8507C59.8335 93.1398 54.6753 94.3302 48.8817 97.5131C47.6736 98.1762 46.6563 99.3219 45.4137 99.8532C42.7819 100.975 44.4514 98.5928 45.6043 97.6045C48.9623 94.7265 59.7893 90.5597 64.2053 90.7558C65.0844 90.794 66.0147 90.756 66.2365 91.8498L66.2341 91.8507Z" fill="#E76E2F"/>
<path d="M33.5611 74.393C36.5712 71.9092 38.1483 77.4373 37.0859 78.3049C34.8059 80.1669 32.1658 75.547 33.5611 74.393Z" fill="#F0B77F"/>
<path d="M33.5482 58.8634C37.5108 56.2875 36.6256 61.0941 33.4087 61.4685C31.7177 61.6645 32.2215 59.7278 33.5482 58.8634Z" fill="#E76E2F"/>
<path d="M38.7834 63.7322C39.2286 65.0651 38.9197 67.4882 37.0752 66.2581L38.7834 63.7322Z" fill="#E76E2F"/>
<path d="M47.4351 64.2443C49.397 63.0632 56.415 65.0632 57.3117 67.082C58.0883 68.83 55.6631 76.9841 54.1068 77.6843C52.3726 78.4664 45.293 76.0685 44.5731 74.6424C43.7434 73.0007 45.8855 65.1783 47.4351 64.2443ZM52.5974 67.5484C53.0152 66.6519 47.8396 63.2294 47.521 66.2766C47.3419 68.0106 52.217 68.3606 52.5974 67.5484ZM54.5421 68.4177C52.8453 67.6626 50.7416 75.6475 52.2058 76.2933C52.3377 76.35 53.3428 76.0389 53.528 75.4521C53.8479 74.4267 54.2481 71.955 54.5785 70.5658C54.7067 70.0331 55.1995 68.7103 54.543 68.4201L54.5421 68.4177Z" fill="#FCEEDB"/>
<path d="M54.5432 68.4179C55.2006 68.7104 54.7068 70.0309 54.5787 70.5636C54.246 71.9538 53.8458 74.4254 53.5282 75.4499C53.3454 76.0358 52.3388 76.3502 52.206 76.2911C50.7418 75.6453 52.8455 67.6604 54.5423 68.4155L54.5432 68.4179Z" fill="#E76E2F"/>
<path d="M52.599 67.5482C52.2186 68.3605 47.3435 68.0105 47.5226 66.2765C47.8403 63.2269 53.0168 66.6518 52.599 67.5482Z" fill="#E76E2F"/>
</g>
</svg>
