<svg width="1661" height="117" viewBox="0 0 1661 117" fill="none" xmlns="http://www.w3.org/2000/svg">
<g opacity="0.2">
<path d="M1634.72 45.4744C1653.57 39.3221 1656.05 62.4746 1643.46 71.5356C1652.92 73.839 1658.18 79.3202 1651.64 88.5172C1639.4 105.739 1591.97 115.857 1573.56 105.992C1558.65 98.0008 1569.3 86.7433 1580.22 82.3961C1575.81 76.0745 1571.32 68.135 1570.16 60.3883C1569.43 55.4834 1570.49 52.7618 1574.02 49.485C1584.46 39.8229 1614.57 33.4492 1627.97 38.3363C1631.49 39.6195 1634.13 41.4804 1634.72 45.4739L1634.72 45.4744ZM1593.47 42.9405C1587.3 44.7565 1572.22 50.2845 1572.97 58.1953C1574.33 72.6011 1585.87 89.3533 1601.25 90.2798C1627.41 91.8558 1637.37 69.5256 1632.31 46.8267C1631.4 42.7236 1628.97 41.4265 1625.2 40.516C1615.95 38.2807 1602.52 40.2829 1593.47 42.9411L1593.47 42.9405ZM1634.07 73.2377C1643.13 70.8985 1653.94 57.7448 1645.91 49.2418C1642.54 45.669 1633.11 46.0766 1635.62 52.3264C1647.8 46.7755 1647.4 60.5162 1639.66 66.3744C1636.87 68.4852 1633.07 68.5505 1634.07 73.2377ZM1635.65 65.3217C1638.84 64.6349 1642.69 60.3742 1642.54 57.076C1642.46 55.1011 1641.85 52.6962 1639.43 53.2964C1634.44 54.5342 1636.56 61.5203 1635.65 65.3217ZM1587.6 104.011C1588.59 104.364 1606.06 102.356 1608.41 101.951C1618.3 100.246 1646.6 92.2833 1650.96 82.7089C1653.59 76.9418 1644.83 74.1945 1640.46 74.0268C1638.65 73.9563 1633.65 75.6526 1632.35 76.8199C1632.08 77.0606 1630.17 80.1508 1630.18 80.3581C1630.21 81.1672 1631.74 81.4245 1632.23 82.5778C1633.32 85.138 1632.08 86.7444 1630.3 88.4653C1623.42 95.0989 1598.42 100.918 1590.05 95.7936C1585.8 93.189 1589.4 90.5152 1588.48 89.351C1588.21 89.0049 1583.23 84.9401 1582.89 84.8192C1579.63 83.6536 1567.25 93.3878 1568.95 97.9188C1569.74 100.025 1575.73 102.314 1577.85 102.842C1581.71 103.797 1585.16 103.14 1587.6 104.015L1587.6 104.011ZM1630.1 82.7437C1627.66 82.9595 1626.52 85.2141 1624.6 86.5289C1617.25 91.5542 1607.12 94.089 1598.28 92.7885C1596.44 92.517 1588.68 88.9052 1590.02 93.0462C1590.73 95.2577 1598.15 95.7978 1600.34 95.7903C1607.92 95.7601 1622.53 92.635 1628.36 87.6464C1630.12 86.142 1631.05 85.1988 1630.1 82.7443L1630.1 82.7437ZM1582.84 105.14C1581.69 105.049 1580.03 104.642 1579.04 105.127C1580.28 105.864 1581.71 105.903 1583.06 106.178C1599.5 109.504 1626.71 103.659 1640.72 94.5918L1645.36 90.9133C1643.3 91.4211 1640.93 92.6108 1639.57 94.2911C1635.1 95.2291 1628.68 98.8419 1623.78 100.316C1611.27 104.082 1595.87 106.172 1582.84 105.14Z" fill="#E76E2F"/>
<path d="M1593.11 9.81524C1593.59 11.4661 1592.53 13.0385 1592.62 14.6573C1592.93 19.9843 1599.07 21.1237 1599.9 26.5122C1600.05 27.5144 1599.64 31.144 1599.1 31.8463C1598.65 32.4423 1597.25 33.0762 1596.88 32.8511C1596.13 32.3943 1597.57 29.9152 1597.59 29.0745C1597.72 23.4376 1591.23 21.865 1590.27 16.6894C1589.87 14.5018 1590.74 10.7664 1593.11 9.81579L1593.11 9.81524Z" fill="#F0B77F"/>
<path d="M1583.53 18.33C1584.03 18.6463 1583.15 21.6651 1583.5 22.8047C1584.7 26.6831 1589.66 26.9629 1588.96 33.2853C1588.74 35.3179 1586.7 37.6027 1586.5 34.8159C1586.41 33.5053 1586.97 31.6468 1586.54 30.5313C1585.45 27.6971 1581.22 27.4591 1581.17 21.9227C1581.16 20.9034 1582.16 17.4645 1583.53 18.3274L1583.53 18.33Z" fill="#F0B77F"/>
<path d="M1605.82 13.6408C1606.35 13.972 1605.42 17.1482 1605.72 18.228C1606.34 20.4571 1609.87 21.9033 1610.48 25.3685C1610.76 26.9273 1610.38 30.5421 1608.39 30.9707C1607.81 28.9918 1608.44 26.8898 1607.64 24.9297C1606.61 22.4229 1603.76 22.0184 1603.39 17.6484C1603.29 16.4268 1604.41 12.7492 1605.82 13.6408Z" fill="#F0B77F"/>
<path d="M1593.47 42.9406C1602.52 40.2824 1615.95 38.2823 1625.21 40.5155C1628.98 41.4261 1631.4 42.7231 1632.31 46.8263C1637.37 69.5277 1627.41 91.8553 1601.26 90.2793C1585.87 89.3529 1574.33 72.6012 1572.97 58.1948C1572.22 50.2841 1587.3 44.7535 1593.47 42.9401L1593.47 42.9406ZM1627.35 46.4868C1610.81 42.8151 1591.33 46.5031 1577.85 56.8973C1576.6 56.9085 1576.94 53.7262 1575.75 54.6345C1572.94 56.7823 1576.88 59.734 1579.04 60.5414C1588.61 64.1141 1604.38 60.0421 1613.93 57.4631C1614.44 57.7799 1616.32 64.8587 1616.2 65.8273C1616.06 66.8573 1614.29 67.0307 1613.44 68.0542C1610.06 72.1257 1613.22 78.3967 1614.85 82.4626C1616.04 82.9707 1626.09 79.9716 1626.61 78.7948C1627.34 77.1493 1624.25 70.4789 1624.21 68.1116C1623.99 67.7078 1621.32 65.8456 1620.86 65.6931C1619.87 65.3597 1618.53 65.7379 1618.42 65.6734C1618.02 65.4201 1617.12 57.752 1615.92 56.4773C1619.36 55.4096 1629.02 50.962 1629.42 47.1645C1629.8 43.4946 1626.74 41.7475 1627.35 46.4868Z" fill="#FCEEDB"/>
<path d="M1587.61 104.011C1585.16 103.137 1581.71 103.796 1577.86 102.839C1575.74 102.313 1569.75 100.024 1568.96 97.9153C1567.26 93.3842 1579.63 83.6475 1582.9 84.8156C1583.24 84.9365 1588.21 89.0014 1588.48 89.3475C1589.4 90.5122 1585.8 93.186 1590.06 95.79C1598.43 100.914 1623.43 95.0954 1630.31 88.4617C1632.09 86.7434 1633.33 85.1344 1632.24 82.5742C1631.74 81.4209 1630.21 81.1642 1630.18 80.3546C1630.18 80.1478 1632.08 77.057 1632.35 76.8163C1633.65 75.6491 1638.66 73.9548 1640.47 74.0233C1644.83 74.1909 1653.6 76.9383 1650.97 82.7053C1646.6 92.2803 1618.31 100.243 1608.41 101.948C1606.06 102.352 1588.6 104.361 1587.61 104.008L1587.61 104.011Z" fill="#FCEEDB"/>
<path d="M1634.07 73.2378C1633.07 68.5506 1636.87 68.4852 1639.66 66.3745C1647.4 60.5163 1647.8 46.773 1635.62 52.3265C1633.1 46.0747 1642.54 45.6696 1645.91 49.2418C1653.94 57.747 1643.13 70.9012 1634.07 73.2378Z" fill="#FCEEDB"/>
<path d="M1630.1 82.7438C1631.05 85.1983 1630.12 86.1441 1628.36 87.6459C1622.53 92.6351 1607.92 95.7602 1600.35 95.7898C1598.15 95.7974 1590.74 95.2599 1590.02 93.0458C1588.68 88.9047 1596.44 92.5171 1598.28 92.788C1607.12 94.0911 1617.25 91.5543 1624.6 86.5284C1626.52 85.2142 1627.66 82.959 1630.11 82.7433L1630.1 82.7438Z" fill="#FCEEDB"/>
<path d="M1639.57 94.2913C1640.01 94.1997 1640.43 94.193 1640.72 94.5919C1626.71 103.66 1599.51 109.504 1583.06 106.178L1582.84 105.14C1595.87 106.173 1611.27 104.082 1623.78 100.316C1628.68 98.842 1635.1 95.2293 1639.57 94.2913Z" fill="#FCEEDB"/>
<path d="M1639.57 94.2913C1640.93 92.611 1643.3 91.4212 1645.36 90.9135L1640.72 94.5919C1640.43 94.193 1640.01 94.1997 1639.57 94.2913Z" fill="#F0B77F"/>
<path d="M1582.84 105.14L1583.06 106.178C1581.71 105.906 1580.28 105.864 1579.05 105.127C1580.03 104.642 1581.69 105.049 1582.84 105.14Z" fill="#F0B77F"/>
<path d="M1627.35 46.4867C1626.74 41.7474 1629.8 43.4945 1629.42 47.1644C1629.02 50.9619 1619.36 55.4095 1615.92 56.4772C1617.11 57.7524 1618.02 65.42 1618.42 65.6733C1618.52 65.7383 1619.87 65.3597 1620.86 65.693C1621.32 65.846 1623.99 67.7108 1624.21 68.1115C1624.25 70.4783 1627.34 77.1492 1626.61 78.7948C1626.09 79.9715 1616.04 82.9707 1614.85 82.4625C1613.22 78.3971 1610.06 72.1256 1613.44 68.0541C1614.29 67.0306 1616.06 66.8572 1616.2 65.8272C1616.32 64.8581 1614.44 57.7824 1613.93 57.463C1604.38 60.042 1588.61 64.114 1579.04 60.5413C1576.88 59.7339 1572.94 56.7822 1575.75 54.6344C1576.93 53.7235 1576.6 56.9079 1577.85 56.8972C1591.33 46.503 1610.81 42.8156 1627.35 46.4867ZM1625.5 47.9644C1609.86 45.4623 1593.1 48.845 1579.87 57.5604C1579.32 58.7353 1587.01 58.9842 1587.66 58.995C1591.1 59.0563 1603.46 58.4931 1605.7 56.7324C1606.32 56.2481 1606.17 55.1606 1606.7 54.5935C1609.9 51.1912 1612.73 54.4849 1615.6 53.8569C1618.25 53.2746 1623.93 50.2918 1625.5 47.9644ZM1611.23 54.758L1608.12 55.4118L1608.33 56.4414C1609.47 56.2286 1611.1 56.157 1611.23 54.758ZM1616.05 80.2827C1616.46 80.5516 1623.54 78.1684 1624.43 77.472C1624.6 77.0695 1622.76 70.2731 1622.43 69.4722C1620.98 65.9013 1613.38 67.8254 1614.03 73.3944C1614.3 75.6887 1616 77.8267 1616.05 80.2853L1616.05 80.2827Z" fill="#E76E2F"/>
<path d="M1625.5 47.9644C1623.93 50.2918 1618.25 53.2772 1615.6 53.8569C1612.73 54.4849 1609.9 51.1912 1606.7 54.5935C1606.17 55.1606 1606.32 56.2481 1605.7 56.7324C1603.46 58.4957 1591.1 59.0595 1587.66 58.995C1587.01 58.9842 1579.33 58.7348 1579.87 57.5604C1593.1 48.845 1609.86 45.4623 1625.5 47.9644Z" fill="#FCD3A2"/>
<path d="M1616.05 80.2828C1616 77.8241 1614.3 75.6862 1614.03 73.3918C1613.38 67.8229 1620.98 65.8988 1622.43 69.4696C1622.76 70.2705 1624.61 77.067 1624.43 77.4694C1623.54 78.1659 1616.46 80.549 1616.05 80.2802L1616.05 80.2828Z" fill="#F0B77F"/>
<path d="M1611.23 54.7581C1611.1 56.1571 1609.48 56.2287 1608.33 56.4416L1608.12 55.4093L1611.23 54.7555L1611.23 54.7581Z" fill="#FCD3A2"/>
</g>
<g opacity="0.2">
<path d="M58.3949 33.1964C59.3632 33.5539 64.3184 28.3383 70.4952 32.5037C78.211 37.7096 76.3254 47.15 71.4711 53.588C81.8249 55.7262 82.6662 64.0272 77.0231 71.7841C69.555 82.0473 54.3141 89.4132 42.162 92.1105C25.8302 95.7369 9.27103 90.9864 22.745 72.2189C18.3291 64.8952 8.27445 53.0757 14.0579 44.38C19.7134 35.8749 43.2816 25.0633 53.2835 28.4043C56.5606 29.4972 58.0599 33.0719 58.3949 33.1964ZM16.7549 55.9035C22.5404 70.2425 32.3382 80.8029 48.556 74.0145C66.0525 66.6913 64.5264 52.9501 57.3905 38.2184C55.7124 34.7504 55.2979 31.6623 51.0269 30.8233C41.8039 29.0147 20.9409 38.4016 16.2033 46.5347C14.1232 50.1062 15.3451 52.4052 16.7549 55.9035ZM65.4669 54.6756C71.7242 50.7727 75.7924 41.9818 70.2015 35.6454C67.3883 32.456 57.0649 32.8204 60.81 38.6212C67.7996 34.1577 71.7886 40.6072 68.5584 47.1393C67.1553 49.9773 63.63 51.4446 65.4681 54.6783L65.4669 54.6756ZM64.4084 48.0194C68.5354 46.8513 68.1015 37.2835 63.3094 40.2173C60.9419 41.6649 63.606 45.9105 64.4084 48.0194ZM25.3238 74.1489C11.1601 91.4669 32.0259 92.0855 44.3586 88.668C54.3836 85.8895 74.3629 76.1458 77.3603 65.2115C79.5278 57.3009 68.4921 53.3496 65.2416 58.3928C64.6835 59.2607 64.642 61.9773 64.1152 63.3239C60.9753 71.3491 52.6734 75.6913 44.7729 78.1144C37.7265 80.2753 31.0615 78.4833 25.3253 74.145L25.3238 74.1489Z" fill="#E76E2F"/>
<path d="M57.3902 38.2184C64.5222 52.9486 66.0483 66.6897 48.5557 74.0144C32.3406 80.8017 22.5401 70.2424 16.7546 55.9034C31.8681 56.7243 47.8125 49.9619 57.3902 38.2184Z" fill="#F0B77F"/>
<path d="M25.3234 74.149C31.0597 78.4872 37.7247 80.2793 44.7711 78.1183C52.6716 75.6952 60.9734 71.3531 64.1134 63.3279C64.6416 61.9774 64.6805 59.262 65.2397 58.3968C68.4903 53.3536 79.5259 57.3049 77.3585 65.2155C74.3611 76.1498 54.3818 85.8935 44.3568 88.6719C32.0241 92.0895 11.1583 91.4708 25.322 74.1529L25.3234 74.149ZM33.465 80.2912C32.8844 80.2257 32.4081 80.6643 31.9022 80.8504C33.3558 84.9126 38.4162 84.0173 41.8654 83.4372C48.9993 82.2387 57.481 78.4963 62.823 73.5634C64.1998 72.2905 68.1548 68.0903 66.7388 66.1156C65.2251 64.0034 64.7974 67.5233 64.671 67.7749C60.6497 75.5848 43.9967 83.0106 35.4428 81.5001C34.4816 81.3306 33.6901 80.3161 33.4676 80.29L33.465 80.2912Z" fill="#FCEEDB"/>
<path d="M57.3897 38.2184C47.812 49.962 31.8677 56.7243 16.7541 55.9035C15.3443 52.4052 14.1212 50.1035 16.2025 46.5347C20.9402 38.4016 41.8058 29.0135 51.0262 30.8233C55.2959 31.6596 55.7116 34.7504 57.3897 38.2184ZM52.5467 33.2956C48.4686 34.0979 44.6481 33.9052 40.5166 34.9845C34.3208 36.6028 27.8794 39.6451 22.9037 43.7091C22.0277 44.4254 16.7546 49.9206 16.8442 50.3634C17.4289 53.2254 23.9658 52.5428 25.9654 52.2048C33.716 50.8935 48.3024 44.8281 52.5226 37.9401C53.6777 36.0538 53.9012 35.4212 52.544 33.2968L52.5467 33.2956Z" fill="#FCEEDB"/>
<path d="M65.4666 54.6756C63.6297 51.4446 67.1538 49.9746 68.5569 47.1366C71.7883 40.6072 67.798 34.155 60.8084 38.6185C57.0634 32.8177 67.3841 32.4546 70.1999 35.6427C75.7909 41.9791 71.7227 50.7701 65.4654 54.673L65.4666 54.6756Z" fill="#F0B77F"/>
<path d="M33.465 80.2912C33.6875 80.3173 34.479 81.3318 35.4402 81.5013C43.9929 83.0091 60.6471 75.586 64.6684 67.7761C64.7987 67.526 65.2237 64.0073 66.7362 66.1168C68.1522 68.0915 64.1999 72.2904 62.8204 73.5646C57.4784 78.4975 48.9967 82.2399 41.8628 83.4384C38.4163 84.0173 33.352 84.9111 31.8996 80.8515C32.4082 80.6642 32.883 80.2295 33.4624 80.2924L33.465 80.2912Z" fill="#E76E2F"/>
<path d="M52.5469 33.2955C53.9041 35.42 53.6833 36.0514 52.5255 37.9389C48.3053 44.8268 33.7189 50.8923 25.9683 52.2036C23.966 52.5427 17.4291 53.2254 16.847 50.3621C16.7575 49.9194 22.0306 44.4241 22.9066 43.7079C27.8796 39.6451 34.3237 36.6015 40.5195 34.9832C44.6509 33.9039 48.4702 34.0939 52.5496 33.2943L52.5469 33.2955ZM30.2535 41.5735C28.7115 42.4443 20.3411 48.0496 21.1079 49.7205C31.4925 49.6787 43.3338 44.5828 50.1689 36.609C43.5713 35.7205 35.9938 38.3351 30.2535 41.5735Z" fill="#E76E2F"/>
<path d="M30.254 41.5735C35.9943 38.3351 43.5718 35.7206 50.1694 36.6091C43.3342 44.5828 31.493 49.6788 21.1084 49.7206C20.3415 48.0497 28.712 42.4443 30.254 41.5735Z" fill="#FCD3A2"/>
</g>
</svg>
