<svg width="1677" height="169" viewBox="0 0 1677 169" fill="none" xmlns="http://www.w3.org/2000/svg">
<g opacity="0.2">
<path d="M1635.93 67.9062C1635.78 68.0359 1635.77 68.4485 1635.65 68.554C1635.3 68.8592 1635.04 69.2556 1634.89 69.3815C1633.29 70.705 1631.48 72.6619 1630.79 69.8839C1630.7 69.5111 1630.54 67.0351 1630.46 66.2482C1630.11 62.6885 1629.23 59.6318 1634.24 60.8049C1640.09 62.1714 1637.89 64.4694 1635.93 67.9062ZM1632.38 69.8107C1634.11 67.6259 1639.66 62.4495 1633.6 62.2248C1629.95 62.0886 1632.07 67.4509 1632.38 69.8107Z" fill="#E76E2F"/>
<path d="M1613.23 73.3191C1613.29 67.3866 1616.51 61.1814 1621.85 58.3386C1642.26 47.4725 1659.05 74.797 1641.05 87.8335C1640.06 88.5485 1638.01 88.6037 1638.07 90.0007L1653.72 143.52C1655.71 151.944 1640.58 158.453 1634.19 160.423C1628.83 162.072 1620.89 163.59 1616.43 159.35C1605.62 137.073 1594.7 114.832 1584.62 92.2041C1587.98 80.609 1603.49 77.8203 1613.23 73.3177L1613.23 73.3191ZM1638.09 73.5222C1639.03 73.7013 1642.76 74.1553 1642.98 74.3199C1646.12 76.6734 1639.21 84.9946 1636.08 85.0432L1636.79 86.9082C1647.28 83.3564 1649.06 70.3149 1641.55 62.6896C1629.94 50.8973 1609.04 64.4819 1618.09 81.4308C1618.96 83.0596 1620.25 84.8883 1622.04 83.4468C1622.19 83.171 1618.09 78.9905 1619.72 77.8728C1620.88 77.0795 1628.42 74.673 1629.19 75.677C1629.59 76.1941 1629.15 77.0013 1629.61 77.3065C1630.19 76.4607 1630.52 74.261 1631.51 73.8974C1631.82 73.7843 1636.75 73.6905 1638.09 73.5199C1637.98 73.4994 1637.74 73.111 1637.34 73.0339C1636.44 72.8641 1632.06 73.6 1633.36 71.5342C1633.81 70.835 1634.27 70.4871 1634.89 69.3783C1634.93 69.3099 1635.34 69.0828 1635.65 68.5507C1635.77 68.3461 1635.82 68.1024 1635.93 67.9029C1636.74 67.2049 1639.48 64.7659 1640.16 64.9018C1642.1 65.2968 1645.37 71.4826 1642.79 73.0905C1642.27 73.4172 1640.94 72.8477 1640.05 72.9887C1639.33 73.1021 1638.62 73.4499 1638.09 73.519L1638.09 73.5222ZM1602.34 91.5598C1607.54 90.0344 1612.8 87.1905 1618.01 85.5367C1615.92 82.5848 1614.39 79.5504 1613.3 76.0649C1605.94 78.8106 1598.8 81.2828 1592.42 85.978C1588.7 88.7086 1583.7 93.0635 1591.95 93.1321C1594.73 93.1544 1599.7 92.3377 1602.34 91.5621L1602.34 91.5598ZM1640.13 66.306C1639.17 66.0754 1635.59 70.6983 1635.32 71.8958C1640.49 71.5651 1644.95 73.0378 1640.13 66.306ZM1627.44 76.544C1625.77 77.8311 1619.98 77.0905 1621.33 80.1672C1623.89 85.9852 1629.33 77.3087 1627.44 76.544ZM1635 75.2493C1634.75 75.9065 1639.37 81.3926 1640.52 80.6253C1641.03 80.2808 1642.53 76.2442 1642.06 75.5441C1641.64 74.9186 1635.13 74.9159 1635 75.2493ZM1638.81 82.3759L1633.96 76.7247L1636 83.4594L1638.81 82.3759ZM1588.66 95.7493L1618.86 158.253C1623.1 162.521 1639.33 156.016 1643.78 153.452C1647.28 151.438 1652.63 148.088 1650.95 143.451L1631.97 78.5595C1620.79 89.2601 1604.07 95.42 1588.65 95.7478L1588.66 95.7493Z" fill="#E76E2F"/>
<path d="M1588.66 95.7494C1604.07 95.4225 1620.79 89.2626 1631.97 78.5611L1650.95 143.453C1652.63 148.09 1647.28 151.441 1643.79 153.454C1639.33 156.018 1623.1 162.523 1618.86 158.255L1588.66 95.7508L1588.66 95.7494ZM1620.8 155.203C1622.86 156.245 1628.68 155.264 1630.95 154.623C1634.9 153.504 1647.96 148.549 1648.17 143.767C1643.38 125.915 1638.13 108.11 1632.69 90.4818C1632.24 89.905 1631.15 89.5631 1630.44 89.4365C1623.51 88.1952 1601.24 96.7392 1596.9 102.328C1595.09 104.662 1596.53 106.757 1597.6 109.225C1602.96 121.705 1610.03 135.489 1616.16 147.751C1617.15 149.724 1619.12 154.355 1620.8 155.204L1620.8 155.203Z" fill="#FCEEDB"/>
<path d="M1602.34 91.5598C1599.69 92.3362 1594.73 93.1544 1591.95 93.1297C1583.7 93.0626 1588.7 88.7062 1592.41 85.9757C1598.8 81.2804 1605.94 78.8073 1613.3 76.0625C1614.39 79.548 1615.92 82.5825 1618.01 85.5344C1612.8 87.1881 1607.54 90.032 1602.34 91.5574L1602.34 91.5598Z" fill="#FCEEDB"/>
<path d="M1635 75.2494C1635.13 74.916 1641.64 74.9187 1642.06 75.5441C1642.53 76.2419 1641.03 80.2809 1640.52 80.6253C1639.38 81.3926 1634.75 75.9066 1635 75.2494Z" fill="#FFAF5F"/>
<path d="M1627.44 76.544C1629.33 77.3096 1623.89 85.9852 1621.33 80.1672C1619.98 77.0905 1625.77 77.8302 1627.44 76.544Z" fill="#FFAF5F"/>
<path d="M1638.81 82.3759L1636 83.4594L1633.96 76.7247L1638.81 82.3759Z" fill="#FFAF5F"/>
<path d="M1635.64 68.5539C1635.77 68.4485 1635.78 68.0359 1635.93 67.9061C1635.82 68.1057 1635.76 68.3494 1635.64 68.5539Z" fill="#F0B77F"/>
<path d="M1624.74 69.5216C1624.45 69.2549 1624.22 69.0796 1623.92 68.7654C1624.38 68.9911 1624.58 69.429 1624.74 69.5216Z" fill="#F0B77F"/>
<path d="M1635.65 68.554C1635.34 69.0861 1634.93 69.3132 1634.89 69.3816C1635.04 69.2557 1635.3 68.8593 1635.65 68.554Z" fill="#FFAF5F"/>
<path d="M1625.39 69.8097C1625.23 69.6813 1624.89 69.6567 1624.74 69.5215C1624.94 69.6346 1625.2 69.6827 1625.39 69.8097Z" fill="#F0B77F"/>
<path d="M1628.34 71.8986C1628.11 71.82 1627.91 71.7092 1627.69 71.6104C1627.79 71.7193 1628.24 71.7371 1628.34 71.8986Z" fill="#F0B77F"/>
<path d="M1623.92 68.7653C1623.8 68.6412 1623.38 68.6211 1623.27 68.4771C1623.49 68.556 1623.7 68.6637 1623.92 68.7653Z" fill="#F0B77F"/>
<path d="M1638.09 73.5222C1636.75 73.6919 1631.82 73.7857 1631.51 73.8997C1630.52 74.2641 1630.19 76.463 1629.61 77.3088C1629.14 77.0036 1629.59 76.1964 1629.19 75.6793C1628.42 74.6729 1620.88 77.0818 1619.72 77.8751C1618.1 78.9919 1622.19 83.1733 1622.04 83.4491C1620.25 84.8906 1618.96 83.0619 1618.09 81.4331C1609.04 64.4842 1629.94 50.8996 1641.55 62.6919C1649.06 70.3204 1647.28 83.361 1636.79 86.9105L1636.07 85.0455C1639.21 84.9978 1646.12 76.6766 1642.98 74.3231C1642.76 74.1561 1639.03 73.7022 1638.09 73.5254C1638.62 73.4587 1639.33 73.1109 1640.05 72.9951C1640.94 72.8542 1642.27 73.4236 1642.79 73.097C1645.37 71.4858 1642.1 65.3023 1640.15 64.9083C1639.47 64.77 1636.73 67.2122 1635.93 67.9093C1637.88 64.4726 1640.08 62.1746 1634.24 60.8081C1629.23 59.635 1630.11 62.6893 1630.46 66.2514L1629.99 66.4312C1629.16 61.9035 1628.55 59.5078 1623.68 62.6546C1620.75 64.5482 1621.25 65.9452 1623.27 68.4803C1616.5 66.0751 1617.17 74.8303 1618.92 76.0806C1620.09 76.9136 1627.47 74.4848 1629.06 73.7729C1628.77 73.2005 1628.65 72.4177 1628.34 71.8995C1628.84 72.0726 1630.33 72.5595 1630.56 72.1181C1630.18 71.4425 1630.36 70.7378 1630.32 70.0645L1630.78 69.8847C1631.47 72.6627 1633.29 70.7058 1634.89 69.3824C1634.27 70.4903 1633.8 70.8391 1633.36 71.5383C1632.05 73.6041 1636.44 72.8673 1637.34 73.038C1637.74 73.1151 1637.98 73.5025 1638.09 73.524L1638.09 73.5222Z" fill="#FFAF5F"/>
<path d="M1626.22 70.566C1625.78 70.2876 1625.65 70.0149 1625.39 69.8098C1625.83 70.0933 1625.96 70.3525 1626.22 70.566Z" fill="#F0B77F"/>
<path d="M1626.87 70.8541C1626.66 70.741 1626.42 70.6887 1626.22 70.5659C1626.38 70.6938 1626.71 70.7151 1626.87 70.8541Z" fill="#F0B77F"/>
<path d="M1627.69 71.6105C1627.22 71.3945 1627.03 70.9459 1626.87 70.8542C1627.16 71.118 1627.38 71.2677 1627.69 71.6105Z" fill="#F0B77F"/>
<path d="M1620.8 155.203C1619.12 154.353 1617.15 149.724 1616.16 147.75C1610.04 135.488 1602.96 121.704 1597.6 109.224C1596.54 106.756 1595.09 104.661 1596.9 102.327C1601.24 96.7382 1623.51 88.1941 1630.44 89.4354C1631.15 89.563 1632.24 89.9048 1632.69 90.4807C1638.13 108.108 1643.39 125.913 1648.17 143.766C1647.96 148.548 1634.9 153.506 1630.95 154.622C1628.68 155.261 1622.86 156.244 1620.8 155.202L1620.8 155.203ZM1626.76 95.5258C1627.88 95.7548 1632.81 92.1751 1630.4 91.2566C1625.77 89.4881 1609.19 96.3059 1604.65 98.7934C1601.67 100.427 1593.07 105.715 1601.71 105.2C1603.86 105.072 1613.02 103.192 1614.07 101.821C1614.42 101.368 1614.24 100.32 1614.6 99.7274C1615.8 97.7593 1619.73 94.3032 1621.94 93.6678C1625.36 92.6887 1626.03 95.3724 1626.76 95.5235L1626.76 95.5258ZM1616.03 101.338L1622.82 98.7309C1623.33 98.5349 1624.49 97.0175 1625.68 97.0919C1623.23 92.1162 1617.51 98.4075 1616.03 101.338ZM1614.88 103.926C1609.78 105.894 1604.41 106.757 1599.02 107.344L1600.35 110.881L1620.91 152.779C1623.94 156.011 1636.94 150.79 1640.31 148.801C1642.44 147.545 1646.31 145.241 1646.1 142.456L1632.23 94.5818C1626.39 97.5533 1630.31 97.8124 1631.71 101.498C1633.05 105.01 1628.13 109.533 1625.29 111.1C1624.21 111.692 1621.46 112.044 1621.34 112.226C1620.9 112.913 1621.81 118.348 1619.17 120.002C1617.15 121.265 1608.35 121.862 1606.79 119.968C1605.41 118.281 1604.01 110.471 1605.51 108.875C1607.34 106.924 1613.11 106.354 1615.78 106.272L1614.89 103.927L1614.88 103.926ZM1620.6 107.639C1621.71 108.658 1621.59 110.426 1623.8 109.685C1625.2 109.212 1630.27 104.903 1630.23 103.586C1630.18 101.912 1628.33 97.8564 1626.3 98.6898C1623.13 99.9871 1619.97 102.684 1616.29 103.393C1616.68 104.998 1618.1 105.637 1619.13 106.597C1619.16 107.944 1618.58 107.742 1617.61 107.893C1614.83 108.331 1609.52 107.707 1607.23 109.644C1606.08 110.614 1606.86 117.478 1607.83 118.44C1608.98 119.58 1616.86 119.616 1618.04 118.751C1620.28 117.119 1619.09 109.989 1620.6 107.639Z" fill="#E76E2F"/>
<path d="M1630 66.4279C1630.15 67.2661 1630.25 69.0897 1630.32 70.0635C1630.37 70.736 1630.19 71.4407 1630.57 72.1172C1630.33 72.5586 1628.85 72.0717 1628.34 71.8985C1628.24 71.737 1627.79 71.7192 1627.69 71.6103C1627.38 71.2675 1627.16 71.1179 1626.87 70.8541C1626.71 70.7151 1626.37 70.6937 1626.22 70.5659C1625.96 70.3523 1625.83 70.0931 1625.39 69.8096C1625.2 69.6827 1624.94 69.6345 1624.74 69.5214C1624.58 69.4288 1624.38 68.9909 1623.92 68.7652C1623.7 68.6636 1623.49 68.5559 1623.27 68.477C1621.26 65.941 1620.75 64.5449 1623.68 62.6513C1628.55 59.5045 1629.16 61.9003 1630 66.4279ZM1627.44 62.5722C1627.09 62.4174 1623.4 64.2488 1623.02 65.1165C1623.23 66.8955 1627.4 69.1706 1628.97 70.0385L1627.44 62.5689L1627.44 62.5722Z" fill="#E76E2F"/>
<path d="M1623.27 68.4771C1623.38 68.6211 1623.8 68.6413 1623.91 68.7653C1624.22 69.0795 1624.44 69.2549 1624.74 69.5215C1624.89 69.6568 1625.23 69.6814 1625.39 69.8098C1625.65 70.0149 1625.77 70.2876 1626.22 70.566C1626.41 70.6888 1626.66 70.7411 1626.87 70.8542C1627.03 70.9459 1627.22 71.3945 1627.69 71.6104C1627.91 71.7093 1628.11 71.8201 1628.34 71.8987C1628.65 72.4169 1628.77 73.1974 1629.06 73.7721C1627.48 74.4817 1620.09 76.9128 1618.92 76.0798C1617.17 74.8295 1616.51 66.0743 1623.27 68.4794L1623.27 68.4771ZM1627.29 73.3694C1624.82 71.3456 1618.57 65.7176 1619.23 72.7013C1619.6 76.6658 1624.55 73.3811 1627.29 73.3694Z" fill="#E76E2F"/>
<path d="M1630.46 66.2482C1630.54 67.0351 1630.7 69.5111 1630.79 69.8839L1630.32 70.0637C1630.25 69.0898 1630.15 67.2662 1630 66.428L1630.46 66.2482Z" fill="#FFAF5F"/>
<path d="M1614.88 103.926L1615.78 106.271C1613.1 106.353 1607.34 106.921 1605.5 108.873C1604.01 110.47 1605.4 118.28 1606.79 119.966C1608.34 121.861 1617.14 121.263 1619.17 120C1621.81 118.347 1620.9 112.912 1621.34 112.225C1621.46 112.043 1624.2 111.691 1625.28 111.099C1628.13 109.531 1633.04 105.009 1631.71 101.496C1630.3 97.8111 1626.39 97.552 1632.22 94.5805L1646.09 142.454C1646.31 145.239 1642.43 147.544 1640.3 148.8C1636.93 150.788 1623.94 156.009 1620.9 152.778L1600.35 110.879L1599.01 107.342C1604.4 106.756 1609.77 105.895 1614.88 103.925L1614.88 103.926ZM1624.72 113.121C1622.82 114.308 1619.75 123.989 1620.73 126.091C1621.76 128.301 1630.5 131.21 1632.81 130.285C1635.22 129.319 1638.13 119.123 1637 116.646C1635.87 114.169 1626.89 111.762 1624.72 113.121ZM1611.56 125.141C1610.17 126.293 1612.81 130.913 1615.09 129.053C1616.15 128.185 1614.57 122.657 1611.56 125.141ZM1617.19 131.026C1616.79 130.935 1615.66 131.508 1615.4 131.897C1614.67 132.964 1618.4 140.155 1619.26 141.661C1619.85 142.716 1622.27 146.779 1622.98 143.803C1623.22 142.781 1617.88 131.179 1617.2 131.025L1617.19 131.026ZM1644.24 142.598C1644.01 141.508 1643.08 141.546 1642.21 141.504C1637.79 141.308 1626.96 145.475 1623.6 148.353C1622.45 149.34 1620.78 151.723 1623.41 150.602C1624.66 150.069 1625.67 148.925 1626.88 148.262C1632.68 145.078 1637.83 143.888 1644.23 142.599L1644.24 142.598Z" fill="#FCD3A2"/>
<path d="M1626.76 95.526C1626.03 95.3749 1625.36 92.6912 1621.94 93.6704C1619.73 94.3057 1615.8 97.7619 1614.6 99.73C1614.24 100.32 1614.42 101.37 1614.07 101.823C1613.02 103.194 1603.86 105.074 1601.71 105.202C1593.07 105.715 1601.67 100.431 1604.65 98.7959C1609.19 96.3085 1625.77 89.4907 1630.4 91.2591C1632.81 92.1753 1627.88 95.7574 1626.76 95.5284L1626.76 95.526Z" fill="#F0B77F"/>
<path d="M1619.13 106.594C1619.25 106.711 1619.93 107.021 1620.6 107.639C1619.09 109.986 1620.28 117.119 1618.04 118.751C1616.86 119.616 1608.98 119.58 1607.83 118.44C1606.86 117.478 1606.08 110.615 1607.23 109.644C1609.52 107.705 1614.83 108.331 1617.61 107.894C1618.58 107.742 1619.16 107.943 1619.13 106.597L1619.13 106.594ZM1611.55 109.611C1610.23 110.473 1609.72 112.413 1611.41 112.216C1614.63 111.843 1615.52 107.034 1611.55 109.611ZM1616.79 114.48L1615.08 117.006C1616.92 118.237 1617.23 115.813 1616.79 114.48Z" fill="#FCEEDB"/>
<path d="M1620.6 107.639C1619.93 107.021 1619.25 106.711 1619.13 106.594C1618.1 105.635 1616.68 104.996 1616.29 103.391C1619.97 102.681 1623.13 99.9839 1626.3 98.6875C1628.33 97.8565 1630.18 101.91 1630.23 103.584C1630.27 104.9 1625.2 109.21 1623.8 109.683C1621.59 110.426 1621.71 108.659 1620.6 107.637L1620.6 107.639Z" fill="#FCEEDB"/>
<path d="M1616.03 101.338C1617.51 98.4075 1623.24 92.1162 1625.68 97.0918C1624.49 97.0151 1623.33 98.5349 1622.82 98.7308L1616.03 101.338Z" fill="#F0B77F"/>
<path d="M1627.44 62.5723L1628.97 70.0419C1627.4 69.1731 1623.23 66.8965 1623.02 65.1199C1623.4 64.2522 1627.09 62.4208 1627.44 62.5755L1627.44 62.5723Z" fill="#FFAF5F"/>
<path d="M1627.3 73.3693C1624.55 73.381 1619.6 76.6658 1619.23 72.7013C1618.58 65.7167 1624.82 71.3447 1627.3 73.3693Z" fill="#FFAF5F"/>
<path d="M1632.38 69.8107C1632.08 67.45 1629.95 62.0885 1633.6 62.2248C1639.65 62.4503 1634.1 67.6268 1632.38 69.8107Z" fill="#FFAF5F"/>
<path d="M1640.13 66.3061C1644.95 73.0378 1640.49 71.566 1635.32 71.8959C1635.59 70.7007 1639.18 66.0746 1640.13 66.3061Z" fill="#FFAF5F"/>
<path d="M1624.72 113.121C1626.89 111.762 1635.84 114.102 1637 116.646C1638.16 119.19 1635.22 129.32 1632.81 130.285C1630.5 131.21 1621.76 128.301 1620.73 126.091C1619.75 123.989 1622.82 114.308 1624.72 113.121ZM1625.44 114.992C1623.89 115.926 1621.75 123.748 1622.58 125.39C1623.3 126.816 1630.38 129.214 1632.11 128.432C1633.66 127.733 1636.09 119.579 1635.32 117.83C1634.42 115.811 1627.4 113.811 1625.44 114.992Z" fill="#E76E2F"/>
<path d="M1617.2 131.025C1617.88 131.18 1623.22 142.782 1622.97 143.804C1622.27 146.78 1619.85 142.717 1619.25 141.662C1618.4 140.155 1614.67 132.964 1615.39 131.898C1615.66 131.509 1616.79 130.936 1617.19 131.026L1617.2 131.025Z" fill="#F0B77F"/>
<path d="M1644.24 142.598C1637.84 143.887 1632.68 145.078 1626.89 148.261C1625.68 148.924 1624.66 150.069 1623.42 150.601C1620.79 151.722 1622.46 149.34 1623.61 148.352C1626.97 145.474 1637.79 141.307 1642.21 141.503C1643.09 141.542 1644.02 141.504 1644.24 142.597L1644.24 142.598Z" fill="#E76E2F"/>
<path d="M1611.56 125.141C1614.58 122.657 1616.15 128.185 1615.09 129.052C1612.81 130.914 1610.17 126.295 1611.56 125.141Z" fill="#F0B77F"/>
<path d="M1611.55 109.611C1615.51 107.035 1614.63 111.842 1611.41 112.216C1609.72 112.412 1610.23 110.475 1611.55 109.611Z" fill="#E76E2F"/>
<path d="M1616.79 114.48C1617.23 115.813 1616.92 118.236 1615.08 117.006L1616.79 114.48Z" fill="#E76E2F"/>
<path d="M1625.44 114.992C1627.4 113.811 1634.42 115.811 1635.32 117.83C1636.09 119.578 1633.67 127.732 1632.11 128.432C1630.38 129.214 1623.3 126.816 1622.58 125.39C1621.75 123.748 1623.89 115.926 1625.44 114.992ZM1630.6 118.296C1631.02 117.399 1625.84 113.977 1625.52 117.024C1625.35 118.758 1630.22 119.108 1630.6 118.296ZM1632.55 119.165C1630.85 118.41 1628.75 126.395 1630.21 127.041C1630.34 127.098 1631.35 126.786 1631.53 126.2C1631.85 125.174 1632.25 122.703 1632.58 121.313C1632.71 120.781 1633.2 119.458 1632.55 119.168L1632.55 119.165Z" fill="#FCEEDB"/>
<path d="M1632.55 119.165C1633.2 119.458 1632.71 120.778 1632.58 121.311C1632.25 122.701 1631.85 125.173 1631.53 126.197C1631.35 126.783 1630.34 127.098 1630.21 127.039C1628.75 126.393 1630.85 118.408 1632.55 119.163L1632.55 119.165Z" fill="#E76E2F"/>
<path d="M1630.6 118.296C1630.22 119.108 1625.35 118.758 1625.53 117.024C1625.84 113.974 1631.02 117.399 1630.6 118.296Z" fill="#E76E2F"/>
</g>
<g opacity="0.2">
<path d="M41.0718 3.05999C43.0403 3.3707 45.9484 4.57658 47.9108 5.31237C62.7849 10.896 79.7699 17.9165 94.2829 24.424C103.243 28.4427 98.6287 32.8921 95.9487 39.7257C86.185 64.6255 75.6768 89.3016 65.2016 113.931C62.7003 116.777 59.7056 115.288 56.6824 114.129C50.904 111.913 45.2174 109.013 39.5185 106.674C28.6428 102.206 16.7036 98.0623 6.1513 93.0896C0.466593 90.4123 2.82292 86.2679 4.57505 81.6567C9.57552 68.4939 15.865 55.1489 21.2834 42.1296C26.0505 30.6787 30.3 18.2023 35.4766 7.02949C36.6003 4.6052 38.1805 2.60091 41.0726 3.05784L41.0718 3.05999ZM40.3061 5.18448C39.07 5.1319 38.1022 6.77073 37.6211 7.77575C34.3663 14.5631 31.8738 22.7944 28.9473 29.8436C21.3936 48.033 13.1904 66.2032 5.97425 84.5587C4.5137 88.2725 4.27984 89.5642 8.19905 91.3837C19.4035 96.5889 31.3997 100.721 42.8476 105.423C48.4305 107.714 53.9505 110.629 59.5927 112.75C62.5396 113.859 63.309 112.947 64.5328 110.326C66.5211 106.075 68.0793 100.713 69.9267 96.2919C78.0666 76.8035 86.4854 57.3594 94.2462 37.6856C95.0848 35.56 98.8534 29.9198 96.276 28.1125C95.4565 27.5368 92.2499 26.2605 90.9516 25.6745C76.609 19.1903 60.1495 12.5923 45.4367 6.86458C44.2088 6.38767 41.4154 5.23384 40.3053 5.18662L40.3061 5.18448Z" fill="#E76E2F"/>
<path d="M40.3067 5.18448C41.4168 5.2317 44.2102 6.38551 45.4381 6.86242C60.1509 12.5901 76.6075 19.1896 90.953 25.6724C92.2513 26.2583 95.4579 27.5347 96.2774 28.1104C98.8569 29.9184 95.0862 35.5578 94.2476 37.6835C86.4868 57.3573 78.068 76.8014 69.9281 96.2897C68.0807 100.711 66.5225 106.073 64.5342 110.324C63.3082 112.944 62.5388 113.856 59.5941 112.748C53.9527 110.624 48.4319 107.712 42.849 105.42C31.4011 100.719 19.4049 96.5868 8.20045 91.3816C4.28124 89.562 4.5151 88.2703 5.97565 84.5565C13.1932 66.2039 21.395 48.0308 28.9487 29.8415C31.8752 22.7923 34.3677 14.5609 37.6225 7.77358C38.1036 6.76857 39.0714 5.12974 40.3075 5.18232L40.3067 5.18448ZM41.3887 8.91219C40.5323 8.90526 39.3868 11.2882 39.0046 12.1274C29.488 33.0853 20.8063 56.1086 12.2747 77.6034C11.5574 79.4094 8.08397 86.1735 8.49488 87.6637L60.9645 109.604L93.4773 30.8932C93.3296 30.0379 92.781 29.7715 92.0808 29.4209C85.8442 26.3 77.8399 23.9304 71.2885 21.2137C63.03 17.7899 54.8666 13.8515 46.5339 10.6264C45.4229 10.195 42.2861 8.91896 41.3865 8.91143L41.3887 8.91219Z" fill="#F0B77F"/>
<path d="M41.3869 8.91193C42.2865 8.91946 45.4233 10.1955 46.5344 10.6269C54.8671 13.852 63.0304 17.7904 71.2889 21.2142C77.8404 23.9309 85.8446 26.3005 92.0812 29.4214C92.7814 29.772 93.3301 30.0384 93.4778 30.8937L60.9649 109.604L8.49531 87.6642C8.0815 86.1754 11.5578 79.4099 12.2751 77.6039C20.8082 56.112 29.4885 33.0858 39.005 12.1279C39.388 11.2865 40.5306 8.90501 41.3891 8.91268L41.3869 8.91193ZM10.0552 86.7268L60.5651 107.288L91.6217 31.4356L41.3941 10.7777L10.0552 86.7268Z" fill="#E76E2F"/>
<path d="M10.0572 86.7273L41.3962 10.7782L91.6237 31.4361L60.5671 107.288L10.0572 86.7273ZM52.1614 24.193C52.4342 22.6446 51.9363 20.5327 50.1996 20.1315C49.5367 21.4569 46.6865 26.1457 46.9851 27.225C47.7243 29.8894 49.9868 25.8546 50.1386 24.4522C50.9528 24.9947 50.3848 26.4835 51.4525 26.8731C52.7095 27.3288 53.0852 25.6788 53.9997 25.8026C53.6723 26.7888 51.9189 30.1252 54.1552 30.194C55.0646 30.2218 58.4885 22.8466 55.9007 22.6721C54.6917 22.5904 52.6361 25.0996 52.1621 24.1908L52.1614 24.193ZM64.0813 25.9528C63.9483 25.5806 60.1071 23.6482 59.1389 24.2105C58.0435 24.8466 55.8254 30.4198 56.425 31.2519C56.9124 31.9288 60.8369 33.7261 61.533 33.2523C62.8052 32.3859 59.2222 30.0248 58.2627 30.1822L58.7118 28.8957C63.5399 31.2281 63.9006 28.7715 59.3942 26.9617C60.6438 25.3103 62.0257 26.9005 63.6417 27.233C63.7068 26.8599 64.1403 26.1086 64.0835 25.9536L64.0813 25.9528ZM67.9053 31.6177C67.4841 30.8962 67.8955 26.1041 65.7226 26.7382C65.2632 26.8723 62.4772 33.2634 62.5871 33.6396C63.4353 36.5375 65.7263 31.972 65.9578 30.9426C66.3462 31.8892 66.8075 37.1669 68.6914 36.2413C68.8865 36.1453 70.3215 32.9125 70.5625 32.3257C71.1901 30.7974 72.1901 28.8729 69.9599 28.4757C69.69 28.6059 68.8777 33.2822 67.906 31.6155L67.9053 31.6177ZM74.7111 36.8464C74.2629 36.9627 73.0763 36.3746 72.915 35.8139C72.5823 34.6455 75.6399 30.0194 73.6181 29.7576C72.6187 29.6284 71.2869 33.9615 71.1245 34.8896C70.6979 37.3207 72.3949 38.6372 74.7274 38.7347C77.0598 38.8321 80.7164 30.8455 77.5533 31.6141C76.8334 31.79 75.5281 36.6345 74.709 36.8457L74.7111 36.8464ZM80.3947 44.1911L40.2912 27.7771C39.8074 28.7691 39.7687 29.3083 40.7641 29.8706C53.864 35.0014 66.7467 40.7684 79.7954 45.9078C79.8701 45.4657 80.4618 44.3376 80.3947 44.1911ZM36.9838 37.2372L49.7898 42.7192C52.3411 43.3854 51.9889 41.4161 50.0845 40.3965L37.8356 35.599C37.391 35.5041 36.9453 37.1538 36.9838 37.2372ZM69.4988 50.5193C71.6431 49.4625 66.4133 46.5603 65.5751 47.9524C64.737 49.3444 69.2746 50.6293 69.4988 50.5193ZM76.6594 53.5018C76.7936 53.4352 77.0508 52.5258 76.9283 52.1234C76.6944 51.3563 71.9175 49.1191 72.6908 51.665C72.9068 52.3728 76.4585 53.6006 76.6586 53.5039L76.6594 53.5018ZM57.1349 48.6213L37.1436 40.1724C35.5926 39.5223 34.4836 40.8608 36.1303 41.7688C40.7594 44.3188 47.5265 46.5075 52.593 48.4887C54.1933 49.1149 56.3219 51.5789 57.1342 48.6235L57.1349 48.6213ZM67.9945 54.8212C70.2608 53.7056 64.459 50.7486 63.6408 52.1042C62.8175 53.4676 67.7493 54.9432 67.9945 54.8212ZM75.1551 57.8037C77.4214 56.6882 71.6196 53.7311 70.8014 55.0867C69.9781 56.4501 74.9099 57.9257 75.1551 57.8037ZM48.7308 51.9578L48.9998 50.5794C45.4584 48.3825 41.182 47.0609 37.2312 45.5321C36.3515 45.1912 34.907 43.5453 33.9285 44.6277C33.6372 44.9507 33.314 45.7382 34.0473 45.9942C38.8013 48.1727 43.7104 50.3282 48.7301 51.9599L48.7308 51.9578ZM66.4282 57.7257C65.8864 55.0072 56.662 56.3678 65.9165 59.4055C66.0213 58.8773 66.5216 58.1976 66.4282 57.7257ZM68.9957 60.425C69.1696 60.9081 73.6775 63.3217 73.8761 61.4675C74.0107 60.2111 70.5797 58.9627 69.5226 58.736C69.4406 59.2335 68.8718 60.0752 68.9965 60.4228L68.9957 60.425ZM51.5526 56.3267C49.0674 55.6787 33.0018 48.0837 32.0665 48.5585C31.9141 48.6357 31.586 49.5758 31.8569 49.9745C32.6076 51.0717 36.6402 51.9654 38.1264 52.6073C39.7815 53.3251 50.285 58.3821 50.9511 58.0427C51.0948 57.9697 51.3338 56.7185 51.5505 56.3259L51.5526 56.3267ZM59.8348 61.6243C59.9822 62.1489 64.6038 64.4646 64.7826 62.6396C64.9619 60.8269 59.2341 59.5031 59.8348 61.6243ZM72.1743 64.974C72.0551 64.7006 67.1529 61.7994 67.0727 64.3925C67.0395 65.4549 70.8018 66.7152 71.5227 66.2187C71.8661 65.9814 72.2364 65.1139 72.1743 64.974ZM44.0072 59.9605C45.2522 59.1304 41.8706 57.3537 41.3747 57.1227C39.2494 56.1346 33.677 53.6678 31.6277 53.2083C29.8714 52.8148 29.0185 53.6272 30.6123 54.8039C32.5391 55.3655 43.2218 60.4828 44.008 59.9583L44.0072 59.9605ZM62.4779 67.8593C63.7097 65.4365 60.4818 65.3957 58.7768 64.6412C57.0738 67.2735 60.4969 66.8105 62.4779 67.8593ZM69.6386 70.8418C70.8703 68.419 67.6424 68.3782 65.9374 67.6237C64.2344 70.2561 67.6575 69.793 69.6386 70.8418ZM40.8734 67.5552C41.3161 66.6671 40.6984 65.7418 39.9552 65.3207C36.0151 64.563 32.2182 61.647 28.4939 60.803C26.6005 60.3737 25.9272 61.5216 27.4864 62.3966C30.2055 63.9227 33.4498 64.8767 36.3535 65.9845C37.835 66.55 38.8662 67.8802 40.8755 67.5559L40.8734 67.5552ZM59.3441 75.454C60.5759 73.0312 57.348 72.9904 55.643 72.2359C53.94 74.8682 57.3631 74.4052 59.3441 75.454ZM63.0663 75.3849C59.7969 75.2765 65.4642 79.7241 66.5806 78.2192C67.8094 76.5581 64.2607 75.4254 63.0663 75.3849ZM46.5502 73.4059L25.4984 64.6085L24.8991 66.3252C31.8282 69.0242 38.588 72.4364 45.6051 74.7727C46.1512 74.763 46.6427 73.5902 46.5502 73.4059ZM57.4141 79.6073C59.5585 78.5505 54.3286 75.6483 53.4905 77.0404C52.6523 78.4324 57.19 79.7173 57.4141 79.6073ZM64.5747 82.5898C64.709 82.5232 64.9662 81.6138 64.8437 81.2114C64.6097 80.4443 59.8328 78.207 60.6061 80.753C60.8222 81.4608 64.3738 82.6886 64.574 82.5919L64.5747 82.5898ZM40.2985 77.4937C40.7785 76.5197 40.8234 75.9489 39.8285 75.3988C35.0676 74.0143 29.7546 70.3276 25.0618 69.259C23.3078 68.859 22.4503 69.6844 24.0456 70.8568L40.3007 77.4945L40.2985 77.4937ZM51.6826 82.3779C51.8704 82.8972 56.2042 85.3394 56.281 82.8392C56.3174 81.65 53.1311 81.1241 52.2087 80.6911C52.1267 81.1886 51.5557 82.0295 51.6826 82.3779ZM63.0705 86.8917C65.3367 85.7762 59.535 82.8191 58.7168 84.1747C57.8986 85.5303 62.8253 87.0137 63.0705 86.8917ZM27.484 76.8866C26.0883 75.9094 24.8428 77.6878 23.7965 77.7618C22.6046 77.8453 21.2059 76.7247 20.2005 77.718C17.2218 80.6605 18.8154 85.9353 23.3268 86.4386C23.9489 86.5086 28.7211 85.4425 29.104 85.0572C30.7717 83.3828 29.5317 81.6972 28.0763 80.3589C27.5096 79.8401 26.2192 79.4041 26.1593 79.3132C26.081 79.1989 27.6443 77.7197 27.4862 76.8874L27.484 76.8866ZM35.5915 83.68C32.6597 83.3371 29.3845 88.5727 33.5464 90.5953C36.3306 91.9486 40.658 93.7321 42.216 89.9533C43.774 86.1746 38.5773 84.0273 35.5894 83.6793L35.5915 83.68ZM53.7016 90C52.9979 89.2861 47.4991 90.5402 46.9163 91.657C46.2394 92.9532 47.5701 96.162 48.7517 96.8472C51.6622 98.5295 56.581 99.9666 58.5849 96.4377C60.4876 93.0882 55.7057 92.6063 53.976 91.1143C53.5419 90.7407 53.7698 90.0672 53.7016 90Z" fill="#FCEEDB"/>
<path d="M80.394 44.1908C80.4603 44.3395 79.8694 45.4654 79.7947 45.9076C66.7482 40.7689 53.8641 34.999 40.7634 29.8704C39.7658 29.3073 39.8045 28.7681 40.2905 27.7769L80.394 44.1908Z" fill="#E76E2F"/>
<path d="M53.7008 89.9998C53.7668 90.0663 53.539 90.7398 53.9752 91.1141C55.7057 92.604 60.4875 93.0859 58.5841 96.4375C56.5802 99.9665 51.6636 98.5301 48.7509 96.8471C47.5664 96.1632 46.2386 92.9531 46.9155 91.6568C47.4983 90.5401 52.995 89.2852 53.7008 89.9998ZM49.4042 95.6391L55.4249 97.7409C55.6892 97.184 55.7312 96.366 56.0585 95.8913C56.4829 95.2768 59.8861 95.555 55.0579 93.2709L55.1642 95.7167C54.2555 95.1895 52.6185 95.5738 51.8637 95.0134C50.7197 94.1651 52.5349 91.9918 51.98 91.7088C49.5886 90.495 50.3618 94.3056 49.4042 95.6391ZM54.1935 92.9691L53.3378 92.6703L52.8886 93.9568L53.7444 94.2556L54.1935 92.9691ZM49.1626 92.1782L48.3068 91.8794L47.7075 93.5962L48.5633 93.895L49.1626 92.1782Z" fill="#E76E2F"/>
<path d="M27.4825 76.8861C27.6406 77.7185 26.0773 79.1977 26.1556 79.3119C26.2155 79.4029 27.5088 79.8374 28.0726 80.3577C29.528 81.696 30.7702 83.3823 29.1004 85.056C28.7174 85.4412 23.9452 86.5074 23.3231 86.4374C18.8117 85.9341 17.2181 80.6592 20.1969 77.7168C21.2022 76.7234 22.601 77.8441 23.7928 77.7606C24.8391 77.6866 26.0847 75.9082 27.4804 76.8854L27.4825 76.8861ZM26.995 81.0603C24.3401 80.3941 19.9263 77.1445 20.2859 81.974C20.4217 83.8098 22.498 85.4567 24.3378 84.996C25.0643 84.8151 27.1491 81.3723 26.995 81.0603ZM28.6903 83.1003L27.8346 82.8015L27.3854 84.088L28.2412 84.3868L28.6903 83.1003Z" fill="#E76E2F"/>
<path d="M52.1595 24.1925C52.6364 25.1 54.6913 22.5929 55.8981 22.6739C58.4859 22.8484 55.062 30.2236 54.1526 30.1957C51.9163 30.127 53.6697 26.7906 53.9971 25.8043C53.0834 25.6784 52.709 27.3313 51.4499 26.8749C50.3793 26.4866 50.9502 24.9964 50.136 24.454C49.9842 25.8563 47.7217 29.8911 46.9825 27.2268C46.6839 26.1474 49.5341 21.4586 50.197 20.1333C51.9345 20.5323 52.4294 22.6456 52.1588 24.1947L52.1595 24.1925Z" fill="#E76E2F"/>
<path d="M57.1335 48.621C56.3191 51.5757 54.1926 49.1124 52.5923 48.4862C47.5251 46.5072 40.7587 44.3164 36.1296 41.7663C34.4829 40.8584 35.5912 39.522 37.1429 40.1699L57.1342 48.6188L57.1335 48.621Z" fill="#E76E2F"/>
<path d="M46.5498 73.4058C46.6423 73.5902 46.1508 74.7629 45.6047 74.7726C38.5876 72.4363 31.83 69.0249 24.8987 66.3252L25.498 64.6084L46.5498 73.4058Z" fill="#E76E2F"/>
<path d="M67.9046 31.6174C68.8763 33.2841 69.6879 28.61 69.9585 28.4776C72.1894 28.8727 71.1895 30.7972 70.5611 32.3276C70.3201 32.9144 68.8851 36.1472 68.69 36.2432C66.8061 37.1688 66.3448 31.8911 65.9564 30.9445C65.7235 31.971 63.4347 36.5373 62.5857 33.6415C62.4737 33.2645 65.2619 26.8742 65.7212 26.7401C67.8941 26.1061 67.4827 30.8981 67.9039 31.6196L67.9046 31.6174Z" fill="#E76E2F"/>
<path d="M51.5513 56.3267C51.3346 56.7193 51.0956 57.9706 50.952 58.0435C50.2859 58.383 39.7823 53.3259 38.1272 52.6081C36.6396 51.9633 32.6092 51.0704 31.8577 49.9753C31.5861 49.5788 31.9128 48.6357 32.0674 48.5594C33.0026 48.0846 49.0682 55.6795 51.5535 56.3275L51.5513 56.3267Z" fill="#E76E2F"/>
<path d="M35.5911 83.6799C38.5762 84.0293 43.8474 85.9974 42.2177 89.9539C40.5881 93.9103 36.3331 91.947 33.5482 90.5959C29.3863 88.5733 32.6614 83.3377 35.5933 83.6806L35.5911 83.6799ZM39.8139 91.3255C41.7261 87.4097 40.7981 86.3713 36.7808 85.413C32.5641 84.4043 32.5031 88.7732 33.5782 89.1486L39.8139 91.3255Z" fill="#E76E2F"/>
<path d="M40.2969 77.4935L24.0419 70.8558C22.4465 69.6834 23.304 68.858 25.058 69.258C29.7522 70.3295 35.063 74.0155 39.8248 75.3978C40.8196 75.9479 40.7747 76.5187 40.2948 77.4927L40.2969 77.4935Z" fill="#E76E2F"/>
<path d="M64.0805 25.9526C64.1366 26.1097 63.7038 26.8589 63.6387 27.232C62.0249 26.9003 60.6408 25.3093 59.3913 26.9608C63.9006 28.7691 63.5377 31.2249 58.711 28.8955L58.2619 30.182C59.2222 30.0224 62.8044 32.3857 61.5322 33.2521C60.8361 33.7259 56.9116 31.9286 56.4242 31.2516C55.8246 30.4196 58.0428 24.8464 59.1381 24.2102C60.1063 23.648 63.9483 25.5782 64.0805 25.9526Z" fill="#E76E2F"/>
<path d="M74.7104 36.8459C75.5274 36.6339 76.8334 31.7873 77.5547 31.6144C80.7178 30.8457 77.1304 38.8348 74.7288 38.7349C72.3272 38.635 70.6994 37.321 71.1259 34.8898C71.289 33.9596 72.6201 29.6286 73.6195 29.7579C75.6413 30.0196 72.5845 34.6436 72.9164 35.8142C73.0755 36.3741 74.2614 36.9643 74.7125 36.8467L74.7104 36.8459Z" fill="#E76E2F"/>
<path d="M48.7304 51.9574C43.7115 50.3235 38.8015 48.1702 34.0476 45.9916C33.3143 45.7356 33.6375 44.9482 33.9288 44.6251C34.9073 43.5427 36.354 45.1894 37.2315 45.5295C41.1815 47.0605 45.4579 48.3821 49.0001 50.5769L48.7311 51.9553L48.7304 51.9574Z" fill="#E76E2F"/>
<path d="M36.9823 37.2372C36.9438 37.1538 37.3895 35.5041 37.8341 35.5989L50.083 40.3964C51.9874 41.416 52.3396 43.3853 49.7883 42.7192L36.9823 37.2372Z" fill="#E76E2F"/>
<path d="M40.8722 67.5548C38.8629 67.8791 37.831 66.551 36.3502 65.9833C33.4487 64.8763 30.2043 63.9222 27.4831 62.3954C25.9239 61.5204 26.5972 60.3725 28.4906 60.8018C32.2148 61.6458 36.0118 64.5619 39.9519 65.3195C40.695 65.7407 41.3135 66.6638 40.87 67.554L40.8722 67.5548Z" fill="#E76E2F"/>
<path d="M44.0053 59.96C43.2199 60.4823 32.5393 55.3658 30.6096 54.8056C29.0144 53.626 29.8674 52.8136 31.6251 53.21C33.6743 53.6695 39.2468 56.1363 41.372 57.1244C41.8679 57.3554 45.2496 59.1321 44.0045 59.9622L44.0053 59.96Z" fill="#E76E2F"/>
<path d="M72.1739 64.9736C72.236 65.1136 71.8678 65.9818 71.5223 66.2184C70.8013 66.7149 67.0391 65.4546 67.0722 64.3921C67.1525 61.7991 72.0546 64.7003 72.1739 64.9736Z" fill="#E76E2F"/>
<path d="M68.9957 60.4247C68.8689 60.0763 69.4406 59.2333 69.5219 58.7379C70.5811 58.9653 74.0121 60.2138 73.8754 61.4693C73.6746 63.3228 69.1688 60.9099 68.9949 60.4269L68.9957 60.4247Z" fill="#E76E2F"/>
<path d="M66.426 57.7253C66.5194 58.1972 66.0191 58.8769 65.9143 59.4051C56.6591 56.3695 65.8843 55.0068 66.426 57.7253Z" fill="#E76E2F"/>
<path d="M51.6815 82.3779C51.5547 82.0295 52.1256 81.1886 52.2077 80.691C53.1321 81.1248 56.3164 81.65 56.2799 82.8392C56.2024 85.3415 51.8693 82.8972 51.6815 82.3779Z" fill="#E76E2F"/>
<path d="M63.065 75.3849C64.2573 75.4246 67.8081 76.558 66.5793 78.2191C65.4621 79.7262 59.7977 75.2772 63.065 75.3849Z" fill="#E76E2F"/>
<path d="M59.8344 61.624C59.2337 59.5028 64.9615 60.8266 64.7822 62.6393C64.6013 64.4635 59.9818 62.1485 59.8344 61.624Z" fill="#E76E2F"/>
<path d="M67.995 54.8212C67.7498 54.9432 62.818 53.4676 63.6413 52.1042C64.4595 50.7486 70.2613 53.7057 67.995 54.8212Z" fill="#E76E2F"/>
<path d="M75.1532 57.8034C74.908 57.9253 69.9762 56.4498 70.7995 55.0864C71.6177 53.7308 77.4195 56.6878 75.1532 57.8034Z" fill="#E76E2F"/>
<path d="M63.0699 86.8914C62.8247 87.0134 57.8928 85.5378 58.7162 84.1744C59.5395 82.811 65.3361 85.7759 63.0699 86.8914Z" fill="#E76E2F"/>
<path d="M62.4772 67.8595C60.4962 66.8107 57.0731 67.2737 58.7761 64.6414C60.4811 65.3959 63.709 65.4367 62.4772 67.8595Z" fill="#E76E2F"/>
<path d="M69.6374 70.8414C67.6563 69.7926 64.2332 70.2557 65.9362 67.6233C67.6412 68.3778 70.8691 68.4186 69.6374 70.8414Z" fill="#E76E2F"/>
<path d="M59.3424 75.4537C57.3614 74.4049 53.9383 74.868 55.6413 72.2356C57.3463 72.9901 60.5742 73.0309 59.3424 75.4537Z" fill="#E76E2F"/>
<path d="M64.5738 82.5898C64.3728 82.6886 60.822 81.4586 60.6059 80.7508C59.8297 78.2063 64.6095 80.4421 64.8435 81.2093C64.9652 81.6138 64.7087 82.5211 64.5745 82.5876L64.5738 82.5898Z" fill="#E76E2F"/>
<path d="M76.6597 53.5016C76.4588 53.6004 72.9079 52.3705 72.6918 51.6627C71.9157 49.1182 76.6955 51.354 76.9294 52.1211C77.0511 52.5256 76.7947 53.4329 76.6605 53.4995L76.6597 53.5016Z" fill="#E76E2F"/>
<path d="M69.4987 50.5191C69.2746 50.6291 64.762 49.2999 65.575 47.9522C66.3881 46.6045 71.6452 49.4631 69.4987 50.5191Z" fill="#E76E2F"/>
<path d="M57.4128 79.607C57.1886 79.717 52.6761 78.3878 53.4891 77.0401C54.3021 75.6924 59.5593 78.551 57.4128 79.607Z" fill="#E76E2F"/>
<path d="M49.4036 95.639C50.3613 94.3055 49.588 90.4949 51.9795 91.7087C52.533 91.9888 50.7191 94.165 51.8631 95.0133C52.6201 95.5744 54.2571 95.1901 55.1637 95.7166L55.0574 93.2708C59.8834 95.5541 56.4803 95.276 56.058 95.8912C55.7307 96.3659 55.6887 97.1839 55.4243 97.7408L49.4036 95.639Z" fill="#FCEEDB"/>
<path d="M49.1624 92.1782L48.3066 91.8794L47.7073 93.5962L48.5631 93.8949L49.1624 92.1782Z" fill="#F0B77F"/>
<path d="M54.1937 92.9692L53.3379 92.6704L52.8888 93.9569L53.7446 94.2557L54.1937 92.9692Z" fill="#F0B77F"/>
<path d="M26.996 81.0603C27.1493 81.3745 25.0674 84.8159 24.3387 84.996C22.4968 85.4559 20.4227 83.8099 20.2868 81.974C19.9272 77.1445 24.341 80.3941 26.996 81.0603Z" fill="#FCEEDB"/>
<path d="M28.6917 83.1005L27.8359 82.8018L27.3868 84.0883L28.2426 84.387L28.6917 83.1005Z" fill="#F0B77F"/>
<path d="M39.8135 91.3255L33.5778 89.1486C32.5005 88.7725 32.5636 84.4043 36.7804 85.413C40.799 86.3743 41.7249 87.4119 39.8135 91.3255ZM34.8266 87.6513C35.8032 87.4589 40.0049 90.7286 40.2052 88.8146C40.315 87.7813 34.692 84.8167 34.8266 87.6513Z" fill="#FCEEDB"/>
<path d="M34.8271 87.6511C34.6926 84.8165 40.3156 87.7812 40.2057 88.8144C40.0055 90.7285 35.803 87.4608 34.8271 87.6511Z" fill="#E76E2F"/>
</g>
</svg>
