<svg width="1701" height="131" viewBox="0 0 1701 131" fill="none" xmlns="http://www.w3.org/2000/svg">
<g opacity="0.2">
<path d="M1662.47 83.7766C1662.51 84.6634 1674.52 93.024 1676.07 95.1619C1677.82 97.5681 1676.07 105.093 1673.66 106.664C1672.83 107.202 1671.64 106.886 1670.82 107.621C1670.08 108.288 1669.96 109.355 1668.91 110.194C1666.6 112.035 1661.19 110.427 1659.19 108.564C1658.2 107.644 1658.11 106.16 1656.74 105.908L1629.98 103.825C1627.13 110.835 1613.92 106.523 1615.94 99.005C1612.61 97.3605 1603.8 88.2639 1600.93 87.786C1600.17 87.6601 1599.14 88.2827 1598.19 88.2582C1595.59 88.1937 1591.12 86.2763 1590.84 83.3827C1590.72 82.1226 1591.27 80.9119 1591.11 79.8462C1590.64 76.7644 1589.05 77.356 1590.09 72.1645C1594.13 52.0352 1602.36 31.384 1606.77 11.1794C1609.36 4.43452 1614.82 6.18458 1620.56 7.05136C1624.95 7.7134 1629.33 8.93322 1633.7 9.6778C1642.47 11.169 1657.36 12.4066 1665.12 15.394C1669.61 17.1208 1684.56 27.1528 1688.75 30.4402C1690.77 32.0219 1692.26 33.0879 1692.52 35.7982C1692.86 39.2571 1689.45 50.9507 1687.57 54.0516C1684.72 58.7678 1676.24 53.9263 1674.7 54.8535C1674.38 55.0426 1673.91 57.2312 1674.33 57.8416C1675.83 60.0591 1683.35 59.5522 1685.5 64.2285C1686.99 67.4793 1685.52 68.8893 1685.26 71.5006C1684.96 74.5753 1685.96 81.5296 1684.9 83.5692C1683.22 86.8287 1677.55 85.3454 1678 81.289C1678.35 78.1147 1680.07 75.031 1680.05 71.4793C1680.01 64.1801 1675.9 65.5963 1670.97 62.7637C1669.9 62.1481 1668.73 59.9573 1668.11 61.39C1666.16 65.8894 1669.46 65.5824 1672.26 67.6649C1679.53 73.0592 1671.14 82.1157 1664.6 75.9855L1662.47 83.7744L1662.47 83.7766ZM1609.19 79.8554C1608.77 78.903 1609.38 75.3563 1609.63 74.1529C1611.44 65.4446 1615.02 51.6659 1618.03 43.4057C1621.04 35.1299 1628.8 46.837 1634.13 46.6195L1683.79 54.0126C1685.28 53.8951 1686.28 52.0151 1686.8 50.7221C1687.9 47.9404 1689.73 41.213 1690.2 38.2576C1690.86 34.0228 1688.76 33.1998 1685.72 31.0496C1679.32 26.5262 1666.85 17.956 1659.63 16.2886C1647.27 13.4338 1632.17 11.1156 1619.51 9.15814C1617.34 8.82278 1613.33 7.91701 1611.45 8.85386C1609.46 9.84209 1608.04 13.9655 1607.32 16.0906C1601.03 34.6412 1598.04 54.9423 1592.08 73.6615L1592.02 77.4521C1601.51 85.1616 1611.14 92.785 1621.06 99.9283L1624.58 100.946L1670.9 105.128C1673.62 106.053 1675.01 98.1609 1674.52 97.5466C1674.27 97.2346 1673.87 97.1293 1673.49 97.0908L1624.98 92.4258C1621.87 90.8926 1619.2 88.5319 1616.5 86.375C1615.16 85.3009 1609.66 80.9456 1609.19 79.8554ZM1678.52 63.5242C1678.65 63.4475 1678.84 62.511 1678.69 62.1132C1678.28 61.0429 1674.28 61.049 1672.79 59.1002C1671.29 57.1515 1672.95 56.0372 1672.58 54.7123C1672.35 53.9342 1670.82 54.0669 1670.6 54.2682C1669.65 55.1432 1669.92 59.1233 1670.82 60.2254C1671.72 61.3276 1677.86 63.9107 1678.51 63.5264L1678.52 63.5242ZM1668.21 54.0165C1667.29 53.8833 1661.71 52.4654 1661.41 52.6369C1661.05 52.8434 1659.79 59.2543 1656.41 58.6871L1665.53 63.8083L1668.21 54.0165ZM1659.07 52.4759L1638.72 49.3887C1637.58 49.2077 1637.56 51.6942 1638.01 52.0016C1638.64 52.4326 1642.14 53.9849 1643.04 54.3091C1645.85 55.3217 1654.78 57.7479 1657.33 56.3351C1658.69 55.5731 1658.61 53.7984 1659.07 52.4753L1659.07 52.4759ZM1620.69 42.4773L1611.09 77.6387L1660.14 83.3126C1660.48 81.2012 1663.17 75.4524 1662.01 73.8954C1661.63 73.3733 1652.48 65.9689 1651.85 65.8043C1651.45 65.7001 1651.05 68.982 1648.01 67.6505C1646.81 67.1233 1647.04 65.3739 1644.36 65.1922C1642.84 65.088 1642.17 67.7037 1639.57 66.0849C1636.6 64.2402 1639.89 61.0576 1639.63 60.5821C1639.59 60.509 1638.63 60.2439 1638.2 59.7192C1636.64 57.8273 1637.71 55.8654 1637.49 54.1007C1637.38 53.1727 1636.22 52.6956 1635.93 51.6134C1635.67 50.624 1636.16 49.1856 1636.1 49.0735C1635.96 48.8248 1631.81 48.4857 1630.48 47.9664C1627.13 46.6573 1624.4 43.1238 1620.69 42.4801L1620.69 42.4773ZM1683.65 69.236C1686.44 66.0835 1679.87 60.0182 1679.67 64.4862C1679.65 64.7557 1680.97 65.8953 1681.29 66.6464C1681.98 68.2875 1680.69 68.9161 1683.65 69.2354L1683.65 69.236ZM1649.88 58.1006L1641.21 55.7322C1640.98 55.6708 1640.47 54.7717 1639.77 54.8648C1637.42 59.0421 1643.59 61.1302 1646.8 61.5859C1649.24 61.9314 1648.63 59.7655 1649.88 58.1006ZM1652.87 59.3975C1649.87 58.0969 1650.06 63.3216 1651.79 61.6485C1652.01 61.4323 1652.94 59.5064 1652.87 59.3975ZM1670.22 69.3946C1670.75 70.3472 1666.92 72.1655 1667.86 74.6877C1669.19 78.2485 1675.14 73.7268 1671.77 70.2001C1669.88 68.2268 1659.95 62.5828 1657.23 61.5917C1654.01 60.4196 1651.99 62.3176 1654.07 64.9096C1655.05 66.1202 1663.42 72.7112 1665 73.6925C1665.96 74.286 1666.11 72.0423 1666.58 71.2321C1667.05 70.4219 1669.54 68.1612 1670.22 69.3924L1670.22 69.3946ZM1683.57 71.1525C1683.37 70.9407 1682.65 70.9353 1682.28 70.7689C1682.38 73.3471 1679.27 80.9845 1680.21 82.6522C1680.75 83.5959 1681.94 83.7417 1682.77 83.1412C1684.45 81.9259 1682.98 78.9704 1683.01 77.3045C1683.02 76.3049 1683.9 71.5117 1683.57 71.1547L1683.57 71.1525ZM1650.21 63.9302C1648.42 63.0179 1646.25 63.2561 1644.52 62.8565C1643.25 62.5605 1640.1 59.8753 1640.27 63.7776C1640.37 66.1733 1642.55 63.5131 1643.04 63.3764C1644.07 63.0875 1646.5 63.6527 1647.4 64.2165C1648.47 64.88 1648.92 68.0029 1650.2 63.9296L1650.21 63.9302ZM1672.24 95.2855C1672.28 94.6424 1671.75 94.1565 1671.34 93.7336C1670.08 92.4317 1661.23 85.552 1659.94 85.1941C1644.07 83.5121 1628.2 81.1685 1612.32 80.1262L1625.11 90.399L1672.24 95.2855ZM1598.71 86.2084C1598.62 84.934 1593.76 81.5265 1593.21 81.8448C1593.03 81.949 1592.82 83.2438 1592.94 83.6879C1593.27 84.9093 1597.28 86.6535 1598.71 86.2078L1598.71 86.2084ZM1668.51 107.187C1667.46 106.919 1660.74 105.915 1660.53 106.681C1662 108.975 1667.66 110.533 1668.51 107.187ZM1627.42 103.621C1623.82 103.165 1621.89 102.349 1618.76 100.862C1617.37 100.202 1618.12 102.655 1618.91 103.41C1620.49 104.925 1626.73 106.747 1627.42 103.621Z" fill="#E76E2F"/>
<path d="M1609.19 79.8552C1609.66 80.9482 1615.16 85.3006 1616.5 86.3747C1619.2 88.5339 1621.87 90.8923 1624.97 92.4255L1673.49 97.0906C1673.87 97.1285 1674.27 97.2315 1674.52 97.5463C1675.01 98.1607 1673.62 106.053 1670.9 105.128L1624.58 100.945L1621.05 99.9281C1611.14 92.7854 1601.51 85.1614 1592.02 77.4519L1592.08 73.6613C1598.04 54.9392 1601.03 34.6409 1607.32 16.0903C1608.04 13.9647 1609.46 9.84185 1611.45 8.85362C1613.33 7.91737 1617.34 8.82314 1619.51 9.1579C1632.17 11.1154 1647.27 13.4336 1659.63 16.2883C1666.85 17.9557 1679.32 26.5276 1685.72 31.0493C1688.76 33.1974 1690.86 34.0226 1690.2 38.2574C1689.73 41.2128 1687.9 47.9402 1686.79 50.7219C1686.28 52.0148 1685.28 53.8948 1683.79 54.0123L1634.13 46.6193C1628.8 46.8368 1621.04 35.1297 1618.03 43.4055C1615.02 51.6656 1611.44 65.4444 1609.63 74.1527C1609.38 75.3567 1608.77 78.9034 1609.19 79.8552ZM1613.02 11.1655C1619.14 14.7404 1625.2 19.6775 1631.36 23.0506C1633.52 24.2335 1633.77 22.8209 1631.87 21.2491C1628.51 18.4748 1619.45 12.7035 1615.53 10.6775C1614.11 9.94592 1613.06 9.20387 1613.02 11.1649L1613.02 11.1655ZM1686.89 32.8305C1686.73 32.3295 1682.59 31.5805 1681.79 31.425C1668.9 28.9467 1653.62 25.9991 1640.69 24.5597C1637.57 24.2119 1635.68 25.6359 1639.1 26.4254C1652.79 29.5942 1669.34 31.3777 1683.52 33.8019C1684.74 34.0105 1687.44 34.5098 1686.89 32.8283L1686.89 32.8305ZM1664.14 33.4106C1656.69 32.7483 1653.32 44.2443 1660.31 47.4402C1670.4 52.0487 1675.65 34.4306 1664.14 33.4106ZM1680.18 37.7622C1674.73 37.3007 1672.24 45.6897 1677.3 48.258C1681.27 50.279 1685.4 49.6164 1686.51 44.9032C1687.38 41.2233 1683.53 38.0474 1680.18 37.7644L1680.18 37.7622ZM1635.46 26.9007C1634.93 26.8252 1634.53 26.3717 1634.01 26.788C1633.12 27.498 1629.24 41.6508 1629.66 42.7331C1629.9 43.3583 1630.47 43.1708 1630.96 43.371L1635.45 26.903L1635.46 26.9007ZM1644.49 31.8678C1638.98 31.4989 1636.94 39.9798 1641.63 42.3428C1643.85 43.4631 1647.02 44.2901 1649.08 42.5569C1654.04 38.3845 1650.07 32.2399 1644.48 31.8672L1644.49 31.8678ZM1622.93 99.0426C1623.2 98.2611 1625.23 92.1255 1623.18 92.8985C1622.6 93.1155 1619.93 99.3952 1622.93 99.0426Z" fill="#FCEEDB"/>
<path d="M1620.69 42.4775C1624.4 43.1235 1627.13 46.6547 1630.47 47.9638C1631.81 48.4854 1635.96 48.8223 1636.1 49.0709C1636.16 49.1814 1635.67 50.622 1635.93 51.6108C1636.22 52.6953 1637.38 53.1723 1637.49 54.0981C1637.71 55.8628 1636.64 57.8269 1638.2 59.7166C1638.63 60.2413 1639.59 60.5042 1639.63 60.5795C1639.89 61.055 1636.6 64.2353 1639.56 66.0823C1642.17 67.7011 1642.84 65.0854 1644.36 65.1896C1647.04 65.3713 1646.81 67.1213 1648.01 67.6479C1651.05 68.9772 1651.45 65.6953 1651.85 65.8017C1652.48 65.9686 1661.63 73.373 1662.01 73.8928C1663.17 75.4476 1660.48 81.1986 1660.14 83.31L1611.09 77.6361L1620.69 42.4747L1620.69 42.4775Z" fill="#A4D9CD"/>
<path d="M1672.24 95.2855L1625.11 90.3989L1612.32 80.1261C1628.21 81.1668 1644.07 83.5098 1659.94 85.194C1661.23 85.5519 1670.08 92.4316 1671.34 93.7335C1671.75 94.1564 1672.28 94.6423 1672.24 95.2855ZM1660.22 86.7519C1657.19 85.9068 1654.03 85.6409 1650.92 85.244C1640.82 83.9576 1629.38 82.4701 1619.29 81.8072C1618.46 81.7543 1617.91 81.8812 1617.8 82.8173C1619.62 83.4075 1621.55 83.5428 1623.43 83.7986C1634.37 85.2772 1647.25 86.8078 1658.22 87.4913C1659.02 87.541 1660.21 88.0119 1660.23 86.7525L1660.22 86.7519ZM1663.94 90.6325L1663.23 89.0341L1623.25 84.8043L1621.76 85.8144L1663.94 90.6347L1663.94 90.6325ZM1666.81 92.3773C1665.73 92.0569 1664.64 91.7415 1663.52 91.5384C1653.79 89.7685 1637.19 88.1843 1627.24 87.8648C1626.35 87.8355 1625.3 87.4192 1625.28 88.6885C1627.25 89.3585 1629.32 89.5221 1631.36 89.7912C1641.59 91.1404 1654.16 92.5913 1664.4 93.0693C1665.24 93.1081 1666.83 93.7078 1666.81 92.3802L1666.81 92.3773Z" fill="#A4D9CD"/>
<path d="M1659.07 52.4759C1658.61 53.7983 1658.7 55.5737 1657.33 56.3356C1654.79 57.7484 1645.85 55.3245 1643.04 54.3097C1642.14 53.9848 1638.64 52.4325 1638.01 52.0021C1637.56 51.6947 1637.58 49.2082 1638.72 49.3893L1659.07 52.4765L1659.07 52.4759Z" fill="#FCEEDB"/>
<path d="M1670.22 69.3944C1669.54 68.1632 1667.07 70.3968 1666.58 71.2341C1666.09 72.0714 1665.96 74.288 1665 73.6945C1663.42 72.7132 1655.05 66.1222 1654.07 64.9116C1651.99 62.3196 1654 60.4216 1657.23 61.5937C1659.95 62.5832 1669.88 68.2294 1671.77 70.2021C1675.14 73.7288 1669.19 78.2505 1667.86 74.6897C1666.91 72.1674 1670.75 70.3492 1670.22 69.3966L1670.22 69.3944Z" fill="#A4D9CD"/>
<path d="M1668.21 54.0163L1665.53 63.8081L1656.41 58.6869C1659.79 59.2541 1661.04 52.8432 1661.41 52.6367C1661.71 52.4658 1667.29 53.8836 1668.21 54.0163Z" fill="#A4D9CD"/>
<path d="M1649.89 58.101C1648.63 59.7681 1649.24 61.9312 1646.81 61.5863C1643.59 61.1306 1637.42 59.0425 1639.78 54.8652C1640.47 54.7721 1640.98 55.6706 1641.21 55.7326L1649.89 58.101Z" fill="#FCEEDB"/>
<path d="M1683.57 71.1524C1683.9 71.5116 1683.02 76.3025 1683.01 77.3022C1682.98 78.9681 1684.45 81.9242 1682.77 83.1388C1681.94 83.7394 1680.75 83.5935 1680.21 82.6498C1679.27 80.9822 1682.38 73.347 1682.28 70.7666C1682.65 70.933 1683.37 70.9383 1683.57 71.1502L1683.57 71.1524Z" fill="#FCEEDB"/>
<path d="M1678.52 63.5242C1677.86 63.9085 1671.71 61.3094 1670.82 60.2232C1669.94 59.1371 1669.65 55.1404 1670.6 54.266C1670.82 54.0647 1672.36 53.9326 1672.58 54.7101C1672.96 56.035 1671.31 57.176 1672.79 59.098C1674.27 61.0201 1678.28 61.0407 1678.69 62.111C1678.84 62.511 1678.65 63.4453 1678.52 63.522L1678.52 63.5242Z" fill="#FCEEDB"/>
<path d="M1683.65 69.2356C1680.69 68.9141 1681.98 68.2871 1681.29 66.6466C1680.97 65.895 1679.65 64.7553 1679.67 64.4864C1679.87 60.0185 1686.44 66.0837 1683.65 69.2362L1683.65 69.2356Z" fill="#A4D9CD"/>
<path d="M1668.5 107.187C1667.66 110.533 1662 108.975 1660.53 106.681C1660.74 105.915 1667.46 106.918 1668.5 107.187Z" fill="#A4D9CD"/>
<path d="M1650.21 63.9308C1648.92 68.0034 1648.47 64.8834 1647.41 64.2176C1646.5 63.6561 1644.08 63.0892 1643.04 63.3776C1642.55 63.5143 1640.37 66.1738 1640.27 63.7787C1640.1 59.8758 1643.25 62.561 1644.53 62.8576C1646.25 63.2573 1648.43 63.0191 1650.21 63.9314L1650.21 63.9308Z" fill="#FCEEDB"/>
<path d="M1598.71 86.2084C1597.28 86.6541 1593.27 84.9093 1592.94 83.6884C1592.82 83.2443 1593.03 81.9495 1593.21 81.8454C1593.76 81.5264 1598.62 84.9346 1598.71 86.209L1598.71 86.2084Z" fill="#A4D9CD"/>
<path d="M1652.87 59.3973C1652.94 59.5083 1652.01 61.432 1651.79 61.6483C1650.06 63.3214 1649.87 58.0967 1652.87 59.3973Z" fill="#F0B77F"/>
<path d="M1686.89 32.8305C1687.44 34.512 1684.74 34.0127 1683.52 33.8041C1669.35 31.3805 1652.79 29.5941 1639.1 26.4276C1635.68 25.6358 1637.57 24.2146 1640.69 24.5619C1653.62 25.9991 1668.9 28.9489 1681.79 31.4272C1682.59 31.5827 1686.73 32.3317 1686.89 32.8327L1686.89 32.8305Z" fill="#E76E2F"/>
<path d="M1644.49 31.8678C1650.07 32.2405 1654.05 38.3851 1649.09 42.5576C1647.03 44.2929 1643.85 43.4631 1641.63 42.3434C1636.94 39.9804 1638.98 31.4989 1644.49 31.8684L1644.49 31.8678ZM1644.59 33.7045C1641.42 32.6633 1639.32 38.2971 1641.67 40.0649C1641.87 37.5515 1642.47 35.2622 1644.59 33.7045ZM1647.06 38.6746C1645.28 38.2553 1646.24 36.4338 1646.57 35.1962C1642.98 35.3505 1641.89 41.1508 1645.95 41.708C1649.3 42.1693 1651.06 37.0732 1647.91 35.5647L1647.06 38.6746Z" fill="#E76E2F"/>
<path d="M1680.18 37.7626C1683.53 38.0471 1687.38 41.2215 1686.51 44.9013C1685.4 49.6146 1681.28 50.2771 1677.3 48.2562C1672.25 45.6878 1674.73 37.2989 1680.18 37.7604L1680.18 37.7626ZM1679.82 39.4936C1676.59 39.3976 1675.07 43.3919 1676.89 45.8629C1677.35 43.105 1678.07 41.6616 1679.82 39.4936ZM1681.52 43.7842L1681.58 40.9353C1677.79 42.0125 1678.07 48.4004 1682.39 47.6037C1684.29 47.2505 1686.28 42.241 1683.58 41.4758L1682.85 44.1451L1681.52 43.7814L1681.52 43.7842Z" fill="#E76E2F"/>
<path d="M1664.14 33.4105C1675.65 34.4305 1670.4 52.0514 1660.31 47.4401C1653.32 44.2414 1656.69 32.7482 1664.14 33.4105ZM1663.65 35.1795C1657.5 34.9314 1655.79 45.8607 1663.26 46.3409C1669.73 46.7583 1671.56 35.4973 1663.65 35.1795Z" fill="#E76E2F"/>
<path d="M1613.02 11.1657C1613.07 9.20462 1614.11 9.94668 1615.53 10.6783C1619.46 12.7043 1628.52 18.4733 1631.87 21.2498C1633.78 22.8239 1633.52 24.2359 1631.36 23.0514C1625.21 19.6782 1619.14 14.7406 1613.03 11.1663L1613.02 11.1657Z" fill="#E76E2F"/>
<path d="M1635.46 26.901L1630.96 43.3691C1630.48 43.1689 1629.9 43.3564 1629.66 42.7312C1629.24 41.6489 1633.12 27.4961 1634.01 26.7861C1634.54 26.3698 1634.94 26.8233 1635.46 26.8988L1635.46 26.901Z" fill="#E76E2F"/>
<path d="M1622.93 99.0426C1619.93 99.393 1622.6 93.1155 1623.18 92.8985C1625.23 92.1277 1623.2 98.2611 1622.93 99.0426Z" fill="#E76E2F"/>
<path d="M1663.94 90.6324L1621.76 85.8121L1623.25 84.802L1663.23 89.0318L1663.94 90.6324Z" fill="#E76E2F"/>
<path d="M1660.22 86.7519C1660.21 88.0098 1659.02 87.5404 1658.22 87.4907C1647.25 86.8079 1634.37 85.2772 1623.43 83.7981C1621.54 83.5445 1619.62 83.4076 1617.8 82.8168C1617.91 81.8829 1618.46 81.7537 1619.29 81.8066C1629.38 82.4695 1640.82 83.9571 1650.91 85.2435C1654.02 85.6403 1657.19 85.9062 1660.22 86.7513L1660.22 86.7519Z" fill="#E76E2F"/>
<path d="M1666.81 92.3772C1666.82 93.7048 1665.24 93.1051 1664.4 93.0664C1654.16 92.5884 1641.58 91.1369 1631.35 89.7883C1629.32 89.5191 1627.25 89.3555 1625.28 88.6856C1625.3 87.4162 1626.34 87.8348 1627.24 87.8618C1637.19 88.1814 1653.79 89.7684 1663.52 91.5355C1664.64 91.7386 1665.72 92.0562 1666.81 92.3744L1666.81 92.3772Z" fill="#E76E2F"/>
<path d="M1647.06 38.6748L1647.91 35.5649C1651.06 37.0734 1649.3 42.1689 1645.95 41.7082C1641.89 41.151 1642.99 35.3513 1646.57 35.1964C1646.24 36.434 1645.28 38.2555 1647.06 38.6748Z" fill="#A4D9CD"/>
<path d="M1644.59 33.7042C1642.47 35.262 1641.87 37.5513 1641.67 40.0647C1639.32 38.2969 1641.42 32.6624 1644.59 33.7042Z" fill="#FCD3A2"/>
<path d="M1681.52 43.7839L1682.85 44.1477L1683.58 41.4762C1686.28 42.2413 1684.29 47.2508 1682.39 47.604C1678.07 48.4029 1677.79 42.0151 1681.58 40.9357L1681.52 43.7845L1681.52 43.7839Z" fill="#A4D9CD"/>
<path d="M1679.82 39.4933C1678.07 41.6613 1677.35 43.1047 1676.89 45.8626C1675.07 43.3917 1676.59 39.3973 1679.82 39.4933Z" fill="#FCD3A2"/>
<path d="M1663.65 35.1802C1671.56 35.498 1669.73 46.7589 1663.26 46.3416C1655.79 45.8614 1657.5 34.9343 1663.65 35.1802ZM1665.66 37.0639C1664.38 34.8527 1661.8 40.9229 1663.22 41.6541C1664.65 42.3853 1665.8 37.303 1665.66 37.0639Z" fill="#FCEEDB"/>
<path d="M1665.66 37.0638C1665.81 37.303 1664.66 42.3899 1663.23 41.6541C1661.79 40.9182 1664.38 34.8527 1665.66 37.0638Z" fill="#E76E2F"/>
</g>
<g opacity="0.2">
<path d="M85.8537 63.2961C101.949 60.6503 101.85 71.7206 103.577 83.6928C104.309 88.761 108.114 107.624 97.8103 104.784C91.733 103.109 94.7958 98.3755 94.7073 93.7924C94.6512 90.8849 92.6155 77.2665 91.7677 74.6754C90.9359 72.1269 87.0322 71.8125 85.9362 72.88C84.4793 74.3055 85.2381 108.672 84.0888 113.532C82.3623 121.694 70.6612 121.823 64.0406 121.194C55.2158 120.358 24.982 113.674 24.2889 102.585C24.1709 100.681 25.5864 98.2032 25.1574 96.8383C25.0451 96.4788 21.0985 92.9877 20.1799 91.7712C10.4961 78.9259 22.8581 64.2112 18.423 53.4229C17.1053 50.218 11.1771 46.3254 17.5685 44.9126C22.2129 43.8849 23.3953 44.6336 25.5386 48.6529C31.9034 60.5792 21.5723 76.1666 26.5872 85.0548C26.9714 85.7392 28.4657 87.584 29.1617 87.7739L48.188 49.249C50.6426 45.5499 53.4867 44.5359 57.7079 43.7826C58.9466 43.5619 62.2005 43.7629 62.6994 43.3739C63.1328 43.0339 62.2234 39.4236 64.5769 37.8557C67.2569 36.0695 74.8702 38.0215 76.6373 40.5942C78.4659 43.2532 75.493 45.5533 75.9876 46.665C76.202 47.1504 79.5394 48.8085 80.5505 49.6273C85.1325 53.326 87.0025 57.3014 85.846 63.2912L85.8537 63.2961ZM67.8141 40.4693C67.6272 40.4231 67.443 40.3657 67.2562 40.3313C66.8803 40.259 66.5183 40.1191 66.1432 40.0559C65.7702 41.2401 65.4688 42.6257 66.4282 43.6776C66.36 44.0487 66.1929 44.4249 66.1519 44.7939C66.0419 45.753 66.4102 45.8915 66.4336 46.0483C66.4612 46.2358 66.2422 46.4748 66.2955 46.6065C67.3173 49.0925 67.9496 47.9369 69.5047 47.9929C69.7012 48.0001 69.896 48.1461 70.0626 48.131C70.3831 48.1037 71.0057 48.5065 71.1784 48.4071C71.351 48.3076 71.2782 47.5492 71.4546 47.2907C71.5512 47.1517 71.4976 46.9015 71.5927 46.7326C71.6135 46.6962 72.1446 46.6914 72.2887 46.3124C72.4231 45.9607 72.4494 45.5555 72.565 45.1961C74.3456 44.2209 74.6936 43.4126 73.3937 41.847C73.1064 41.5005 73.2039 41.1425 72.416 41.0127C70.975 40.8428 69.0533 39.5883 67.8147 40.4665L67.8141 40.4693ZM82.7687 58.9667C84.943 57.0465 77.0009 49.9515 74.6508 49.3996C73.3893 49.1023 71.851 51.4672 67.976 50.6179C63.1854 49.5687 64.9699 48.4821 63.2967 46.7263C61.8749 45.2343 52.2465 47.7772 51.1601 50.2658C50.6997 51.3247 51.2155 51.0347 51.6478 51.4171C55.6111 54.9124 66.6095 57.7553 71.8918 58.6477C73.2897 58.884 82.2088 59.4591 82.7659 58.9661L82.7687 58.9667ZM83.3321 61.4874C71.4736 62.3234 59.2575 59.7123 49.3091 53.0686C48.353 58.0448 31.5844 87.7811 32.2091 89.7068C32.459 90.4794 34.0597 91.0088 34.1374 92.3697C34.2318 94.022 33.1933 97.3577 31.6227 98.1419C29.326 99.2885 26.8135 97.1563 27.5541 102.526C28.2947 107.895 42.5574 113.337 47.3245 114.804C54.4107 116.984 69.869 119.82 76.8412 117.245C80.4804 115.9 80.6187 114.193 81.2124 110.49L83.3307 61.493L83.3321 61.4874ZM21.356 48.0178C20.8749 47.9402 19.0634 48.5256 18.9875 48.8207C28.1639 61.6945 12.6903 78.3729 23.1666 90.9227C24.4428 92.4528 30.1726 97.9608 31.3845 94.5348C32.1753 92.2959 29.8668 92.2459 28.4291 91.0698C16.7427 81.5082 25.824 68.9139 24.9038 56.6377C24.7715 54.8634 23.2727 48.3232 21.356 48.0178ZM100.47 101.716C102.484 100.444 102.139 95.7735 102.042 93.6407C101.882 90.1951 99.0899 71.8936 97.8225 69.5985C95.5248 65.4374 84.8244 63.3998 85.4571 69.7079C88.2701 70.3269 92.5289 68.6559 94.0717 71.8602C95.1319 74.0596 97.4337 89.4735 97.5794 92.5335C97.6681 94.4244 96.9132 99.8916 97.0755 100.432C97.421 101.584 99.4141 102.382 100.473 101.714L100.47 101.716Z" fill="#E76E2F"/>
<path d="M83.3323 61.4874L81.2141 110.484C80.6204 114.187 80.4821 115.895 76.8428 117.239C69.8707 119.814 54.4124 116.979 47.3262 114.799C42.559 113.332 28.2978 107.896 27.5557 102.52C26.8137 97.1444 29.3277 99.2829 31.6244 98.1364C33.1949 97.3521 34.2335 94.0165 34.1391 92.3642C34.0614 91.0033 32.4606 90.4739 32.2108 89.7012C31.5861 87.7755 48.3519 58.0386 49.3107 53.0631C59.2591 59.7068 71.4746 62.3207 83.3337 61.4819L83.3323 61.4874ZM41.3874 89.5344C42.7865 89.072 51.5113 65.6561 53.465 62.6535C54.318 60.4744 53.1499 58.9622 51.0313 60.2624C49.4539 63.5506 37.8131 87.6133 38.6525 88.9347C39.4333 89.0094 40.7724 89.7347 41.3881 89.5316L41.3874 89.5344Z" fill="#A4D9CD"/>
<path d="M82.768 58.9668C82.2109 59.4598 73.2918 58.8848 71.8939 58.6485C66.6116 57.7561 55.6132 54.9132 51.6499 51.4179C51.2176 51.0355 50.7025 51.3227 51.1622 50.2665C52.2458 47.7773 61.8749 45.2316 63.2987 46.7271C64.972 48.4828 63.1902 49.5702 67.978 50.6187C71.8502 51.4673 73.3907 49.1058 74.6529 49.4004C77.003 49.9523 84.9451 57.0473 82.7708 58.9675L82.768 58.9668Z" fill="#A4D9CD"/>
<path d="M100.47 101.716C99.4103 102.384 97.4172 101.586 97.0717 100.434C96.9094 99.8937 97.6671 94.4271 97.5756 92.5356C97.4299 89.4756 95.1281 74.0617 94.0679 71.8623C92.5224 68.6574 88.2635 70.3284 85.4533 69.71C84.8207 63.4019 95.5217 65.4367 97.8187 69.6006C99.0862 71.8957 101.878 90.1972 102.038 93.6428C102.138 95.7763 102.483 100.446 100.466 101.719L100.47 101.716Z" fill="#A4D9CD"/>
<path d="M21.3564 48.0177C23.2703 48.3224 24.7719 54.8634 24.9042 56.6376C25.8209 68.9159 16.7431 81.5081 28.4294 91.0697C29.8644 92.2452 32.1757 92.2958 31.3848 94.5347C30.1737 97.9579 24.4466 92.4506 23.167 90.9226C12.6935 78.3736 28.1643 61.6945 18.9878 48.8207C19.061 48.5248 20.8753 47.9401 21.3564 48.0177Z" fill="#A4D9CD"/>
<path d="M73.3928 41.8498C73.0677 42.9481 72.9136 44.1095 72.5641 45.1988C72.4485 45.5582 72.4223 45.9634 72.2879 46.3152L71.5918 46.7353C71.4967 46.9043 71.5503 47.1545 71.4537 47.2935L70.0617 48.1337C69.8952 48.1488 69.7004 48.0029 69.5038 47.9957L66.2946 46.6092C66.2413 46.4776 66.4603 46.2386 66.4327 46.0511L66.1511 44.7967C66.192 44.4277 66.3591 44.0514 66.4273 43.6803C66.6373 42.5564 67.0258 41.4531 67.256 40.3312C67.4429 40.3656 67.627 40.423 67.8139 40.4693C68.8466 40.71 69.8691 41.0045 70.9025 41.2543C71.6424 41.4344 72.3105 40.9955 72.4151 41.0155C73.203 41.1453 73.1055 41.5032 73.3928 41.8498Z" fill="#A4D9CD"/>
<path d="M67.2563 40.3312C67.026 41.4531 66.6376 42.5564 66.4275 43.6803C65.4654 42.6277 65.7696 41.2429 66.1426 40.0586C66.5184 40.119 66.8825 40.2625 67.2556 40.334L67.2563 40.3312Z" fill="#A4D9CD"/>
<path d="M72.5644 45.1988C72.9139 44.1094 73.068 42.9481 73.3931 41.8497C74.693 43.4153 74.345 44.2236 72.5644 45.1988Z" fill="#A4D9CD"/>
<path d="M72.4149 41.0155C72.3124 40.9991 71.6422 41.4345 70.9023 41.2544C69.8689 41.0045 68.8436 40.7094 67.8137 40.4693C69.0523 39.5911 70.9739 40.8456 72.4149 41.0155Z" fill="#A4D9CD"/>
<path d="M69.5042 47.9956C67.9491 47.9396 67.3168 49.0952 66.2949 46.6091L69.5042 47.9956Z" fill="#A4D9CD"/>
<path d="M71.4537 47.2934C71.2772 47.5519 71.348 48.3068 71.1774 48.4098C71.0069 48.5127 70.3822 48.1064 70.0617 48.1337L71.4537 47.2934Z" fill="#A4D9CD"/>
<path d="M66.432 46.051C66.4087 45.8942 66.0404 45.7557 66.1504 44.7966L66.432 46.051Z" fill="#FCD3A2"/>
<path d="M71.5924 46.7354L72.2884 46.3153C72.1443 46.6943 71.6132 46.6991 71.5924 46.7354Z" fill="#A4D9CD"/>
<path d="M41.3863 89.5342C40.7706 89.7372 39.4322 89.0092 38.6507 88.9372C37.8113 87.6159 49.4521 63.5532 51.0295 60.265C53.1488 58.962 54.3162 60.477 53.4632 62.6561C51.5095 65.6586 42.7848 89.0746 41.3856 89.537L41.3863 89.5342Z" fill="#FDFDFC"/>
<path d="M66.03 40.4362C66.03 40.4362 65.831 39.6495 66.7758 39.5397C67.7207 39.43 73.4107 40.0383 74.0072 41.803C74.6037 43.5677 75.2383 42.5223 73.5318 45.1477C71.8254 47.7731 72.4266 48.5616 70.7884 48.7338C69.1502 48.9059 66.6603 48.7519 66.2164 46.9449C65.7725 45.138 66.0321 40.4397 66.0321 40.4397L66.03 40.4362Z" fill="#A4D9CD"/>
</g>
</svg>
