<svg width="1772" height="117" viewBox="0 0 1772 117" fill="none" xmlns="http://www.w3.org/2000/svg">
<g opacity="0.2">
<path d="M1758.18 42.9367C1758.92 43.6609 1765.58 40.9445 1769.5 47.2816C1774.39 55.2 1768.79 63.0297 1761.72 66.9017C1770.27 73.1088 1767.63 81.0213 1759.29 85.7711C1748.27 92.055 1731.34 92.5013 1719.16 89.9623C1702.78 86.5514 1689.64 75.4113 1709.64 63.8455C1708.63 55.3537 1704.32 40.445 1713.17 34.8971C1721.82 29.4704 1747.75 29.3078 1755.49 36.4666C1758.03 38.8105 1757.93 42.6855 1758.18 42.9367ZM1710.89 46.5102C1710.27 61.9598 1714.85 75.6152 1732.43 76.097C1751.39 76.6172 1755.65 63.4642 1755.2 47.1013C1755.1 43.25 1755.99 40.2647 1752.44 37.7435C1744.78 32.302 1721.9 32.2783 1714.24 37.7435C1710.87 40.1435 1711.04 42.7416 1710.89 46.5102ZM1755.8 65.4239C1763.1 64.4396 1770.43 58.0996 1767.94 50.0245C1766.69 45.9604 1757.13 42.047 1758.15 48.8748C1766.36 47.6806 1767.34 55.2 1761.71 59.8257C1759.27 61.8356 1755.45 61.7233 1755.8 65.4268V65.4239ZM1757.57 58.9213C1761.81 59.5538 1765.35 50.6541 1759.78 51.3576C1757.02 51.7034 1757.7 56.669 1757.57 58.9213ZM1711.2 66.6653C1691.16 76.6261 1709.93 85.7711 1722.58 87.7278C1732.86 89.318 1755.08 88.653 1762.3 79.9188C1767.53 73.5994 1759.1 65.4594 1754.06 68.7195C1753.2 69.2811 1752.04 71.7403 1751.01 72.7511C1744.84 78.7749 1735.49 79.3188 1727.29 78.2784C1719.98 77.3503 1714.64 72.9758 1711.2 66.6623L1711.2 66.6653Z" fill="#E76E2F"/>
<path d="M1755.2 47.1014C1755.64 63.4614 1751.38 76.6144 1732.43 76.0971C1714.86 75.6153 1710.26 61.9599 1710.89 46.5103C1724.33 53.474 1741.64 53.8671 1755.2 47.1014Z" fill="#F0B77F"/>
<path d="M1711.2 66.6653C1714.64 72.9787 1719.98 77.3532 1727.29 78.2813C1735.49 79.3217 1744.84 78.7779 1751 72.7541C1752.04 71.7403 1753.19 69.2811 1754.06 68.7225C1759.1 65.4623 1767.53 73.6024 1762.3 79.9217C1755.07 88.6559 1732.85 89.321 1722.57 87.7308C1709.93 85.7741 1691.16 76.629 1711.19 66.6682L1711.2 66.6653ZM1716.09 75.6123C1715.59 75.3138 1714.98 75.5177 1714.44 75.4793C1714.09 79.7799 1719.07 81.0449 1722.46 81.9346C1729.45 83.776 1738.72 83.8528 1745.62 81.5533C1747.4 80.9592 1752.73 78.7572 1752.25 76.3749C1751.74 73.827 1749.9 76.8596 1749.68 77.0369C1742.81 82.5021 1724.57 82.4223 1717.4 77.5276C1716.59 76.9778 1716.29 75.7276 1716.09 75.6123H1716.09Z" fill="#FCEEDB"/>
<path d="M1755.2 47.1014C1741.64 53.8671 1724.33 53.4739 1710.89 46.5102C1711.04 42.7417 1710.87 40.1407 1714.24 37.7436C1721.9 32.2784 1744.78 32.3021 1752.44 37.7436C1755.99 40.2618 1755.1 43.2501 1755.2 47.1014ZM1752.81 40.6224C1748.76 39.6766 1745.36 37.9298 1741.15 37.2145C1734.84 36.1416 1727.72 36.2657 1721.51 37.9239C1720.42 38.2165 1713.35 41.0569 1713.25 41.4973C1712.61 44.3467 1718.84 46.4127 1720.81 46.927C1728.41 48.9192 1744.2 49.3891 1750.88 44.8462C1752.71 43.6018 1753.17 43.1171 1752.81 40.6224H1752.81Z" fill="#FCEEDB"/>
<path d="M1755.8 65.424C1755.45 61.7234 1759.27 61.8328 1761.71 59.8229C1767.34 55.2001 1766.36 47.6778 1758.15 48.8719C1757.12 42.0442 1766.68 45.9576 1767.94 50.0217C1770.43 58.0967 1763.1 64.4368 1755.8 65.4211V65.424Z" fill="#F0B77F"/>
<path d="M1716.09 75.6124C1716.28 75.7277 1716.59 76.9779 1717.4 77.5277C1724.57 82.4194 1742.8 82.5022 1749.68 77.0371C1749.9 76.8627 1751.74 73.8301 1752.25 76.375C1752.73 78.7573 1747.4 80.9593 1745.62 81.5534C1738.72 83.853 1729.45 83.7761 1722.45 81.9347C1719.07 81.045 1714.09 79.777 1714.44 75.4794C1714.98 75.5178 1715.59 75.3168 1716.09 75.6124H1716.09Z" fill="#E76E2F"/>
<path d="M1752.81 40.6224C1753.18 43.1171 1752.71 43.6018 1750.88 44.8462C1744.2 49.3891 1728.41 48.9192 1720.81 46.927C1718.84 46.4127 1712.6 44.3466 1713.25 41.4973C1713.35 41.0569 1720.42 38.2165 1721.51 37.9238C1727.72 36.2657 1734.84 36.1415 1741.15 37.2145C1745.36 37.9298 1748.77 39.6736 1752.81 40.6224H1752.81ZM1729.09 38.9997C1727.32 39.1593 1717.39 40.8264 1717.4 42.6648C1726.88 46.8974 1739.77 47.1221 1749.28 42.6648C1743.63 39.1416 1735.65 38.4086 1729.09 38.9997Z" fill="#E76E2F"/>
<path d="M1729.09 38.9997C1735.65 38.4086 1743.63 39.1416 1749.28 42.6648C1739.77 47.1221 1726.88 46.8974 1717.4 42.6648C1717.39 40.8264 1727.32 39.1593 1729.09 38.9997Z" fill="#FCD3A2"/>
</g>
<g opacity="0.2">
<path d="M85.0287 45.4749C103.875 39.3226 106.354 62.4751 93.7668 71.5361C103.225 73.8395 108.482 79.3206 101.943 88.5177C89.7025 105.739 42.2791 115.858 23.8701 105.993C8.95472 98.0013 19.6103 86.7438 30.5309 82.3966C26.1153 76.075 21.6273 68.1354 20.4716 60.3888C19.7377 55.4839 20.7922 52.7622 24.3313 49.4855C34.7675 39.8234 64.8768 33.4497 78.2757 38.3368C81.794 39.6199 84.4323 41.4809 85.0313 45.4744L85.0287 45.4749ZM43.7797 42.941C37.6054 44.757 22.5261 50.285 23.275 58.1958C24.6403 72.6016 36.1739 89.3538 51.5604 90.2803C77.714 91.8563 87.6783 69.526 82.617 46.8272C81.7025 42.7241 79.2803 41.427 75.5102 40.5165C66.2558 38.2812 52.8225 40.2834 43.7772 42.9416L43.7797 42.941ZM84.3742 73.2382C93.4352 70.899 104.247 57.7453 96.2187 49.2422C92.8468 45.6695 83.4148 46.0771 85.9312 52.3269C98.1065 46.776 97.7022 60.5167 89.9634 66.3749C87.1779 68.4856 83.3775 68.551 84.3742 73.2382ZM85.9549 65.3222C89.1428 64.6354 92.9947 60.3747 92.8505 57.0765C92.7626 55.1016 92.1566 52.6967 89.741 53.2969C84.7443 54.5347 86.8635 61.5208 85.9549 65.3222ZM37.9116 104.012C38.8981 104.365 56.3662 102.356 58.7147 101.952C68.6102 100.247 96.9018 92.2838 101.268 82.7093C103.899 76.9423 95.1355 74.195 90.769 74.0273C88.954 73.9568 83.9537 75.6531 82.6535 76.8204C82.3847 77.0611 80.4793 80.1513 80.485 80.3586C80.5144 81.1677 82.0465 81.425 82.5381 82.5783C83.6289 85.1385 82.3913 86.7449 80.6093 88.4658C73.7293 95.0994 48.7305 100.918 40.36 95.7941C36.1063 93.1895 39.7018 90.5157 38.7856 89.3515C38.5125 89.0054 33.5402 84.9406 33.2008 84.8197C29.9346 83.6541 17.5591 93.3883 19.2593 97.9193C20.0488 100.026 26.0362 102.314 28.1587 102.843C32.0166 103.797 35.4625 103.14 37.9069 104.015L37.9116 104.012ZM80.4101 82.7442C77.9678 82.96 76.8286 85.2146 74.9044 86.5294C67.5589 91.5547 57.4264 94.0894 48.5825 92.7889C46.7442 92.5175 38.9869 88.9056 40.3263 93.0467C41.0405 95.2582 48.4521 95.7983 50.6513 95.7907C58.2246 95.7606 72.8375 92.6355 78.6694 87.6469C80.4265 86.1425 81.3569 85.1993 80.4075 82.7447L80.4101 82.7442ZM33.1492 105.141C31.9985 105.05 30.3402 104.643 29.3511 105.127C30.5836 105.865 32.0185 105.904 33.3674 106.178C49.8109 109.504 77.016 103.66 91.0259 94.5922L95.6635 90.9138C93.6101 91.4215 91.2373 92.6113 89.8799 94.2916C85.4076 95.2296 78.9831 98.8424 74.0876 100.316C61.5775 104.082 46.1786 106.173 33.1492 105.141Z" fill="#E76E2F"/>
<path d="M43.417 9.81548C43.8996 11.4663 42.8362 13.0388 42.9303 14.6575C43.2414 19.9845 49.3742 21.124 50.2044 26.5124C50.3583 27.5146 49.9443 31.1443 49.4125 31.8466C48.9613 32.4425 47.557 33.0764 47.1849 32.8514C46.4337 32.3946 47.8802 29.9155 47.8983 29.0748C48.0309 23.4378 41.5363 21.8652 40.5831 16.6896C40.1798 14.5021 41.0454 10.7666 43.4144 9.81603L43.417 9.81548Z" fill="#F0B77F"/>
<path d="M33.8374 18.3304C34.3425 18.6467 33.4588 21.6655 33.8095 22.8051C35.0069 26.6835 39.9736 26.9633 39.2731 33.2857C39.0483 35.3183 37.0059 37.6031 36.8123 34.8163C36.7207 33.5057 37.2772 31.6471 36.8504 30.5317C35.7616 27.6975 31.5238 27.4595 31.4746 21.923C31.4659 20.9038 32.467 17.4648 33.8369 18.3278L33.8374 18.3304Z" fill="#F0B77F"/>
<path d="M56.1319 13.641C56.6564 13.9722 55.7327 17.1484 56.0329 18.2282C56.6507 20.4573 60.1789 21.9036 60.7914 25.3688C61.0678 26.9275 60.6858 30.5423 58.6996 30.9709C58.1156 28.9921 58.7481 26.89 57.946 24.9299C56.9234 22.4231 54.0691 22.0187 53.7021 17.6487C53.5995 16.4271 54.7181 12.7494 56.1319 13.641Z" fill="#F0B77F"/>
<path d="M43.7808 42.941C52.8261 40.2828 66.2626 38.2827 75.5138 40.5159C79.284 41.4265 81.7061 42.7235 82.6206 46.8267C87.6825 69.5281 77.7176 91.8557 51.5641 90.2797C36.1775 89.3532 24.6413 72.6016 23.2787 58.1952C22.5297 50.2844 37.6085 44.7538 43.7834 42.9404L43.7808 42.941ZM77.655 46.4871C61.1171 42.8155 41.639 46.5034 28.1599 56.8977C26.9089 56.9089 27.2438 53.7265 26.0543 54.6349C23.2469 56.7827 27.1892 59.7344 29.3514 60.5417C38.9168 64.1145 54.684 60.0424 64.2414 57.4634C64.7439 57.7802 66.628 64.8591 66.5042 65.8277C66.3716 66.8576 64.5944 67.031 63.7458 68.0545C60.3685 72.126 63.5309 78.397 65.1631 82.463C66.3527 82.9711 76.401 79.972 76.9223 78.7952C77.6509 77.1496 74.5587 70.4793 74.5209 68.1119C74.3034 67.7081 71.6324 65.8459 71.1726 65.6935C70.1821 65.3601 68.8351 65.7382 68.7295 65.6738C68.3243 65.4205 67.426 57.7524 66.224 56.4777C69.6647 55.41 79.3244 50.9623 79.7249 47.1649C80.1116 43.4949 77.0479 41.7478 77.655 46.4871Z" fill="#FCEEDB"/>
<path d="M37.9119 104.012C35.4649 103.137 32.0196 103.797 28.1637 102.839C26.0418 102.313 20.0543 100.024 19.2643 97.9155C17.5641 93.3845 29.939 83.6477 33.2057 84.8159C33.5452 84.9368 38.5175 89.0016 38.7906 89.3477C39.7043 90.5125 36.1087 93.1863 40.365 95.7903C48.7354 100.914 73.7343 95.0956 80.6143 88.462C82.3968 86.7437 83.6339 85.1347 82.5431 82.5745C82.0515 81.4212 80.5168 81.1644 80.49 80.3548C80.4817 80.148 82.3897 77.0573 82.6585 76.8166C83.9587 75.6493 88.9621 73.955 90.774 74.0235C95.1404 74.1912 103.904 76.9385 101.273 82.7056C96.9042 92.2806 68.6152 100.243 58.7197 101.948C56.3712 102.353 38.9031 104.361 37.9166 104.008L37.9119 104.012Z" fill="#FCEEDB"/>
<path d="M84.3741 73.2381C83.3774 68.551 87.1778 68.4856 89.9633 66.3749C97.7021 60.5167 98.1058 46.7733 85.9311 52.3269C83.4115 46.075 92.8441 45.67 96.2186 49.2422C104.25 57.7473 93.4356 70.9015 84.3741 73.2381Z" fill="#FCEEDB"/>
<path d="M80.4116 82.7442C81.3609 85.1987 80.4311 86.1445 78.6734 87.6463C72.8389 92.6355 58.226 95.7605 50.6553 95.7902C48.4561 95.7977 41.045 95.2603 40.3302 93.0462C38.9909 88.9051 46.7456 92.5174 48.5865 92.7884C57.431 94.0915 67.5603 91.5546 74.9084 86.5288C76.8301 85.2146 77.9718 82.9594 80.4141 82.7436L80.4116 82.7442Z" fill="#FCEEDB"/>
<path d="M89.8811 94.2915C90.3166 94.1999 90.7348 94.1932 91.0271 94.5922C77.0172 103.66 49.8121 109.504 33.3686 106.178L33.1504 105.141C46.1797 106.173 61.5787 104.082 74.0887 100.316C78.9843 98.8423 85.4088 95.2295 89.8811 94.2915Z" fill="#FCEEDB"/>
<path d="M89.8807 94.2917C91.238 92.6113 93.6109 91.4216 95.6643 90.9139L91.0267 94.5923C90.7343 94.1934 90.3162 94.2001 89.8807 94.2917Z" fill="#F0B77F"/>
<path d="M33.1499 105.141L33.3681 106.178C32.0198 105.907 30.5843 105.865 29.3518 105.127C30.3409 104.643 31.9992 105.05 33.1499 105.141Z" fill="#F0B77F"/>
<path d="M77.6548 46.487C77.0478 41.7477 80.1114 43.4949 79.7247 47.1648C79.3243 50.9622 69.6646 55.4099 66.2239 56.4776C67.4233 57.7528 68.3241 65.4204 68.7293 65.6737C68.8323 65.7387 70.182 65.36 71.1725 65.6934C71.6296 65.8464 74.3012 67.7112 74.5208 68.1119C74.5611 70.4786 77.6507 77.1496 76.9221 78.7951C76.4009 79.9719 66.3526 82.971 65.1629 82.4629C63.5282 78.3975 60.3683 72.1259 63.7457 68.0544C64.5942 67.0309 66.3715 66.8576 66.504 65.8276C66.6305 64.8585 64.7443 57.7827 64.2412 57.4633C54.6839 60.0423 38.9167 64.1144 29.3512 60.5416C27.189 59.7343 23.2467 56.7826 26.0542 54.6348C27.2431 53.7238 26.9113 56.9083 28.1597 56.8976C41.6389 46.5033 61.1144 42.8159 77.6548 46.487ZM75.8054 47.9648C60.1714 45.4626 43.4065 48.8453 30.1833 57.5607C29.6319 58.7357 37.3207 58.9846 37.9645 58.9954C41.4072 59.0567 53.768 58.4935 56.0099 56.7328C56.6254 56.2485 56.4778 55.161 57.0109 54.5938C60.2069 51.1915 63.0383 54.4853 65.9082 53.8572C68.5604 53.275 74.2431 50.2922 75.8054 47.9648ZM61.5338 54.7584L58.4256 55.4121L58.6422 56.4418C59.783 56.2289 61.4111 56.1573 61.5338 54.7584ZM66.3584 80.2831C66.7669 80.552 73.8479 78.1688 74.7382 77.4724C74.9134 77.0699 73.0643 70.2735 72.7388 69.4725C71.2894 65.9017 63.6868 67.8258 64.3411 73.3948C64.6098 75.6891 66.3047 77.827 66.3589 80.2857L66.3584 80.2831Z" fill="#E76E2F"/>
<path d="M75.8056 47.9648C74.2432 50.2922 68.5611 53.2776 65.9084 53.8572C63.0384 54.4853 60.2071 51.1915 57.0111 54.5938C56.478 55.161 56.6255 56.2485 56.01 56.7328C53.7687 58.4961 41.4053 59.0598 37.9647 58.9954C37.3208 58.9845 29.6346 58.7351 30.1835 57.5607C43.4066 48.8453 60.1715 45.4626 75.8056 47.9648Z" fill="#FCD3A2"/>
<path d="M66.3581 80.283C66.3039 77.8244 64.609 75.6864 64.3403 73.3921C63.686 67.8231 71.2885 65.899 72.738 69.4698C73.0635 70.2708 74.9126 77.0672 74.7374 77.4697C73.8471 78.1661 66.7661 80.5493 66.3576 80.2804L66.3581 80.283Z" fill="#F0B77F"/>
<path d="M61.5326 54.7585C61.4099 56.1575 59.7818 56.2291 58.641 56.4419L58.4238 55.4097L61.532 54.7559L61.5326 54.7585Z" fill="#FCD3A2"/>
</g>
</svg>
