<svg width="1659" height="149" viewBox="0 0 1659 149" fill="none" xmlns="http://www.w3.org/2000/svg">
<g opacity="0.2">
<path d="M1631.53 82.1507C1633.63 82.0091 1636.21 82.0371 1637.34 84.2029C1642.38 96.4708 1648.97 108.194 1653.89 120.502C1656.16 126.187 1658.63 129.775 1653.32 134.431C1645.83 141.003 1627.61 145.91 1617.84 143.865C1612.32 142.71 1612.02 139.627 1611.03 134.478C1608.52 121.26 1608.69 106.025 1606.43 92.5956C1606.37 90.1579 1608.51 89.4916 1609.92 88.2339C1610.22 87.9621 1610.87 87.9161 1610.3 87.2135C1609.2 85.8429 1604.53 83.4189 1602.79 81.8582C1598.37 77.9036 1593.17 66.9069 1591.3 61.1944C1590.39 58.4306 1589.43 56.5519 1591.53 54.1587C1596.55 48.4545 1620.05 42.6531 1627.75 43.0627C1631.34 43.2543 1632.99 44.1132 1633.95 47.8198C1635.34 53.1429 1636.51 66.9222 1635.13 72.1674C1634.77 73.5355 1630.99 81.7361 1631.53 82.1507ZM1593.82 60.1083C1595.43 60.857 1607.31 59.1053 1609.66 58.5826C1613.05 57.831 1630.55 52.2751 1631.38 49.3512C1632.27 46.1966 1629.11 45.5208 1626.81 45.4747C1619.82 45.3275 1608.33 48.486 1601.77 51.1109C1599.75 51.9216 1593.75 54.4343 1592.89 56.1991C1592.34 57.3399 1592.64 59.564 1593.82 60.1108L1593.82 60.1083ZM1600.23 74.0913C1601.59 76.453 1601.86 77.5762 1604.03 79.6695C1604.94 80.5379 1613.17 86.894 1613.75 87.0867C1616.26 87.9115 1627.57 84.8954 1628.88 82.7594C1629.76 77.1489 1633.66 72.4509 1633.58 66.636C1633.57 65.6593 1633.02 64.735 1632.98 63.9845C1632.97 63.8147 1632.86 63.6531 1632.84 63.4839C1632.81 62.9179 1632.87 62.2315 1632.79 61.3434C1632.76 60.9436 1632.96 60.3605 1632.88 59.7035C1632.8 59.0465 1632.41 58.3591 1632.33 57.7009C1632.23 56.926 1632.3 52.6098 1631.94 52.4218C1620.46 58.5692 1607.93 61.9503 1594.92 62.6324C1596.16 66.6986 1598.13 70.444 1600.23 74.0963L1600.23 74.0913ZM1611.48 89.9506C1610.56 90.3471 1608.37 91.8529 1610.2 92.6051C1613.99 94.1582 1634.68 88.5239 1634.57 85.3548C1634.45 84.4889 1633.67 84.5044 1633.01 84.4001C1630.56 84.0192 1624.72 87.7172 1621.71 88.5302C1618.89 89.2942 1613.65 89.0274 1611.48 89.9506ZM1636.05 86.8393C1628.68 92.7466 1618.36 95.2868 1609.04 94.2885C1610.76 107.369 1611.63 120.636 1613.95 133.611C1615.01 135.718 1621.79 135.377 1624 135.245C1632.04 134.771 1640.85 132.283 1647.58 127.797C1648.57 127.139 1651.7 124.917 1651.93 123.934C1652.76 120.486 1637.38 92.4993 1636.05 86.8393ZM1653.24 125.735C1645.07 133.39 1631.01 137.639 1619.92 137.23C1618.19 137.168 1615.84 136.248 1614.46 136.425C1612.69 136.648 1614.86 140.104 1616.2 140.809C1623.54 144.671 1648.74 137.612 1653.53 130.752C1654.76 128.991 1653.68 127.636 1653.23 125.733L1653.24 125.735Z" fill="#E76E2F"/>
<path d="M1636.05 86.8393C1637.38 92.5018 1652.76 120.486 1651.93 123.934C1651.7 124.917 1648.57 127.137 1647.58 127.797C1640.85 132.283 1632.04 134.768 1624 135.245C1621.79 135.375 1615.01 135.718 1613.95 133.611C1611.63 120.636 1610.75 107.372 1609.04 94.2885C1618.36 95.2868 1628.68 92.7466 1636.05 86.8393ZM1622.86 98.1337C1619.75 99.8124 1621.38 106.125 1625.24 106.279C1632.67 106.577 1630.81 93.8572 1622.86 98.1337ZM1621.67 133.749C1622.66 133.865 1628.3 133.052 1629.62 132.78C1634.21 131.834 1648.8 128.433 1646.81 121.877C1645.63 117.979 1642.05 109.782 1640.14 106.045C1638.03 101.913 1634.41 105.893 1631.12 107.046C1625.88 108.88 1620.92 109.389 1615.49 109.973C1614.29 111.409 1618.16 127.301 1617.89 130.38C1617.68 131.452 1621.21 133.699 1621.67 133.751L1621.67 133.749Z" fill="#FCEEDB"/>
<path d="M1600.23 74.0913C1598.13 70.439 1596.15 66.6936 1594.92 62.6274C1607.93 61.9478 1620.46 58.5667 1631.94 52.4168C1632.3 52.6049 1632.22 56.921 1632.32 57.6959C1631.76 58.3281 1631.98 59.6451 1632.88 59.6985C1632.96 60.3555 1632.76 60.9386 1632.79 61.3384L1632.84 63.4789C1632.85 63.6481 1632.97 63.8097 1632.98 63.9795C1632.42 64.0717 1631.89 64.0114 1631.34 63.8929C1627.62 63.0928 1628.45 63.8973 1625.84 64.1811C1625.11 64.2617 1624.12 63.328 1622.85 63.5387C1621.25 63.8019 1620.5 65.3022 1619.73 65.3735C1618.82 65.4603 1616.86 64.1348 1615.12 64.6553C1613.63 65.0998 1612.91 67.0536 1612.02 67.5001C1610.91 68.0636 1608.36 68.7118 1606.26 69.702C1603.58 70.9728 1603.49 69.7118 1601.46 72.671C1601.11 73.1796 1601.31 74.0868 1600.23 74.0863L1600.23 74.0913Z" fill="#FDFDFC"/>
<path d="M1593.82 60.1082C1592.64 59.5615 1592.34 57.3373 1592.89 56.1965C1593.75 54.4343 1599.75 51.919 1601.77 51.1083C1608.33 48.4834 1619.82 45.3242 1626.81 45.4721C1629.11 45.5207 1632.27 46.1947 1631.38 49.3487C1630.55 52.2725 1613.05 57.8284 1609.66 58.5801C1607.31 59.1021 1595.43 60.8537 1593.82 60.1057L1593.82 60.1082ZM1629.79 46.5471C1618.85 52.9508 1606.92 55.4571 1594.45 56.374C1593.02 56.4801 1594.09 58.1023 1595.47 58.2996C1596.59 58.4581 1598.64 58.087 1599.9 57.9446C1607.62 57.0776 1622.14 53.6456 1628.55 49.4304C1629.75 48.6458 1630.5 48.1053 1629.79 46.5471Z" fill="#A4D9CD"/>
<path d="M1653.24 125.734C1653.68 127.638 1654.76 128.993 1653.53 130.754C1648.74 137.613 1623.55 144.673 1616.2 140.811C1614.86 140.106 1612.69 136.65 1614.46 136.426C1615.84 136.253 1618.19 137.17 1619.92 137.232C1631.01 137.642 1645.08 133.389 1653.24 125.736L1653.24 125.734Z" fill="#A4D9CD"/>
<path d="M1632.98 63.982C1633.03 64.7318 1633.57 65.6568 1633.58 66.6335C1633.66 72.4484 1629.76 77.1464 1628.88 82.7569C1627.57 84.8929 1616.26 87.909 1613.75 87.0842C1613.17 86.894 1604.93 80.5361 1604.03 79.667C1601.86 77.5737 1601.59 76.4506 1600.23 74.0888C1601.31 74.0893 1601.11 73.1821 1601.46 72.6735C1602.98 78.9445 1610.19 81.3801 1614.34 85.6633C1617.28 86.1113 1626.08 84.1261 1627.34 81.6707C1628.42 75.6848 1633.55 70.1468 1631.34 63.8922C1631.89 64.0107 1632.42 64.071 1632.98 63.9788L1632.98 63.982Z" fill="#FCEEDB"/>
<path d="M1611.48 89.9506C1613.65 89.0275 1618.88 89.2942 1621.71 88.5302C1624.72 87.7173 1630.56 84.0192 1633.01 84.4001C1633.67 84.5044 1634.45 84.4882 1634.56 85.3549C1634.68 88.5264 1613.99 94.1607 1610.2 92.6052C1608.36 91.8536 1610.55 90.3447 1611.48 89.9506Z" fill="#FCEEDB"/>
<path d="M1632.84 63.4813L1632.79 61.3408C1632.87 62.2289 1632.81 62.9153 1632.84 63.4813Z" fill="#FCEEDB"/>
<path d="M1632.88 59.7009C1631.98 59.6476 1631.76 58.3305 1632.32 57.6984C1632.41 58.3565 1632.8 59.0464 1632.88 59.7009Z" fill="#FCEEDB"/>
<path d="M1621.67 133.749C1621.21 133.696 1617.68 131.449 1617.89 130.378C1618.16 127.299 1614.29 111.407 1615.49 109.971C1620.92 109.389 1625.88 108.879 1631.12 107.044C1634.41 105.89 1638.03 101.91 1640.14 106.042C1642.05 109.78 1645.63 117.977 1646.81 121.874C1648.8 128.431 1634.2 131.832 1629.61 132.777C1628.29 133.05 1622.66 133.86 1621.67 133.746L1621.67 133.749ZM1622.21 111.232C1621.72 111.043 1617.28 111.731 1617.14 111.983L1618.86 120.133C1622.19 117.101 1626.19 117.646 1629.99 116.566C1633.62 115.536 1636.59 113.178 1640.87 114.062L1638.16 106.189C1637.84 106.004 1634.29 107.666 1633.87 108.188C1633.18 109.05 1633.99 110.962 1633.32 112.1C1632.36 113.744 1628.91 114.875 1627.07 114.941C1623.1 115.084 1623.23 111.633 1622.21 111.235L1622.21 111.232ZM1631.43 109.126C1631.14 108.963 1626.2 110.744 1625.18 110.844C1624.94 115.588 1634.09 110.618 1631.43 109.126Z" fill="#E76E2F"/>
<path d="M1622.86 98.1337C1630.81 93.8565 1632.67 106.577 1625.23 106.279C1621.38 106.125 1619.74 99.8099 1622.86 98.1337ZM1624.75 99.2324C1622.17 100.204 1623.15 104.565 1625.54 104.315C1629.37 103.917 1627.79 98.0827 1624.75 99.2324Z" fill="#E76E2F"/>
<path d="M1631.34 63.8953C1633.55 70.1498 1628.42 75.6897 1627.33 81.6738C1626.08 84.1292 1617.28 86.1118 1614.34 85.6664C1610.18 81.3832 1602.98 78.9476 1601.45 72.6766C1603.49 69.7156 1603.58 70.9765 1606.26 69.7076C1608.36 68.7174 1610.9 68.0667 1612.02 67.5057C1612.91 67.0592 1613.63 65.1028 1615.12 64.6609C1616.86 64.1403 1618.82 65.4658 1619.73 65.3791C1620.5 65.3078 1621.25 63.8068 1622.85 63.5442C1624.12 63.3353 1625.11 64.2673 1625.84 64.1867C1628.45 63.9029 1627.62 63.0983 1631.34 63.8985L1631.34 63.8953ZM1619.1 68.3397C1619.17 65.5828 1614.28 65.9585 1614.18 67.8747C1614.01 71.0069 1617.65 69.4857 1619.1 68.3397ZM1624.65 65.2849C1624.17 64.8485 1622.34 65.3182 1621.76 65.804C1621.41 66.101 1620.19 70.4706 1619.48 70.9159C1618.66 71.4372 1617.74 70.5376 1617.32 70.6471C1617.08 70.7109 1616.59 71.5416 1616.01 71.8673C1615.15 72.3572 1612.52 72.3151 1614.26 73.9214C1614.37 74.0233 1616.93 74.3222 1617.24 74.231C1618.15 73.9538 1618.6 72.3865 1619.86 71.9064C1621.13 71.4263 1622.33 71.9177 1623.82 71.2471C1625.66 70.4168 1624.56 69.2563 1625.06 68.5704C1626.41 66.6891 1627.58 70.5307 1629.6 70.297C1631.72 61.2965 1625.73 67.5009 1625.25 67.1944C1625.02 66.6537 1625.04 65.6398 1624.65 65.2862L1624.65 65.2849ZM1607.07 75.4358C1606.34 70.5971 1610.63 73.07 1612.11 72.2168C1614.7 70.7258 1612.65 68.5727 1609.85 69.4047C1608.82 69.7104 1608.92 71.0442 1607.84 71.4611C1606.49 71.9874 1602.36 70.8835 1603.43 73.9698C1603.63 74.5502 1605.24 76.4662 1605.77 76.6071C1606.56 76.8131 1607.68 76.2369 1607.84 76.3041C1608.06 76.3934 1606.98 78.9718 1609.7 80.1267C1610.28 80.3736 1611.08 80.1029 1611.48 80.2949C1612.17 80.6292 1613.46 82.732 1614.62 83.3309C1616.64 84.3796 1620.6 83.8758 1618.33 81.5944C1618.11 81.3636 1616.95 81.5337 1616.71 81.1213C1616.08 80.0511 1618.59 78.1966 1618.53 77.8812C1618.03 75.1372 1615.25 75.8139 1613.72 75.2325C1612.74 74.8581 1611.69 73.3324 1611.02 73.3522C1610.1 73.3804 1608.31 75.3882 1607.07 75.4333L1607.07 75.4358ZM1624.04 74.5199C1620.72 69.8147 1617.03 78.0212 1621.74 76.8285C1622.53 76.628 1622.51 74.5655 1624.04 74.5199ZM1628.99 71.0076C1625.34 72.4023 1624.19 71.7188 1626.59 75.9736L1622.6 77.0812C1622.37 77.4476 1624.72 79.9223 1623.3 80.6524C1621.87 81.393 1621.5 78.5672 1621.37 78.4929C1621.12 78.3483 1618.58 79.6482 1618.52 79.8424C1617.9 81.9413 1620.25 80.8654 1620.38 80.9487C1620.77 81.1927 1620.74 82.7689 1620.97 82.917C1621.17 83.0433 1624.83 81.9329 1625.41 81.4233C1625.83 81.058 1629.54 71.3283 1628.99 71.0057L1628.99 71.0076Z" fill="#E76E2F"/>
<path d="M1629.79 46.5471C1630.5 48.106 1629.74 48.6464 1628.55 49.4303C1622.13 53.6456 1607.62 57.0775 1599.9 57.9446C1598.64 58.0869 1596.59 58.4605 1595.47 58.2996C1594.09 58.1023 1593.02 56.4801 1594.45 56.374C1606.92 55.4571 1618.85 52.9508 1629.79 46.5471Z" fill="#E76E2F"/>
<path d="M1622.21 111.232C1623.23 111.63 1623.1 115.081 1627.07 114.938C1628.92 114.872 1632.36 113.742 1633.33 112.096C1633.99 110.956 1633.18 109.047 1633.87 108.185C1634.29 107.663 1637.84 106.004 1638.16 106.186L1640.87 114.059C1636.6 113.176 1633.63 115.534 1629.99 116.563C1626.19 117.64 1622.19 117.098 1618.86 120.13L1617.14 111.98C1617.28 111.73 1621.73 111.039 1622.21 111.229L1622.21 111.232Z" fill="#A4D9CD"/>
<path d="M1631.43 109.126C1634.09 110.618 1624.94 115.588 1625.18 110.844C1626.2 110.744 1631.14 108.963 1631.43 109.126Z" fill="#A4D9CD"/>
<path d="M1624.75 99.2324C1627.8 98.0852 1629.37 103.919 1625.54 104.315C1623.15 104.565 1622.17 100.201 1624.75 99.2324Z" fill="#A4D9CD"/>
<path d="M1607.07 75.4359C1608.31 75.3915 1610.11 73.3856 1611.02 73.3548C1611.69 73.335 1612.74 74.8607 1613.72 75.2351C1615.25 75.8165 1618.03 75.1398 1618.54 77.8838C1618.59 78.1993 1616.08 80.0544 1616.71 81.1239C1616.95 81.5363 1618.11 81.3663 1618.33 81.597C1620.6 83.8809 1616.65 84.3847 1614.62 83.3336C1613.45 82.7328 1612.17 80.6293 1611.48 80.2976C1611.08 80.1055 1610.28 80.3762 1609.7 80.1293C1606.98 78.9737 1608.06 76.396 1607.85 76.3067C1607.68 76.2395 1606.56 76.8157 1605.77 76.6097C1605.24 76.4688 1603.63 74.5528 1603.43 73.9724C1602.36 70.8836 1606.49 71.9875 1607.85 71.4637C1608.92 71.0468 1608.82 69.7123 1609.85 69.4073C1612.65 68.576 1614.7 70.7266 1612.11 72.2194C1610.62 73.0733 1606.34 70.6004 1607.07 75.4384L1607.07 75.4359ZM1613.74 76.315C1611.45 75.5335 1608.56 79.6451 1610.59 79.3148C1612.76 78.9634 1613.4 78.1212 1614 81.0673C1617.64 80.1471 1614.1 78.5401 1613.74 76.3125L1613.74 76.315Z" fill="#FCD3A2"/>
<path d="M1624.65 65.2851C1625.04 65.6386 1625.03 66.6532 1625.25 67.1932C1625.74 67.4998 1631.73 61.2954 1629.6 70.2959C1627.58 70.527 1626.41 66.6879 1625.06 68.5693C1624.57 69.2577 1625.66 70.4182 1623.82 71.246C1622.34 71.9166 1621.11 71.4339 1619.87 71.9053C1618.63 72.3767 1618.16 73.952 1617.24 74.2298C1616.93 74.3236 1614.37 74.0215 1614.26 73.9203C1612.53 72.3165 1615.16 72.356 1616.02 71.8661C1616.59 71.5387 1617.08 70.7105 1617.33 70.646C1617.74 70.5365 1618.66 71.436 1619.49 70.9148C1620.19 70.4695 1621.42 66.0999 1621.77 65.8028C1622.35 65.3171 1624.18 64.8473 1624.66 65.2837L1624.65 65.2851Z" fill="#FCD3A2"/>
<path d="M1628.99 71.0077C1629.54 71.331 1625.83 81.0575 1625.41 81.4252C1624.84 81.9349 1621.17 83.0452 1620.97 82.9189C1620.74 82.7684 1620.77 81.1921 1620.39 80.9507C1620.26 80.8699 1617.9 81.9458 1618.53 79.8444C1618.59 79.6477 1621.12 78.3477 1621.37 78.4949C1621.5 78.5717 1621.87 81.395 1623.31 80.6544C1624.72 79.9243 1622.38 77.4496 1622.6 77.0832L1626.6 75.9756C1624.19 71.7215 1625.35 72.4018 1629 71.0095L1628.99 71.0077Z" fill="#FCD3A2"/>
<path d="M1619.1 68.3399C1617.65 69.4859 1614.01 71.0096 1614.18 67.8748C1614.28 65.9587 1619.17 65.583 1619.1 68.3399Z" fill="#FCD3A2"/>
<path d="M1624.04 74.5199C1622.51 74.5648 1622.53 76.628 1621.74 76.8286C1617.03 78.0219 1620.72 69.8147 1624.04 74.5199Z" fill="#FCD3A2"/>
<path d="M1613.74 76.315C1614.1 78.5401 1617.64 80.1471 1614.01 81.0698C1613.4 78.1237 1612.77 78.9634 1610.59 79.3173C1608.57 79.6451 1611.45 75.5335 1613.75 76.3175L1613.74 76.315Z" fill="#E76E2F"/>
</g>
<g opacity="0.2">
<path d="M54.78 0.0806292C66.1092 -0.690168 67.08 4.225 74.7312 8.01563C84.8362 13.0205 92.0232 11.4156 98.4344 24.4241C101.49 30.6274 105.146 51.4073 104.613 58.4395C103.695 70.4871 95.453 83.7226 84.5196 89.0179C76.0504 93.12 61.6027 100.089 52.4529 99.9991C37.066 99.846 4.25534 83.5643 1.40591 66.6015C0.577466 61.6599 -0.229899 45.5999 0.060321 40.4155C0.804339 27.1588 7.97543 24.0914 15.9749 16.2145C22.8136 9.48326 24.1697 3.89237 35.7257 2.18712C41.0077 1.40576 49.4716 0.439631 54.78 0.0806292ZM88.3663 20.2375C82.9471 15.1587 77.8921 15.5969 72.1668 12.6879C69.4546 11.31 67.117 8.31125 64.1356 6.99667C56.4158 3.59672 53.2708 6.31561 45.9836 7.18144C39.6674 7.93112 34.301 6.75908 28.2328 10.5391C27.188 11.1885 12.0068 26.1874 10.6665 27.8082C8.50307 30.4268 6.47681 34.4444 5.84888 37.7652C4.97822 42.3583 5.86475 58.545 6.4188 63.6872C7.0098 69.1884 10.3342 74.2989 14.3075 77.9681C18.2809 81.6373 40.9181 92.9722 46.0893 93.685C57.6664 95.2846 74.4675 88.6008 84.4299 82.6034C92.1128 77.9733 98.5821 66.3322 99.2839 57.3413C99.7377 51.5234 95.6114 30.8809 92.7936 25.8443C92.2817 24.9309 89.1473 20.9766 88.3663 20.2427V20.2375Z" fill="#E76E2F"/>
<path d="M88.3674 20.2374C89.1536 20.9712 92.2881 24.9255 92.7947 25.8388C95.6072 30.8754 99.7387 51.5179 99.2849 57.3359C98.5831 66.332 92.1192 77.9679 84.431 82.598C74.4738 88.5954 57.6728 95.2792 46.0903 93.6795C40.9192 92.9668 18.3031 81.6424 14.3086 77.9627C10.3142 74.2829 7.01088 69.1829 6.41989 63.6818C5.86583 58.5396 4.9793 42.3529 5.84996 37.7598C6.47789 34.4443 8.50416 30.4266 10.6676 27.8028C12.0026 26.182 27.1891 11.1831 28.2339 10.5338C34.3021 6.7537 39.6685 7.92567 45.9847 7.17599C53.2719 6.31017 56.4116 3.59127 64.1367 6.99123C67.1181 8.30581 69.4556 11.3045 72.1679 12.6825C77.8931 15.5914 82.9482 15.1533 88.3674 20.2321V20.2374ZM24.366 27.2431C29.1467 25.4164 31.7112 28.5313 36.513 28.4046C52.3063 27.9823 48.7286 6.6111 33.5791 13.7753C26.7194 17.0169 29.7166 23.632 24.366 27.2484V27.2431ZM73.6822 20.0737C66.585 21.6417 66.6643 33.23 74.9487 35.2415C91.2696 39.201 87.0271 17.1278 73.6822 20.0737ZM52.5859 36.9784C42.3438 37.9604 42.7396 54.39 56.3271 51.3121C64.6485 49.4273 62.0154 36.0756 52.5859 36.9784ZM17.7227 43.319C11.3378 45.2196 11.0898 57.0244 16.6568 58.7244C32.4236 63.5339 33.194 38.7101 17.7227 43.319ZM90.8474 43.0973H87.692C87.444 45.0454 87.6287 46.1963 89.2856 47.305H90.8474V43.0973ZM88.4518 53.9465C82.0511 47.4845 70.3949 57.9695 77.0911 64.7799C84.3888 72.2028 95.4909 61.0474 88.4518 53.9465ZM44.7553 79.7154C50.5017 85.9979 63.8518 80.4545 59.6885 70.5609C55.2455 60.0073 35.901 70.0329 44.7553 79.7154ZM25.416 74.7633C27.3579 72.8152 21.9756 67.8948 19.0945 69.4944C18.3875 71.9441 24.0599 76.1254 25.416 74.7633ZM75.0173 76.8856C72.2048 74.0928 67.8251 83.1312 73.429 81.0933C74.8273 80.5865 75.6346 77.498 75.0173 76.8856Z" fill="#FFE0A9"/>
<path d="M24.3652 27.2434C29.7158 23.627 26.7186 17.0119 33.5784 13.7704C48.7279 6.61146 52.3055 27.9773 36.5123 28.3997C31.7104 28.5264 29.1459 25.4115 24.3652 27.2381V27.2434Z" fill="#E76E2F"/>
<path d="M44.755 79.7157C35.9007 70.0333 55.2452 60.0129 59.6882 70.5612C63.8515 80.4496 50.5014 85.9983 44.755 79.7157Z" fill="#E76E2F"/>
<path d="M73.6791 20.0739C87.024 17.128 91.2718 39.2013 74.9456 35.2417C66.6612 33.2302 66.5819 21.6419 73.6791 20.0739Z" fill="#E76E2F"/>
<path d="M17.7217 43.3192C33.1877 38.7103 32.4173 63.5341 16.6557 58.7246C11.0941 57.0246 11.3368 45.2198 17.7217 43.3192Z" fill="#E76E2F"/>
<path d="M52.5862 36.9785C62.0157 36.0758 64.6488 49.4327 56.3274 51.3122C42.7399 54.3901 42.3441 37.9552 52.5862 36.9785Z" fill="#E76E2F"/>
<path d="M88.4507 53.9467C95.4951 61.0528 84.3877 72.2029 77.09 64.7801C70.3886 57.9696 82.0447 47.4846 88.4507 53.9467Z" fill="#E76E2F"/>
<path d="M25.4154 74.7636C24.0593 76.1257 18.3869 71.9444 19.0939 69.4947C21.975 67.895 27.3573 72.8102 25.4154 74.7636Z" fill="#E76E2F"/>
<path d="M75.0156 76.8858C75.6382 77.5035 74.8309 80.5867 73.4273 81.0935C67.8234 83.1314 72.2031 74.093 75.0156 76.8858Z" fill="#E76E2F"/>
<path d="M90.8469 43.0974V47.3104H89.285C87.6281 46.2017 87.4434 45.0508 87.6914 43.1027H90.8469V43.0974Z" fill="#E76E2F"/>
</g>
</svg>
