<svg width="1697" height="152" viewBox="0 0 1697 152" fill="none" xmlns="http://www.w3.org/2000/svg">
<g opacity="0.2">
<path d="M1672.89 94.0467C1674.06 97.2929 1678.52 98.7877 1679.22 105.247C1679.52 108.095 1679.75 109.833 1680.17 112.585C1680.94 117.679 1680.08 125.868 1673.44 125.963C1668.62 126.03 1667.93 123.736 1664.49 121.978C1662.63 121.026 1660.85 121.4 1659.05 120.52C1657.59 119.812 1656.04 117.943 1655.11 117.685C1654.19 117.427 1650.62 118.301 1647.81 117.477C1644.09 116.383 1643.63 114.943 1639.68 115.27C1635.48 115.619 1630.04 114.794 1626.34 112.673C1625.08 111.955 1624.37 110.456 1622.83 110.075C1621.64 109.783 1617.15 110.704 1614.51 110.055C1611.46 109.309 1609.36 107.112 1607.11 106.53C1606.24 106.305 1602.04 107.015 1600.33 106.84C1598.77 106.678 1597.27 105.764 1595.72 105.736C1592.9 105.688 1590.52 107.735 1586.85 106.336C1579.7 103.614 1579.22 97.9234 1581.72 91.5762C1583.46 87.1579 1585.22 83.8592 1589.01 80.9123C1590.48 79.7706 1595.31 77.6625 1595.9 76.9593C1596.43 76.323 1596.97 74.2444 1597.83 73.0171C1600.76 68.8325 1605.41 67.1797 1610.17 66.2219C1612.28 65.7977 1616.33 65.8904 1617.89 65.3641C1619.45 64.8378 1621.27 62.7292 1623.14 61.8834C1632.13 57.8146 1651.86 62.8324 1656.7 71.6568C1657.34 72.8155 1657.73 75.1001 1658.2 75.6061C1662.37 80.1041 1668.67 79.7786 1672.03 87.9495C1672.89 90.0449 1672.47 92.88 1672.89 94.0446L1672.89 94.0467ZM1629.7 101.678C1628.72 103.994 1626.64 106.362 1625.54 108.7C1631.79 113.129 1639.35 114.577 1645.26 108.9C1652.74 101.715 1661.43 79.1957 1652.65 70.5295C1646.41 64.3735 1628.95 60.1753 1621.37 66.2553C1630.35 72.86 1632.73 84.2553 1631.18 94.7987C1630.95 96.3496 1630.23 100.425 1629.7 101.676L1629.7 101.678ZM1644.73 113.173C1656.29 121.201 1668.19 104.573 1670.16 94.5685C1671.53 87.613 1664.55 82.1364 1659.14 79.161C1658.41 82.3016 1658.58 85.4833 1657.93 88.673C1656.05 97.9207 1651.54 106.634 1644.73 113.173ZM1657.81 116.323C1662.5 120.093 1666.4 119.656 1670.91 116.028C1677.81 110.474 1678.73 104.076 1672.65 97.5366C1672.1 96.9416 1671.96 97.1808 1671.65 97.7891C1670.65 99.8143 1669.86 102.763 1668.76 104.682C1666.14 109.249 1661.99 113.237 1657.81 116.322L1657.81 116.323ZM1619.82 68.6378C1617.08 67.5473 1609.27 69.002 1606.47 70.0955C1604.35 70.9248 1599.6 73.7482 1599.01 75.9373C1598.61 77.417 1601.4 77.1922 1602.7 77.8679C1609.63 81.4737 1613.24 94.1931 1611.25 101.348C1610.3 104.761 1608.05 104.735 1612.97 106.856C1626.47 112.672 1629.28 98.1982 1629.23 88.0794C1629.2 81.7227 1626.25 71.1977 1619.82 68.6399L1619.82 68.6378ZM1667.42 121.444C1675.16 126.163 1679.7 120.885 1677.33 112.949C1675.42 114.281 1674.23 116.315 1672.45 117.839C1670.81 119.234 1668.72 119.785 1667.42 121.444ZM1585.92 89.2404C1591.57 90.2051 1595.4 94.2164 1597.03 99.5712C1597.45 100.943 1596.6 102.511 1598.38 103.579C1600.03 104.57 1607.21 104.41 1608.28 102.826C1612.25 96.9448 1606.26 77.3423 1597.61 79.2399C1593.95 80.0443 1587.24 85.5455 1585.91 89.2392L1585.92 89.2404ZM1587.11 91.8018C1583.83 90.7585 1582.54 95.8602 1583.01 98.4642C1583.62 101.834 1585.82 103.672 1589.17 104.109C1589.8 104.19 1594.56 103.521 1594.77 103.329C1595.87 102.328 1593.87 97.4052 1593.06 96.2521C1591.75 94.3718 1589.3 92.4996 1587.11 91.7997L1587.11 91.8018Z" fill="#E76E2F"/>
<path d="M1629.7 101.678C1630.23 100.425 1630.95 96.3518 1631.18 94.8001C1632.73 84.2532 1630.36 72.8579 1621.37 66.2566C1628.95 60.1753 1646.42 64.3748 1652.65 70.5309C1661.43 79.197 1652.75 101.716 1645.26 108.901C1639.35 114.578 1631.8 113.132 1625.54 108.701C1626.64 106.363 1628.72 103.995 1629.7 101.679L1629.7 101.678ZM1642.91 73.5612C1644.95 72.547 1641.96 67.2886 1641.35 67.4684C1640.11 68.4302 1641.82 73.863 1642.91 73.5612ZM1651.12 85.9015C1652.8 84.3315 1652.25 82.2526 1652.67 80.6349C1653.04 79.2284 1654.83 77.3108 1653.74 75.6685C1651.74 72.6573 1652.21 75.574 1651.95 76.426C1651.22 78.8267 1650.99 81.6387 1650.58 84.4351C1650.46 85.2736 1649.91 85.4472 1651.12 85.9015ZM1634.47 64.5377C1633.34 64.7625 1635.99 69.6263 1636.36 70.0153C1637.5 71.2246 1638.83 70.0854 1638.11 68.4767C1637.81 67.8132 1635.05 64.4216 1634.47 64.5377ZM1633.3 99.4958C1634.51 102.407 1636.09 95.1284 1636.2 94.595C1637.78 87.0199 1637.45 78.5981 1633.39 71.8479C1632.32 70.0647 1628.77 64.2622 1626.77 66.8652C1633.47 71.7877 1636.04 80.6171 1635.42 88.6582C1635.26 90.6621 1633.09 98.985 1633.3 99.4937L1633.3 99.4958Z" fill="#FCD3A2"/>
<path d="M1619.82 68.6376C1626.25 71.1954 1629.2 81.7204 1629.23 88.0772C1629.29 98.1959 1626.48 112.671 1612.98 106.854C1608.05 104.733 1610.3 104.759 1611.25 101.346C1613.24 94.1929 1609.63 81.4701 1602.7 77.8656C1601.4 77.1921 1598.62 77.4147 1599.02 75.935C1599.61 73.7459 1604.35 70.9226 1606.47 70.0933C1609.27 69.0006 1617.08 67.545 1619.82 68.6355L1619.82 68.6376ZM1616.77 70.1513C1615.67 71.4101 1616.42 72.0316 1617.08 73.1367C1617.6 73.994 1619.99 77.6138 1621.09 76.4364C1622.04 75.4139 1617.55 69.9484 1616.77 70.1513ZM1615.02 76.0081C1617.51 75.3948 1611.48 68.7816 1610.82 72.9495C1611.87 73.1388 1614.41 76.1588 1615.02 76.0081ZM1614.48 102.141C1617.45 94.2478 1616.1 82.555 1609.33 76.9257C1608.35 76.1083 1604.88 73.511 1603.85 73.9584C1601.22 75.0917 1604.54 75.5257 1605.49 76.0671C1615.24 81.6299 1613.95 91.5352 1613.92 100.676C1613.91 101.419 1613.2 101.703 1614.47 102.14L1614.48 102.141Z" fill="#FCD3A2"/>
<path d="M1644.73 113.173C1651.54 106.634 1656.05 97.9206 1657.93 88.6729C1658.58 85.4831 1658.41 82.3014 1659.14 79.1608C1664.56 82.1341 1671.53 87.612 1670.16 94.5684C1668.19 104.572 1656.29 121.2 1644.73 113.173ZM1661.75 89.3263C1661.88 89.5895 1662.7 89.9153 1663.15 89.8873C1664.98 89.7667 1664.86 82.8014 1663.06 83.2144C1662.76 83.2836 1661.61 89.0471 1661.75 89.3297L1661.75 89.3263ZM1668.02 91.3226C1667.02 90.5032 1667.03 90.9748 1666.55 91.8776C1665.02 94.7571 1664.92 99.0963 1662.4 101.794L1663.67 102.548C1666.12 99.1396 1667.33 95.408 1668.02 91.3226Z" fill="#FCD3A2"/>
<path d="M1585.92 89.2404C1587.24 85.5467 1593.95 80.0455 1597.62 79.241C1606.26 77.3435 1612.25 96.9447 1608.29 102.827C1607.22 104.411 1600.03 104.572 1598.38 103.58C1596.6 102.512 1597.45 100.944 1597.03 99.5723C1595.4 94.2176 1591.57 90.205 1585.92 89.2416L1585.92 89.2404ZM1598.78 85.9405C1600.42 84.0263 1597.52 81.3269 1595.41 81.9419L1598.78 85.9405ZM1599.88 101.544C1603.01 100.778 1595.63 85.4004 1591.03 87.3961L1596.61 93.5397C1597.19 94.8018 1597.87 96.1257 1598.31 97.4387C1598.59 98.2804 1598.53 101.876 1599.88 101.545L1599.88 101.544Z" fill="#FCD3A2"/>
<path d="M1657.81 116.323C1661.99 113.238 1666.14 109.25 1668.76 104.683C1669.86 102.762 1670.65 99.8176 1671.66 97.7902C1671.96 97.1819 1672.1 96.9427 1672.66 97.5377C1678.74 104.075 1677.81 110.475 1670.91 116.029C1666.4 119.657 1662.5 120.095 1657.81 116.324L1657.81 116.323ZM1674.44 103.758C1672.98 100.9 1668.73 108.173 1672.06 107.84C1673.16 107.729 1674.65 104.166 1674.44 103.758Z" fill="#FCD3A2"/>
<path d="M1587.11 91.8018C1589.3 92.5017 1591.75 94.3739 1593.06 96.2542C1593.87 97.4073 1595.87 102.33 1594.77 103.332C1594.56 103.522 1589.8 104.193 1589.17 104.111C1585.81 103.674 1583.62 101.836 1583.01 98.4663C1582.54 95.8602 1583.83 90.7584 1587.11 91.8039L1587.11 91.8018Z" fill="#FCD3A2"/>
<path d="M1667.42 121.444C1668.72 119.783 1670.81 119.234 1672.45 117.839C1674.23 116.317 1675.43 114.282 1677.33 112.949C1679.7 120.885 1675.16 126.163 1667.42 121.444Z" fill="#FCD3A2"/>
<path d="M1633.3 99.4958C1633.09 98.9871 1635.26 90.6654 1635.42 88.6603C1636.04 80.6192 1633.47 71.7889 1626.76 66.8673C1628.77 64.2643 1632.32 70.0668 1633.39 71.85C1637.45 78.5981 1637.78 87.022 1636.2 94.5971C1636.09 95.1292 1634.51 102.408 1633.3 99.4979L1633.3 99.4958Z" fill="#E76E2F"/>
<path d="M1651.11 85.9015C1649.91 85.4472 1650.46 85.2736 1650.58 84.4351C1650.99 81.6374 1651.22 78.8268 1651.95 76.426C1652.21 75.574 1651.74 72.6574 1653.74 75.6685C1654.82 77.3108 1653.04 79.2275 1652.67 80.635C1652.24 82.2548 1652.8 84.3349 1651.11 85.9015Z" fill="#F0B77F"/>
<path d="M1634.47 64.5376C1635.05 64.4215 1637.81 67.8131 1638.11 68.4766C1638.83 70.0853 1637.5 71.2245 1636.36 70.0152C1635.99 69.624 1633.34 64.7624 1634.47 64.5376Z" fill="#F0B77F"/>
<path d="M1642.91 73.561C1641.82 73.8628 1640.12 68.4313 1641.35 67.4682C1641.96 67.2883 1644.95 72.5467 1642.91 73.561Z" fill="#F0B77F"/>
<path d="M1614.47 102.141C1613.2 101.705 1613.91 101.42 1613.92 100.678C1613.95 91.5353 1615.24 81.6299 1605.49 76.0684C1604.54 75.5236 1601.22 75.0917 1603.85 73.9596C1604.88 73.5122 1608.35 76.1109 1609.33 76.927C1616.1 82.555 1617.45 94.2491 1614.48 102.143L1614.47 102.141Z" fill="#E76E2F"/>
<path d="M1616.77 70.1513C1617.55 69.9484 1622.03 75.414 1621.09 76.4365C1619.99 77.6138 1617.6 73.9941 1617.08 73.1367C1616.42 72.0303 1615.67 71.4089 1616.77 70.1513Z" fill="#F0B77F"/>
<path d="M1615.02 76.0081C1614.41 76.1575 1611.87 73.1375 1610.82 72.9495C1611.48 68.7816 1617.51 75.3961 1615.02 76.0081Z" fill="#F0B77F"/>
<path d="M1668.02 91.3229C1667.33 95.4096 1666.12 99.1399 1663.67 102.548L1662.4 101.795C1664.92 99.0978 1665.02 94.7574 1666.55 91.8779C1667.03 90.9751 1667.02 90.5034 1668.02 91.3229Z" fill="#E76E2F"/>
<path d="M1661.75 89.3264C1661.61 89.0451 1662.76 83.2816 1663.06 83.2111C1664.86 82.8002 1664.98 89.7656 1663.14 89.884C1662.7 89.912 1661.87 89.5883 1661.75 89.323L1661.75 89.3264Z" fill="#F0B77F"/>
<path d="M1599.88 101.545C1598.53 101.875 1598.59 98.2784 1598.31 97.4379C1597.87 96.1249 1597.19 94.8011 1596.62 93.5389L1591.04 87.3953C1595.63 85.3996 1603.01 100.777 1599.89 101.544L1599.88 101.545Z" fill="#E76E2F"/>
<path d="M1598.78 85.9407L1595.41 81.9421C1597.52 81.3271 1600.42 84.0265 1598.78 85.9407Z" fill="#F0B77F"/>
<path d="M1674.44 103.758C1674.65 104.167 1673.16 107.732 1672.06 107.84C1668.73 108.173 1672.98 100.9 1674.44 103.758Z" fill="#F0B77F"/>
</g>
<g opacity="0.2">
<path d="M47.383 5.41771C49.3482 5.63303 52.6222 6.99454 54.6004 7.75088C65.3627 11.8738 80.294 18.5045 90.5376 23.7715C99.524 28.3932 94.2051 32.7416 93.0439 39.8513C92.3155 44.3222 93.3987 51.9685 92.9351 57.2169C92.5001 62.1424 91.6531 67.053 90.6713 71.8987C88.6341 81.926 85.526 96.5363 82.3025 105.996C81.6611 107.876 79.9593 110.088 78.0767 110.808C75.2471 111.886 56.2479 113.476 53.3175 112.771C51.8996 112.432 50.2637 111.729 48.8953 111.153C37.7287 106.459 20.7615 97.1632 10.1307 90.9075C1.95759 86.0988 3.08787 85.0378 6.43064 76.3596C11.253 63.8402 20.8884 43.1503 28.2354 32.1667C31.34 27.5242 38.2304 21.079 40.3904 16.8611C41.9451 13.8205 41.7972 4.81143 47.3821 5.42052L47.383 5.41771ZM90.7945 27.6246C85.4595 25.8048 49.0126 7.67427 46.7055 8.80145C44.3985 9.92862 44.9858 12.8777 44.4129 14.6309C41.9313 22.2002 34.7693 27.9157 30.3882 34.6362C24.0585 44.3383 16.6701 60.4728 11.9169 71.3276C10.7145 74.0711 7.78833 80.4062 7.29234 82.9544C7.13358 83.76 6.89381 84.4721 7.43858 85.2196L52.8493 109.445C53.8284 107.733 53.4715 105.653 54.0826 103.935C59.91 87.5225 68.3322 66.0862 77.3886 51.2864C79.9597 47.0863 84.3128 42.2044 86.4074 38.2152C88.1879 34.8249 88.4369 30.7207 90.7964 27.6283L90.7945 27.6246ZM92.6461 31.3909L91.5223 31.0076L88.3584 40.2833C87.67 42.3015 80.5976 51.1101 78.7932 54.1471C71.1284 67.0557 64.3327 84.4592 59.0139 98.6544C57.6589 102.268 56.6351 106.033 55.2933 109.645C58.6332 109.655 76.7281 108.776 78.047 106.932C78.8559 105.802 79.7895 102.431 80.2596 100.878C83.9371 88.6988 88.6102 69.8778 89.7469 57.3783C90.0423 54.1309 89.2089 41.4677 89.6748 40.1017L92.6471 31.3881L92.6461 31.3909Z" fill="#E76E2F"/>
<path d="M90.7944 27.6245C88.4349 30.7169 88.1888 34.822 86.4054 38.2113C84.308 42.1996 79.9577 47.0825 77.3866 51.2825C68.3284 66.0786 59.9061 87.5149 54.0806 103.931C53.4694 105.65 53.8292 107.73 52.8473 109.441L7.43658 85.2158C6.89085 84.4711 7.13157 83.7562 7.29032 82.9506C7.78912 80.4033 10.7153 74.0682 11.9149 71.3238C16.67 60.4727 24.0584 44.3383 30.3861 34.6324C34.7701 27.9128 41.9321 22.1973 44.4109 14.6271C44.9857 12.8776 44.4107 9.92018 46.7036 8.7976C48.9965 7.67503 85.4565 25.8037 90.7925 27.6207L90.7944 27.6245ZM83.9706 36.587C84.6033 35.2652 84.6317 34.5846 83.3272 33.8666L45.9929 17.3632L45.4195 19.0441L83.9706 36.587ZM46.7896 45.0474C50.4288 53.3929 66.9925 44.094 60.4497 36.6941C55.6901 31.3115 43.8423 38.2872 46.7896 45.0474ZM43.5598 42.8851C45.2883 40.3463 38.2184 37.4891 36.3496 36.7983C34.4808 36.1075 32.9863 37.5558 34.6837 38.5835C37.3738 40.2134 40.7812 41.3035 43.5598 42.8851ZM70.1417 53.2231C69.8332 52.3805 56.7932 46.3196 58.7237 49.9372L69.5778 54.8947C69.6592 54.4078 70.2163 53.4274 70.1417 53.2231ZM64.1155 56.1788C63.6872 55.2827 59.1796 55.1196 59.793 57.8359C60.8459 58.2798 64.9257 57.8766 64.1155 56.1788ZM38.8061 51.3048C38.8157 45.2175 31.3664 46.8562 29.9379 51.6782C28.8414 55.3803 33.0436 59.9327 35.6779 57.7907C38.7938 55.2575 32.4905 57.058 32.1289 53.4014C31.748 49.5531 36.3166 48.9213 38.8061 51.3048ZM42.4206 58.8951C42.6865 59.2556 41.8979 62.1559 42.7727 62.699C43.4839 63.1425 44.304 62.5404 44.5982 61.825C45.1446 60.4989 45.9855 51.8365 44.1772 51.226C42.0373 50.5023 35.8586 58.6587 36.1271 59.1771C37.003 60.8753 40.5889 56.4127 42.4177 58.8941L42.4206 58.8951ZM54.5253 58.5494C57.0367 57.3194 50.8594 53.6935 49.7595 54.0495C49.1469 54.2453 45.0074 62.2344 45.1688 62.9013C45.3302 63.5683 46.5053 64.2515 46.9699 64.1307C47.3828 64.0237 48.5444 61.0687 48.7055 60.9918C49.1219 60.7918 51.7436 62.2635 52.0649 62.1032C52.2505 62.0096 52.694 60.7645 52.3249 60.2558C51.2922 58.8241 48.4075 59.475 50.0283 57.0218C50.9211 57.1537 54.2417 58.6912 54.5253 58.5494ZM57.7085 60.2691C65.3909 64.6499 62.315 58.2757 56.8371 57.5462C53.8424 63.0892 49.047 67.8704 58.1997 69.844C60.0472 66.9472 55.4423 67.1242 55.3269 65.4124C55.1126 62.1512 58.6441 67.024 59.8316 65.0599C61.0865 62.9808 54.9611 63.2574 57.7085 60.2691ZM24.8216 58.5496C23.9993 58.5421 23.8005 58.9136 23.4458 59.5582C22.915 60.5257 20.309 66.4648 20.3038 67.1879C20.295 68.6942 23.9686 69.7025 25.1783 69.7511C28.0219 69.8644 27.5242 66.4595 28.0226 64.888C28.3482 63.86 29.4952 63.0903 29.5301 61.7466C29.57 60.094 26.2391 58.5593 24.8216 58.5496ZM33.6535 62.7326C32.181 59.5192 27.8019 69.507 27.7913 71.0001C27.7806 72.4933 32.7446 73.948 33.0179 73.809C33.2082 73.7108 33.647 72.4704 33.2779 71.9617C32.7657 71.2566 30.5419 70.586 30.4504 70.3947C29.9971 69.4525 33.6748 64.3528 33.6526 62.7354L33.6535 62.7326ZM43.3724 69.1793C44.4582 66.8417 39.2527 64.5044 38.0257 65.4352C37.4726 65.8521 33.7109 74.3058 33.9433 74.7554C34.0961 75.0523 39.6717 77.4907 40.2237 76.5713C41.3713 74.6596 36.059 74.134 36.5068 72.8026C37.2846 70.4948 40.4965 72.9397 40.9119 72.7331C42.5328 70.2799 39.649 70.9279 38.6153 69.4991C36.7646 66.9348 41.9782 68.2739 43.3724 69.1793ZM48.0152 75.7867C46.7002 75.1091 47.3386 67.1967 44.8852 68.4402C44.3727 68.7016 41.3712 76.5171 41.0616 77.811L42.7416 78.3841C43.0091 78.2525 43.7523 73.9592 45.3938 74.2681C45.7875 86.9885 49.8243 77.2134 51.9895 71.4911C48.6098 69.4095 49.3113 73.2008 48.0133 75.783L48.0152 75.7867ZM52.9243 72.4375C52.6942 76.5324 45.5508 82.5335 52.476 83.4429C59.6112 84.38 61.0613 72.9663 52.9243 72.4375ZM52.2151 92.9056L52.0018 90.4417L17.063 72.7629C16.1704 74.5891 16.563 74.4217 17.9137 75.3626L52.2151 92.9056Z" fill="#F0B77F"/>
<path d="M92.6474 31.3908L89.6752 40.1044C89.2092 41.4705 90.0427 54.1337 89.7473 57.381C88.6105 69.8805 83.9375 88.7016 80.26 100.88C79.7908 102.431 78.8562 105.805 78.0474 106.935C76.7285 108.779 58.6308 109.656 55.2936 109.648C56.6365 106.033 57.6592 102.271 59.0143 98.6572C64.332 84.4648 71.1306 67.0622 78.7936 54.1499C80.5979 51.1129 87.6703 42.3043 88.3587 40.2861L91.5227 31.0103L92.6464 31.3937L92.6474 31.3908ZM83.6042 54.0776L81.8601 53.8027C79.551 64.0478 75.7848 73.9214 72.8106 83.9554C72.4115 85.3003 72.4663 86.6934 72.0905 88.0526C71.4073 90.5338 68.0314 95.953 70.7719 97.3522L83.6042 54.0776ZM76.5289 106.219C78.8144 105.082 72.1071 98.3662 70.3921 98.4841C68.6683 99.1795 75.909 106.529 76.5289 106.219ZM69.6329 98.8526C68.6604 96.9959 60.4081 103.287 59.4703 104.345C57.6486 106.403 57.5809 107.999 60.4474 106.335C61.5192 105.712 69.9931 99.5435 69.6329 98.8526Z" fill="#FCD3A2"/>
<path d="M46.7884 45.0475C43.841 38.2873 55.6889 31.3115 60.4484 36.6942C66.9913 44.094 50.4266 53.3957 46.7884 45.0475ZM60.0964 40.3741C59.8528 39.792 54.0529 42.0749 53.409 42.464C52.2191 43.1847 51.1683 43.8931 50.8686 45.3786C54.7151 47.0202 58.7032 43.9436 60.0964 40.3741Z" fill="#E76E2F"/>
<path d="M83.9699 36.587L45.4188 19.0442L45.9922 17.3633L83.3266 33.8667C84.6282 34.5837 84.6027 35.2653 83.9699 36.587Z" fill="#E76E2F"/>
<path d="M52.216 92.9058L17.9146 75.3628C16.5638 74.422 16.174 74.5902 17.0638 72.7631L52.0026 90.442L52.216 92.9058Z" fill="#E76E2F"/>
<path d="M48.0161 75.7868C49.314 73.2046 48.6125 69.4133 51.9922 71.4949C49.8242 77.2163 45.7874 86.9913 45.3965 74.272C43.755 73.9631 43.0119 78.2564 42.7443 78.3879L41.0643 77.8149C41.3739 76.521 44.3764 68.7026 44.8879 68.4441C47.3423 67.1977 46.7029 75.113 48.0179 75.7906L48.0161 75.7868Z" fill="#E76E2F"/>
<path d="M24.8209 58.5497C26.2346 58.5612 29.5693 60.0941 29.5294 61.7467C29.4954 63.0875 28.3475 63.8601 28.0219 64.8881C27.5235 66.4596 28.0212 69.8645 25.1776 69.7512C23.9707 69.7035 20.2943 68.6942 20.3031 67.1879C20.3083 66.4649 22.9144 60.5257 23.4451 59.5583C23.7998 58.9137 23.9986 58.5422 24.8209 58.5497ZM24.2734 62.6649C24.5149 63.1521 27.3948 63.7108 27.5527 62.2272C27.8021 59.9055 23.4277 60.9425 24.2734 62.6649ZM26.3082 65.8756L23.4989 64.9173L22.7394 67.1623C24.5048 67.9998 25.9177 68.1146 26.3082 65.8756Z" fill="#E76E2F"/>
<path d="M52.9235 72.4376C61.0605 72.9664 59.6104 84.38 52.4752 83.4429C45.55 82.5336 52.6934 76.5325 52.9235 72.4376ZM51.9301 80.8848C54.7771 82.6247 58.0074 77.6046 55.7408 75.9654C53.2706 74.1783 52.4884 79.6067 51.9301 80.8848Z" fill="#E76E2F"/>
<path d="M57.7095 60.2691C54.9621 63.2574 61.0874 62.9808 59.8325 65.0599C58.6479 67.025 55.1164 62.1522 55.3278 65.4124C55.4395 67.1261 60.0472 66.95 58.2007 69.844C49.048 67.8704 53.8434 63.0892 56.838 57.5462C62.3151 58.2786 65.3919 64.6499 57.7095 60.2691Z" fill="#E76E2F"/>
<path d="M42.421 58.8951C40.5932 56.4108 37.0063 60.8763 36.1304 59.178C35.8618 58.6597 42.0406 50.5033 44.1804 51.2269C45.9888 51.8375 45.1469 60.5026 44.6015 61.8259C44.3072 62.5414 43.4872 63.1434 42.776 62.7C41.9012 62.1568 42.6869 59.2556 42.4238 58.896L42.421 58.8951ZM43.0868 57.1547L43.2065 54.0639L40.8449 56.39L43.0868 57.1547Z" fill="#E76E2F"/>
<path d="M43.3716 69.1794C41.9775 68.2739 36.7639 66.9349 38.6146 69.4991C39.6473 70.9308 42.532 70.2799 40.9112 72.7331C40.4985 72.9407 37.2839 70.4949 36.5061 72.8026C36.0582 74.1341 41.3678 74.6586 40.2229 76.5713C39.671 77.4907 34.0954 75.0523 33.9426 74.7554C33.7083 74.3021 37.4719 65.8522 38.025 65.4352C39.2538 64.5082 44.4566 66.8446 43.3716 69.1794Z" fill="#E76E2F"/>
<path d="M38.8063 51.3049C36.3168 48.9213 31.7481 49.5532 32.1291 53.4015C32.51 57.2498 38.794 55.2576 35.6781 57.7907C33.0438 59.9327 28.8388 55.3794 29.9381 51.6783C31.3665 46.8562 38.8159 45.2175 38.8063 51.3049Z" fill="#E76E2F"/>
<path d="M54.5259 58.5494C54.2405 58.6874 50.9217 57.1537 50.029 57.0218C48.4081 59.475 51.2918 58.8269 52.3255 60.2558C52.6946 60.7645 52.2511 62.0096 52.0655 62.1032C51.7442 62.2635 49.1253 60.7928 48.7061 60.9918C48.5451 61.0687 47.3834 64.0237 46.9706 64.1307C46.506 64.2515 45.3372 63.5956 45.1694 62.9013C45.0016 62.2071 49.1476 54.2453 49.7601 54.0495C50.86 53.6935 57.0364 57.3222 54.5259 58.5494Z" fill="#E76E2F"/>
<path d="M33.6545 62.7327C33.6768 64.35 30.0019 69.4507 30.4523 70.392C30.5439 70.5832 32.7677 71.2539 33.2799 71.9589C33.649 72.4677 33.2074 73.7071 33.0198 73.8063C32.7457 73.9481 27.7789 72.483 27.7932 70.9974C27.8076 69.5118 32.183 59.5165 33.6555 62.7299L33.6545 62.7327Z" fill="#E76E2F"/>
<path d="M70.143 53.2231C70.2175 53.4274 69.6605 54.4078 69.5791 54.8946L58.725 49.9371C56.7945 46.3196 69.8383 52.3786 70.143 53.2231Z" fill="#E76E2F"/>
<path d="M43.5593 42.8852C40.7797 41.3064 37.3732 40.2135 34.6832 38.5836C32.9857 37.5559 34.4156 36.0856 36.349 36.7984C38.2824 37.5112 45.2878 40.3463 43.5593 42.8852Z" fill="#E76E2F"/>
<path d="M64.1168 56.1789C64.9299 57.8777 60.8473 58.28 59.7943 57.8361C59.181 55.1197 63.6886 55.2829 64.1168 56.1789Z" fill="#E76E2F"/>
<path d="M83.6033 54.0777L70.7711 97.3523C68.0315 95.9503 71.4064 90.5339 72.0896 88.0527C72.4645 86.6963 72.4096 85.3033 72.8097 83.9555C75.7839 73.9215 79.5492 64.0507 81.8592 53.8028L83.6033 54.0777Z" fill="#E76E2F"/>
<path d="M69.6322 98.8528C69.9925 99.5436 61.5186 105.712 60.4468 106.335C57.5802 107.999 57.6479 106.403 59.4697 104.345C60.4075 103.287 68.6598 96.9961 69.6322 98.8528Z" fill="#E76E2F"/>
<path d="M76.5293 106.219C75.9094 106.529 68.6687 99.1794 70.3925 98.484C72.1103 98.3671 78.8148 105.082 76.5293 106.219Z" fill="#E76E2F"/>
<path d="M60.0975 40.374C58.7043 43.9435 54.7172 47.0173 50.8697 45.3786C51.1694 43.8931 52.2202 43.1846 53.4101 42.464C54.054 42.0749 59.8538 39.792 60.0975 40.374Z" fill="#FCD3A2"/>
<path d="M26.3094 65.8755C25.9189 68.1146 24.5069 67.9969 22.7405 67.1622L23.5 64.9172L26.3094 65.8755Z" fill="#F0B77F"/>
<path d="M24.2743 62.6648C23.4286 60.9423 27.803 59.9053 27.5537 62.227C27.3957 63.7107 24.5159 63.152 24.2743 62.6648Z" fill="#FCD3A2"/>
<path d="M51.9301 80.8848C52.4883 79.6067 53.2695 74.1811 55.7407 75.9654C58.0074 77.6046 54.7771 82.6247 51.9301 80.8848Z" fill="#F0B77F"/>
<path d="M43.0857 57.1547L40.84 56.3919L43.2016 54.0658L43.0857 57.1547Z" fill="#FCD3A2"/>
</g>
</svg>
