<svg width="1758" height="151" viewBox="0 0 1758 151" fill="none" xmlns="http://www.w3.org/2000/svg">
<g opacity="0.2">
<path d="M1707.78 50.2867C1719.11 49.5159 1720.08 54.4311 1727.73 58.2217C1737.84 63.2266 1745.03 61.6216 1751.44 74.6301C1754.49 80.8335 1758.15 101.613 1757.62 108.646C1756.7 120.693 1748.45 133.929 1737.52 139.224C1729.05 143.326 1714.6 150.295 1705.45 150.205C1690.07 150.052 1657.26 133.77 1654.41 116.808C1653.58 111.866 1652.77 95.806 1653.06 90.6215C1653.81 77.3649 1660.98 74.2975 1668.98 66.4206C1675.82 59.6893 1677.17 54.0984 1688.73 52.3932C1694.01 51.6118 1702.47 50.6457 1707.78 50.2867ZM1741.37 70.4436C1735.95 65.3648 1730.89 65.8029 1725.17 62.894C1722.46 61.516 1720.12 58.5173 1717.14 57.2027C1709.42 53.8028 1706.27 56.5217 1698.99 57.3875C1692.67 58.1372 1687.3 56.9651 1681.23 60.7452C1680.19 61.3946 1665.01 76.3935 1663.67 78.0143C1661.51 80.6329 1659.48 84.6505 1658.85 87.9713C1657.98 92.5644 1658.87 108.751 1659.42 113.893C1660.01 119.394 1663.34 124.505 1667.31 128.174C1671.28 131.843 1693.92 143.178 1699.09 143.891C1710.67 145.491 1727.47 138.807 1737.43 132.809C1745.11 128.179 1751.58 116.538 1752.29 107.547C1752.74 101.729 1748.61 81.0869 1745.8 76.0503C1745.28 75.137 1742.15 71.1826 1741.37 70.4488V70.4436Z" fill="#E76E2F"/>
<path d="M1741.37 70.4434C1742.16 71.1773 1745.29 75.1315 1745.8 76.0449C1748.61 81.0815 1752.74 101.724 1752.29 107.542C1751.59 116.538 1745.12 128.174 1737.43 132.804C1727.48 138.801 1710.67 145.485 1699.09 143.886C1693.92 143.173 1671.31 131.848 1667.31 128.169C1663.32 124.489 1660.01 119.389 1659.42 113.888C1658.87 108.746 1657.98 92.5589 1658.85 87.9658C1659.48 84.6503 1661.51 80.6327 1663.67 78.0088C1665 76.388 1680.19 61.3892 1681.24 60.7398C1687.3 56.9598 1692.67 58.1317 1698.99 57.382C1706.27 56.5162 1709.41 53.7973 1717.14 57.1973C1720.12 58.5119 1722.46 61.5106 1725.17 62.8885C1730.9 65.7975 1735.95 65.3593 1741.37 70.4381V70.4434ZM1677.37 77.4492C1682.15 75.6225 1684.71 78.7374 1689.51 78.6107C1705.31 78.1883 1701.73 56.8172 1686.58 63.9813C1679.72 67.2229 1682.72 73.838 1677.37 77.4545V77.4492ZM1726.68 70.2797C1719.59 71.8477 1719.67 83.4361 1727.95 85.4475C1744.27 89.4071 1740.03 67.3338 1726.68 70.2797ZM1705.59 87.1845C1695.35 88.1665 1695.74 104.596 1709.33 101.518C1717.65 99.6334 1715.02 86.2817 1705.59 87.1845ZM1670.72 93.5251C1664.34 95.4257 1664.09 107.23 1669.66 108.93C1685.43 113.74 1686.2 88.9161 1670.72 93.5251ZM1743.85 93.3033H1740.69C1740.45 95.2514 1740.63 96.4023 1742.29 97.511H1743.85V93.3033ZM1741.45 104.153C1735.05 97.6906 1723.4 108.176 1730.09 114.986C1737.39 122.409 1748.49 111.253 1741.45 104.153ZM1697.76 129.921C1703.5 136.204 1716.85 130.661 1712.69 120.767C1708.25 110.213 1688.9 120.239 1697.76 129.921ZM1678.42 124.969C1680.36 123.021 1674.98 118.101 1672.1 119.7C1671.39 122.15 1677.06 126.331 1678.42 124.969ZM1728.02 127.092C1725.21 124.299 1720.83 133.337 1726.43 131.299C1727.83 130.793 1728.64 127.704 1728.02 127.092Z" fill="#FFE0A9"/>
<path d="M1677.37 77.4495C1682.72 73.8331 1679.72 67.218 1686.58 63.9764C1701.73 56.8175 1705.31 78.1834 1689.51 78.6057C1684.71 78.7324 1682.15 75.6175 1677.37 77.4442V77.4495Z" fill="#E76E2F"/>
<path d="M1697.76 129.922C1688.9 120.239 1708.25 110.219 1712.69 120.767C1716.85 130.656 1703.5 136.204 1697.76 129.922Z" fill="#E76E2F"/>
<path d="M1726.68 70.2799C1740.03 67.334 1744.27 89.4073 1727.95 85.4477C1719.66 83.4363 1719.58 71.8479 1726.68 70.2799Z" fill="#E76E2F"/>
<path d="M1670.72 93.5253C1686.19 88.9163 1685.42 113.74 1669.66 108.931C1664.1 107.231 1664.34 95.4259 1670.72 93.5253Z" fill="#E76E2F"/>
<path d="M1705.59 87.1846C1715.02 86.2818 1717.65 99.6388 1709.33 101.518C1695.74 104.596 1695.35 88.1613 1705.59 87.1846Z" fill="#E76E2F"/>
<path d="M1741.45 104.153C1748.5 111.259 1737.39 122.409 1730.09 114.986C1723.39 108.176 1735.05 97.6907 1741.45 104.153Z" fill="#E76E2F"/>
<path d="M1678.42 124.97C1677.06 126.332 1671.39 122.15 1672.1 119.701C1674.98 118.101 1680.36 123.016 1678.42 124.97Z" fill="#E76E2F"/>
<path d="M1728.02 127.092C1728.64 127.71 1727.83 130.793 1726.43 131.3C1720.83 133.337 1725.21 124.299 1728.02 127.092Z" fill="#E76E2F"/>
<path d="M1743.85 93.3035V97.5164H1742.29C1740.63 96.4078 1740.45 95.2569 1740.69 93.3088H1743.85V93.3035Z" fill="#E76E2F"/>
</g>
<g opacity="0.2">
<path d="M43.512 42.3568C45.6078 42.2151 48.192 42.2431 49.3143 44.409C54.3587 56.6768 60.949 68.3998 65.8647 80.7085C68.1352 86.3933 70.6055 89.9813 65.2989 94.6367C57.8074 101.209 39.5858 106.116 29.8201 104.071C24.3002 102.916 23.9937 99.8332 23.0125 94.6844C20.4976 81.4657 20.6735 66.2309 18.4047 52.8017C18.3462 50.3639 20.4885 49.6977 21.8943 48.44C22.1962 48.1682 22.8512 48.1222 22.2832 47.4196C21.1783 46.0489 16.5092 43.6249 14.765 42.0642C10.3522 38.1096 5.15218 27.113 3.27518 21.4004C2.36757 18.6366 1.40524 16.758 3.51007 14.3647C8.52735 8.66052 32.0239 2.85913 39.7288 3.2688C43.3219 3.46034 44.964 4.31921 45.9298 8.02586C47.3144 13.349 48.4897 27.1283 47.1095 32.3735C46.7492 33.7415 42.9642 41.9422 43.512 42.3568ZM5.79706 20.3143C7.40887 21.0631 19.2883 19.3114 21.6424 18.7887C25.0319 18.0371 42.5306 12.4811 43.3557 9.5573C44.2464 6.40262 41.0905 5.72687 38.7868 5.68076C31.8003 5.53353 20.3089 8.69201 13.7505 11.3169C11.7288 12.1277 5.72369 14.6404 4.87237 16.4051C4.32013 17.546 4.61586 19.7701 5.79775 20.3168L5.79706 20.3143ZM12.211 34.2974C13.5704 36.6591 13.8344 37.7822 16.0109 39.8755C16.9154 40.7439 25.1511 47.1 25.7319 47.2927C28.2397 48.1176 39.5469 45.1015 40.8558 42.9654C41.7341 37.3549 45.6424 32.6569 45.5625 26.842C45.5488 25.8653 45.0032 24.9411 44.9604 24.1906C44.9513 24.0207 44.834 23.8591 44.8224 23.69C44.7847 23.1239 44.8512 22.4376 44.7705 21.5494C44.7356 21.1496 44.9355 20.5665 44.8566 19.9095C44.7777 19.2525 44.3889 18.5651 44.3044 17.907C44.2037 17.1321 44.276 12.8159 43.9226 12.6278C32.4344 18.7753 19.9113 22.1563 6.89971 22.8385C8.13421 26.9047 10.1121 30.65 12.2124 34.3024L12.211 34.2974ZM23.4634 50.1567C22.5336 50.5532 20.3456 52.059 22.1791 52.8112C25.9726 54.3643 46.6561 48.7299 46.544 45.5609C46.4317 44.6949 45.6526 44.7105 44.9858 44.6061C42.5385 44.2252 36.6988 47.9233 33.6924 48.7363C30.8636 49.5003 25.6291 49.2335 23.4634 50.1567ZM48.0276 47.0453C40.6622 52.9527 30.3383 55.4929 21.0173 54.4946C22.7348 67.5749 23.61 80.8417 25.9314 93.8174C26.9836 95.9245 33.768 95.5833 35.9768 95.4509C44.0142 94.977 52.8313 92.4887 59.5631 88.0032C60.5527 87.3451 63.6767 85.1234 63.9116 84.1401C64.7347 80.6916 49.3625 52.7054 48.0276 47.0453ZM65.2159 85.9406C57.051 93.5956 42.9907 97.8451 31.8938 97.4362C30.167 97.3738 27.8163 96.4544 26.4353 96.6306C24.6689 96.8538 26.8337 100.311 28.1749 101.015C35.521 104.878 60.7191 97.8176 65.5094 90.9585C66.7386 89.1973 65.6568 87.8418 65.2127 85.9387L65.2159 85.9406Z" fill="#E76E2F"/>
<path d="M48.0278 47.0453C49.3634 52.7079 64.7349 80.6916 63.9119 84.1401C63.6769 85.1234 60.5522 87.3427 59.5633 88.0033C52.8315 92.4888 44.0137 94.9745 35.977 95.4509C33.7676 95.5808 26.9838 95.9245 25.9316 93.8174C23.6102 80.8417 22.7332 67.5781 21.0175 54.4946C30.3385 55.4929 40.6625 52.9527 48.0278 47.0453ZM34.8416 58.3398C31.724 60.0184 33.3599 66.3308 37.2146 66.4852C44.6492 66.7836 42.7887 54.0632 34.8416 58.3398ZM33.6475 93.9547C34.6408 94.0714 40.2748 93.2583 41.5942 92.986C46.1848 92.0405 60.7833 88.6392 58.792 82.0828C57.6094 78.1854 54.0269 69.9884 52.1185 66.2508C50.0097 62.1187 46.3906 66.0986 43.0959 67.2524C37.8538 69.086 32.9007 69.5954 27.4728 70.1793C26.2697 71.6155 30.1383 87.5072 29.873 90.5864C29.6597 91.658 33.1924 93.9052 33.6482 93.9572L33.6475 93.9547Z" fill="#FCEEDB"/>
<path d="M12.2112 34.2974C10.1108 30.645 8.13294 26.8997 6.89844 22.8335C19.9108 22.1538 32.4338 18.7728 43.9213 12.6229C44.2747 12.8109 44.2024 17.1271 44.3031 17.902C43.7398 18.5341 43.9549 19.8512 44.8554 19.9045C44.9343 20.5615 44.7343 21.1446 44.7692 21.5444L44.8211 23.685C44.8328 23.8541 44.95 24.0157 44.9592 24.1856C44.4004 24.2777 43.8669 24.2175 43.32 24.099C39.5995 23.2988 40.4325 24.1034 37.8213 24.3872C37.0897 24.4678 36.0999 23.534 34.828 23.7447C33.2288 24.008 32.4769 25.5083 31.7104 25.5796C30.8002 25.6663 28.8381 24.3408 27.0972 24.8614C25.6125 25.3058 24.8861 27.2597 23.9996 27.7062C22.8843 28.2697 20.3386 28.9179 18.2426 29.9081C15.559 31.1788 15.4723 29.9179 13.4348 32.8771C13.085 33.3857 13.2922 34.2928 12.2098 34.2924L12.2112 34.2974Z" fill="#FDFDFC"/>
<path d="M5.79817 20.3143C4.61628 19.7675 4.32054 17.5434 4.87279 16.4025C5.72479 14.6403 11.7293 12.1251 13.7509 11.3143C20.3093 8.68942 31.8033 5.53025 38.7872 5.67818C41.0916 5.72679 44.2443 6.40072 43.3561 9.55471C42.531 12.4785 25.0323 18.0345 21.6429 18.7861C19.2912 19.3081 7.4118 21.0598 5.79749 20.3118L5.79817 20.3143ZM41.7651 6.75317C30.8322 13.1569 18.9024 15.6632 6.42668 16.58C4.99679 16.6862 6.06877 18.3084 7.45312 18.5057C8.5683 18.6641 10.617 18.293 11.8754 18.1507C19.5997 17.2836 34.1144 13.8516 40.5303 9.63642C41.7247 8.85183 42.4829 8.3114 41.7651 6.75317Z" fill="#A4D9CD"/>
<path d="M65.2167 85.9406C65.6608 87.8436 66.7427 89.1991 65.5135 90.9603C60.7232 97.8194 35.5275 104.879 28.179 101.017C26.8377 100.312 24.6729 96.8556 26.4393 96.6324C27.821 96.4587 30.171 97.3756 31.8978 97.4381C42.9922 97.8476 57.0543 93.5949 65.2199 85.9424L65.2167 85.9406Z" fill="#A4D9CD"/>
<path d="M44.9605 24.1881C45.0057 24.9379 45.5489 25.8628 45.5625 26.8395C45.6424 32.6544 41.7341 37.3525 40.8558 42.963C39.5469 45.099 28.2397 48.1151 25.7319 47.2902C25.1518 47.1 16.9129 40.7421 16.0109 39.873C13.8345 37.7797 13.5705 36.6566 12.2111 34.2949C13.2935 34.2953 13.0864 33.3882 13.4361 32.8796C14.9583 39.1506 22.1639 41.5862 26.3227 45.8694C29.2596 46.3173 38.0593 44.3322 39.3152 41.8768C40.4022 35.8908 45.5299 30.3528 43.3231 24.0983C43.87 24.2168 44.4035 24.2771 44.9623 24.1849L44.9605 24.1881Z" fill="#FCEEDB"/>
<path d="M23.4618 50.1567C25.6274 49.2335 30.8619 49.5003 33.6907 48.7363C36.6971 47.9233 42.5369 44.2252 44.9841 44.6062C45.6509 44.7105 46.4326 44.6942 46.5424 45.5609C46.6552 48.7325 25.9717 54.3668 22.1774 52.8112C20.3414 52.0597 22.5313 50.5507 23.4618 50.1567Z" fill="#FCEEDB"/>
<path d="M44.8218 23.6873L44.7699 21.5468C44.8506 22.435 44.7842 23.1213 44.8218 23.6873Z" fill="#FCEEDB"/>
<path d="M44.8555 19.907C43.9551 19.8536 43.7399 18.5366 44.3032 17.9044C44.3878 18.5626 44.7773 19.2525 44.8555 19.907Z" fill="#FCEEDB"/>
<path d="M33.6464 93.9547C33.1931 93.9019 29.6579 91.6554 29.8712 90.5838C30.1365 87.5046 26.2679 71.6129 27.471 70.1768C32.8996 69.5954 37.8552 69.0852 43.0941 67.2498C46.3888 66.096 50.0079 62.1162 52.1167 66.2483C54.0251 69.9859 57.6077 78.1829 58.7902 82.0802C60.779 88.6373 46.183 92.0379 41.5924 92.9834C40.2705 93.2564 34.6383 94.0663 33.6457 93.9522L33.6464 93.9547ZM34.1885 71.4379C33.7028 71.2486 29.254 71.9368 29.1191 72.1895L30.8335 80.3387C34.1677 77.3075 38.1704 77.852 41.97 76.7718C45.5976 75.7417 48.571 73.3836 52.8451 74.2681L50.1381 66.3953C49.815 66.2097 46.2675 67.8722 45.8489 68.3944C45.1576 69.2557 45.9703 71.1676 45.3015 72.3056C44.339 73.9501 40.8926 75.0811 39.0506 75.1474C35.0759 75.29 35.2062 71.8386 34.1866 71.4411L34.1885 71.4379ZM43.4072 69.3318C43.1174 69.1693 38.1755 70.9497 37.1561 71.0504C36.9216 75.7937 46.064 70.8239 43.4072 69.3318Z" fill="#E76E2F"/>
<path d="M34.8405 58.3398C42.79 54.0625 44.6481 66.7835 37.2135 66.4852C33.3588 66.3308 31.7222 60.0159 34.8405 58.3398ZM36.7265 59.4384C34.1515 60.4099 35.128 64.7708 37.5172 64.5213C41.3459 64.1226 39.772 58.2888 36.7265 59.4384Z" fill="#E76E2F"/>
<path d="M43.3202 24.1013C45.5271 30.3559 40.4025 35.8957 39.3123 41.8798C38.0565 44.3352 29.256 46.3179 26.3198 45.8724C22.161 41.5892 14.9554 39.1536 13.4332 32.8827C15.4676 29.9216 15.5542 31.1826 18.241 29.9136C20.337 28.9234 22.882 28.2727 23.998 27.7117C24.8845 27.2652 25.6102 25.3089 27.0956 24.8669C28.8365 24.3464 30.7986 25.6719 31.7088 25.5852C32.4753 25.5138 33.2297 24.0129 34.8265 23.7503C36.1015 23.5414 37.0881 24.4733 37.8197 24.3928C40.4309 24.109 39.5979 23.3044 43.3184 24.1045L43.3202 24.1013ZM31.0824 28.5458C31.1458 25.7889 26.2581 26.1645 26.1566 28.0807C25.9921 31.2129 29.6323 29.6918 31.0824 28.5458ZM36.6311 25.4909C36.1527 25.0545 34.3223 25.5243 33.7429 26.01C33.3886 26.307 32.1654 30.6767 31.459 31.122C30.6336 31.6432 29.7152 30.7437 29.2985 30.8532C29.0576 30.9169 28.5652 31.7477 27.99 32.0733C27.1317 32.5632 24.5006 32.5212 26.2359 34.1274C26.3448 34.2294 28.904 34.5283 29.2154 34.437C30.1323 34.1599 30.5804 32.5926 31.8426 32.1125C33.1047 31.6324 34.3117 32.1237 35.7959 31.4531C37.6345 30.6228 36.5391 29.4623 37.0338 28.7764C38.386 26.8951 39.5558 30.7367 41.5751 30.503C43.6992 21.5026 37.708 27.707 37.2277 27.4004C37.0005 26.8597 37.0143 25.8458 36.6261 25.4923L36.6311 25.4909ZM19.0454 35.6418C18.3167 30.8032 22.6035 33.276 24.0858 32.4228C26.6791 30.9319 24.6315 28.7788 21.8296 29.6108C20.7993 29.9165 20.8953 31.2502 19.823 31.6672C18.4713 32.1935 14.3386 31.0895 15.4051 34.1758C15.6056 34.7562 17.2136 36.6723 17.7478 36.8132C18.5342 37.0192 19.6567 36.4429 19.8233 36.5101C20.0364 36.5995 18.9599 39.1778 21.6772 40.3328C22.2568 40.5796 23.0625 40.309 23.46 40.501C24.1526 40.8352 25.4352 42.938 26.5938 43.537C28.6221 44.5856 32.578 44.0818 30.312 41.8004C30.0841 41.5697 28.9303 41.7398 28.6873 41.3273C28.0556 40.2571 30.5702 38.4027 30.5128 38.0872C30.0118 35.3433 27.2263 36.0199 25.701 35.4386C24.7147 35.0641 23.6639 33.5385 22.9964 33.5583C22.0834 33.5865 20.2923 35.5943 19.0447 35.6393L19.0454 35.6418ZM36.0201 34.7259C32.6979 30.0207 29.0088 38.2273 33.7143 37.0346C34.5097 36.8341 34.4874 34.7716 36.0201 34.7259ZM40.9715 31.2136C37.3206 32.6084 36.1656 31.9249 38.5721 36.1797L34.5755 37.2873C34.3507 37.6536 36.697 40.1284 35.2804 40.8585C33.8451 41.5991 33.475 38.7733 33.3441 38.6989C33.0969 38.5543 30.5613 39.8543 30.5018 40.0484C29.8746 42.1473 32.2323 41.0715 32.3603 41.1547C32.7453 41.3987 32.7142 42.9749 32.9489 43.123C33.1453 43.2493 36.81 42.139 37.3883 41.6293C37.8044 41.264 41.5177 31.5344 40.9683 31.2118L40.9715 31.2136Z" fill="#E76E2F"/>
<path d="M41.7639 6.75313C42.4792 8.31205 41.721 8.85248 40.5292 9.63638C34.1132 13.8516 19.5985 17.2836 11.8742 18.1506C10.6158 18.293 8.5678 18.6666 7.45193 18.5056C6.06758 18.3083 4.9956 16.6861 6.42549 16.58C18.9013 15.6631 30.831 13.1568 41.7639 6.75313Z" fill="#E76E2F"/>
<path d="M34.1896 71.438C35.2067 71.8363 35.0788 75.287 39.0535 75.1443C40.8955 75.078 44.3394 73.9478 45.3044 72.3025C45.9725 71.162 45.1606 69.2527 45.8518 68.3913C46.2705 67.8691 49.8161 66.2098 50.141 66.3922L52.848 74.2651C48.5771 73.3824 45.6037 75.7404 41.9729 76.7687C38.1726 77.8464 34.1706 77.3044 30.8365 80.3357L29.122 72.1865C29.2576 71.9363 33.7057 71.2455 34.1914 71.4348L34.1896 71.438Z" fill="#A4D9CD"/>
<path d="M43.4081 69.3317C46.0649 70.8238 36.9226 75.7937 37.157 71.0503C38.1765 70.9496 43.1183 69.1692 43.4081 69.3317Z" fill="#A4D9CD"/>
<path d="M36.7276 59.4385C39.7738 58.2913 41.3477 64.1251 37.5183 64.5213C35.1292 64.7708 34.1519 60.4074 36.7276 59.4385Z" fill="#A4D9CD"/>
<path d="M19.0455 35.6419C20.2905 35.5976 22.0849 33.5916 22.9971 33.5609C23.6647 33.5411 24.7155 35.0668 25.7018 35.4412C27.227 36.0225 30.0126 35.3459 30.5136 38.0898C30.571 38.4053 28.0539 40.2604 28.6881 41.3299C28.9311 41.7424 30.0849 41.5723 30.3127 41.8031C32.5795 44.087 28.6236 44.5908 26.5945 43.5396C25.4327 42.9388 24.1527 40.8354 23.4608 40.5036C23.0632 40.3116 22.2576 40.5823 21.678 40.3354C18.9632 39.1797 20.0372 36.6021 19.8241 36.5127C19.6575 36.4455 18.535 37.0218 17.7486 36.8158C17.2144 36.6749 15.6063 34.7588 15.4059 34.1784C14.3387 31.0896 18.4714 32.1936 19.8238 31.6698C20.896 31.2529 20.8026 29.9184 21.8304 29.6134C24.6298 28.7821 26.6767 30.9326 24.0866 32.4254C22.6018 33.2793 18.315 30.8065 19.0462 35.6445L19.0455 35.6419ZM25.7223 36.521C23.4284 35.7396 20.5429 39.8511 22.5706 39.5209C24.7432 39.1695 25.3751 38.3272 25.983 41.2733C29.6221 40.3532 26.0829 38.7461 25.7216 36.5185L25.7223 36.521Z" fill="#FCD3A2"/>
<path d="M36.6317 25.4912C37.02 25.8447 37.0036 26.8593 37.2333 27.3993C37.7136 27.7059 43.7048 21.5014 41.5808 30.5019C39.5608 30.7331 38.3916 26.894 37.0394 28.7753C36.5455 29.4637 37.6409 30.6242 35.8016 31.452C34.3174 32.1226 33.0885 31.64 31.8482 32.1114C30.6079 32.5827 30.1405 34.1581 29.221 34.4359C28.9103 34.5297 26.3529 34.2276 26.2415 34.1263C24.507 32.5226 27.1374 32.5621 27.9957 32.0722C28.5676 31.7447 29.0607 30.9165 29.3041 30.8521C29.7208 30.7425 30.6392 31.6421 31.4647 31.1209C32.171 30.6755 33.3943 26.3059 33.7485 26.0089C34.328 25.5232 36.1583 25.0534 36.6367 25.4898L36.6317 25.4912Z" fill="#FCD3A2"/>
<path d="M40.9724 31.2138C41.5192 31.537 37.8078 41.2635 37.3923 41.6313C36.8141 42.1409 33.1493 43.2513 32.953 43.125C32.7176 42.9744 32.7486 41.3982 32.3643 41.1567C32.2371 41.076 29.8793 42.1518 30.5059 40.0504C30.5647 39.8537 33.1003 38.5538 33.3481 38.7009C33.4797 38.7778 33.8491 41.6011 35.2844 40.8605C36.7011 40.1304 34.3548 37.6556 34.5795 37.2893L38.5761 36.1816C36.1672 31.9276 37.324 32.6079 40.9756 31.2156L40.9724 31.2138Z" fill="#FCD3A2"/>
<path d="M31.0813 28.5459C29.6313 29.692 25.9917 31.2156 26.1556 28.0809C26.2571 26.1647 31.1448 25.7891 31.0813 28.5459Z" fill="#FCD3A2"/>
<path d="M36.021 34.726C34.4908 34.7709 34.5106 36.8341 33.7151 37.0346C29.0072 38.228 32.6988 30.0207 36.021 34.726Z" fill="#FCD3A2"/>
<path d="M25.7229 36.521C26.0835 38.7461 29.6227 40.3532 25.9843 41.2758C25.3764 38.3297 24.7438 39.1695 22.5719 39.5234C20.5435 39.8511 23.429 35.7395 25.7236 36.5235L25.7229 36.521Z" fill="#E76E2F"/>
</g>
</svg>
